<?xml version="1.0" encoding="UTF-8" standalone="no"?>
<svg
   viewBox="0 0 656.80536 591.75153"
   version="1.1"
   id="svg36669"
   sodipodi:docname="cart.svg"
   inkscape:version="1.2.2 (732a01da63, 2022-12-09)"
   xmlns:inkscape="http://www.inkscape.org/namespaces/inkscape"
   xmlns:sodipodi="http://sodipodi.sourceforge.net/DTD/sodipodi-0.dtd"
   xmlns="http://www.w3.org/2000/svg"
   xmlns:svg="http://www.w3.org/2000/svg">
  <defs
     id="defs36673" />
  <sodipodi:namedview
     id="namedview36671"
     pagecolor="#ffffff"
     bordercolor="#cccccc"
     borderopacity="1"
     inkscape:showpageshadow="0"
     inkscape:pageopacity="1"
     inkscape:pagecheckerboard="0"
     inkscape:deskcolor="#d1d1d1"
     showgrid="false"
     inkscape:zoom="0.3292056"
     inkscape:cx="-176.18169"
     inkscape:cy="343.25054"
     inkscape:window-width="1366"
     inkscape:window-height="705"
     inkscape:window-x="-8"
     inkscape:window-y="-8"
     inkscape:window-maximized="1"
     inkscape:current-layer="svg36669" />
  <g
     transform="matrix(.5478 0 0 .5478 113.91 199.95)"
     id="g36667"
     style="fill:#c6ff00;fill-opacity:1">
    <path
       d="m39.598 563.04c190.45-82.024 519.49-59.397 692.96 53.74 63.168-78.253 41.484-266.81-31.113-288.5 49.969-191.39-49.969-600.57 192.33-613.77 97.109 103.71 157.45-126.34 2.8284-70.711-319.58 30.77-208.16 428.58-282.84 664.68-267.76-58.454-716.53 69.768-625.08 141.42 265.87-71.653 593.97-157.45 712.76 87.681-131.99-131.99-620.37-108.42-661.85 25.456z"
       id="path36649"
       style="fill:#c6ff00;fill-opacity:1" />
    <path
       d="m59.397 319.8c-212.13-178.19-690.58-697.5 574.17-444.06-930.55-50.912-808.93 28.284-574.17 444.06z"
       id="path36651"
       style="fill:#c6ff00;fill-opacity:1" />
    <path
       d="m-98.995 36.957c207.42-68.825 457.26-95.224 684.48-50.912-214.02-15.085-461.98 37.712-661.85 104.65l-22.627-53.74z"
       id="path36653"
       style="fill:#c6ff00;fill-opacity:1" />
    <path
       d="m-31.113 167.06 31.113 59.397c140.48-90.51 334.7-130.11 534.57-118.79-148.02-76.368-335.64-48.083-565.69 59.397z"
       id="path36655"
       style="fill:#c6ff00;fill-opacity:1" />
    <path
       d="m-87.681-107.29 82.024-36.77c118.79 143.31 181.02 292.27 220.62 446.89-75.425-145.19-159.33-276.24-302.64-410.12z"
       id="path36657"
       style="fill:#c6ff00;fill-opacity:1" />
    <path
       d="m82.024-158.2 70.711-2.8284c107.48 130.11 152.74 263.04 152.74 398.81-40.541-131.99-103.71-263.99-223.45-395.98z"
       id="path36659"
       style="fill:#c6ff00;fill-opacity:1" />
    <path
       d="m280.01-155.38 67.882 2.8284c43.369 112.19 75.425 218.73 70.711 336.58-15.085-118.79-69.768-223.45-138.59-339.41z"
       id="path36661"
       style="fill:#c6ff00;fill-opacity:1" />
    <path
       d="m102.33 514.65c-17.018 0.24383-32.895 5.0865-45.625 14.969-37.032 28.748-33.575 89.261 7.7188 135.09s104.87 59.717 141.91 30.969 33.575-89.292-7.7188-135.12c-27.099-30.078-63.792-46.372-96.281-45.906zm29.125 57.406c14.227-0.21959 30.29 7.4986 42.156 21.688 18.082 21.621 19.622 50.157 3.4062 63.719s-44.074 7.0274-62.156-14.594-19.591-50.188-3.375-63.75c5.5742-4.6618 12.517-6.9475 19.969-7.0625z"
       stroke="#fffdff"
       stroke-linecap="round"
       stroke-linejoin="round"
       stroke-width="9.1274"
       id="path36663"
       style="fill:#c6ff00;fill-opacity:1" />
    <path
       d="m607.21 514.65c-17.018 0.24383-32.895 5.0865-45.625 14.969-37.032 28.748-33.575 89.261 7.7188 135.09s104.87 59.717 141.91 30.969 33.575-89.292-7.7188-135.12c-27.099-30.078-63.792-46.372-96.281-45.906zm29.125 57.406c14.227-0.21959 30.29 7.4986 42.156 21.688 18.082 21.621 19.622 50.157 3.4062 63.719s-44.074 7.0274-62.156-14.594-19.591-50.188-3.375-63.75c5.5742-4.6618 12.517-6.9475 19.969-7.0625z"
       stroke="#fffdff"
       stroke-linecap="round"
       stroke-linejoin="round"
       stroke-width="9.1274"
       id="path36665"
       style="fill:#c6ff00;fill-opacity:1" />
  </g>
</svg>
