<?xml version="1.0" encoding="UTF-8" standalone="no"?>
<svg
   viewBox="0 0 1085.1096 1037.3103"
   height="1037.3103"
   width="1085.1096"
   id="svg2"
   version="1.1"
   sodipodi:docname="deals.svg"
   inkscape:version="1.2.2 (732a01da63, 2022-12-09)"
   xmlns:inkscape="http://www.inkscape.org/namespaces/inkscape"
   xmlns:sodipodi="http://sodipodi.sourceforge.net/DTD/sodipodi-0.dtd"
   xmlns="http://www.w3.org/2000/svg"
   xmlns:svg="http://www.w3.org/2000/svg">
  <sodipodi:namedview
     id="namedview580"
     pagecolor="#505050"
     bordercolor="#eeeeee"
     borderopacity="1"
     inkscape:showpageshadow="0"
     inkscape:pageopacity="0"
     inkscape:pagecheckerboard="0"
     inkscape:deskcolor="#505050"
     showgrid="false"
     inkscape:zoom="0.13059254"
     inkscape:cx="-673.85168"
     inkscape:cy="589.62022"
     inkscape:window-width="1366"
     inkscape:window-height="705"
     inkscape:window-x="-8"
     inkscape:window-y="-8"
     inkscape:window-maximized="1"
     inkscape:current-layer="svg2" />
  <metadata
     id="metadata8" />
  <defs
     id="defs6">
    <clipPath
       id="clipPath18"
       clipPathUnits="userSpaceOnUse">
      <path
         id="path16"
         d="M 0,533 H 1067 V 0 H 0 Z" />
    </clipPath>
    <clipPath
       id="clipPath58"
       clipPathUnits="userSpaceOnUse">
      <path
         id="path56"
         d="M 0,533 H 1067 V 0 H 0 Z" />
    </clipPath>
  </defs>
  <g
     transform="matrix(0.97762014,0.90666232,0.90666232,-0.97762014,-277.59854,228.42551)"
     id="g10"
     style="display:inline;fill:#666666">
    <g
       id="g12"
       style="fill:#666666">
      <g
         clip-path="url(#clipPath18)"
         id="g14"
         style="fill:#666666">
        <g
           transform="translate(86.8405,263.4196)"
           id="g20"
           style="fill:#666666">
          <path
             id="path22"
             style="fill:#666666;fill-opacity:1;fill-rule:nonzero;stroke:none"
             d="m 0,0 c 0,25.086 14.222,53.881 78.335,53.881 30.662,0 67.491,-6.862 96.112,-17.908 27.945,-10.786 45.305,-24.57 45.305,-35.973 0,-0.008 -0.002,-0.016 -0.002,-0.024 h 18.841 c 0,0.008 0.001,0.016 0.001,0.024 0,20.549 -19.835,39.066 -57.361,53.55 C 150.126,65.555 111.66,72.722 78.335,72.722 45.659,72.722 16.319,65.84 0.982,51.683 -12.171,39.542 -18.841,22.153 -18.841,0 c 0,-0.008 0.001,-0.016 0.001,-0.024 H 0 C 0,-0.016 0,-0.008 0,0" />
        </g>
        <g
           transform="translate(313.6936,236.4436)"
           id="g24"
           style="fill:#666666">
          <path
             id="path26"
             style="fill:#666666;fill-opacity:1;fill-rule:nonzero;stroke:none"
             d="m 0,0 c -15.03,0 -27.214,12.184 -27.214,27.214 0,15.03 12.184,27.214 27.214,27.214 15.03,0 27.214,-12.184 27.214,-27.214 C 27.214,12.184 15.03,0 0,0 M 645.027,216.666 H 158.236 c -18.467,0 -36.51,-6.711 -51.797,-19.267 L -40.974,76.315 c -30.947,-25.419 -30.947,-72.782 0,-98.202 L 106.439,-142.97 c 15.287,-12.556 33.33,-19.268 51.797,-19.268 h 486.791 c 18.932,0 34.279,15.347 34.279,34.279 v 310.346 c 0,18.932 -15.347,34.279 -34.279,34.279" />
        </g>
        <g
           transform="translate(431.3545,199.2285)"
           id="g28"
           style="fill:#666666" />
        <g
           transform="translate(888.3623,283.1597)"
           id="g36"
           style="fill:#666666">
          <path
             id="path38"
             style="fill:#666666;fill-opacity:1;fill-rule:nonzero;stroke:none"
             d="m 0,0 v 0.346 c 0,8.129 -4.497,15.22 -11.416,15.22 -7.264,0 -11.069,-6.918 -11.069,-14.874 V 0.346 c 0,-8.129 4.497,-15.221 11.416,-15.221 C -3.806,-14.875 0,-7.783 0,0 m -40.646,0 v 0.346 c 0,17.123 11.934,30.96 29.577,30.96 17.468,0 29.229,-13.664 29.229,-30.614 V 0.346 c 0,-16.95 -11.933,-30.96 -29.576,-30.96 -17.469,0 -29.23,13.664 -29.23,30.614 m -33.726,61.919 v 0.346 c 0,8.129 -4.497,15.22 -11.416,15.22 -7.264,0 -11.069,-6.918 -11.069,-14.874 v -0.346 c 0,-8.129 4.497,-15.221 11.416,-15.221 7.263,0 11.069,7.092 11.069,14.875 m 59.843,29.922 H 6.053 L -82.328,-29.23 H -102.91 Z M -115.018,61.919 v 0.346 c 0,17.123 11.934,30.96 29.577,30.96 17.468,0 29.229,-13.664 29.229,-30.614 v -0.346 c 0,-16.95 -11.934,-30.959 -29.576,-30.959 -17.469,0 -29.23,13.663 -29.23,30.613" />
        </g>
        <g
           transform="translate(815.0322,199.4268)"
           id="g40"
           style="fill:#666666">
          <path
             id="path42"
             style="fill:#666666;fill-opacity:1;fill-rule:nonzero;stroke:none"
             d="m 0,0 v 0.178 c 0,10.654 -7.813,19.533 -18.823,19.533 -11.01,0 -18.647,-8.701 -18.647,-19.357 V 0.178 c 0,-10.656 7.814,-19.534 18.824,-19.534 C -7.636,-19.356 0,-10.655 0,0 m -51.765,0 v 0.178 c 0,17.669 13.941,32.141 33.119,32.141 19.179,0 32.942,-14.295 32.942,-31.965 V 0.178 c 0,-17.67 -13.941,-32.143 -33.119,-32.143 -19.179,0 -32.942,14.295 -32.942,31.965" />
        </g>
        <g
           transform="translate(837.0488,230.6807)"
           id="g44"
           style="fill:#666666">
          <path
             id="path46"
             style="fill:#666666;fill-opacity:1;fill-rule:nonzero;stroke:none"
             d="M 0,0 H 47.326 V -12.431 H 13.674 V -25.66 H 43.33 V -38.091 H 13.674 V -62.153 H 0 Z" />
        </g>
        <g
           transform="translate(890.8545,230.6807)"
           id="g48"
           style="fill:#666666">
          <path
             id="path50"
             style="fill:#666666;fill-opacity:1;fill-rule:nonzero;stroke:none"
             d="M 0,0 H 47.326 V -12.431 H 13.674 V -25.66 H 43.33 V -38.091 H 13.674 V -62.153 H 0 Z" />
        </g>
      </g>
      <g
         id="layer4"
         style="display:inline;fill:#666666" />
    </g>
    <g
       id="g52"
       style="fill:#666666">
      <g
         clip-path="url(#clipPath58)"
         id="g54"
         style="fill:#666666">
        <g
           transform="translate(87.8228,211.7359)"
           id="g60"
           style="fill:#666666">
          <path
             id="path62"
             style="fill:#666666;fill-opacity:1;fill-rule:nonzero;stroke:none"
             d="m 0,0 c 15.337,-14.156 44.677,-21.038 77.353,-21.038 33.325,0 71.79,7.167 102.895,19.172 37.512,14.478 57.346,32.986 57.361,53.526 H 218.768 C 218.744,40.262 201.391,26.489 173.465,15.711 144.844,4.664 108.016,-2.198 77.353,-2.198 13.259,-2.198 -0.977,26.58 -0.982,51.66 h -18.84 C -19.818,29.518 -13.149,12.137 0,0" />
        </g>
      </g>
    </g>
  </g>
</svg>
