<?xml version="1.0" encoding="UTF-8"?>
<svg version="1.1" viewBox="0 0 200 200" xmlns="http://www.w3.org/2000/svg">
 <g transform="translate(-167.43 -202.33)">
  <path transform="matrix(1.1002 0 0 1.0536 -16.642 -21.702)" d="m349.08 307.54c0 52.418-40.693 94.912-90.89 94.912s-90.89-42.494-90.89-94.912 40.693-94.912 90.89-94.912 90.89 42.494 90.89 94.912z" fill="#eaa"/>
  <path transform="matrix(.92055 0 0 .88687 130.82 174.18)" d="m243.71 144.5c0 54.64-42.674 98.934-95.314 98.934-52.641 0-95.314-44.294-95.314-98.934s42.674-98.934 95.314-98.934c52.641 0 95.314 44.294 95.314 98.934z" fill="none" stroke="#fff" stroke-width="5"/>
  <g fill="none" stroke="#fff" stroke-width="21">
   <path transform="translate(167.43 202.33)" d="m150 50-100 100"/>
   <path transform="translate(167.43 202.33)" d="m50 50 100 100"/>
  </g>
 </g>
</svg>
