<?xml version="1.0" encoding="UTF-8" standalone="no"?>
<svg
   enable-background="new 0 0 1000 1000"
   version="1.1"
   viewBox="0 0 140.11833 114.34237"
   id="svg462"
   sodipodi:docname="diamond.svg"
   inkscape:version="1.2.2 (732a01da63, 2022-12-09)"
   width="140.11833"
   height="114.34237"
   xmlns:inkscape="http://www.inkscape.org/namespaces/inkscape"
   xmlns:sodipodi="http://sodipodi.sourceforge.net/DTD/sodipodi-0.dtd"
   xmlns="http://www.w3.org/2000/svg"
   xmlns:svg="http://www.w3.org/2000/svg">
  <defs
     id="defs466" />
  <sodipodi:namedview
     id="namedview464"
     pagecolor="#ffffff"
     bordercolor="#cccccc"
     borderopacity="1"
     inkscape:showpageshadow="0"
     inkscape:pageopacity="1"
     inkscape:pagecheckerboard="0"
     inkscape:deskcolor="#d1d1d1"
     showgrid="false"
     inkscape:zoom="0.2755"
     inkscape:cx="-34.482759"
     inkscape:cy="-145.19056"
     inkscape:window-width="1366"
     inkscape:window-height="705"
     inkscape:window-x="-8"
     inkscape:window-y="-8"
     inkscape:window-maximized="1"
     inkscape:current-layer="svg462" />
  <linearGradient
     id="p"
     x1="550.46997"
     x2="796.09998"
     y1="824.59998"
     y2="824.59998"
     gradientUnits="userSpaceOnUse">
    <stop
       stop-color="#386CAF"
       stop-opacity=".0306"
       offset="0"
       id="stop280" />
    <stop
       stop-color="#386CB0"
       offset=".7296"
       id="stop282" />
    <stop
       stop-color="#386CAF"
       stop-opacity="0"
       offset="1"
       id="stop284" />
  </linearGradient>
  <linearGradient
     id="q"
     x1="549.28998"
     x2="797.28998"
     y1="824.70001"
     y2="824.70001"
     gradientUnits="userSpaceOnUse">
    <stop
       stop-color="#386CB0"
       offset="0"
       id="stop287" />
    <stop
       stop-color="#386CAF"
       stop-opacity="0"
       offset="1"
       id="stop289" />
  </linearGradient>
  <polygon
     points="550.47,761.2 796.1,762.71 672.47,887.99 "
     fill="url(#p)"
     opacity="0.8"
     stroke="url(#q)"
     stroke-miterlimit="10"
     id="polygon292"
     style="fill:url(#p);stroke:url(#q)"
     transform="translate(-1644.8568,-1790.5365)" />
  <linearGradient
     id="r"
     x1="616.87"
     x2="735.03998"
     y1="824.70001"
     y2="824.70001"
     gradientUnits="userSpaceOnUse">
    <stop
       stop-color="#386CB0"
       offset="0"
       id="stop294" />
    <stop
       stop-color="#386CAF"
       stop-opacity="0"
       offset="1"
       id="stop296" />
  </linearGradient>
  <polygon
     points="617.65,761.38 734.25,762.1 675.13,887.33 "
     fill="#2e58a6"
     opacity="0.2"
     stroke="url(#r)"
     stroke-miterlimit="10"
     id="polygon299"
     style="stroke:url(#r)"
     transform="translate(-1644.8568,-1790.5365)" />
  <linearGradient
     id="s"
     x1="549.91998"
     x2="797.01001"
     y1="740.21002"
     y2="740.21002"
     gradientUnits="userSpaceOnUse">
    <stop
       stop-color="#386CB0"
       offset="0"
       id="stop301" />
    <stop
       stop-color="#386CAF"
       stop-opacity="0"
       offset="1"
       id="stop303" />
  </linearGradient>
  <polygon
     points="551.56,761.29 616.54,717.9 733.59,718.86 795.42,762.51 "
     fill="#2e58a6"
     opacity="0.3"
     stroke="url(#s)"
     stroke-miterlimit="10"
     id="polygon306"
     style="stroke:url(#s)"
     transform="translate(-1644.8568,-1790.5365)" />
  <linearGradient
     id="t"
     x1="616.26001"
     x2="733.85999"
     y1="739.92999"
     y2="739.92999"
     gradientUnits="userSpaceOnUse"
     gradientTransform="translate(-1644.8568,-1790.5365)">
    <stop
       stop-color="#386CB0"
       offset="0"
       id="stop308" />
    <stop
       stop-color="#386CAF"
       stop-opacity="0"
       offset="1"
       id="stop310" />
  </linearGradient>
  <rect
     x="-1028.0968"
     y="-1072.3966"
     width="116.6"
     height="43.591"
     fill="#00a0c6"
     opacity="0.1"
     stroke="url(#t)"
     stroke-miterlimit="10"
     id="rect313"
     style="stroke:url(#t)" />
  <linearGradient
     id="u"
     x1="616.76001"
     x2="733.82001"
     y1="740.03998"
     y2="740.03998"
     gradientUnits="userSpaceOnUse">
    <stop
       stop-color="#386CB0"
       offset="0"
       id="stop315" />
    <stop
       stop-color="#386CAF"
       stop-opacity="0"
       offset="1"
       id="stop317" />
  </linearGradient>
  <polygon
     points="733.82,761.94 616.76,761.94 675.29,718.14 "
     fill="url(#u)"
     id="polygon320"
     style="fill:url(#u)"
     transform="translate(-1644.8568,-1790.5365)" />
  <linearGradient
     id="v"
     x1="616.53998"
     x2="733.59003"
     y1="740.03998"
     y2="740.03998"
     gradientUnits="userSpaceOnUse">
    <stop
       stop-color="#386CB0"
       offset="0"
       id="stop322" />
    <stop
       stop-color="#386CAF"
       stop-opacity="0"
       offset="1"
       id="stop324" />
  </linearGradient>
  <polygon
     points="616.54,717.9 733.59,718.86 674.68,762.18 "
     fill="url(#v)"
     opacity="0.4"
     id="polygon327"
     style="fill:url(#v)"
     transform="translate(-1644.8568,-1790.5365)" />
  <g
     fill="#f2f2f2"
     id="g345"
     transform="translate(-1644.8568,-1790.5365)">
    <polygon
       points="579.72,757.39 593.88,745.19 584.06,761.06 595.71,773.2 579.53,764.59 565.27,774.88 576.25,761.37 563.45,746.87 "
       id="polygon329" />
    <polygon
       points="582.08,758.34 601.42,759.7 582.08,763.76 580.24,779.88 576.18,763.08 558.31,760.38 576.55,758.68 579.5,740.2 "
       id="polygon331" />
    <polygon
       points="618.07,768.22 626.88,760.04 620.77,770.67 628.01,778.81 617.96,773.04 609.09,779.94 615.92,770.88 607.96,761.16 "
       id="polygon333" />
    <polygon
       points="619.54,768.85 631.57,769.76 619.54,772.48 618.39,783.28 615.88,772.03 604.76,770.21 616.1,769.08 617.94,756.69 "
       id="polygon335" />
    <polygon
       points="718.08,798.62 723.35,794.63 719.69,799.82 724.03,803.79 718.01,800.98 712.7,804.34 716.79,799.92 712.03,795.18 "
       id="polygon337" />
    <polygon
       points="718.96,798.93 726.15,799.38 718.96,800.71 718.27,805.98 716.76,800.48 710.11,799.6 716.9,799.04 718,793 "
       id="polygon339" />
    <polygon
       points="780.58,760.34 785.86,756.35 782.2,761.54 786.54,765.51 780.52,762.69 775.21,766.06 779.3,761.64 774.53,756.9 "
       id="polygon341" />
    <polygon
       points="781.46,760.65 788.66,761.09 781.46,762.42 780.78,767.69 779.27,762.2 772.62,761.32 779.41,760.76 780.5,754.72 "
       id="polygon343" />
  </g>
  <linearGradient
     id="w"
     x1="195.36"
     x2="440.98999"
     y1="801.20001"
     y2="801.20001"
     gradientUnits="userSpaceOnUse">
    <stop
       stop-color="#FFFF25"
       offset="0"
       id="stop347" />
    <stop
       stop-color="#FEE916"
       offset=".0595"
       id="stop349" />
    <stop
       stop-color="#FED50E"
       offset=".1303"
       id="stop351" />
    <stop
       stop-color="#FECA06"
       offset=".2032"
       id="stop353" />
    <stop
       stop-color="#FEC600"
       offset=".2809"
       id="stop355" />
    <stop
       stop-color="#FB7B1E"
       offset=".6685"
       id="stop357" />
    <stop
       stop-color="#F9441B"
       offset=".8876"
       id="stop359" />
    <stop
       stop-color="#F71818"
       offset="1"
       id="stop361" />
  </linearGradient>
  <radialGradient
     id="x"
     cx="320.84"
     cy="800.96002"
     r="60.683998"
     gradientUnits="userSpaceOnUse">
    <stop
       stop-color="#FFFF25"
       offset="0"
       id="stop366" />
    <stop
       stop-color="#FEE916"
       offset=".0595"
       id="stop368" />
    <stop
       stop-color="#FED50E"
       offset=".1303"
       id="stop370" />
    <stop
       stop-color="#FECA06"
       offset=".2032"
       id="stop372" />
    <stop
       stop-color="#FEC600"
       offset=".2809"
       id="stop374" />
    <stop
       stop-color="#FB7B1E"
       offset=".6685"
       id="stop376" />
    <stop
       stop-color="#F9441B"
       offset=".8876"
       id="stop378" />
    <stop
       stop-color="#F71818"
       offset="1"
       id="stop380" />
  </radialGradient>
  <radialGradient
     id="m"
     cx="318.39001"
     cy="716.81"
     r="87.648003"
     gradientUnits="userSpaceOnUse">
    <stop
       stop-color="#FFFF25"
       offset="0"
       id="stop385" />
    <stop
       stop-color="#FEE916"
       offset=".0595"
       id="stop387" />
    <stop
       stop-color="#FED50E"
       offset=".1303"
       id="stop389" />
    <stop
       stop-color="#FECA06"
       offset=".2032"
       id="stop391" />
    <stop
       stop-color="#FEC600"
       offset=".2809"
       id="stop393" />
    <stop
       stop-color="#FB7B1E"
       offset=".6685"
       id="stop395" />
    <stop
       stop-color="#F9441B"
       offset=".8876"
       id="stop397" />
    <stop
       stop-color="#F71818"
       offset="1"
       id="stop399" />
  </radialGradient>
  <linearGradient
     id="n"
     x1="261.66"
     x2="378.70999"
     y1="716.64001"
     y2="716.64001"
     gradientUnits="userSpaceOnUse">
    <stop
       stop-color="#FFFF25"
       offset="0"
       id="stop406" />
    <stop
       stop-color="#FEE916"
       offset=".0595"
       id="stop408" />
    <stop
       stop-color="#FED50E"
       offset=".1303"
       id="stop410" />
    <stop
       stop-color="#FECA06"
       offset=".2032"
       id="stop412" />
    <stop
       stop-color="#FEC600"
       offset=".2809"
       id="stop414" />
    <stop
       stop-color="#FB7B1E"
       offset=".6685"
       id="stop416" />
    <stop
       stop-color="#F9441B"
       offset=".8876"
       id="stop418" />
    <stop
       stop-color="#F71818"
       offset="1"
       id="stop420" />
  </linearGradient>
  <linearGradient
     id="o"
     x1="261.42999"
     x2="378.48001"
     y1="716.64001"
     y2="716.64001"
     gradientUnits="userSpaceOnUse">
    <stop
       stop-color="#FFFF25"
       offset="0"
       id="stop425" />
    <stop
       stop-color="#FEE916"
       offset=".0595"
       id="stop427" />
    <stop
       stop-color="#FED50E"
       offset=".1303"
       id="stop429" />
    <stop
       stop-color="#FECA06"
       offset=".2032"
       id="stop431" />
    <stop
       stop-color="#FEC600"
       offset=".2809"
       id="stop433" />
    <stop
       stop-color="#FB7B1E"
       offset=".6685"
       id="stop435" />
    <stop
       stop-color="#F9441B"
       offset=".8876"
       id="stop437" />
    <stop
       stop-color="#F71818"
       offset="1"
       id="stop439" />
  </linearGradient>
  <g
     id="g1476"
     transform="matrix(0.24025858,0,0,0.28313513,-45.820043,-85.950456)"
     style="stroke-width:3.8341">
    <polygon
       points="440.99,739.31 317.36,864.59 195.36,737.81 "
       fill="url(#w)"
       opacity="0.6"
       id="polygon364"
       style="fill:url(#w);stroke-width:1.61484"
       transform="matrix(2.3742949,0,0,2.3742949,-273.13088,-1345.3809)" />
    <polygon
       points="379.14,738.7 320.03,863.94 262.54,737.98 "
       fill="url(#x)"
       opacity="0.2"
       id="polygon383"
       style="fill:url(#x);stroke-width:1.61484"
       transform="matrix(2.3742949,0,0,2.3742949,-273.13088,-1345.3809)" />
    <polygon
       points="378.26,694.74 440.32,739.11 196.46,737.9 261.43,694.5 "
       fill="url(#m)"
       opacity="0.4"
       id="polygon402"
       style="fill:url(#m);stroke-width:1.61484"
       transform="matrix(2.3742949,0,0,2.3742949,-273.13088,-1345.3809)" />
    <rect
       x="348.12708"
       y="304.13675"
       width="276.84277"
       height="103.49788"
       fill="#ff8000"
       opacity="0.2"
       id="rect404"
       style="stroke-width:3.8341" />
    <polygon
       points="261.66,738.54 320.18,694.74 378.71,738.54 "
       fill="url(#n)"
       opacity="0.4"
       id="polygon423"
       style="fill:url(#n);stroke-width:1.61484"
       transform="matrix(2.3742949,0,0,2.3742949,-273.13088,-1345.3809)" />
    <polygon
       points="378.48,695.46 319.58,738.78 261.43,694.5 "
       fill="url(#o)"
       opacity="0.4"
       id="polygon442"
       style="fill:url(#o);stroke-width:1.61484"
       transform="matrix(2.3742949,0,0,2.3742949,-273.13088,-1345.3809)" />
    <g
       fill="#f2f2f2"
       id="g460"
       transform="matrix(2.3742949,0,0,2.3742949,-273.13088,-1345.3809)"
       style="stroke-width:1.61484">
      <polygon
         points="210.17,751.49 221.15,737.97 208.34,723.47 224.61,734 238.78,721.79 228.95,737.66 240.6,749.8 224.42,741.2 "
         id="polygon444"
         style="stroke-width:1.61484" />
      <polygon
         points="203.21,736.98 221.45,735.28 224.39,716.8 226.97,734.94 246.32,736.3 226.97,740.37 225.13,756.48 221.08,739.69 "
         id="polygon446"
         style="stroke-width:1.61484" />
      <polygon
         points="253.99,756.54 260.81,747.48 252.85,737.76 262.96,744.82 271.77,736.64 265.66,747.27 272.91,755.41 262.85,749.64 "
         id="polygon448"
         style="stroke-width:1.61484" />
      <polygon
         points="249.66,746.82 261,745.68 262.83,733.29 264.43,745.45 276.46,746.36 264.43,749.09 263.29,759.89 260.77,748.63 "
         id="polygon450"
         style="stroke-width:1.61484" />
      <polygon
         points="357.6,780.94 361.68,776.52 356.92,771.78 362.97,775.22 368.24,771.24 364.59,776.42 368.92,780.4 362.9,777.58 "
         id="polygon452"
         style="stroke-width:1.61484" />
      <polygon
         points="355.01,776.2 361.8,775.65 362.89,769.6 363.85,775.54 371.05,775.98 363.85,777.31 363.16,782.58 361.66,777.09 "
         id="polygon454"
         style="stroke-width:1.61484" />
      <polygon
         points="420.11,742.66 424.19,738.24 419.43,733.5 425.48,736.94 430.75,732.95 427.09,738.14 431.43,742.11 425.41,739.3 "
         id="polygon456"
         style="stroke-width:1.61484" />
      <polygon
         points="417.52,737.92 424.3,737.36 425.4,731.32 426.36,737.25 433.56,737.7 426.36,739.03 425.67,744.3 424.17,738.8 "
         id="polygon458"
         style="stroke-width:1.61484" />
    </g>
  </g>
  <polygon
     points="608.08,94.559 853.7,96.066 730.07,221.34 "
     fill="#fe330a"
     opacity="0.4"
     id="polygon2"
     transform="translate(-1968.6154,-1123.2069)" />
  <polygon
     points="791.19,52.211 853.03,95.863 609.16,94.649 674.14,51.255 "
     fill="#fd1a16"
     opacity="0.3"
     id="polygon4"
     transform="translate(-1968.6154,-1123.2069)" />
  <rect
     x="-1294.2454"
     y="-1071.713"
     width="116.6"
     height="43.591"
     fill="#c2000b"
     opacity="0.1"
     id="rect6" />
  <polygon
     points="674.14,51.255 791.19,52.211 732.29,95.535 "
     fill="#ff0000"
     opacity="0.1"
     id="polygon8"
     transform="translate(-1968.6154,-1123.2069)" />
  <polygon
     points="675.25,94.735 791.85,95.454 732.74,220.69 "
     fill="#c2000b"
     opacity="0.1"
     id="polygon10"
     transform="translate(-1968.6154,-1123.2069)" />
  <polygon
     points="791.42,95.297 674.37,95.297 732.89,51.494 "
     fill="#fe330a"
     opacity="0.2"
     id="polygon12"
     transform="translate(-1968.6154,-1123.2069)" />
  <g
     fill="#f2f2f2"
     id="g26"
     transform="translate(-1968.6154,-1123.2069)">
    <polygon
       points="633.86,94.722 621.05,80.225 637.32,90.748 651.49,78.544 641.66,94.414 653.31,106.56 637.13,97.95 622.88,108.24 "
       id="polygon14" />
    <polygon
       points="634.16,92.036 637.1,73.55 639.68,91.697 659.03,93.052 639.68,97.119 637.84,113.23 633.79,96.441 615.92,93.73 "
       id="polygon16" />
    <polygon
       points="673.52,104.23 665.56,94.518 675.68,101.57 684.48,93.391 678.37,104.03 685.62,112.17 675.56,106.4 666.7,113.29 "
       id="polygon18" />
    <polygon
       points="673.71,102.43 675.54,90.044 677.14,102.21 689.17,103.12 677.14,105.84 676,116.64 673.48,105.38 662.37,103.57 "
       id="polygon20" />
    <polygon
       points="836.9,94.994 832.14,90.254 838.19,93.695 843.46,89.704 839.8,94.894 844.14,98.865 838.12,96.05 832.82,99.414 "
       id="polygon22" />
    <polygon
       points="837.01,94.116 838.11,88.071 839.07,94.005 846.26,94.448 839.07,95.778 838.38,101.05 836.88,95.556 830.23,94.67 "
       id="polygon24" />
  </g>
  <g
     fill="#f2f2f2"
     id="g32"
     transform="translate(-1968.6154,-1123.2069)">
    <polygon
       points="774.39,133.28 769.63,128.54 775.68,131.98 780.95,127.99 777.3,133.18 781.63,137.15 775.61,134.33 770.31,137.7 "
       id="polygon28" />
    <polygon
       points="774.5,132.4 775.6,126.35 776.56,132.29 783.76,132.73 776.56,134.06 775.88,139.33 774.37,133.84 767.72,132.95 "
       id="polygon30" />
  </g>
  <polygon
     points="324.85,105.9 570.48,107.41 446.85,232.69 "
     fill="#f7f06a"
     id="polygon34"
     transform="translate(-1968.6154,-1123.2069)" />
  <polygon
     points="392.03,106.08 508.63,106.8 449.51,232.03 "
     fill="#f2f8a9"
     id="polygon36"
     transform="translate(-1968.6154,-1123.2069)" />
  <polygon
     points="507.97,63.554 569.8,107.21 325.94,105.99 390.92,62.598 "
     fill="#f7fa80"
     id="polygon38"
     transform="translate(-1968.6154,-1123.2069)" />
  <rect
     x="-1577.4755"
     y="-1060.37"
     width="116.6"
     height="43.591"
     fill="#fd1a16"
     opacity="0.1"
     id="rect40" />
  <polygon
     points="508.2,106.64 391.14,106.64 449.67,62.837 "
     fill="#f7f06a"
     id="polygon42"
     transform="translate(-1968.6154,-1123.2069)" />
  <polygon
     points="390.92,62.598 507.97,63.554 449.07,106.88 "
     fill="#f2f8a9"
     id="polygon44"
     transform="translate(-1968.6154,-1123.2069)" />
  <g
     fill="#f2f2f2"
     id="g62"
     transform="translate(-1968.6154,-1123.2069)">
    <polygon
       points="350.63,106.06 337.83,91.568 354.1,102.09 368.26,89.887 358.44,105.76 370.09,117.9 353.91,109.29 339.66,119.58 "
       id="polygon46" />
    <polygon
       points="350.94,103.38 353.88,84.893 356.46,103.04 375.8,104.4 356.46,108.46 354.62,124.58 350.57,107.78 332.69,105.07 "
       id="polygon48" />
    <polygon
       points="390.3,115.58 382.34,105.86 392.45,112.91 401.26,104.73 395.15,115.37 402.4,123.51 392.34,117.74 383.47,124.64 "
       id="polygon50" />
    <polygon
       points="390.49,113.78 392.32,101.39 393.92,113.55 405.95,114.46 393.92,117.18 392.77,127.98 390.26,116.73 379.14,114.91 "
       id="polygon52" />
    <polygon
       points="491.17,144.62 486.41,139.88 492.46,143.32 497.73,139.33 494.07,144.52 498.41,148.49 492.39,145.68 487.09,149.04 "
       id="polygon54" />
    <polygon
       points="491.28,143.74 492.38,137.7 493.34,143.63 500.53,144.07 493.34,145.4 492.65,150.67 491.14,145.18 484.5,144.3 "
       id="polygon56" />
    <polygon
       points="553.68,106.34 548.91,101.6 554.97,105.04 560.24,101.05 556.58,106.24 560.92,110.21 554.9,107.39 549.59,110.76 "
       id="polygon58" />
    <polygon
       points="553.79,105.46 554.89,99.414 555.84,105.35 563.04,105.79 555.84,107.12 555.16,112.39 553.65,106.9 547,106.01 "
       id="polygon60" />
  </g>
  <polygon
     points="36.471,94.559 282.1,96.066 158.47,221.34 "
     fill="#56bec2"
     id="polygon64"
     transform="translate(-1968.6154,-1123.2069)" />
  <polygon
     points="103.65,94.735 220.25,95.454 161.13,220.69 "
     fill="#ade0e6"
     id="polygon66"
     transform="translate(-1968.6154,-1123.2069)" />
  <polygon
     points="219.59,52.211 281.42,95.863 37.561,94.649 102.54,51.255 "
     fill="#c2e8ea"
     id="polygon68"
     transform="translate(-1968.6154,-1123.2069)" />
  <rect
     x="-1865.8555"
     y="-1071.713"
     width="116.6"
     height="43.591"
     fill="#97d8e6"
     id="rect70" />
  <polygon
     points="219.82,95.297 102.76,95.297 161.29,51.494 "
     fill="#68c5dc"
     id="polygon72"
     transform="translate(-1968.6154,-1123.2069)" />
  <polygon
     points="102.54,51.255 219.59,52.211 160.69,95.535 "
     fill="#acd7e8"
     opacity="0.4"
     id="polygon74"
     transform="translate(-1968.6154,-1123.2069)" />
  <g
     fill="#f2f2f2"
     id="g92"
     transform="translate(-2302.5536,-1090.539)">
    <polygon
       points="49.449,80.225 65.716,90.748 79.882,78.544 70.055,94.414 81.708,106.56 65.53,97.95 51.275,108.24 62.253,94.722 "
       id="polygon76" />
    <polygon
       points="65.499,73.55 68.076,91.697 87.422,93.052 68.076,97.119 66.235,113.23 62.186,96.441 44.312,93.73 62.554,92.036 "
       id="polygon78" />
    <polygon
       points="93.957,94.518 104.07,101.57 112.88,93.391 106.77,104.03 114.01,112.17 103.96,106.4 95.092,113.29 101.92,104.23 "
       id="polygon80" />
    <polygon
       points="103.94,90.044 105.54,102.21 117.57,103.12 105.54,105.84 104.39,116.64 101.88,105.38 90.762,103.57 102.1,102.43 "
       id="polygon82" />
    <polygon
       points="198.03,128.54 204.08,131.98 209.35,127.99 205.69,133.18 210.03,137.15 204.01,134.33 198.7,137.7 202.79,133.28 "
       id="polygon84" />
    <polygon
       points="204,126.35 204.96,132.29 212.15,132.73 204.96,134.06 204.27,139.33 202.76,133.84 196.12,132.95 202.9,132.4 "
       id="polygon86" />
    <polygon
       points="260.53,90.254 266.59,93.695 271.86,89.704 268.2,94.894 272.54,98.865 266.52,96.05 261.21,99.414 265.3,94.994 "
       id="polygon88" />
    <polygon
       points="266.5,88.071 267.46,94.005 274.66,94.448 267.46,95.778 266.78,101.05 265.27,95.556 258.62,94.67 265.41,94.116 "
       id="polygon90" />
  </g>
  <g
     fill="#f2f2f2"
     id="g98"
     transform="translate(-1968.6154,-1123.2069)">
    <polygon
       points="342.87,317.46 338.11,312.72 344.16,316.16 349.43,312.17 345.78,317.36 350.11,321.33 344.09,318.52 338.79,321.88 "
       id="polygon94" />
    <polygon
       points="342.98,316.58 344.08,310.54 345.04,316.47 352.24,316.92 345.04,318.24 344.36,323.51 342.85,318.02 336.2,317.14 "
       id="polygon96" />
  </g>
  <polygon
     points="114.05,317.03 359.67,318.53 236.05,443.81 "
     fill="#aaa9d1"
     id="polygon100"
     transform="translate(-1968.6154,-1123.2069)" />
  <polygon
     points="181.22,317.2 297.82,317.92 238.71,443.16 "
     fill="#7f82bc"
     opacity="0.5"
     id="polygon102"
     transform="translate(-1968.6154,-1123.2069)" />
  <polygon
     points="297.16,274.68 359,318.33 115.14,317.12 180.11,273.72 "
     fill="#aaafd4"
     id="polygon104"
     transform="translate(-1968.6154,-1123.2069)" />
  <rect
     x="-1788.2754"
     y="-849.24695"
     width="116.6"
     height="43.591"
     fill="#7f82bc"
     opacity="0.5"
     id="rect106" />
  <polygon
     points="180.11,273.72 297.16,274.68 238.26,318 "
     fill="#7f82bc"
     opacity="0.5"
     id="polygon108"
     transform="translate(-1968.6154,-1123.2069)" />
  <polygon
     points="297.39,317.76 180.34,317.76 238.87,273.96 "
     fill="#aaa9d1"
     opacity="0.4"
     id="polygon110"
     transform="translate(-1968.6154,-1123.2069)" />
  <g
     fill="#f2f2f2"
     id="g128"
     transform="translate(-1968.6154,-1123.2069)">
    <polygon
       points="139.83,317.19 127.02,302.69 143.29,313.22 157.46,301.01 147.63,316.88 159.28,329.02 143.11,320.42 128.85,330.7 "
       id="polygon112" />
    <polygon
       points="140.13,314.5 143.08,296.02 145.65,314.16 165,315.52 145.65,319.59 143.81,335.7 139.76,318.91 121.89,316.2 "
       id="polygon114" />
    <polygon
       points="179.49,326.7 171.53,316.98 181.65,324.04 190.46,315.86 184.34,326.49 191.59,334.63 181.53,328.86 172.67,335.76 "
       id="polygon116" />
    <polygon
       points="179.68,324.9 181.51,312.51 183.11,324.67 195.14,325.58 183.11,328.31 181.97,339.11 179.45,327.85 168.34,326.04 "
       id="polygon118" />
    <polygon
       points="280.36,355.74 275.6,351 281.65,354.44 286.92,350.45 283.27,355.64 287.6,359.62 281.58,356.8 276.28,360.16 "
       id="polygon120" />
    <polygon
       points="280.48,354.87 281.57,348.82 282.53,354.76 289.73,355.2 282.53,356.53 281.85,361.8 280.34,356.31 273.69,355.42 "
       id="polygon122" />
    <polygon
       points="324.6,317.82 319.83,313.08 325.88,316.52 331.16,312.53 327.5,317.72 331.84,321.69 325.82,318.88 320.51,322.24 "
       id="polygon124" />
    <polygon
       points="324.71,316.94 325.8,310.9 326.76,316.83 333.96,317.28 326.76,318.61 326.08,323.88 324.57,318.38 317.92,317.5 "
       id="polygon126" />
  </g>
  <polygon
     points="401.73,338.55 647.36,340.06 523.73,465.34 "
     fill="#80c41c"
     opacity="0.6"
     id="polygon130"
     transform="translate(-1968.6154,-1123.2069)" />
  <polygon
     points="468.91,338.73 585.51,339.45 526.39,464.68 "
     fill="#80c41c"
     opacity="0.4"
     id="polygon132"
     transform="translate(-1968.6154,-1123.2069)" />
  <polygon
     points="584.85,296.2 646.68,339.86 402.82,338.64 467.8,295.25 "
     fill="#80c41c"
     opacity="0.4"
     id="polygon134"
     transform="translate(-1968.6154,-1123.2069)" />
  <rect
     x="-1500.5955"
     y="-827.71692"
     width="116.6"
     height="43.591"
     fill="#80c41c"
     opacity="0.4"
     id="rect136" />
  <polygon
     points="585.08,339.29 468.02,339.29 526.55,295.49 "
     fill="#40a629"
     opacity="0.1"
     id="polygon138"
     transform="translate(-1968.6154,-1123.2069)" />
  <polygon
     points="467.8,295.25 584.85,296.2 525.94,339.53 "
     fill="#80c41c"
     opacity="0.4"
     id="polygon140"
     transform="translate(-1968.6154,-1123.2069)" />
  <g
     fill="#f2f2f2"
     id="g158"
     transform="translate(-1968.6154,-1123.2069)">
    <polygon
       points="427.51,338.71 414.71,324.22 430.98,334.74 445.14,322.54 435.32,338.41 446.97,350.55 430.79,341.94 416.53,352.23 "
       id="polygon142" />
    <polygon
       points="427.81,336.03 430.76,317.54 433.34,335.69 452.68,337.04 433.34,341.11 431.49,357.22 427.44,340.43 409.57,337.72 "
       id="polygon144" />
    <polygon
       points="467.18,348.23 459.22,338.51 469.33,345.56 478.14,337.38 472.03,348.02 479.27,356.16 469.22,350.39 460.35,357.28 "
       id="polygon146" />
    <polygon
       points="467.36,346.43 469.2,334.04 470.8,346.2 482.83,347.11 470.8,349.83 469.65,360.63 467.14,349.38 456.02,347.56 "
       id="polygon148" />
    <polygon
       points="568.05,377.27 563.28,372.53 569.34,375.97 574.61,371.98 570.95,377.17 575.29,381.14 569.27,378.32 563.96,381.69 "
       id="polygon150" />
    <polygon
       points="568.16,376.39 569.26,370.35 570.22,376.28 577.41,376.72 570.22,378.05 569.53,383.32 568.02,377.83 561.37,376.94 "
       id="polygon152" />
    <polygon
       points="630.56,338.99 625.79,334.25 631.84,337.69 637.12,333.7 633.46,338.89 637.8,342.86 631.78,340.04 626.47,343.41 "
       id="polygon154" />
    <polygon
       points="630.67,338.11 631.76,332.06 632.72,338 639.92,338.44 632.72,339.77 632.04,345.04 630.53,339.55 623.88,338.66 "
       id="polygon156" />
  </g>
  <polygon
     points="701.78,318.46 947.41,319.96 823.78,445.24 "
     fill="#f4136b"
     opacity="0.5"
     id="polygon160"
     transform="translate(-1968.6154,-1123.2069)" />
  <polygon
     points="768.96,318.63 885.56,319.35 826.44,444.58 "
     fill="#f7a9c8"
     id="polygon162"
     transform="translate(-1968.6154,-1123.2069)" />
  <polygon
     points="884.9,276.11 946.73,319.76 702.87,318.54 767.85,275.15 "
     fill="#f77ebb"
     opacity="0.5"
     id="polygon164"
     transform="translate(-1968.6154,-1123.2069)" />
  <rect
     x="-1200.5454"
     y="-847.81689"
     width="116.6"
     height="43.591"
     fill="#f0047f"
     opacity="0.2"
     id="rect166" />
  <polygon
     points="885.13,319.19 768.07,319.19 826.6,275.39 "
     fill="#f4136b"
     opacity="0.5"
     id="polygon168"
     transform="translate(-1968.6154,-1123.2069)" />
  <polygon
     points="767.85,275.15 884.9,276.11 826,319.43 "
     fill="#f0047f"
     opacity="0.3"
     id="polygon170"
     transform="translate(-1968.6154,-1123.2069)" />
  <g
     fill="#f2f2f2"
     id="g188"
     transform="translate(-1968.6154,-1123.2069)">
    <polygon
       points="727.56,318.62 714.76,304.12 731.02,314.64 745.19,302.44 735.36,318.31 747.02,330.45 730.84,321.85 716.58,332.13 "
       id="polygon172" />
    <polygon
       points="727.86,315.93 730.81,297.45 733.38,315.59 752.73,316.95 733.38,321.02 731.54,337.13 727.5,320.34 709.62,317.63 "
       id="polygon174" />
    <polygon
       points="767.23,328.13 759.27,318.41 769.38,325.47 778.19,317.29 772.08,327.92 779.32,336.06 769.26,330.29 760.4,337.19 "
       id="polygon176" />
    <polygon
       points="767.41,326.33 769.24,313.94 770.85,326.1 782.88,327.01 770.85,329.74 769.7,340.54 767.18,329.28 756.07,327.46 "
       id="polygon178" />
    <polygon
       points="868.1,357.17 863.34,352.43 869.39,355.87 874.66,351.88 871,357.07 875.34,361.04 869.32,358.23 864.02,361.59 "
       id="polygon180" />
    <polygon
       points="868.21,356.3 869.31,350.25 870.26,356.18 877.46,356.63 870.26,357.96 869.58,363.23 868.07,357.74 861.42,356.85 "
       id="polygon182" />
    <polygon
       points="930.61,318.89 925.84,314.15 931.9,317.59 937.16,313.6 933.51,318.79 937.84,322.76 931.83,319.95 926.52,323.31 "
       id="polygon184" />
    <polygon
       points="930.72,318.01 931.81,311.97 932.77,317.9 939.97,318.34 932.77,319.67 932.09,324.94 930.58,319.45 923.93,318.57 "
       id="polygon186" />
  </g>
  <polygon
     points="71.442,538.05 317.07,539.55 193.44,664.83 "
     fill="#237d26"
     opacity="0.7"
     id="polygon190"
     transform="translate(-1968.6154,-1123.2069)" />
  <polygon
     points="254.56,495.7 316.39,539.35 72.532,538.14 137.51,494.74 "
     fill="#41aa54"
     opacity="0.5"
     id="polygon192"
     transform="translate(-1968.6154,-1123.2069)" />
  <rect
     x="-1830.8855"
     y="-628.22693"
     width="116.6"
     height="43.591"
     fill="#237d26"
     opacity="0.3"
     id="rect194" />
  <polygon
     points="254.79,538.78 137.73,538.78 196.26,494.98 "
     fill="#12491d"
     opacity="0.2"
     id="polygon196"
     transform="translate(-1968.6154,-1123.2069)" />
  <polygon
     points="137.51,494.74 254.56,495.7 195.66,539.02 "
     fill="#12491d"
     opacity="0.2"
     id="polygon198"
     transform="translate(-1968.6154,-1123.2069)" />
  <polygon
     points="138.62,538.22 255.22,538.94 196.1,664.18 "
     fill="#ffffff"
     opacity="0.5"
     id="polygon200"
     transform="translate(-1968.6154,-1123.2069)" />
  <g
     fill="#f2f2f2"
     id="g218"
     transform="translate(-1968.6154,-1123.2069)">
    <polygon
       points="97.224,538.21 84.42,523.71 100.69,534.24 114.85,522.03 105.03,537.9 116.68,550.04 100.5,541.44 86.246,551.73 "
       id="polygon202" />
    <polygon
       points="97.525,535.52 100.47,517.04 103.05,535.18 122.39,536.54 103.05,540.61 101.21,556.72 97.157,539.93 79.283,537.22 "
       id="polygon204" />
    <polygon
       points="136.89,547.72 128.93,538 139.04,545.06 147.85,536.88 141.74,547.51 148.98,555.65 138.93,549.88 130.06,556.78 "
       id="polygon206" />
    <polygon
       points="137.08,545.92 138.91,533.53 140.51,545.69 152.54,546.6 140.51,549.33 139.36,560.13 136.85,548.87 125.73,547.06 "
       id="polygon208" />
    <polygon
       points="237.76,576.76 233,572.02 239.05,575.46 244.32,571.47 240.66,576.66 245,580.64 238.98,577.82 233.68,581.18 "
       id="polygon210" />
    <polygon
       points="237.87,575.89 238.97,569.84 239.93,575.78 247.12,576.22 239.93,577.55 239.24,582.82 237.74,577.33 231.08,576.44 "
       id="polygon212" />
    <polygon
       points="300.27,538.48 295.5,533.74 301.56,537.18 306.83,533.19 303.17,538.38 307.51,542.35 301.49,539.54 296.18,542.9 "
       id="polygon214" />
    <polygon
       points="300.38,537.6 301.48,531.56 302.43,537.49 309.63,537.94 302.43,539.26 301.75,544.53 300.24,539.04 293.59,538.16 "
       id="polygon216" />
  </g>
  <polygon
     points="385.82,571.41 631.44,572.91 507.82,698.19 "
     fill="#be894a"
     opacity="0.6"
     id="polygon220"
     transform="translate(-1968.6154,-1123.2069)" />
  <polygon
     points="452.99,571.58 569.6,572.3 510.48,697.54 "
     fill="#be894a"
     opacity="0.5"
     id="polygon222"
     transform="translate(-1968.6154,-1123.2069)" />
  <polygon
     points="568.71,528.34 630.77,572.71 386.91,571.5 451.88,528.1 "
     fill="#be894a"
     opacity="0.4"
     id="polygon224"
     transform="translate(-1968.6154,-1123.2069)" />
  <rect
     x="-1516.5055"
     y="-594.86688"
     width="116.6"
     height="43.591"
     fill="#be894a"
     opacity="0.3"
     id="rect226" />
  <polygon
     points="569.16,572.14 452.11,572.14 510.64,528.34 "
     fill="#be894a"
     opacity="0.5"
     id="polygon228"
     transform="translate(-1968.6154,-1123.2069)" />
  <polygon
     points="451.88,528.1 568.94,529.06 510.03,572.38 "
     fill="#7c411e"
     opacity="0.3"
     id="polygon230"
     transform="translate(-1968.6154,-1123.2069)" />
  <g
     fill="#f2f2f2"
     id="g248"
     transform="translate(-1968.6154,-1123.2069)">
    <polygon
       points="411.6,571.57 398.8,557.07 415.06,567.6 429.23,555.39 419.4,571.26 431.05,583.41 414.88,574.8 400.62,585.09 "
       id="polygon232" />
    <polygon
       points="411.9,568.88 414.84,550.4 417.42,568.55 436.77,569.9 417.42,573.97 415.58,590.08 411.53,573.29 393.66,570.58 "
       id="polygon234" />
    <polygon
       points="451.26,581.08 443.3,571.37 453.42,578.42 462.22,570.24 456.12,580.88 463.36,589.01 453.3,583.24 444.44,590.14 "
       id="polygon236" />
    <polygon
       points="451.45,579.28 453.28,566.89 454.88,579.06 466.91,579.96 454.88,582.69 453.74,593.49 451.22,582.23 440.11,580.42 "
       id="polygon238" />
    <polygon
       points="552.14,610.13 547.37,605.38 553.42,608.83 558.69,604.84 555.04,610.02 559.37,614 553.36,611.18 548.05,614.55 "
       id="polygon240" />
    <polygon
       points="552.25,609.25 553.34,603.2 554.3,609.14 561.5,609.58 554.3,610.91 553.62,616.18 552.11,610.69 545.46,609.8 "
       id="polygon242" />
    <polygon
       points="614.64,571.84 609.88,567.1 615.93,570.54 621.2,566.55 617.55,571.74 621.88,575.71 615.86,572.9 610.56,576.26 "
       id="polygon244" />
    <polygon
       points="614.76,570.96 615.85,564.92 616.81,570.85 624.01,571.3 616.81,572.63 616.12,577.9 614.62,572.4 607.97,571.52 "
       id="polygon246" />
  </g>
  <polygon
     points="685.62,541.19 931.24,542.7 807.62,667.97 "
     fill="#cccccc"
     id="polygon250"
     transform="translate(-1968.6154,-1123.2069)" />
  <polygon
     points="752.8,541.37 869.4,542.08 810.28,667.32 "
     fill="#e5e5e5"
     id="polygon252"
     transform="translate(-1968.6154,-1123.2069)" />
  <polygon
     points="868.74,498.84 930.57,542.49 686.71,541.28 751.68,497.89 "
     fill="#999999"
     opacity="0.4"
     id="polygon254"
     transform="translate(-1968.6154,-1123.2069)" />
  <rect
     x="-1216.7054"
     y="-625.08691"
     width="116.6"
     height="43.591"
     fill="#e5e5e5"
     opacity="0.5"
     id="rect256" />
  <polygon
     points="868.97,541.93 751.91,541.93 810.44,498.12 "
     fill="#b3b3b3"
     opacity="0.5"
     id="polygon258"
     transform="translate(-1968.6154,-1123.2069)" />
  <polygon
     points="751.68,497.89 868.74,498.84 809.83,542.16 "
     fill="#b3b3b3"
     opacity="0.4"
     id="polygon260"
     transform="translate(-1968.6154,-1123.2069)" />
  <g
     fill="#f2f2f2"
     id="g278"
     transform="translate(-1968.6154,-1123.2069)">
    <polygon
       points="711.4,541.35 698.6,526.86 714.86,537.38 729.03,525.18 719.2,541.04 730.86,553.19 714.68,544.58 700.42,554.87 "
       id="polygon262" />
    <polygon
       points="711.7,538.67 714.65,520.18 717.22,538.33 736.57,539.68 717.22,543.75 715.38,559.86 711.33,543.07 693.46,540.36 "
       id="polygon264" />
    <polygon
       points="751.07,550.86 743.1,541.15 753.22,548.2 762.03,540.02 755.92,550.66 763.16,558.8 753.1,553.03 744.24,559.92 "
       id="polygon266" />
    <polygon
       points="751.25,549.06 753.08,536.68 754.69,548.84 766.72,549.74 754.69,552.47 753.54,563.27 751.02,552.02 739.91,550.2 "
       id="polygon268" />
    <polygon
       points="851.94,579.91 847.17,575.17 853.22,578.61 858.5,574.62 854.84,579.81 859.18,583.78 853.16,580.96 847.85,584.33 "
       id="polygon270" />
    <polygon
       points="852.05,579.03 853.14,572.98 854.1,578.92 861.3,579.36 854.1,580.69 853.42,585.96 851.91,580.47 845.26,579.58 "
       id="polygon272" />
    <polygon
       points="914.44,541.62 909.68,536.88 915.73,540.32 921,536.34 917.35,541.52 921.68,545.5 915.66,542.68 910.36,546.04 "
       id="polygon274" />
    <polygon
       points="914.56,540.75 915.65,534.7 916.61,540.64 923.81,541.08 916.61,542.41 915.93,547.68 914.42,542.19 907.77,541.3 "
       id="polygon276" />
  </g>
</svg>
