<?xml version="1.0" encoding="UTF-8" standalone="no"?>
<!-- Created with Inkscape (http://www.inkscape.org/) -->

<svg
   version="1.1"
   id="svg1"
   width="81.001892"
   height="33.572277"
   viewBox="0 0 81.001891 33.572277"
   sodipodi:docname="logo-sm.svg"
   inkscape:version="1.2.2 (732a01da63, 2022-12-09)"
   xmlns:inkscape="http://www.inkscape.org/namespaces/inkscape"
   xmlns:sodipodi="http://sodipodi.sourceforge.net/DTD/sodipodi-0.dtd"
   xmlns="http://www.w3.org/2000/svg"
   xmlns:svg="http://www.w3.org/2000/svg">
  <defs
     id="defs1" />
  <sodipodi:namedview
     id="namedview1"
     pagecolor="#737373"
     bordercolor="#cccccc"
     borderopacity="1"
     inkscape:showpageshadow="0"
     inkscape:pageopacity="1"
     inkscape:pagecheckerboard="0"
     inkscape:deskcolor="#d1d1d1"
     showgrid="false"
     inkscape:zoom="2.755"
     inkscape:cx="-10.889292"
     inkscape:cy="-21.960073"
     inkscape:window-width="1350"
     inkscape:window-height="728"
     inkscape:window-x="0"
     inkscape:window-y="0"
     inkscape:window-maximized="0"
     inkscape:current-layer="g1" />
  <g
     inkscape:groupmode="layer"
     inkscape:label="Image"
     id="g1"
     transform="translate(-186.64048,82.089512)">
    <text
       xml:space="preserve"
       style="font-style:normal;font-variant:normal;font-weight:normal;font-stretch:normal;font-size:8.26089px;font-family:Gr;-inkscape-font-specification:Gr;letter-spacing:0.106357px;fill:#ffffff;fill-opacity:1;stroke:none;stroke-width:2.85383;stop-color:#000000"
       x="200.58992"
       y="-56.620556"
       id="text4873"
       transform="scale(0.92673083,1.079062)"><tspan
         sodipodi:role="line"
         id="tspan4871"
         x="200.58992"
         y="-56.620556"
         style="font-style:normal;font-variant:normal;font-weight:normal;font-stretch:normal;font-size:8.26089px;font-family:sans-serif;-inkscape-font-specification:'sans-serif, Normal';font-variant-ligatures:normal;font-variant-caps:normal;font-variant-numeric:normal;font-variant-east-asian:normal;fill:#ffffff;fill-opacity:1;stroke:none;stroke-width:2.85383">HUNGRY</tspan></text>
    <g
       id="g538"
       style="fill:#ffffff">
      <g
         id="g531"
         style="fill:#ffffff">
        <path
           d="m 236.15975,-75.340155 c -1.55784,-0.236556 -3.14681,-0.273437 -4.71274,-0.09412 -1.32852,0.142581 -2.64953,0.37751 -3.93538,0.743314 -1.33526,0.387788 -2.62024,0.996187 -3.69767,1.883564 -0.90959,0.745057 -1.65308,1.687223 -2.18654,2.733818 -0.40463,0.802408 -0.64932,1.697526 -0.62255,2.600502 0.0174,0.621605 0.13984,1.246111 0.39865,1.813496 0.26726,0.580361 0.69681,1.085415 1.23306,1.4341 0.36429,0.240211 0.76789,0.42253 1.18857,0.53707 0.38448,0.04232 0.76873,0.0911 1.15357,0.127236 0.78548,-0.06567 1.52393,-0.439974 2.10106,-0.967151 0.5753,-0.52687 0.98418,-1.231217 1.15597,-1.992267 0.0742,-0.322021 0.12161,-0.653016 0.11751,-0.983642 -0.0273,-0.254887 -0.16383,-0.529261 -0.41891,-0.618962 -0.25251,-0.102291 -0.56419,0.04172 -0.65972,0.294447 -0.0682,0.149428 -0.0371,0.315714 -0.053,0.473321 -0.0862,0.412585 -0.23377,0.815298 -0.46066,1.171951 -0.17693,0.277201 -0.37448,0.547024 -0.62414,0.763464 -0.18816,0.163703 -0.41359,0.277285 -0.64947,0.354609 -0.32477,0.118217 -0.67678,0.172737 -1.02047,0.11941 -0.46672,-0.05294 -0.93921,-0.222598 -1.26848,-0.569638 -0.26234,-0.280621 -0.4112,-0.65056 -0.47699,-1.025132 -0.009,-0.04813 -0.0217,-0.126242 -0.029,-0.18629 -0.0797,-0.622731 0.0428,-1.255804 0.27277,-1.835108 0.11905,-0.305036 0.26471,-0.599204 0.42834,-0.88269 0.0308,-0.05112 0.0748,-0.127449 0.11247,-0.187156 0.16489,-0.267146 0.35174,-0.538682 0.54147,-0.777006 0.23189,-0.291801 0.49682,-0.575247 0.76315,-0.822747 0.29688,-0.275016 0.61534,-0.526542 0.95074,-0.752939 0.0969,-0.06551 0.21295,-0.139884 0.32003,-0.204854 0.54891,-0.33516 1.1368,-0.602592 1.74139,-0.820269 0.0593,-0.02124 0.14503,-0.05125 0.21448,-0.07586 1.03092,-0.354038 2.08589,-0.645326 3.16276,-0.82006 0.0739,-0.01081 0.17283,-0.02675 0.25654,-0.039 0.56712,-0.08149 1.14379,-0.123766 1.71073,-0.14828 0.35796,-0.01476 0.71348,-0.0195 1.07482,-0.01411 0.31409,0.0058 0.61901,0.01873 0.93414,0.04147 0.0922,-0.01398 0.007,0.06088 -0.0105,0.10189 -0.34621,0.556631 -0.70029,1.108444 -1.04089,1.668511 -0.84732,1.420969 -1.51376,2.940244 -2.12354,4.475431 -0.45948,1.149179 -0.87954,2.314278 -1.24994,3.495258 -0.39323,1.196126 -0.83957,2.373209 -1.33654,3.532293 -0.38564,0.876846 -0.81118,1.741382 -1.35314,2.533509 -0.80374,-0.386818 -1.58989,-0.829199 -2.41201,-1.188171 -0.52741,-0.228391 -1.07597,-0.431276 -1.65256,-0.483474 -0.48835,-0.04801 -0.98635,-0.02626 -1.46521,0.08367 -0.61651,0.14786 -1.18589,0.504326 -1.5637,1.016656 -0.26938,0.356052 -0.47534,0.768655 -0.55644,1.209801 -0.0606,0.360655 -0.003,0.728483 0.0805,1.080584 0.15847,0.64326 0.56065,1.22331 1.11302,1.590329 0.5552,0.375375 1.23011,0.527668 1.89114,0.565286 0.51888,0.02526 1.04135,-0.0042 1.55351,-0.09184 1.04893,-0.185511 2.03643,-0.65524 2.8778,-1.303368 0.28777,-0.22053 0.56236,-0.458424 0.82098,-0.712514 1.61798,0.644526 3.3481,0.959643 5.07805,1.104209 0.57514,0.05089 1.15556,0.07376 1.7305,0.0071 1.19323,-0.126838 2.34741,-0.531812 3.39264,-1.114701 0.9982,-0.568997 1.85869,-1.380106 2.47334,-2.351836 0.41191,-0.63589 0.71041,-1.354508 0.80179,-2.110125 0.10141,-0.834277 -0.0158,-1.695803 -0.34117,-2.470958 -0.31052,-0.725373 -0.83562,-1.351446 -1.48062,-1.803392 -0.42641,-0.300832 -0.88713,-0.550565 -1.35777,-0.774611 -0.10669,-0.04946 -0.21382,-0.09803 -0.32243,-0.143163 0.61956,-0.200975 1.2185,-0.471561 1.77023,-0.818538 0.71136,-0.459565 1.30528,-1.116397 1.63597,-1.900592 0.30163,-0.697845 0.45567,-1.470619 0.37615,-2.230444 -0.0546,-0.531675 -0.26506,-1.039085 -0.57087,-1.474773 -0.43181,-0.618503 -1.03661,-1.095402 -1.68118,-1.476379 -0.80924,-0.47268 -1.70203,-0.785765 -2.60881,-1.011193 -0.41161,-0.331108 -0.53893,-0.223893 -1.48488,-0.278923 z m 1.00954,1.584611 c 0.77292,0.167512 1.54728,0.40391 2.21327,0.84202 0.44687,0.294006 0.83119,0.714656 0.992,1.233036 0.14653,0.46116 0.12544,0.964583 -0.0216,1.422824 -0.11519,0.377242 -0.29259,0.732774 -0.50055,1.067001 -0.0348,0.05465 -0.0836,0.131778 -0.1257,0.193877 -0.46448,0.685871 -1.12052,1.243705 -1.87725,1.582068 -0.23319,0.104706 -0.48737,0.157097 -0.74258,0.160518 -0.35284,0.02276 -0.72455,0.02567 -1.08537,0.02687 -0.43268,0.0044 -0.86678,-0.0042 -1.29796,0.03706 -0.19811,0.02414 -0.39409,0.08901 -0.55472,0.209904 0.75674,-1.894735 1.51744,-3.78407 2.34273,-5.648928 0.1735,-0.386366 0.34838,-0.772191 0.53568,-1.152112 0.0407,0.0086 0.0814,0.01724 0.12207,0.02586 z m -3.28784,7.49754 c 0.0176,0.181077 0.15736,0.321586 0.29663,0.424653 0.29525,0.20944 0.65368,0.295866 0.99452,0.401009 0.6067,0.183274 1.21729,0.353142 1.8279,0.522639 0.60075,0.181007 1.20958,0.380199 1.73112,0.738702 0.46406,0.315264 0.84522,0.761698 1.0446,1.289281 0.0381,0.09744 0.0689,0.193241 0.0953,0.28696 0.21102,0.777453 0.14461,1.621109 -0.16108,2.364528 -0.28552,0.708973 -0.75194,1.329677 -1.27576,1.879956 -0.27152,0.281812 -0.57181,0.53665 -0.89961,0.750865 -0.0282,0.01804 -0.0848,0.05523 -0.12516,0.07944 -0.82252,0.509391 -1.79009,0.756741 -2.75273,0.781534 -0.29345,0.0053 -0.58617,-0.0093 -0.87168,-0.02489 -1.33284,-0.0795 -2.65698,-0.323636 -3.9254,-0.742262 -0.0537,-0.01853 -0.12873,-0.0435 -0.19061,-0.0645 0.21334,-0.280837 0.43706,-0.555262 0.61509,-0.860693 0.5653,-0.919769 1.03584,-1.893523 1.49326,-2.870189 0.75511,-1.629265 1.43853,-3.290669 2.10364,-4.958424 z m -10.53925,7.800031 c 0.53425,-0.03026 1.06271,0.109034 1.55096,0.316639 0.75027,0.297321 1.48817,0.624537 2.22528,0.952779 -0.38981,0.346099 -0.81592,0.642162 -1.28822,0.866401 -0.14894,0.07142 -0.32329,0.14366 -0.48834,0.200881 -0.27423,0.09574 -0.55739,0.165684 -0.84455,0.209276 -0.0405,0.0052 -0.0936,0.01349 -0.14279,0.01877 -0.43754,0.05161 -0.90664,0.05533 -1.30651,-0.155197 -0.3919,-0.205023 -0.63638,-0.621519 -0.71779,-1.046452 -0.0547,-0.231311 -0.004,-0.473468 0.10086,-0.683012 0.10889,-0.216896 0.23274,-0.446799 0.45496,-0.566056 0.13837,-0.08238 0.29771,-0.10724 0.45614,-0.114028 z"
           style="font-style:normal;font-variant:normal;font-weight:normal;font-stretch:normal;font-size:254.325px;font-family:'Great Vibes';-inkscape-font-specification:'Great Vibes';letter-spacing:3.27437px;fill:#ffffff;fill-opacity:1;stroke:none;stroke-width:7.79575;stop-color:#000000"
           id="path1937"
           sodipodi:nodetypes="cccccccccccccccccccccccccccccccccccccccccccccccccccccccccccccccccccccccccccccccccccccccccccccccccccccccsccccccccccss" />
        <path
           d="m 259.10375,-76.1782 c -0.46857,0.02493 -0.89041,0.282409 -1.22234,0.599483 -0.31457,0.294953 -0.56674,0.648434 -0.78705,1.017352 -0.40982,0.692577 -0.77596,1.410974 -1.09625,2.149247 -0.45239,1.044903 -0.86818,2.105591 -1.25233,3.177371 -0.39777,1.128394 -0.75833,2.27074 -1.05176,3.430942 -0.23685,0.106573 -0.35299,0.357758 -0.45075,0.582721 -0.43753,0.992058 -0.89627,1.959857 -1.45377,2.890198 -0.21824,0.342176 -0.468,0.692088 -0.83788,0.882102 -0.17342,0.08134 -0.40385,0.121548 -0.56458,-0.0076 -0.1417,-0.139843 -0.18496,-0.344176 -0.23614,-0.529492 -0.0843,-0.386593 -0.041,-0.786501 0.009,-1.174581 0.0784,-0.459736 0.21719,-0.906205 0.34336,-1.354398 0.0548,-0.179273 0.0979,-0.364342 0.15522,-0.541269 1.40401,-1.52335 2.48365,-3.316699 3.36628,-5.183259 0.40245,-0.858765 0.77238,-1.733504 1.09491,-2.625474 0.23021,-0.667005 0.40594,-1.372527 0.34566,-2.083205 -0.0307,-0.284971 -0.11739,-0.56824 -0.27171,-0.811074 -0.1464,-0.232915 -0.39764,-0.407845 -0.67781,-0.417872 -0.45678,-0.02059 -0.88703,0.204256 -1.22451,0.495936 -0.44105,0.375723 -0.76289,0.866202 -1.04415,1.367283 -0.45201,0.784546 -0.83746,1.605522 -1.18261,2.442089 -0.77937,1.871009 -1.46937,3.782466 -1.98963,5.742661 -0.029,0.109652 -0.0577,0.219383 -0.0852,0.329417 -0.24585,0.09953 -0.37731,0.352877 -0.46019,0.590227 -0.10929,0.288435 -0.2225,0.572616 -0.34282,0.851765 -0.30518,0.7029 -0.65576,1.393538 -1.12442,2.002927 -0.30642,0.390209 -0.67569,0.760264 -1.14846,0.938344 -0.23624,0.08271 -0.50387,0.132659 -0.74595,0.04617 -0.18461,-0.07635 -0.28925,-0.263568 -0.3365,-0.448922 -0.11519,-0.400938 -0.081,-0.824331 -0.0488,-1.234535 0.03,-0.300318 0.085,-0.598536 0.17014,-0.888206 0.44549,-0.06104 0.87272,-0.213012 1.28779,-0.38074 0.53192,-0.226354 1.04174,-0.524234 1.44961,-0.938656 0.57386,-0.546236 1.06706,-1.206781 1.2958,-1.973877 0.10638,-0.363072 0.16254,-0.746783 0.12252,-1.124556 -0.0703,-0.459281 -0.38604,-0.871691 -0.80967,-1.062087 -0.35269,-0.172889 -0.7645,-0.197494 -1.14322,-0.104904 -0.46369,0.109172 -0.88373,0.351394 -1.27115,0.621651 -0.60441,0.434845 -1.08802,1.014478 -1.49617,1.632283 -0.61065,0.916454 -1.07352,1.937135 -1.32047,3.011983 -0.14576,0.647475 -0.21402,1.31935 -0.13727,1.980845 0.0739,0.557434 0.29732,1.10748 0.6976,1.510653 0.38396,0.402058 0.91847,0.665652 1.47731,0.688172 0.74216,0.0458 1.48998,-0.216693 2.0591,-0.691248 0.50695,-0.410294 0.88527,-0.952962 1.21106,-1.512082 -0.002,0.315886 0.0203,0.634821 0.094,0.942528 0.1117,0.366406 0.35325,0.688944 0.65882,0.916958 0.38733,0.269564 0.88216,0.333733 1.34234,0.283534 0.54863,-0.07397 1.04797,-0.354657 1.47119,-0.7008 0.37309,-0.325643 0.63947,-0.74858 0.93487,-1.141026 0.0724,-0.103046 0.13919,-0.210005 0.20158,-0.319391 -0.005,0.319502 0.0194,0.641802 0.092,0.953362 0.10778,0.36419 0.34661,0.683557 0.64568,0.913851 0.38796,0.277262 0.88809,0.344226 1.35285,0.294698 0.55035,-0.07321 1.05152,-0.354271 1.47588,-0.701494 0.3557,-0.309028 0.61298,-0.710532 0.89192,-1.082104 -0.004,0.197015 0.0736,0.380552 0.11445,0.570052 0.11281,0.436292 0.41132,0.837322 0.83422,1.012634 0.39574,0.164235 0.84887,0.188787 1.26075,0.07195 0.54206,-0.161786 0.98595,-0.545954 1.34487,-0.970916 0.2344,-0.277285 0.4439,-0.574674 0.63955,-0.880241 -0.15089,0.47351 -0.31123,0.944129 -0.48679,1.409099 -0.0429,0.110963 -0.0932,0.242078 -0.14232,0.359457 -0.0655,0.159828 -0.1338,0.318571 -0.20636,0.475326 -0.99906,0.31944 -2.02216,0.558622 -3.01626,0.893874 -0.7683,0.260853 -1.52627,0.566158 -2.22779,0.976893 -0.64508,0.378761 -1.22119,0.891987 -1.61451,1.53274 -0.26463,0.419869 -0.42413,0.896331 -0.52943,1.378756 -0.0721,0.360483 -0.11064,0.736947 -0.0376,1.100356 0.0864,0.410977 0.33579,0.775064 0.66202,1.034655 0.41799,0.343187 0.96936,0.4751 1.50105,0.480043 0.96673,0.02052 1.92431,-0.299428 2.71904,-0.842508 0.64853,-0.433314 1.19571,-0.999922 1.67827,-1.608805 0.87985,-1.104366 1.58016,-2.338622 2.21156,-3.597909 0.0827,-0.167796 0.16504,-0.335727 0.24539,-0.504647 0.75074,-0.326559 1.49785,-0.680421 2.16103,-1.165569 0.55906,-0.423108 0.99573,-0.981553 1.38526,-1.558753 0.31068,-0.454116 0.57255,-0.939689 0.7989,-1.440761 0.26357,-0.571865 0.5147,-1.15013 0.73752,-1.739101 0.0717,-0.185331 0.11168,-0.402161 0.0158,-0.586922 -0.0929,-0.195373 -0.31362,-0.35781 -0.53705,-0.30743 -0.2186,0.0561 -0.33965,0.269632 -0.42317,0.462272 -0.39929,0.87843 -0.78976,1.763687 -1.27199,2.60074 -0.4908,0.841553 -1.2211,1.543908 -2.09122,1.984654 -0.031,0.0059 -0.12859,0.08853 -0.11036,0.03381 0.34949,-1.184146 0.68432,-2.373195 1.04562,-3.553254 0.18453,-0.60707 0.36259,-1.215647 0.5617,-1.816149 0.0911,-0.268557 0.1861,-0.535809 0.28729,-0.800742 0.0224,-0.05531 0.0546,-0.137477 0.0807,-0.203093 0.16416,-0.388812 0.32423,-0.789327 0.59691,-1.11727 0.17174,-0.217654 0.38883,-0.391377 0.60273,-0.565127 0.19351,-0.160599 0.38703,-0.321187 0.58055,-0.481779 -0.74985,0.0034 -1.4999,-0.0052 -2.24962,0.0047 -0.39026,0.01892 -0.76641,0.246966 -0.9474,0.596053 -0.12147,0.225621 -0.19835,0.46433 -0.30503,0.695452 -0.64752,1.517302 -1.33808,3.016754 -2.17376,4.442751 -0.26804,0.453363 -0.56371,0.916535 -0.88545,1.347 -0.0495,0.0635 -0.0937,0.123076 -0.13982,0.179472 -0.15946,0.191595 -0.32069,0.39045 -0.53162,0.527622 -0.0695,0.05099 -0.16839,0.06793 -0.23911,0.0094 -0.0866,-0.07043 -0.0797,-0.195399 -0.10076,-0.295535 -0.0362,-0.263618 0.002,-0.530227 0.0696,-0.785681 0.0105,-0.04211 0.0302,-0.114324 0.0456,-0.167581 0.18484,-0.611227 0.44796,-1.194579 0.68538,-1.786348 0.46165,-1.114377 0.93544,-2.224856 1.46803,-3.307442 0.0868,-0.18493 0.20622,-0.353703 0.35872,-0.490336 0.15795,-0.137824 0.3208,-0.270865 0.46009,-0.428492 0.16857,-0.181976 0.3407,-0.360614 0.51093,-0.541042 -0.74599,0.0036 -1.49218,-0.0055 -2.23804,0.0051 -0.38073,0.0198 -0.75429,0.234065 -0.93066,0.57767 -0.1234,0.234333 -0.2093,0.485943 -0.31955,0.726444 -0.30777,0.717102 -0.6255,1.429868 -0.9432,2.142613 -0.23721,0.04341 -0.39149,0.259135 -0.48645,0.464792 -0.089,0.185451 -0.16665,0.379739 -0.24919,0.555906 -0.14616,0.320026 -0.29974,0.649851 -0.45128,0.959081 -0.27277,0.549257 -0.55389,1.095954 -0.88056,1.615436 -0.20635,0.31389 -0.44871,0.628547 -0.79318,0.798106 -0.17292,0.07862 -0.40334,0.113562 -0.55872,-0.0201 -0.13944,-0.146851 -0.18305,-0.353936 -0.23344,-0.543641 -0.0774,-0.383524 -0.0359,-0.778567 0.0157,-1.162574 0.0763,-0.445074 0.21015,-0.877523 0.33211,-1.311566 0.055,-0.188955 0.10797,-0.378507 0.15872,-0.568652 1.40496,-1.522581 2.48576,-3.315371 3.36858,-5.181922 0.40423,-0.86118 0.7753,-1.738607 1.09884,-2.633336 0.23068,-0.668584 0.40707,-1.376094 0.34506,-2.088404 -0.0304,-0.282302 -0.11719,-0.562607 -0.26954,-0.803364 -0.13944,-0.222889 -0.3729,-0.393861 -0.63953,-0.416718 -0.0515,-0.0055 -0.10335,-0.0069 -0.1551,-0.0051 z m -0.12045,2.125174 c -0.10506,0.494427 -0.27454,0.97243 -0.44603,1.447025 -0.42114,1.148078 -0.97673,2.240975 -1.56058,3.3135 -0.18669,0.340238 -0.38528,0.683958 -0.58993,1.019008 0.51443,-1.36626 1.0409,-2.729283 1.64548,-4.058671 0.14743,-0.319657 0.30594,-0.646598 0.46981,-0.950371 0.15088,-0.273544 0.31026,-0.543006 0.48663,-0.800996 -0.002,0.01017 -0.004,0.02034 -0.005,0.0305 z m -4.70352,0.004 c -0.1038,0.487301 -0.27095,0.95841 -0.43897,1.42659 -0.11986,0.324589 -0.25137,0.656268 -0.38802,0.966848 -0.28257,0.644752 -0.59732,1.273541 -0.92525,1.89288 -0.26444,0.499964 -0.54632,1.00247 -0.84397,1.489577 0.45377,-1.205775 0.91795,-2.404048 1.43393,-3.585736 0.33903,-0.765442 0.69248,-1.530971 1.16817,-2.222918 -0.002,0.01092 -0.004,0.02184 -0.006,0.03276 z m -6.41139,5.760296 c 0.0413,0.60729 -0.20023,1.2008 -0.5537,1.684291 -0.30433,0.414553 -0.67618,0.787473 -1.12614,1.042464 -0.22723,0.132739 -0.46837,0.2405 -0.71499,0.331802 0.4522,-0.915082 1.01098,-1.782132 1.69525,-2.541363 0.18404,-0.193447 0.37498,-0.393354 0.61878,-0.510335 0.0202,-0.0015 0.0805,-0.04096 0.0808,-0.0068 z m 12.13755,10.204734 c -0.74614,1.179187 -1.62365,2.275224 -2.60929,3.262861 -0.44028,0.425127 -0.93569,0.82046 -1.52302,1.01766 -0.27516,0.08579 -0.57558,0.137161 -0.85983,0.06642 -0.18985,-0.04816 -0.37507,-0.188101 -0.40464,-0.392474 -0.0437,-0.265017 0.0243,-0.534451 0.1102,-0.784272 0.24459,-0.674921 0.6944,-1.274043 1.27845,-1.692318 0.48612,-0.360899 1.06019,-0.570897 1.62349,-0.777644 0.80513,-0.292158 1.62111,-0.553201 2.43906,-0.806807 -0.0181,0.03553 -0.0363,0.07105 -0.0544,0.106578 z"
           style="font-style:normal;font-variant:normal;font-weight:normal;font-stretch:normal;font-size:254.325px;font-family:'Great Vibes';-inkscape-font-specification:'Great Vibes';letter-spacing:3.27437px;fill:#ffffff;fill-opacity:1;stroke:none;stroke-width:7.79575;stop-color:#000000"
           id="path1914"
           sodipodi:nodetypes="cccccccccccccccccccccccccccccccccccccccccccccccccccccccccccccccccccccccccccccccccccccccccccccccccccccccccccccccccccccccccccccccccccccccccccccccccccccccccccccccccccccc" />
      </g>
      <path
         style="color:#000000;fill:#ffffff;stroke-width:1.33603;stroke-linecap:round;-inkscape-stroke:none"
         d="m 247.55512,-82.086378 c -4.61433,0.09808 -8.81194,2.486734 -11.32355,6.577939 a 0.72669594,0.72669594 0 0 0 0.23899,0.999562 0.72669594,0.72669594 0 0 0 0.99957,-0.238998 c 2.5926,-4.223131 7.06462,-6.38079 11.91034,-5.795716 3.72956,0.450307 6.85311,2.674744 8.7842,5.863929 a 0.72669594,0.72669594 0 0 0 0.99806,0.245223 0.72669594,0.72669594 0 0 0 0.24523,-0.997819 c -2.13703,-3.529308 -5.6528,-6.046849 -9.85347,-6.554039 -0.67249,-0.0812 -1.34018,-0.114092 -1.99937,-0.100081 z"
         id="path1135" />
      <path
         style="color:#000000;fill:#ffffff;stroke-width:1.33603;stroke-linecap:round;-inkscape-stroke:none"
         d="m 237.14798,-57.071191 a 0.72669594,0.72669594 0 0 0 -0.55518,0.0351 0.72669594,0.72669594 0 0 0 -0.3326,0.972176 c 1.83265,3.739385 5.24105,6.399852 9.4509,7.27701 5.19276,1.081959 10.36312,-1.170821 13.63063,-5.34137 a 0.72669594,0.72669594 0 0 0 -0.12398,-1.020224 0.72669594,0.72669594 0 0 0 -1.02022,0.123979 c -2.96691,3.786864 -7.57977,5.775444 -12.19017,4.814827 -3.79181,-0.790057 -6.80158,-3.146368 -8.44213,-6.493791 a 0.72669594,0.72669594 0 0 0 -0.41725,-0.36771 z"
         id="path2018" />
    </g>
  </g>
</svg>
