<?xml version="1.0" encoding="UTF-8" standalone="no"?>
<svg
   width="51.899338mm"
   height="31.871031mm"
   version="1.1"
   viewBox="0 0 183.89738 112.93055"
   id="svg206"
   sodipodi:docname="truck.svg"
   inkscape:version="1.2.2 (732a01da63, 2022-12-09)"
   xmlns:inkscape="http://www.inkscape.org/namespaces/inkscape"
   xmlns:sodipodi="http://sodipodi.sourceforge.net/DTD/sodipodi-0.dtd"
   xmlns="http://www.w3.org/2000/svg"
   xmlns:svg="http://www.w3.org/2000/svg">
  <defs
     id="defs210" />
  <sodipodi:namedview
     id="namedview208"
     pagecolor="#ffffff"
     bordercolor="#cccccc"
     borderopacity="1"
     inkscape:showpageshadow="0"
     inkscape:pageopacity="1"
     inkscape:pagecheckerboard="0"
     inkscape:deskcolor="#d1d1d1"
     inkscape:document-units="mm"
     showgrid="false"
     inkscape:zoom="1.016275"
     inkscape:cx="204.669"
     inkscape:cy="70.846963"
     inkscape:window-width="1366"
     inkscape:window-height="705"
     inkscape:window-x="-8"
     inkscape:window-y="-8"
     inkscape:window-maximized="1"
     inkscape:current-layer="svg206" />
  <g
     id="g2204"
     transform="matrix(0.17329387,0,0,0.2446444,-20.371936,-34.619628)"
     style="stroke-width:4.85669">
    <rect
       x="265.711"
       y="584.54999"
       width="805.71002"
       height="18.570999"
       ry="4.6429"
       color="#000000"
       color-rendering="auto"
       fill="#90a4ae"
       image-rendering="auto"
       shape-rendering="auto"
       solid-color="#000000"
       style="isolation:auto;mix-blend-mode:normal;stroke-width:4.58025"
       id="rect4" />
    <rect
       x="184.28"
       y="433.17999"
       width="41.978001"
       height="51.672001"
       ry="3.5421"
       color="#000000"
       color-rendering="auto"
       fill="#424242"
       image-rendering="auto"
       shape-rendering="auto"
       solid-color="#000000"
       style="isolation:auto;mix-blend-mode:normal;stroke-width:4.58025"
       id="rect6" />
    <rect
       x="155.23001"
       y="451.32996"
       width="15.536"
       height="37.5"
       ry="2.5706"
       color="#000000"
       color-rendering="auto"
       fill="#ffb300"
       image-rendering="auto"
       shape-rendering="auto"
       solid-color="#000000"
       style="isolation:auto;mix-blend-mode:normal;stroke-width:4.58025"
       id="rect8" />
    <rect
       x="163.45"
       y="451.87"
       width="15.714"
       height="44.285999"
       ry="3.0357001"
       color="#000000"
       color-rendering="auto"
       fill="#424242"
       image-rendering="auto"
       shape-rendering="auto"
       solid-color="#000000"
       style="isolation:auto;mix-blend-mode:normal;stroke-width:4.58025"
       id="rect10" />
    <path
       d="m 853.79,150.82 h 73.275 v 23.739 l -82.833,20.203 z"
       fill="#cddc39"
       fill-rule="evenodd"
       id="path12"
       style="stroke-width:4.58025" />
    <rect
       transform="scale(-1,1)"
       x="-236.47"
       y="389.5"
       width="13.4"
       height="53.598999"
       ry="4.5755"
       color="#000000"
       color-rendering="auto"
       fill="#ffa000"
       image-rendering="auto"
       shape-rendering="auto"
       solid-color="#000000"
       style="isolation:auto;mix-blend-mode:normal;stroke-width:4.58025"
       id="rect14" />
    <rect
       transform="scale(-1,1)"
       x="-244.479"
       y="382.14999"
       width="13.4"
       height="53.598999"
       ry="4.5755"
       color="#000000"
       color-rendering="auto"
       fill="#333333"
       image-rendering="auto"
       shape-rendering="auto"
       solid-color="#000000"
       style="isolation:auto;mix-blend-mode:normal;stroke-width:4.58025"
       id="rect16" />
    <path
       d="m 651.54,505.98 h -50.587 l -14.193,11.093 -103.46,-8.4974 -59.161,15.22 -113.7,11.766 7.6772,-42 -41.88,0.40214 -13.174,-11.766 -33.97,-9.4954 444.63,-4.622 z"
       fill="#424242"
       fill-rule="evenodd"
       id="path18"
       style="stroke-width:4.58025" />
    <path
       d="M 644.03,485.1 H 266.68 l 6.7018,6.1303 h 370.65 z"
       color="#000000"
       color-rendering="auto"
       fill="#333333"
       image-rendering="auto"
       shape-rendering="auto"
       solid-color="#000000"
       style="isolation:auto;mix-blend-mode:normal;stroke-width:4.58025"
       id="path20" />
    <path
       d="m 1058.98,499.97 -98.909,46.061 -29.576,-10.667 -53.052,-8.1382 -14.342,0.86544 -32.97,0.96986 -24.727,-76.606 h 57.212 l -1.9394,-11.152 v -91.151 h 44.606 l 141.09,54.788 z"
       fill="#424242"
       fill-rule="evenodd"
       id="path22"
       style="stroke-width:4.58025" />
    <path
       d="m 1033.89,495.81 h -5.893 c -26.112,-55 -63.394,-62.38 -106.02,-46.992 l -31.702,30.885 h -10.458 l 0.32677,-44.284 56.214,-12.419 56.867,-3.595 46.08203,45.755 z"
       fill="#333333"
       fill-rule="evenodd"
       id="path24"
       style="stroke-width:4.58025" />
    <path
       d="m 903.86,350.15 3.8016,0.92506 4.1529,1.6127 6.4088,63.628 -57.549,-62.169 v -3.9974 h 43.186 z"
       fill="#333333"
       fill-rule="evenodd"
       id="path26"
       style="stroke-width:4.58025" />
    <path
       d="m 885.3,222.3 c 11.103,-12.485 170.65,-3.4596 172.45,2.3999 26.765,37.956 49.602,76.917 65.228,115.75 4.9522,17.916 6.3814,31.135 7.2728,43.636 -0.1656,41.208 -5.467,77.281 -9.2122,114.91 l -89.212,-2.909 c -22.903,-57.763 -62.316,-69.297 -111.03,-54.788 l -41.212,0.96986 c 1.8544,-73.323 -4.5685,-211.79 5.7181,-219.97 z"
       fill="#cddc39"
       fill-rule="evenodd"
       id="path28"
       style="stroke-width:4.58025" />
    <path
       d="m 1102.75,456.93 c -38.303,-17.929 -81.59,-42.953 -119.89,-56.564 -30.301,-6.464 -60.43,-5.1734 -89.634,-7.6157 l -0.14533,15.377 c 26.003,0.13033 62.283,0.81246 89.249,4.7961 38.05503,13.814 81.25803,36.964 119.31003,54.22 z"
       fill="#afb42b"
       fill-rule="evenodd"
       id="path30"
       style="stroke-width:4.58025" />
    <path
       d="m 1088.09,366.12 c 12.278,2.2954 24.888,4.6554 41.655,15.428 l -0.5142,7.0282 c -13.076,-13.566 -28.404,-15.335 -43.198,-21.599 z"
       fill="#afb42b"
       fill-rule="evenodd"
       id="path32"
       style="stroke-width:4.58025" />
    <path
       d="m 910.65,223.22 c -5.2121,-0.15055 -9.7429,0.75674 -13.277,3.1445 -3.5354,2.3884 -5.9499,6.2436 -6.998,11.523 l -0.0254,0.13086 v 197.88 l 25.799,-0.51563 0.16797,-0.0469 c 26.759,-7.5196 49.764,-7.9471 68.723,-0.73047 18.95903,7.21663 33.99203,22.068 44.82803,45.566 l 0.3633,0.78906 h 73.178 l 0.078,-1.2754 c 2.9217,-48.269 5.0251,-96.667 -0.9786,-145.7 l -0.018,-0.14258 -0.045,-0.13477 c -12.868,-37.291 -28.856,-72.406 -54.088,-100.82 l -0.3066,-0.34571 -0.4551,-0.0879 c -46.316,-8.7579 -91.67297,-8.9792 -136.93997,-9.2344 h -0.004 z m -0.0742,2.7148 h 0.0312 c 45.125,0.2544 90.158,0.49538 136.01,9.1094 24.669,27.919 40.458,62.493 53.211,99.426 5.8926,48.263 3.8896,96.017 1.0137,143.78 h -68.91 c -11.031,-23.506 -26.482,-38.775 -45.93,-46.178 -19.629,-7.4718 -43.194,-6.9652 -70.24,0.60742 l -22.699,0.45313 v -194.81 c 0.95398,-4.7013 2.9457,-7.7578 5.8281,-9.7051 2.9042,-1.962 6.8311,-2.8204 11.684,-2.6797 z"
       color="#000000"
       color-rendering="auto"
       fill="#9e9d24"
       fill-rule="evenodd"
       image-rendering="auto"
       shape-rendering="auto"
       solid-color="#000000"
       style="text-indent:0;text-decoration-line:none;text-decoration-style:solid;text-decoration-color:#000000;text-transform:none;white-space:normal;isolation:auto;mix-blend-mode:normal;stroke-width:4.58025"
       id="path34" />
    <path
       d="m 1127.18,442.97 c -12.011,-7.4854 -13.87,2.2808 -24.92,1.9401 l -0.4207,17.457 c 7.1566,4.4662 10.8,2.6665 23.496,3.9161 1.9682,-6.7647 2.2072,-14.815 1.8442,-23.313 z"
       fill="#e6ee9c"
       fill-rule="evenodd"
       id="path36"
       style="stroke-width:4.58025" />
    <path
       d="m 1128.56,424.8 c -11.164,-7.4854 -14.278,-6.1543 -24.549,-6.495 -1.5981,8.7462 -3.2077,17.656 -1.7263,26.402 6.0743,3.5057 11.826,2.4143 24.561,3.406 1.6443,-7.771 2.2488,-15.542 1.7144,-23.313 z"
       fill="#ffb300"
       fill-rule="evenodd"
       id="path38"
       style="stroke-width:4.58025" />
    <path
       d="m 1096.8,416.36 c 10.056,0.33912 20.83,1.115 31.76,8.4435 l -0.334,4.5555 c -11.426,-5.6014 -24.099,-6.0898 -31.039,-6.2682 z"
       fill="#ff8f00"
       fill-rule="evenodd"
       id="path40"
       style="stroke-width:4.58025" />
    <path
       d="m 1101.81,467.95 c 13.085,0.91745 26.17,2.1656 39.255,8.9138 0.1493,8.862 1.3317,23.172 -7.7002,32.156 -8.3854,5.8962 -59.73,2.5332 -91.473,3.6785 l -12,-16.97 73.975,2.3912 z"
       fill="#333333"
       fill-rule="evenodd"
       id="path42"
       style="stroke-width:4.58025" />
    <path
       d="m 1087.1,366.39 c -0.095,-13.73 1.5622,-27.644 -0.3558,-40.462 -5.5112,-17.525 -20.134,-58.918 -44.439,-83.517 -10.775,-8.5266 -124.40002,-12.288 -129.18002,-5.2156 -4.5647,9.3863 -3.5716,78.46 0.77649,82.859 24.252,20.624 103.72003,46.797 173.20003,46.337 z"
       fill="#424242"
       fill-rule="evenodd"
       id="path44"
       style="stroke-width:4.58025" />
    <path
       d="m 1077.55,359.2 c -0.09,-12.814 1.4173,-24.387 -0.3934,-36.35 -5.2038,-16.356 -16.828,-55.418 -39.776,-78.376 -10.174,-7.9573 -117.46002,-11.468 -121.97002,-4.8672 -4.31,8.7596 -2.473,73.105 1.6323,77.21 21.951,20.607 105.41002,42.823 160.50002,42.383 z"
       fill="#d7ccc8"
       fill-rule="evenodd"
       id="path46"
       style="stroke-width:4.58025" />
    <path
       d="m 1162.98,274.51 3.3939,47.151 c 4.2555,-0.7301 8.7137,-0.24434 12.364,-4.606 l -3.2728,-29.939 c -1.615,-4.0404 -3.7182,-8.0809 -6.303,-12.121 z"
       fill="#424242"
       fill-rule="evenodd"
       id="path48"
       style="stroke-width:4.58025" />
    <path
       d="m 1061.34,229.9 c 24.468,35.259 45.457,71.327 60.306,107.32 l -11.513,-3.0809 c -14.756,-34.882 -30.497,-69.295 -53.815,-100.12 l 5.022,-4.1205 z"
       fill="#424242"
       fill-rule="evenodd"
       id="path50"
       style="stroke-width:4.58025" />
    <path
       d="m 1174.38,320.33 -0.7274,8.2424 -2.303,1.3334 h -48 l -5.3334,6.303 v 3.6364 l 2.303,0.60599 0.3638,2.6666 -2.6668,3.3939 0.606,13.455 -2.0605,1.4545 -9.212,-10.788 0.9696,-11.394 6.0604,-0.60631 v -4.3635 l 7.1517,-8.9698 h 48.606 l 0.606,-4.9695 z"
       fill="#424242"
       fill-rule="evenodd"
       id="path52"
       style="stroke-width:4.58025" />
    <path
       d="m 939.57,388.21 -39.092,-1.946 V 374.35 c 0.80147,-2.9202 3.3901,-2.802 5.7425,-3.0855 l 23.445,1.7999 c 2.6459,1.0956 8.0721,3.5354 9.9814,6.8568 z"
       fill="#212121"
       fill-rule="evenodd"
       id="path54"
       style="stroke-width:4.58025" />
    <rect
       transform="scale(-1,1)"
       x="-847.58002"
       y="420.94"
       width="632.71997"
       height="64"
       ry="6.9261999"
       color="#000000"
       color-rendering="auto"
       fill="#424242"
       image-rendering="auto"
       shape-rendering="auto"
       solid-color="#000000"
       style="isolation:auto;mix-blend-mode:normal;stroke-width:4.58025"
       id="rect56" />
    <ellipse
       cx="359.65701"
       cy="526.51001"
       rx="69.935997"
       ry="70.619003"
       color="#000000"
       color-rendering="auto"
       fill="#9e9e9e"
       image-rendering="auto"
       shape-rendering="auto"
       solid-color="#000000"
       style="isolation:auto;mix-blend-mode:normal;stroke-width:4.58025"
       id="ellipse58" />
    <rect
       transform="scale(-1,1)"
       x="-823.31"
       y="445.57001"
       width="182.78999"
       height="81.939003"
       ry="6.9261999"
       color="#000000"
       color-rendering="auto"
       fill="#424242"
       image-rendering="auto"
       shape-rendering="auto"
       solid-color="#000000"
       style="isolation:auto;mix-blend-mode:normal;stroke-width:4.58025"
       id="rect60" />
    <path
       d="m 840.58,472.24 -6.933,7.3952 30.967,48.068 51.304,-1.8488 0.46222,-9.2439 -47.144,0.4622 z"
       fill="#333333"
       fill-rule="evenodd"
       id="path62"
       style="stroke-width:4.58025" />
    <ellipse
       cx="957.39996"
       cy="526.53998"
       rx="69.447998"
       ry="70.588997"
       color="#000000"
       color-rendering="auto"
       fill="#9e9e9e"
       image-rendering="auto"
       shape-rendering="auto"
       solid-color="#000000"
       style="isolation:auto;mix-blend-mode:normal;stroke-width:4.58025"
       id="ellipse64" />
    <circle
       cx="957.67999"
       cy="527.83997"
       r="69.289001"
       color="#000000"
       color-rendering="auto"
       fill="#666666"
       image-rendering="auto"
       shape-rendering="auto"
       solid-color="#000000"
       style="isolation:auto;mix-blend-mode:normal;stroke-width:4.58025"
       id="circle66" />
    <circle
       cx="957.67999"
       cy="527.83997"
       r="43.194"
       color="#000000"
       color-rendering="auto"
       fill="#b0bec5"
       image-rendering="auto"
       shape-rendering="auto"
       solid-color="#000000"
       style="isolation:auto;mix-blend-mode:normal;stroke-width:4.58025"
       id="circle68" />
    <circle
       cx="957.58997"
       cy="527.75"
       r="40.612"
       color="#000000"
       color-rendering="auto"
       fill="#999999"
       image-rendering="auto"
       shape-rendering="auto"
       solid-color="#000000"
       style="isolation:auto;mix-blend-mode:normal;stroke-width:4.58025"
       id="circle70" />
    <circle
       cx="957.67999"
       cy="527.83997"
       r="34.021"
       color="#000000"
       color-rendering="auto"
       fill="#e6e6e6"
       image-rendering="auto"
       shape-rendering="auto"
       solid-color="#000000"
       style="isolation:auto;mix-blend-mode:normal;stroke-width:4.58025"
       id="circle72" />
    <circle
       cx="957.67999"
       cy="527.83997"
       r="19.711"
       color="#000000"
       color-rendering="auto"
       fill="#808080"
       image-rendering="auto"
       shape-rendering="auto"
       solid-color="#000000"
       style="isolation:auto;mix-blend-mode:normal;stroke-width:4.58025"
       id="circle74" />
    <circle
       cx="974"
       cy="508.16998"
       r="2.9219"
       color="#000000"
       color-rendering="auto"
       fill="#666666"
       image-rendering="auto"
       shape-rendering="auto"
       solid-color="#000000"
       style="isolation:auto;mix-blend-mode:normal;stroke-width:4.58025"
       id="circle76" />
    <circle
       cx="984.21997"
       cy="525.70001"
       r="2.9219"
       color="#000000"
       color-rendering="auto"
       fill="#666666"
       image-rendering="auto"
       shape-rendering="auto"
       solid-color="#000000"
       style="isolation:auto;mix-blend-mode:normal;stroke-width:4.58025"
       id="circle78" />
    <circle
       cx="977.81"
       cy="544.76001"
       r="2.9219"
       color="#000000"
       color-rendering="auto"
       fill="#666666"
       image-rendering="auto"
       shape-rendering="auto"
       solid-color="#000000"
       style="isolation:auto;mix-blend-mode:normal;stroke-width:4.58025"
       id="circle80" />
    <circle
       cx="958.75"
       cy="554.38"
       r="2.9219"
       color="#000000"
       color-rendering="auto"
       fill="#666666"
       image-rendering="auto"
       shape-rendering="auto"
       solid-color="#000000"
       style="isolation:auto;mix-blend-mode:normal;stroke-width:4.58025"
       id="circle82" />
    <circle
       cx="937.90997"
       cy="546.53998"
       r="2.9219"
       color="#000000"
       color-rendering="auto"
       fill="#666666"
       image-rendering="auto"
       shape-rendering="auto"
       solid-color="#000000"
       style="isolation:auto;mix-blend-mode:normal;stroke-width:4.58025"
       id="circle84" />
    <circle
       cx="931.31995"
       cy="527.29999"
       r="2.9219"
       color="#000000"
       color-rendering="auto"
       fill="#666666"
       image-rendering="auto"
       shape-rendering="auto"
       solid-color="#000000"
       style="isolation:auto;mix-blend-mode:normal;stroke-width:4.58025"
       id="circle86" />
    <circle
       cx="938.79999"
       cy="509.66998"
       r="2.9219"
       color="#000000"
       color-rendering="auto"
       fill="#666666"
       image-rendering="auto"
       shape-rendering="auto"
       solid-color="#000000"
       style="isolation:auto;mix-blend-mode:normal;stroke-width:4.58025"
       id="circle88" />
    <circle
       cx="954.64996"
       cy="502.35999"
       r="2.9219"
       color="#000000"
       color-rendering="auto"
       fill="#666666"
       image-rendering="auto"
       shape-rendering="auto"
       solid-color="#000000"
       style="isolation:auto;mix-blend-mode:normal;stroke-width:4.58025"
       id="circle90" />
    <circle
       cx="957.58997"
       cy="527.75"
       r="16.950001"
       color="#000000"
       color-rendering="auto"
       fill="#999999"
       image-rendering="auto"
       shape-rendering="auto"
       solid-color="#000000"
       style="isolation:auto;mix-blend-mode:normal;stroke-width:4.58025"
       id="circle92" />
    <circle
       cx="359.76801"
       cy="527.83997"
       r="69.289001"
       color="#000000"
       color-rendering="auto"
       fill="#666666"
       image-rendering="auto"
       shape-rendering="auto"
       solid-color="#000000"
       style="isolation:auto;mix-blend-mode:normal;stroke-width:4.58025"
       id="circle94" />
    <circle
       cx="359.76801"
       cy="527.83997"
       r="43.194"
       color="#000000"
       color-rendering="auto"
       fill="#b0bec5"
       image-rendering="auto"
       shape-rendering="auto"
       solid-color="#000000"
       style="isolation:auto;mix-blend-mode:normal;stroke-width:4.58025"
       id="circle96" />
    <circle
       cx="359.67899"
       cy="527.75"
       r="40.612"
       color="#000000"
       color-rendering="auto"
       fill="#999999"
       image-rendering="auto"
       shape-rendering="auto"
       solid-color="#000000"
       style="isolation:auto;mix-blend-mode:normal;stroke-width:4.58025"
       id="circle98" />
    <circle
       cx="359.76801"
       cy="527.83997"
       r="34.021"
       color="#000000"
       color-rendering="auto"
       fill="#e6e6e6"
       image-rendering="auto"
       shape-rendering="auto"
       solid-color="#000000"
       style="isolation:auto;mix-blend-mode:normal;stroke-width:4.58025"
       id="circle100" />
    <circle
       cx="359.76801"
       cy="527.83997"
       r="19.711"
       color="#000000"
       color-rendering="auto"
       fill="#808080"
       image-rendering="auto"
       shape-rendering="auto"
       solid-color="#000000"
       style="isolation:auto;mix-blend-mode:normal;stroke-width:4.58025"
       id="circle102" />
    <circle
       cx="376.08401"
       cy="508.16998"
       r="2.9219"
       color="#000000"
       color-rendering="auto"
       fill="#666666"
       image-rendering="auto"
       shape-rendering="auto"
       solid-color="#000000"
       style="isolation:auto;mix-blend-mode:normal;stroke-width:4.58025"
       id="circle104" />
    <circle
       cx="386.30899"
       cy="525.70001"
       r="2.9219"
       color="#000000"
       color-rendering="auto"
       fill="#666666"
       image-rendering="auto"
       shape-rendering="auto"
       solid-color="#000000"
       style="isolation:auto;mix-blend-mode:normal;stroke-width:4.58025"
       id="circle106" />
    <circle
       cx="379.897"
       cy="544.76001"
       r="2.9219"
       color="#000000"
       color-rendering="auto"
       fill="#666666"
       image-rendering="auto"
       shape-rendering="auto"
       solid-color="#000000"
       style="isolation:auto;mix-blend-mode:normal;stroke-width:4.58025"
       id="circle108" />
    <circle
       cx="360.83801"
       cy="554.38"
       r="2.9219"
       color="#000000"
       color-rendering="auto"
       fill="#666666"
       image-rendering="auto"
       shape-rendering="auto"
       solid-color="#000000"
       style="isolation:auto;mix-blend-mode:normal;stroke-width:4.58025"
       id="circle110" />
    <circle
       cx="339.99734"
       cy="546.53998"
       r="2.9219"
       color="#000000"
       color-rendering="auto"
       fill="#666666"
       image-rendering="auto"
       shape-rendering="auto"
       solid-color="#000000"
       style="isolation:auto;mix-blend-mode:normal;stroke-width:4.58025"
       id="circle112" />
    <circle
       cx="333.40701"
       cy="527.29999"
       r="2.9219"
       color="#000000"
       color-rendering="auto"
       fill="#666666"
       image-rendering="auto"
       shape-rendering="auto"
       solid-color="#000000"
       style="isolation:auto;mix-blend-mode:normal;stroke-width:4.58025"
       id="circle114" />
    <circle
       cx="340.8876"
       cy="509.66998"
       r="2.9219"
       color="#000000"
       color-rendering="auto"
       fill="#666666"
       image-rendering="auto"
       shape-rendering="auto"
       solid-color="#000000"
       style="isolation:auto;mix-blend-mode:normal;stroke-width:4.58025"
       id="circle116" />
    <circle
       cx="356.73999"
       cy="502.35999"
       r="2.9219"
       color="#000000"
       color-rendering="auto"
       fill="#666666"
       image-rendering="auto"
       shape-rendering="auto"
       solid-color="#000000"
       style="isolation:auto;mix-blend-mode:normal;stroke-width:4.58025"
       id="circle118" />
    <circle
       cx="359.67899"
       cy="527.75"
       r="16.950001"
       color="#000000"
       color-rendering="auto"
       fill="#999999"
       image-rendering="auto"
       shape-rendering="auto"
       solid-color="#000000"
       style="isolation:auto;mix-blend-mode:normal;stroke-width:4.58025"
       id="circle120" />
    <rect
       transform="scale(-1,1)"
       x="-1109.11"
       y="427.75"
       width="3.6975999"
       height="15.83"
       ry="1.6506"
       color="#000000"
       color-rendering="auto"
       fill="#ff8f00"
       image-rendering="auto"
       shape-rendering="auto"
       solid-color="#000000"
       style="isolation:auto;mix-blend-mode:normal;stroke-width:4.58025"
       id="rect122" />
    <path
       d="m 937.75,386.15 v -5.6377 c -2.6672,-2.0017 -5.669,-3.7432 -9.3144,-4.984 l -25.002,-1.7975 c -1.016,0.12304 -1.6257,0.88478 -1.8792,2.206 l 26.554,1.8792 c 2.8052,0.62581 5.6105,1.9098 8.4157,3.5133 l 0.16338,3.595 z"
       fill-rule="evenodd"
       id="path124"
       style="stroke-width:4.58025" />
    <path
       d="m 961.36,236.24 c 16.798,0.28827 35.199,1.2743 49.796,2.8082 l -70.62,91.796 c -10.301,-4.5686 -18.501,-9.3369 -23.494,-14.025 -1.3234,-1.3233 -2.4059,-8.9404 -3.128,-18.904 l 47.446,-61.676 z m 58.847,3.9065 c 4.9629,0.69457 9.1722,1.4648 12.244,2.3077 l -73.525,95.575 c -3.792,-1.3165 -7.4466,-2.6645 -10.912,-4.0405 l 72.193,-93.842 z"
       color="#000000"
       color-rendering="auto"
       fill="#bcaaa4"
       image-rendering="auto"
       shape-rendering="auto"
       solid-color="#000000"
       style="isolation:auto;mix-blend-mode:normal;stroke-width:4.58025"
       id="path126" />
    <rect
       transform="scale(-1,1)"
       x="-824.58997"
       y="485.09998"
       width="185.31"
       height="7.5169001"
       ry="0"
       color="#000000"
       color-rendering="auto"
       fill="#333333"
       image-rendering="auto"
       shape-rendering="auto"
       solid-color="#000000"
       style="isolation:auto;mix-blend-mode:normal;stroke-width:4.58025"
       id="rect128" />
    <path
       d="m 602.2,485.29 c -2.1274,6.2915 -4.6961,12.495 -1.1555,19.913 l -4.9686,4.3604 c -12.728,-4.6104 -11.527,-14.374 -8.7818,-24.709 z"
       fill="#333333"
       fill-rule="evenodd"
       id="path130"
       style="stroke-width:4.58025" />
    <rect
       transform="scale(-1,1)"
       x="-863.66998"
       y="452.29999"
       width="17.069"
       height="7.5169001"
       ry="0"
       color="#000000"
       color-rendering="auto"
       fill="#333333"
       image-rendering="auto"
       shape-rendering="auto"
       solid-color="#000000"
       style="isolation:auto;mix-blend-mode:normal;stroke-width:4.58025"
       id="rect132" />
    <rect
       x="117.55"
       y="141.50999"
       width="738.17999"
       height="312.85999"
       color="#000000"
       color-rendering="auto"
       fill="#ffffff"
       image-rendering="auto"
       shape-rendering="auto"
       solid-color="#000000"
       style="isolation:auto;mix-blend-mode:normal;stroke-width:4.58025"
       id="rect134" />
    <rect
       x="117.55"
       y="143.65001"
       width="738.17999"
       height="28.466"
       color="#000000"
       color-rendering="auto"
       fill="#afb42b"
       image-rendering="auto"
       shape-rendering="auto"
       solid-color="#000000"
       style="isolation:auto;mix-blend-mode:normal;stroke-width:4.58025"
       id="rect136" />
    <rect
       x="830.59998"
       y="141.50999"
       width="25.132"
       height="312.85999"
       color="#000000"
       color-rendering="auto"
       fill="#afb42b"
       image-rendering="auto"
       shape-rendering="auto"
       solid-color="#000000"
       style="isolation:auto;mix-blend-mode:normal;stroke-width:4.58025"
       id="rect138" />
    <rect
       x="117.55"
       y="141.50999"
       width="31.917999"
       height="312.85999"
       color="#000000"
       color-rendering="auto"
       fill="#afb42b"
       image-rendering="auto"
       shape-rendering="auto"
       solid-color="#000000"
       style="isolation:auto;mix-blend-mode:normal;stroke-width:4.58025"
       id="rect140" />
    <path
       d="m 117.55,141.51 v 28.465 H 855.73 V 141.51 Z m 0,63.773 v 249.08 h 738.18 v -249.08 z"
       color="#000000"
       color-rendering="auto"
       fill="#cddc39"
       image-rendering="auto"
       shape-rendering="auto"
       solid-color="#000000"
       style="isolation:auto;mix-blend-mode:normal;stroke-width:4.58025"
       id="path142" />
    <path
       d="M 855.73,238.24 677.4,454.36 h 73.74 L 855.73,327.6 v -89.369 z"
       color="#000000"
       color-rendering="auto"
       fill="#d4e157"
       image-rendering="auto"
       shape-rendering="auto"
       solid-color="#000000"
       style="isolation:auto;mix-blend-mode:normal;stroke-width:4.58025"
       id="path144" />
    <path
       d="m 267.592,141.51 -23.486,28.465 h 73.742 l 23.486,-28.465 z m 254.45,0 -23.486,28.465 h 176.78 l 23.486,-28.465 z m 196.98,0 -23.486,28.465 h 73.74 l 23.486,-28.465 z m -504.05,63.773 -97.426,118.07 v 89.373 l 171.17,-207.45 h -73.742 z m 254.45,0 -205.52,249.08 h 176.78 l 205.52,-249.08 z m 196.98,0 -205.52,249.08 h 73.74 l 205.52,-249.08 z"
       color="#000000"
       color-rendering="auto"
       fill="#d4e157"
       image-rendering="auto"
       shape-rendering="auto"
       solid-color="#000000"
       style="isolation:auto;mix-blend-mode:normal;stroke-width:4.58025"
       id="path146" />
    <rect
       x="117.55"
       y="276.22998"
       width="738.17999"
       height="10.562"
       color="#000000"
       color-rendering="auto"
       fill="#afb42b"
       image-rendering="auto"
       shape-rendering="auto"
       solid-color="#000000"
       style="isolation:auto;mix-blend-mode:normal;stroke-width:4.58025"
       id="rect148" />
    <rect
       x="117.55"
       y="237.84999"
       width="738.17999"
       height="10.562"
       color="#000000"
       color-rendering="auto"
       fill="#afb42b"
       image-rendering="auto"
       shape-rendering="auto"
       solid-color="#000000"
       style="isolation:auto;mix-blend-mode:normal;stroke-width:4.58025"
       id="rect150" />
    <rect
       x="120.26001"
       y="141.50999"
       width="19.694"
       height="312.85999"
       color="#000000"
       color-rendering="auto"
       fill="#afb42b"
       image-rendering="auto"
       shape-rendering="auto"
       solid-color="#000000"
       style="isolation:auto;mix-blend-mode:normal;stroke-width:4.58025"
       id="rect152" />
    <rect
       x="117.55"
       y="143.28001"
       width="738.17999"
       height="8.8964996"
       color="#000000"
       color-rendering="auto"
       fill="#afb42b"
       image-rendering="auto"
       shape-rendering="auto"
       solid-color="#000000"
       style="isolation:auto;mix-blend-mode:normal;stroke-width:4.58025"
       id="rect154" />
    <rect
       x="836.94"
       y="141.50999"
       width="19.694"
       height="312.85999"
       color="#000000"
       color-rendering="auto"
       fill="#afb42b"
       image-rendering="auto"
       shape-rendering="auto"
       solid-color="#000000"
       style="isolation:auto;mix-blend-mode:normal;stroke-width:4.58025"
       id="rect156" />
    <rect
       x="731.38"
       y="141.50999"
       width="19.694"
       height="312.85999"
       color="#000000"
       color-rendering="auto"
       fill="#afb42b"
       image-rendering="auto"
       shape-rendering="auto"
       solid-color="#000000"
       style="isolation:auto;mix-blend-mode:normal;stroke-width:4.58025"
       id="rect158" />
    <rect
       x="633.39996"
       y="141.50999"
       width="19.694"
       height="312.85999"
       color="#000000"
       color-rendering="auto"
       fill="#afb42b"
       image-rendering="auto"
       shape-rendering="auto"
       solid-color="#000000"
       style="isolation:auto;mix-blend-mode:normal;stroke-width:4.58025"
       id="rect160" />
    <rect
       x="526.96997"
       y="141.50999"
       width="19.694"
       height="312.85999"
       color="#000000"
       color-rendering="auto"
       fill="#afb42b"
       image-rendering="auto"
       shape-rendering="auto"
       solid-color="#000000"
       style="isolation:auto;mix-blend-mode:normal;stroke-width:4.58025"
       id="rect162" />
    <rect
       x="428.47699"
       y="141.50999"
       width="19.694"
       height="312.85999"
       color="#000000"
       color-rendering="auto"
       fill="#afb42b"
       image-rendering="auto"
       shape-rendering="auto"
       solid-color="#000000"
       style="isolation:auto;mix-blend-mode:normal;stroke-width:4.58025"
       id="rect164" />
    <rect
       x="117.55"
       y="434.01996"
       width="738.17999"
       height="18.829"
       color="#000000"
       color-rendering="auto"
       fill="#afb42b"
       image-rendering="auto"
       shape-rendering="auto"
       solid-color="#000000"
       style="isolation:auto;mix-blend-mode:normal;stroke-width:4.58025"
       id="rect166" />
    <rect
       x="328.47202"
       y="141.50999"
       width="19.694"
       height="312.85999"
       color="#000000"
       color-rendering="auto"
       fill="#afb42b"
       image-rendering="auto"
       shape-rendering="auto"
       solid-color="#000000"
       style="isolation:auto;mix-blend-mode:normal;stroke-width:4.58025"
       id="rect168" />
    <rect
       x="227.33"
       y="141.50999"
       width="19.694"
       height="312.85999"
       color="#000000"
       color-rendering="auto"
       fill="#afb42b"
       image-rendering="auto"
       shape-rendering="auto"
       solid-color="#000000"
       style="isolation:auto;mix-blend-mode:normal;stroke-width:4.58025"
       id="rect170" />
    <rect
       x="117.55"
       y="141.50999"
       width="738.17999"
       height="8.8964996"
       color="#000000"
       color-rendering="auto"
       fill="#c0ca33"
       image-rendering="auto"
       shape-rendering="auto"
       solid-color="#000000"
       style="isolation:auto;mix-blend-mode:normal;stroke-width:4.58025"
       id="rect172" />
    <rect
       x="117.55"
       y="235.83"
       width="738.17999"
       height="10.562"
       color="#000000"
       color-rendering="auto"
       fill="#c0ca33"
       image-rendering="auto"
       shape-rendering="auto"
       solid-color="#000000"
       style="isolation:auto;mix-blend-mode:normal;stroke-width:4.58025"
       id="rect174" />
    <rect
       x="117.55"
       y="274.20999"
       width="738.17999"
       height="10.562"
       color="#000000"
       color-rendering="auto"
       fill="#c0ca33"
       image-rendering="auto"
       shape-rendering="auto"
       solid-color="#000000"
       style="isolation:auto;mix-blend-mode:normal;stroke-width:4.58025"
       id="rect176" />
    <rect
       x="117.55"
       y="141.50999"
       width="19.694"
       height="312.85999"
       color="#000000"
       color-rendering="auto"
       fill="#c0ca33"
       image-rendering="auto"
       shape-rendering="auto"
       solid-color="#000000"
       style="isolation:auto;mix-blend-mode:normal;stroke-width:4.58025"
       id="rect178" />
    <rect
       x="228.92"
       y="141.50999"
       width="19.694"
       height="312.85999"
       color="#000000"
       color-rendering="auto"
       fill="#c0ca33"
       image-rendering="auto"
       shape-rendering="auto"
       solid-color="#000000"
       style="isolation:auto;mix-blend-mode:normal;stroke-width:4.58025"
       id="rect180" />
    <rect
       x="332.14191"
       y="141.50999"
       width="19.694"
       height="312.85999"
       color="#000000"
       color-rendering="auto"
       fill="#c0ca33"
       image-rendering="auto"
       shape-rendering="auto"
       solid-color="#000000"
       style="isolation:auto;mix-blend-mode:normal;stroke-width:4.58025"
       id="rect182" />
    <rect
       x="432.64899"
       y="141.50999"
       width="19.694"
       height="312.85999"
       color="#000000"
       color-rendering="auto"
       fill="#c0ca33"
       image-rendering="auto"
       shape-rendering="auto"
       solid-color="#000000"
       style="isolation:auto;mix-blend-mode:normal;stroke-width:4.58025"
       id="rect184" />
    <rect
       x="530.44"
       y="141.50999"
       width="19.694"
       height="312.85999"
       color="#000000"
       color-rendering="auto"
       fill="#c0ca33"
       image-rendering="auto"
       shape-rendering="auto"
       solid-color="#000000"
       style="isolation:auto;mix-blend-mode:normal;stroke-width:4.58025"
       id="rect186" />
    <rect
       x="637.73999"
       y="141.50999"
       width="19.694"
       height="312.85999"
       color="#000000"
       color-rendering="auto"
       fill="#c0ca33"
       image-rendering="auto"
       shape-rendering="auto"
       solid-color="#000000"
       style="isolation:auto;mix-blend-mode:normal;stroke-width:4.58025"
       id="rect188" />
    <rect
       x="736.89001"
       y="141.50999"
       width="19.694"
       height="312.85999"
       color="#000000"
       color-rendering="auto"
       fill="#c0ca33"
       image-rendering="auto"
       shape-rendering="auto"
       solid-color="#000000"
       style="isolation:auto;mix-blend-mode:normal;stroke-width:4.58025"
       id="rect190" />
    <rect
       x="842.78998"
       y="141.50999"
       width="19.694"
       height="312.85999"
       color="#000000"
       color-rendering="auto"
       fill="#c0ca33"
       image-rendering="auto"
       shape-rendering="auto"
       solid-color="#000000"
       style="isolation:auto;mix-blend-mode:normal;stroke-width:4.58025"
       id="rect192" />
    <path
       d="m 927.07,168.75 -80.784,21.207 0.0651,4.2832 80.719,-19.688 v -5.8027 z"
       fill="#c0ca33"
       fill-rule="evenodd"
       id="path194"
       style="stroke-width:4.58025" />
    <path
       d="m 311.886,451.84 -43.942,51.013 h -10.607 l 18.688,-55.558 z"
       fill="#333333"
       fill-rule="evenodd"
       id="path196"
       style="stroke-width:4.58025" />
    <rect
       x="117.55"
       y="436.60999"
       width="738.17999"
       height="17.757999"
       color="#000000"
       color-rendering="auto"
       fill="#c0ca33"
       image-rendering="auto"
       shape-rendering="auto"
       solid-color="#000000"
       style="isolation:auto;mix-blend-mode:normal;stroke-width:4.58025"
       id="rect198" />
  </g>
</svg>
