<?xml version="1.0" encoding="UTF-8" standalone="no"?>
<svg
   width="973.98993"
   height="1076.589"
   viewBox="0 0 257.7015 284.8475"
   version="1.1"
   id="svg2127"
   sodipodi:docname="coffee.svg"
   inkscape:version="1.2.2 (732a01da63, 2022-12-09)"
   xmlns:inkscape="http://www.inkscape.org/namespaces/inkscape"
   xmlns:sodipodi="http://sodipodi.sourceforge.net/DTD/sodipodi-0.dtd"
   xmlns="http://www.w3.org/2000/svg"
   xmlns:svg="http://www.w3.org/2000/svg">
  <sodipodi:namedview
     id="namedview716"
     pagecolor="#ffffff"
     bordercolor="#cccccc"
     borderopacity="1"
     inkscape:showpageshadow="0"
     inkscape:pageopacity="1"
     inkscape:pagecheckerboard="0"
     inkscape:deskcolor="#d1d1d1"
     showgrid="false"
     inkscape:zoom="0.22958334"
     inkscape:cx="-126.31579"
     inkscape:cy="914.70054"
     inkscape:window-width="1366"
     inkscape:window-height="705"
     inkscape:window-x="-8"
     inkscape:window-y="-8"
     inkscape:window-maximized="1"
     inkscape:current-layer="svg2127" />
  <defs
     id="defs2121">
    <filter
       height="1.3174642"
       y="-0.15873208"
       width="1.1048743"
       x="-0.052437158"
       id="filter3794">
      <feGaussianBlur
         id="feGaussianBlur3796"
         stdDeviation="5.2898216" />
    </filter>
    <filter
       height="1.4896946"
       y="-0.24484732"
       width="1.3961058"
       x="-0.19805292"
       id="filter3858">
      <feGaussianBlur
         id="feGaussianBlur3860"
         stdDeviation="9.7576734" />
    </filter>
    <filter
       id="filter3785">
      <feGaussianBlur
         id="feGaussianBlur3787"
         stdDeviation="4.1211438" />
    </filter>
    <filter
       id="filter3872"
       x="-0.026802991"
       y="-0.050571291"
       width="1.053606"
       height="1.1011426">
      <feGaussianBlur
         id="feGaussianBlur3874"
         stdDeviation="2.8677107" />
    </filter>
    <filter
       height="1.5114574"
       y="-0.2557287"
       width="1.0931967"
       x="-0.046598374"
       id="filter3882">
      <feGaussianBlur
         id="feGaussianBlur3884"
         stdDeviation="2.3330019" />
    </filter>
    <filter
       id="filter3890"
       x="-0.058471342"
       y="-0.040962196"
       width="1.1169427"
       height="1.0819244">
      <feGaussianBlur
         id="feGaussianBlur3892"
         stdDeviation="1.1815842" />
    </filter>
    <filter
       id="filter3898"
       x="-0.059935614"
       y="-0.072675095"
       width="1.1198712"
       height="1.1453502">
      <feGaussianBlur
         id="feGaussianBlur3900"
         stdDeviation="4.8697684" />
    </filter>
  </defs>
  <metadata
     id="metadata2124" />
  <rect
     x="-466.74228"
     y="0"
     width="257.70151"
     height="284.8475"
     fill="#f2deb3"
     id="rect1254"
     style="fill:#f7eace;fill-opacity:1;stroke-width:1.35467" />
  <g
     id="layer1-0"
     transform="matrix(0.36202433,0,0,0.36202433,-23.628775,-70.736516)"
     style="stroke-width:0.730844">
    <path
       style="fill:#4d4d4d;fill-opacity:1;stroke:none;stroke-width:0.730844"
       d="m 235.42999,599.68252 c 0,0 -81.23929,14.3139 -83.40068,47.64901 -3.5197,54.28434 164.78915,73.17523 222.35161,73.17523 57.56246,0 225.87131,-18.89089 222.35161,-73.17523 -2.16139,-33.33511 -83.40068,-47.64901 -83.40068,-47.64901 -81.77445,-14.97132 -199.28712,-15.90269 -277.90186,0 z"
       id="path3840" />
    <path
       id="path3010"
       d="m 238.90107,599.00075 c 0,0 -79.20988,14.09549 -81.31728,46.92194 -3.43178,53.45605 160.67262,72.05869 216.79713,72.05869 56.12451,0 220.22891,-18.60264 216.79713,-72.05869 -2.1074,-32.82645 -81.31728,-46.92194 -81.31728,-46.92194 -79.73167,-14.7429 -194.3088,-15.66005 -270.9597,0 z"
       style="fill:#e6e6e6;stroke:none;stroke-width:0.730844" />
    <path
       id="path3848"
       d="m 233.34524,659.41284 c 4.59711,6.12949 13.52506,9.48446 19.19289,15.15229 3.37545,3.37545 5.97949,12.4314 11.11168,14.14214 7.79873,2.59957 80.01567,16.05563 83.84266,14.14213 7.85359,-3.92679 -22.11091,-51.40534 -27.27412,-56.56854 -7.01432,-7.01433 -17.43397,-11.37306 -24.24366,-18.18275 -10.88031,-10.88031 -25.71935,-15.38506 -36.36549,-20.70812 -7.76128,7.70356 -38.34782,35.91104 -26.26396,52.02285 z"
       style="fill:#ffffff;stroke:none;stroke-width:0.730844;filter:url(#filter3858)" />
    <path
       id="path3019"
       d="m 329.88572,678.08036 c 10.1267,35.89828 60.94805,29.29442 92.42895,29.29442 16.97083,0 36.89031,2.18209 52.52794,-3.03046 24.54312,-8.18104 54.92704,-17.8355 76.26651,-33.84011 13.11338,-9.83503 35.64117,-32.90304 7.07107,-42.4264 -9.87969,-3.29323 -64.60423,33.81734 -76.77159,39.90102 -5.64935,2.82468 -16.43595,-11.50097 -20.70813,-13.63706 -5.36294,-2.68147 -15.9564,-0.50507 -22.22335,-0.50507 z"
       style="fill:#878787;fill-opacity:1;stroke:none;stroke-width:0.730844;filter:url(#filter3794)" />
    <path
       id="path3876"
       d="m 314.40998,669.51437 c 13.56145,28.40238 130.27921,29.97397 119.45053,0 z"
       style="fill:#333333;fill-opacity:1;stroke:none;stroke-width:0.730844;filter:url(#filter3882)" />
    <path
       style="fill:#4d4d4d;fill-opacity:1;stroke:none;stroke-width:0.730844"
       d="m 314.40998,669.51437 c 9.24532,27.21532 112.31278,24.47016 119.45053,0 z"
       id="path3798" />
    <path
       id="path3008"
       d="m 315.42013,669.51437 c 9.08895,22.9631 110.4132,20.64685 117.43023,0 z"
       style="fill:#999999;fill-opacity:1;stroke:none;stroke-width:0.730844" />
    <path
       id="path3819"
       d="m 516.71847,497.52648 c 8.96181,68.66619 -21.09238,149.62071 -83.1187,173.44939 -24.8827,9.55921 -92.3849,10.81828 -119.14587,0 -61.6095,-24.90602 -92.08539,-104.7832 -83.12357,-173.44939 26.71917,-35.97578 237.88606,-30.88801 285.38814,0 z"
       style="fill:#4d4d4d;fill-opacity:1;stroke:none;stroke-width:0.730844" />
    <path
       style="fill:#cccccc;stroke:none;stroke-width:0.730844"
       d="m 516.21884,497.28336 c 8.93043,68.18385 -21.01853,148.56971 -82.82765,172.23101 -24.79557,9.49206 -92.06141,10.74229 -118.72867,0 -61.39377,-24.73107 -91.76294,-104.04716 -82.83251,-172.23101 26.63739,-46.18891 237.06972,-45.45686 284.38883,0 z"
       id="path3000" />
    <path
       style="fill:#ffffff;stroke:none;stroke-width:0.730844"
       d="m 237.38585,499.80874 c 47.18161,23.18935 208.62142,34.97918 272.74118,0 16.85625,68.63576 -275.5578,62.13045 -272.74118,0 z"
       id="path3862" />
    <path
       id="path3002"
       d="m 237.38585,499.80874 c 49.8977,-51.03656 242.43661,-29.7995 272.74118,0 6.71911,64.61515 -270.04128,54.42611 -272.74118,0 z"
       style="fill:#808080;stroke:none;stroke-width:0.730844" />
    <path
       style="fill:#483131;fill-opacity:1;stroke:none;stroke-width:0.730844"
       d="m 365.71191,482.07139 c -72.71307,1.94753 -103.70208,17.01513 -124.82265,27.27538 30.18176,43.01384 246.08392,50.30797 267.625,1.03125 -39.33457,-20.44048 -90.74965,-29.7008 -142.80235,-28.30663 z"
       id="path3823" />
    <path
       id="path3014"
       d="m 364.70176,484.59677 c -72.71307,1.94753 -96.63101,16.00498 -123.8125,24.75 30.18176,43.01384 246.08392,50.30797 267.625,1.03125 -36.80919,-16.90495 -91.7598,-27.17542 -143.8125,-25.78125 z"
       style="fill:#845b36;fill-opacity:1;stroke:none;stroke-width:0.730844" />
    <path
       transform="matrix(-1,0,0,1,799.41304,28.284271)"
       id="path3805"
       d="m 285.84375,512.71875 c 5.67102,55.30528 34.84421,108.95049 83.375,128.5 26.66726,10.74229 93.92318,9.49206 118.71875,0 22.60533,-8.6536 40.94858,-24.88733 54.6875,-45.34375 -69.84504,50.59323 -203.81605,42.66445 -256.78125,-83.15625 z"
       style="fill:#999999;fill-opacity:1;stroke:none;stroke-width:0.730844;filter:url(#filter3872)" />
    <path
       id="path3842"
       d="m 425.84161,665.64645 c -144.57812,38.98404 -190.85108,-60.81303 -195,-152.14286 17.83119,122.18056 102.41322,159.01913 195,152.14286 z"
       style="fill:#ffffff;stroke:none;stroke-width:0.730844;filter:url(#filter3898)" />
    <path
       style="fill:#4d4d4d;fill-opacity:1;stroke:none;stroke-width:0.730844"
       d="m 231.83001,497.28336 c -33.3401,-24.58726 -51.47982,-0.59668 -56.08179,12.17067 -9.92859,27.54514 14.81511,78.17124 81.84068,112.07809 4.72626,-2.98135 -3.63639,-19.66365 -13.13199,-26.26397 -58.82131,-24.70007 -62.38135,-94.78816 -44.96647,-96.85862 16.5993,-1.9735 30.04755,16.98852 32.33957,40.29008 3.32013,-2.14564 6.26512,-33.26451 0,-41.41625 z"
       id="path3844" />
    <path
       id="path2996"
       d="m 231.83001,497.28336 c -32.83502,-20.04157 -49.45951,0.41347 -54.06148,13.18082 -9.92859,27.54514 15.82526,77.16109 79.82037,111.06794 1.6958,-0.45597 -2.12116,-13.60273 -13.13199,-26.26397 -60.33654,-39.85236 -59.35089,-89.23232 -41.93601,-91.30278 16.5993,-1.9735 19.44095,14.46314 29.30911,34.73424 3.05605,-1.96959 1.93585,-23.47562 0,-41.41625 z"
       style="fill:#999999;stroke:none;stroke-width:0.730844" />
    <path
       id="path3023"
       d="m 181.29551,618.22177 c -12.86339,7.08902 -22.98366,16.23718 -23.71875,27.6875 -3.43178,53.45605 160.68799,72.0625 216.8125,72.0625 52.10301,0 197.24166,-16.02736 215.03125,-61.09375 -29.76259,42.22323 -163.56514,60.1097 -259.59375,50.53125 -105.47686,-10.52086 -194.17,-38.98601 -148.53125,-89.1875 z"
       style="fill:#ffffff;stroke:none;stroke-width:0.730844" />
    <path
       id="path3838"
       d="m 295.53275,507.51116 c 11.22188,0.46098 22.00898,1.89403 33.2719,1.89403 6.80749,0 14.1701,-1.90103 20.70813,-3.53554 10.3579,-2.58947 36.46521,-1.51522 47.47717,-1.51522 11.62645,0 -7.356,6.10162 -10.6066,6.56599 -19.88886,2.84126 -40.68322,-1.31968 -60.10408,3.53553 -2.97001,0.7425 -15.18426,3.43962 -13.63706,8.08122 2.55754,7.67263 24.25762,4.04061 30.30458,4.04061 39.47985,0 82.46079,9.27723 118.18784,-8.5863 4.38225,-2.19112 16.70188,-1.58393 19.1929,-6.56599 2.57899,-5.15797 -21.58592,-0.24037 -23.73858,-4.54568 -1.88055,-3.7611 8.83014,-3.08248 6.81109,-5.10153 -3.96472,-3.96472 -24.41273,-4.3787 -30.0446,-5.50508 -29.96447,-5.99289 -77.64623,-10.22964 -108.5914,-4.04061 -7.21912,1.44383 -59.6346,9.16257 -63.13453,16.16245 -3.12058,6.24114 14.15644,6.06091 17.67767,6.06091 3.48692,0 13.38939,0.49533 15.15228,-3.03046 0.94127,-1.88253 -8.98906,-1.39818 -8.58629,-1.95717 1.81982,-2.52566 7.33056,-2.05284 9.65958,-1.95716 z"
       style="fill:#674a30;fill-opacity:1;stroke:none;stroke-width:0.730844" />
    <path
       id="path3827"
       d="m 243.10801,508.59677 c -0.74177,0.24752 -1.47315,0.51012 -2.21875,0.75 30.18176,43.01384 246.08392,50.30797 267.625,1.03125 -0.0505,-0.0232 -0.10572,-0.0393 -0.15625,-0.0625 -0.084,0.036 -0.16464,0.0583 -0.25,0.0937 -68.00897,40.45686 -210.52256,27.55927 -265.15625,-1.5 0.0549,-0.10333 0.10119,-0.20942 0.15625,-0.3125 z"
       style="fill:#674a30;fill-opacity:1;stroke:none;stroke-width:0.730844" />
    <path
       id="path3832"
       d="m 397.7135,493.37802 c -15.58997,-0.31024 -30.97826,0.45832 -45.125,1.71875 -37.72464,3.36115 -66.6875,10.34375 -66.6875,10.34375 a 2.0002,2.0002 0 1 0 0.9375,3.875 c 0,0 28.67641,-6.88498 66.09375,-10.21875 37.18081,-3.3127 82.93395,-2.96762 117.375,10.9375 -2.0913,0.81427 -6.01593,1.76505 -11.4375,2.65625 -11.85515,1.94874 -30.00224,3.72148 -49.5,5.09375 -19.49776,1.37227 -40.3753,2.36079 -57.75,2.71875 -16.44295,0.33877 -29.40139,0.0119 -35.125,-0.84375 0.73552,-0.22421 1.31158,-0.41919 2.25,-0.65625 6.84089,-1.72811 18.637,-3.66654 32.15625,-5.40625 27.0385,-3.47942 61.19515,-6.16238 77.28125,-5.21875 a 2.0039024,2.0039024 0 1 0 0.25,-4 c -16.84443,-0.98812 -50.83211,1.74991 -78.03125,5.25 -13.59957,1.75004 -25.42182,3.68037 -32.625,5.5 -1.80079,0.45491 -3.31041,0.91522 -4.53125,1.375 -1.22084,0.45978 -2.12965,0.7802 -2.96875,1.65625 -0.41955,0.43802 -0.90058,1.23596 -0.78125,2.1875 0.11933,0.95154 0.72028,1.56085 1.21875,1.90625 0.99694,0.69081 2.0366,0.9584 3.5625,1.25 6.17839,1.18071 19.97995,1.35967 37.4375,1 17.45755,-0.35967 38.3722,-1.34172 57.9375,-2.71875 19.5653,-1.37703 37.76119,-3.13374 49.875,-5.125 6.05691,-0.99563 10.48417,-1.99225 13.21875,-3.25 0.68364,-0.31444 1.2755,-0.64084 1.8125,-1.125 0.537,-0.48416 1.13309,-1.24976 1.125,-2.28125 -0.008,-1.03149 -0.6126,-1.85906 -1.1875,-2.34375 -0.5749,-0.48469 -1.23218,-0.80981 -2,-1.125 -22.27741,-9.14492 -48.79796,-12.63919 -74.78125,-13.15625 z"
       style="color:#000000;font-style:normal;font-variant:normal;font-weight:normal;font-stretch:normal;font-size:medium;line-height:normal;font-family:Sans;-inkscape-font-specification:Sans;text-indent:0;text-align:start;text-decoration:none;text-decoration-line:none;letter-spacing:normal;word-spacing:normal;text-transform:none;writing-mode:lr-tb;direction:ltr;baseline-shift:baseline;text-anchor:start;display:inline;overflow:visible;visibility:visible;fill:#ca9666;fill-opacity:1;stroke:none;stroke-width:2.92338;marker:none;enable-background:accumulate" />
    <path
       id="path3846"
       d="m 193.77597,561.13218 c -15.42994,-15.84395 -18.83098,-37.5998 -12.44317,-52.55737 6.31182,-14.77963 22.18099,-22.93021 45.44644,-10.78638 -20.28804,-7.1095 -35.26331,-0.33511 -40.90408,14.31211 -5.18162,13.45497 -2.31919,33.88792 7.90081,49.03164 z"
       style="fill:#ffffff;stroke:none;stroke-width:0.730844;filter:url(#filter3890)" />
    <path
       id="path3791"
       d="m 288.47506,372.97983 c -16.69692,59.13164 18.66282,66.00774 0,112.12693 7.49014,-39.30835 -26.88335,-65.30104 0,-112.12693 z"
       style="opacity:0.111111;fill:#674a30;fill-opacity:1;stroke:none;stroke-width:0.730844" />
    <path
       style="opacity:0.111111;fill:#674a30;fill-opacity:1;stroke:none;stroke-width:0.730844"
       d="m 331.18501,344.55126 c -21.5897,76.45929 24.13169,85.35033 0,144.98407 9.68502,-50.82708 -34.76112,-84.43655 0,-144.98407 z"
       id="path3795" />
    <path
       id="path3797"
       d="m 373.49458,323.4084 c -23.72317,94.54032 26.51635,105.53391 0,179.26979 10.64208,-62.84663 -38.19617,-104.40404 0,-179.26979 z"
       style="opacity:0.111111;fill:#674a30;fill-opacity:1;stroke:none;stroke-width:0.730844" />
    <path
       style="opacity:0.111111;fill:#674a30;fill-opacity:1;stroke:none;stroke-width:0.730844"
       d="m 456.47506,372.97983 c -16.69692,59.13164 18.66282,66.00774 0,112.12693 7.49014,-39.30835 -26.88335,-65.30104 0,-112.12693 z"
       id="path3799" />
    <path
       id="path3801"
       d="m 415.18501,344.55126 c -21.5897,76.45929 24.13169,85.35033 0,144.98407 9.68502,-50.82708 -34.76112,-84.43655 0,-144.98407 z"
       style="opacity:0.111111;fill:#674a30;fill-opacity:1;stroke:none;stroke-width:0.730844" />
  </g>
  <path
     style="fill:#f6d586;fill-opacity:1;stroke:none;stroke-width:1.12915;stroke-linecap:butt;stroke-linejoin:miter;stroke-miterlimit:4;stroke-dasharray:none;stroke-opacity:1"
     d="m 132.14437,215.20295 c 2.24894,11.98735 17.05561,26.51677 32.68832,30.69692 17.34326,4.63757 24.39869,-0.18075 33.405,-2.00331 1.47709,-0.29892 4.25388,-0.18006 6.04861,-0.76727 8.71343,-2.85137 19.05519,-9.96186 23.33878,-23.25968 1.84641,-5.73197 -0.42232,-18.06117 -0.42232,-18.06117 0,0 -2.35675,-14.29551 -7.29617,-19.24941 -10.65541,-10.68667 -27.46577,-17.74973 -42.4573,-16.84323 -22.04272,1.33292 -50.74738,20.47755 -45.30492,49.48715 z"
     id="path54" />
  <path
     style="fill:#f7d78d;fill-opacity:1;stroke:none;stroke-width:0.110368;stroke-linecap:butt;stroke-linejoin:miter;stroke-miterlimit:4;stroke-dasharray:none;stroke-opacity:1"
     d="m 189.24726,198.08276 2.79429,-0.31049 5.58856,3.88094 0.8538,-1.7076 -2.71666,-3.72569 -0.77617,-3.57046 -3.57045,-0.77618 -2.40618,-3.3376 2.94951,-1.3195 0.46571,-4.11378 -1.70762,-1.16428 2.71664,-0.77619 -0.15519,-2.56142 2.79428,-1.78524 1.78523,-1.47473 1.06438,1.33502 2.46981,-0.0549 0.54879,-2.36011 -5.32381,-3.01864 -3.78704,-0.0549 -4.06145,0.1096 -1.4819,-0.71349 -4.56444,-0.21025 0.5433,2.87185 1.08669,0.31048 2.3285,4.11374 -0.93139,4.19145 c 0,0 -4.90723,1.86944 -6.56263,3.77408 -0.97635,1.12333 -1.66492,4.143 -1.66492,4.143 0,0 1.04486,2.43331 2.14102,2.96962 1.34463,0.65787 4.4879,-0.16217 4.4879,-0.16217 z"
     id="path866" />
  <path
     style="fill:#f7d78d;fill-opacity:1;stroke:none;stroke-width:0.169797;stroke-linecap:butt;stroke-linejoin:miter;stroke-miterlimit:4;stroke-dasharray:none;stroke-opacity:1"
     d="m 164.13044,187.87202 -0.10973,2.41489 c 0,0 2.29573,1.28026 3.18328,0.65865 1.45381,-1.0182 2.21408,-4.2393 0.76838,-5.26897 -0.93975,-0.66931 -3.07354,1.59168 -3.07354,1.59168 z"
     id="path868" />
  <path
     style="fill:#dc9d11;fill-opacity:1;stroke:none;stroke-width:0.110368;stroke-linecap:butt;stroke-linejoin:miter;stroke-miterlimit:4;stroke-dasharray:none;stroke-opacity:1"
     d="m 200.18967,201.59313 c -0.87,-0.45248 -2.37013,0.64814 -2.46985,1.53676 -0.11548,1.02881 1.28229,2.21308 2.19541,1.92099 1.85934,-1.54655 0.66098,-1.29257 0.27444,-3.45775 z"
     id="path870" />
  <path
     style="fill:#dc9d11;fill-opacity:1;stroke:none;stroke-width:0.449254px;stroke-linecap:butt;stroke-linejoin:miter;stroke-opacity:1"
     d="m 180.5684,184.41429 1.26237,1.56419 -0.60378,1.81118 1.23496,-0.21955 0.60371,-0.98797 1.59167,0.93307 4.35709,1.02041 2.94948,-1.31947 -0.80274,-2.22561 0.32931,-0.96047 -0.76839,-0.54889 -0.93306,0.6312 -1.81118,-0.41169 -1.37215,-0.4939 -0.85124,-1.3462 -5.13113,1.86763 z"
     id="path872" />
  <path
     style="fill:#f3d893;fill-opacity:1;stroke:none;stroke-width:0.449254px;stroke-linecap:butt;stroke-linejoin:miter;stroke-opacity:1"
     d="m 224.3938,226.7303 c 0,0 -6.29843,5.86564 -10.33719,7.49648 -4.56317,1.84261 -9.88871,2.02165 -14.90976,2.27299 -4.0706,0.20375 -8.29165,-0.62824 -12.21101,-0.62648 -4.61552,0.003 -8.91113,0.4733 -13.3652,0.73627 -1.23872,0.0732 -3.56317,0.87229 -5.21281,0.97599 -3.62444,0.22792 -4.68754,-1.24308 -6.66514,-0.22768 -0.58089,0.29824 -0.3177,1.08191 -1.08665,1.62994 -3.29062,2.34522 -11.33234,-0.85381 -11.33234,-0.85381 0,0 4.13353,3.83737 11.23727,6.33258 4.72574,1.65993 8.45836,2.53417 11.86666,2.9611 1.71505,0.2149 3.40596,0.20051 4.98291,0.35005 6.99808,0.66379 14.32195,-2.29141 18.60619,-3.45489 1.32496,-0.35981 3.29333,-0.445 3.29333,-0.445 0,0 4.05165,-0.45775 5.97194,-1.09728 6.19554,-2.06342 12.00077,-6.58086 14.51233,-9.5883 1.70092,-2.03675 4.64947,-6.46188 4.64947,-6.46188 z"
     id="path874" />
  <path
     style="fill:#f7d78d;fill-opacity:1;stroke:none;stroke-width:0.449254px;stroke-linecap:butt;stroke-linejoin:miter;stroke-opacity:1"
     d="m 156.10415,175.26289 -1.78524,5.04522 1.63002,0.31049 0.4657,1.31947 0.93141,-1.31947 2.32858,-0.69862 3.41519,-3.95852 0.69862,0.85381 -3.25999,3.18235 2.79421,0.54336 1.70766,0.0776 0.93141,-3.6481 -1.55239,-0.46571 -1.2419,-3.95853 -2.17329,1.16427 z"
     id="path876" />
  <path
     style="fill:#f7d78d;fill-opacity:1;stroke:none;stroke-width:0.449254px;stroke-linecap:butt;stroke-linejoin:miter;stroke-opacity:1"
     d="m 174.2669,173.40002 -3.10475,-0.6209 -0.85377,4.26902 0.69855,0.7762 -1.7076,1.3195 0.46571,1.31951 5.97662,0.1552 -0.0776,2.01807 -3.64807,0.3881 -1.24191,-0.69856 -1.7076,2.63902 1.47476,0.54334 0.15521,-1.08667 0.15519,-1.16429 1.7076,1.94048 1.31953,-1.2419 2.87188,0.31049 0.15519,-1.16429 -0.54333,-1.86284 1.31953,1.7076 0.77617,-0.77619 -0.0776,-1.78522 -2.4838,-1.47475 -1.00905,-2.09571 2.4838,-1.08666 2.01809,-1.08665 1.78522,-0.62095 -2.17331,-1.7076 -1.31951,-0.62096 -1.08666,1.47475 z"
     id="path878" />
  <path
     style="fill:#f7dc9a;fill-opacity:1;stroke:none;stroke-width:0.449254px;stroke-linecap:butt;stroke-linejoin:miter;stroke-opacity:1"
     d="m 166.42742,212.4422 0.23285,4.88995 -1.78524,-0.0776 -2.94948,2.63901 -0.93141,-3.25999 -1.24189,-0.85377 2.71664,-2.56141 1.00905,1.39711 z"
     id="path880" />
  <path
     style="fill:#f7dc9a;fill-opacity:1;stroke:none;stroke-width:0.449254px;stroke-linecap:butt;stroke-linejoin:miter;stroke-opacity:1"
     d="m 145.90879,213.88732 3.73213,-3.51263 -1.20746,-0.98789 1.09769,-4.17128 -2.19538,1.20746 -1.75629,-1.09769 -1.42705,0.87819 -1.09766,2.85396 0.98794,2.74424 0.87812,-1.09769 z"
     id="path882" />
  <path
     style="fill:#f7dc9a;fill-opacity:1;stroke:none;stroke-width:0.449254px;stroke-linecap:butt;stroke-linejoin:miter;stroke-opacity:1"
     d="m 141.1887,204.88621 -2.52467,2.30516 0.3293,4.72009 2.74424,0.54888 -0.87818,-3.62242 0.87818,-2.52467 z"
     id="path884" />
  <path
     style="fill:#f7dc9a;fill-opacity:1;stroke:none;stroke-width:0.449254px;stroke-linecap:butt;stroke-linejoin:miter;stroke-opacity:1"
     d="m 157.76385,196.87307 -1.31725,4.0615 1.86612,1.09769 1.53678,-1.97585 1.97579,1.31718 v -3.29303 z"
     id="path886" />
  <path
     style="fill:#f7dc9a;fill-opacity:1;stroke:none;stroke-width:0.449254px;stroke-linecap:butt;stroke-linejoin:miter;stroke-opacity:1"
     d="m 160.50808,190.17718 -1.75632,2.30517 0.98797,2.19535 0.65858,-2.08563 z"
     id="path888" />
  <path
     style="fill:#f7dc9a;fill-opacity:1;stroke:none;stroke-width:0.449254px;stroke-linecap:butt;stroke-linejoin:miter;stroke-opacity:1"
     d="m 152.98887,191.49438 -0.60371,1.86608 -1.20747,1.86606 1.75636,0.43908 1.42696,-1.15257 1.48188,-2.63446 -1.42697,0.0549 -0.38421,0.60372 z"
     id="path890" />
  <path
     style="fill:#f7dc9a;fill-opacity:1;stroke:none;stroke-width:0.449254px;stroke-linecap:butt;stroke-linejoin:miter;stroke-opacity:1"
     d="m 140.5028,196.4528 -0.85376,3.64803 -1.31954,1.70761 2.79429,-0.1552 v 1.2419 l -3.72568,2.79428 -0.15521,2.25093 -2.48377,-0.0776 0.69855,-3.25997 1.31954,0.69855 -1.08663,-3.72567 1.62996,-4.81238 1.63004,1.00905 z"
     id="path892" />
  <path
     style="fill:#f7d78d;fill-opacity:1;stroke:none;stroke-width:0.449254px;stroke-linecap:butt;stroke-linejoin:miter;stroke-opacity:1"
     d="m 148.26467,180.15289 0.62096,2.87186 -2.40615,0.85383 -1.55238,0.23284 1.31947,-1.86286 z"
     id="path894" />
  <path
     style="fill:#f7dc9a;fill-opacity:1;stroke:none;stroke-width:0.449254px;stroke-linecap:butt;stroke-linejoin:miter;stroke-opacity:1"
     d="m 143.76278,186.12952 2.25093,-0.62097 0.46577,1.31951 -1.55238,2.4838 -1.63001,-0.77618 z"
     id="path896" />
  <path
     style="fill:#f7d78d;fill-opacity:1;stroke:none;stroke-width:0.449254px;stroke-linecap:butt;stroke-linejoin:miter;stroke-opacity:1"
     d="m 153.77557,182.17094 0.46577,1.63001 -1.55238,1.39711 -0.85383,1.39716 3.80331,-0.31047 2.01809,1.39716 2.01809,-1.63003 -0.85383,-3.18235 -2.40616,-0.93146 z"
     id="path898" />
  <path
     style="fill:#dc9d11;fill-opacity:1;stroke:none;stroke-width:0.449254px;stroke-linecap:butt;stroke-linejoin:miter;stroke-opacity:1"
     d="m 213.07616,178.29002 1.47475,2.32858 4.57951,1.7076 c 0,0 0.24725,-3.35104 -1.08667,-4.26902 -1.37749,-0.94796 -4.96759,0.23284 -4.96759,0.23284 z"
     id="path900" />
  <path
     style="fill:#f7dc9a;fill-opacity:1;stroke:none;stroke-width:0.449254px;stroke-linecap:butt;stroke-linejoin:miter;stroke-opacity:1"
     d="m 192.34117,215.25941 1.81118,-2.25025 2.52471,0.60375 -0.98797,1.48188 -0.87809,-0.27448 z"
     id="path902" />
  <path
     style="fill:#dc9d11;fill-opacity:1;stroke:none;stroke-width:0.449254px;stroke-linecap:butt;stroke-linejoin:miter;stroke-opacity:1"
     d="m 160.45082,175.49576 2.71661,-2.94955 5.4087,-3.5545 4.55543,0.32931 -3.45773,1.26236 0.87816,1.26231 -3.62241,0.38417 -0.82328,1.48188 -3.40284,1.1526 -1.48186,1.42703 z"
     id="path904" />
  <path
     style="fill:#f7d78d;fill-opacity:1;stroke:none;stroke-width:0.449254px;stroke-linecap:butt;stroke-linejoin:miter;stroke-opacity:1"
     d="m 175.32691,167.23536 2.30515,1.75635 1.20747,-0.16472 1.81118,0.27441 0.65866,-0.54882 0.93299,0.54882 -1.09766,1.20746 2.79912,-0.71349 -0.49399,-1.3721 -1.15257,0.0549 -0.6037,-0.98796 -1.37215,0.43908 -0.43908,-0.49398 z"
     id="path906" />
  <path
     style="fill:#f7d78d;fill-opacity:1;stroke:none;stroke-width:0.449254px;stroke-linecap:butt;stroke-linejoin:miter;stroke-opacity:1"
     d="m 183.94382,166.96095 1.427,1.59168 1.37213,1.0428 2.4149,0.49397 0.32927,-1.04279 -1.42696,-0.3842 0.27439,-1.31724 -2.14048,-0.27441 z"
     id="path908" />
  <path
     style="fill:#f7d78d;fill-opacity:1;stroke:none;stroke-width:0.110368;stroke-linecap:butt;stroke-linejoin:miter;stroke-miterlimit:4;stroke-dasharray:none;stroke-opacity:1"
     d="m 203.68435,176.1943 0.54328,1.78523 -0.69855,0.54336 5.6662,5.35569 0.9314,1.31948 1.24188,-0.31044 1.78525,2.94951 -1.24189,-4.50189 -1.47475,-2.4062 -0.85383,-2.32852 -3.10477,-1.16431 z"
     id="path910" />
  <path
     style="fill:#f7d78d;fill-opacity:1;stroke:none;stroke-width:0.110368;stroke-linecap:butt;stroke-linejoin:miter;stroke-miterlimit:4;stroke-dasharray:none;stroke-opacity:1"
     d="m 198.36745,180.23049 2.13451,0.4269 2.67784,-0.31048 -3.06591,-2.25093 -1.00905,0.0776 -1.78522,-0.89261 -1.04785,1.2419 -1.70764,0.93141 -0.31042,2.01807 0.73732,0.77619 0.42694,-1.47474 2.09571,0.27164 z"
     id="path912" />
  <path
     style="fill:#f7dc9a;fill-opacity:1;stroke:none;stroke-width:0.110368;stroke-linecap:butt;stroke-linejoin:miter;stroke-miterlimit:4;stroke-dasharray:none;stroke-opacity:1"
     d="m 222.52767,203.95322 -0.49393,0.49391 v 0.98795 l -1.09766,0.6586 -0.98797,-0.38419 -0.38419,0.93307 -2.08557,1.53677 -0.32937,4.28101 0.98795,-0.76838 0.65861,-2.63452 2.41494,-0.3293 0.43907,-1.09769 1.31721,-0.5488 1.09768,-1.20749 -0.21955,-1.86604 z"
     id="path914" />
  <path
     style="fill:#f7dc9a;fill-opacity:1;stroke:none;stroke-width:0.110368;stroke-linecap:butt;stroke-linejoin:miter;stroke-miterlimit:4;stroke-dasharray:none;stroke-opacity:1"
     d="m 217.26755,201.88608 -1.08661,1.47474 -1.39716,0.62097 -0.23287,2.09567 1.39717,-0.0776 1.16425,-1.08669 1.63004,-1.08667 v -1.86283 z"
     id="path916" />
  <path
     style="fill:#f7dc9a;fill-opacity:1;stroke:none;stroke-width:0.110368;stroke-linecap:butt;stroke-linejoin:miter;stroke-miterlimit:4;stroke-dasharray:none;stroke-opacity:1"
     d="m 214.62431,188.75014 0.49397,1.26236 1.81118,0.43909 0.76839,1.09769 2.30515,0.87816 -0.0549,1.42698 -0.32931,1.7563 -0.71349,0.10987 0.27441,1.0977 -0.49398,1.09767 -1.3172,-1.0428 -1.48188,-0.49395 -1.64654,1.20747 -1.59167,-0.87812 h -0.82327 l -1.15258,0.71349 v 0.49391 l 2.41493,0.16472 0.65861,1.04277 -0.87812,1.15258 -1.15256,0.54886 -0.65866,0.8233 -0.76839,0.82328 -4.00653,-0.3842 1.53674,-1.75633 2.46979,0.2744 1.09768,-1.26232 -3.01865,-0.38417 -1.75628,0.0549 -1.97586,2.08559 -0.2744,-2.52467 -1.20747,-1.1526 0.87819,-1.37214 2.46976,0.16473 1.31724,-0.3293 -0.93305,-1.64655 1.64656,-0.27441 1.04279,0.5488 0.0546,-0.4939 -0.0546,-0.93306 2.19537,-0.10988 1.48194,0.38422 0.8781,-0.43911 0.0549,-1.2074 h 0.82328 l -0.43908,-1.04286 -0.6586,-0.49391 z"
     id="path918" />
  <path
     style="fill:#f7d78d;fill-opacity:1;stroke:none;stroke-width:0.110368;stroke-linecap:butt;stroke-linejoin:miter;stroke-miterlimit:4;stroke-dasharray:none;stroke-opacity:1"
     d="m 217.97226,186.0059 0.76838,1.81125 1.31725,1.48186 0.76838,1.48188 0.10987,0.76839 -2.52473,-0.93306 -2.52467,-2.19538 -0.82328,-0.87816 -1.31725,-1.81118 0.27436,-1.70141 -0.87814,-1.53677 -1.04282,-2.57956 2.41492,1.81118 2.57958,0.27442 0.76838,1.81121 z"
     id="path920" />
  <path
     style="fill:#f7d78d;fill-opacity:1;stroke:none;stroke-width:0.449254px;stroke-linecap:butt;stroke-linejoin:miter;stroke-opacity:1"
     d="m 200.51898,188.53063 2.57957,1.37208 0.82327,1.53678 0.87819,1.86607 1.53674,-1.97581 -0.43908,-1.48192 1.1526,0.54886 2.30513,-1.53676 0.60371,1.97587 0.43908,0.5488 2.08566,-0.60371 -0.27448,-1.64655 -1.3172,-2.14048 -1.92096,-1.48188 -0.98795,-1.20746 -1.75629,-1.37217 -1.75635,-1.53674 -2.90884,0.16471 -1.70144,0.87816 -0.83312,-0.77201 -2.13451,-0.0387 -0.0776,0.77618 0.0776,0.89257 h -0.97019 l -1.35839,1.55239 -0.97019,2.21214 1.39709,1.90166 1.0479,1.47475 1.31948,-1.00904 0.62098,0.54333 0.38806,-0.69855 0.93145,0.34927 0.62093,1.31954 0.85382,-1.59123 z"
     id="path922" />
  <path
     style="fill:#f7dc9a;fill-opacity:1;stroke:none;stroke-width:0.449254px;stroke-linecap:butt;stroke-linejoin:miter;stroke-opacity:1"
     d="m 180.94209,196.29751 -0.54333,1.31954 0.31049,2.0181 -0.85378,3.18232 3.18233,0.93141 2.71664,1.94051 2.09573,-1.63002 -0.54335,-2.48378 -1.70758,-1.47476 0.38805,-2.63899 -1.55238,-1.24195 -2.56142,-2.01802 -4.65708,-0.62097 -1.16426,-5.89899 -2.63906,0.85377 -1.70761,0.77618 -0.62097,3.64803 -0.69855,0.31049 0.62097,3.02713 1.5524,1.24189 -1.08669,3.33762 2.25093,-0.23284 0.0776,-1.47474 3.02712,1.0866 1.8628,0.15521 1.16433,-1.39719 -0.54335,-2.25094 1.16425,-1.70758 z"
     id="path924" />
  <path
     style="fill:#f7dc9a;fill-opacity:1;stroke:none;stroke-width:0.449254px;stroke-linecap:butt;stroke-linejoin:miter;stroke-opacity:1"
     d="m 163.36206,204.00812 -0.10974,3.40283 2.74425,1.20747 -1.64654,3.07354 -1.64657,-1.31727 -2.08557,-0.76839 -1.75635,-2.41493 1.53677,-3.73214 z"
     id="path926" />
  <path
     style="fill:#f7dc9a;fill-opacity:1;stroke:none;stroke-width:0.449254px;stroke-linecap:butt;stroke-linejoin:miter;stroke-opacity:1"
     d="m 145.57948,193.58001 -1.97585,-0.87816 -0.98797,2.52467 -0.21955,2.85404 h 1.42701 l 0.65865,2.41493 1.3172,-2.96382 0.65858,-2.96375 z"
     id="path928" />
</svg>
