<?xml version="1.0" encoding="UTF-8" standalone="no"?>
<!-- Created with Inkscape (http://www.inkscape.org/) -->

<svg
   version="1.1"
   id="svg1"
   width="612.88483"
   height="510.2196"
   viewBox="0 0 612.88482 510.21961"
   sodipodi:docname="Sea-Foods.svg"
   inkscape:version="1.2.2 (732a01da63, 2022-12-09)"
   xmlns:inkscape="http://www.inkscape.org/namespaces/inkscape"
   xmlns:sodipodi="http://sodipodi.sourceforge.net/DTD/sodipodi-0.dtd"
   xmlns="http://www.w3.org/2000/svg"
   xmlns:svg="http://www.w3.org/2000/svg">
  <defs
     id="defs1" />
  <sodipodi:namedview
     id="namedview1"
     pagecolor="#ffffff"
     bordercolor="#cccccc"
     borderopacity="1"
     inkscape:showpageshadow="0"
     inkscape:pageopacity="1"
     inkscape:pagecheckerboard="0"
     inkscape:deskcolor="#d1d1d1"
     showgrid="false"
     inkscape:zoom="0.2435099"
     inkscape:cx="164.26437"
     inkscape:cy="-8.2132184"
     inkscape:window-width="1366"
     inkscape:window-height="705"
     inkscape:window-x="-8"
     inkscape:window-y="-8"
     inkscape:window-maximized="1"
     inkscape:current-layer="g1" />
  <g
     inkscape:groupmode="layer"
     inkscape:label="Image"
     id="g1"
     transform="translate(24.998874,157.76423)">
    <g
       id="g5848"
       transform="translate(0,20.533047)">
      <path
         d="M 111.18814,190.62583 A 194.35395,117.23526 0.54311208 1 1 476.0835,112.06324 194.35395,117.23526 0.54311208 1 1 111.18814,190.62583 Z"
         fill="#d45500"
         id="path5434"
         style="stroke-width:1.29943" />
      <path
         d="m 525.50427,-45.302111 a 51.313876,98.361278 38.901862 1 0 28.63576,27.988039 l -72.98466,54.962123 z"
         fill="#d45500"
         id="path5436"
         style="stroke-width:1.80393" />
      <path
         d="m 142.84784,-83.345286 a 40.834419,112.9379 13.248699 1 0 33.19768,18.472018 l -43.21549,87.571595 z"
         fill="#d45500"
         id="path5438"
         style="stroke-width:1.72434" />
      <rect
         transform="matrix(-0.90194205,0.43185708,-0.38146628,-0.92438276,0,0)"
         x="-495.27509"
         y="-336.29279"
         width="265.97046"
         height="22.166031"
         fill="#d45500"
         id="rect5440"
         style="stroke-width:1" />
      <rect
         transform="matrix(-0.84561923,-0.53378659,0.58047992,-0.81427456,0,0)"
         x="-313.5925"
         y="-69.453865"
         width="268.59061"
         height="21.951038"
         fill="#d45500"
         id="rect5442"
         style="stroke-width:1" />
      <rect
         transform="matrix(-0.98652969,0.16358231,-0.11289742,-0.99360665,0,0)"
         x="-572.46173"
         y="-246.3725"
         width="266.60077"
         height="22.107988"
         fill="#d45500"
         id="rect5444"
         style="stroke-width:1" />
      <rect
         transform="matrix(-0.9995026,-0.03153659,0.08173139,-0.99665439,0,0)"
         x="-264.22867"
         y="-163.05043"
         width="267.18945"
         height="22.058926"
         fill="#d45500"
         id="rect5446"
         style="stroke-width:0.999997" />
      <rect
         transform="matrix(-0.96387623,-0.26635053,0.31566703,-0.94887003,0,0)"
         x="-611.84515"
         y="-59.310829"
         width="267.90991"
         height="22.00108"
         fill="#d45500"
         id="rect5448"
         style="stroke-width:1" />
      <rect
         transform="matrix(-0.90194205,0.43185708,-0.38146628,-0.92438276,0,0)"
         x="-177.05453"
         y="-209.51256"
         width="265.97046"
         height="22.166031"
         fill="#d45500"
         id="rect5450"
         style="stroke-width:1" />
      <rect
         transform="matrix(-0.79961396,0.60051438,-0.55209644,-0.83378026,0,0)"
         x="-129.10985"
         y="-246.63348"
         width="265.75937"
         height="22.18907"
         fill="#d45500"
         id="rect5452" />
      <rect
         transform="matrix(-0.82781394,-0.56100274,0.60718739,-0.79455867,0,0)"
         x="-597.02246"
         y="65.23304"
         width="268.64066"
         height="21.947033"
         fill="#d45500"
         id="rect5454"
         style="stroke-width:1" />
      <path
         d="m 275.50576,66.650703 c 0,0 31.25574,-82.948375 -44.24778,-102.803324"
         fill="none"
         stroke="#df3d12"
         stroke-opacity="0.74766"
         stroke-width="8.3866"
         id="path5462" />
      <path
         d="m 338.91514,56.400377 c 0,0 -48.94708,-85.206198 41.69776,-98.572626"
         fill="none"
         stroke="#d25b13"
         stroke-width="7.7912"
         id="path5464" />
      <path
         d="M 315.54383,48.022101 C 312.74349,34.788284 304.83189,18.768682 311.92667,10.927803"
         fill="none"
         stroke="#d05914"
         stroke-width="2.8691"
         id="path5466" />
      <path
         d="m 296.89963,10.299334 c -0.39068,9.775881 4.49821,18.588557 -6.11283,30.228543"
         fill="none"
         stroke="#d05914"
         stroke-width="2.6549"
         id="path5468" />
    </g>
  </g>
</svg>
