<?xml version="1.0" encoding="UTF-8" standalone="no"?>
<svg
   width="184.6627"
   height="143.49605"
   version="1.1"
   viewBox="0 0 184.66301 143.49869"
   id="svg1855"
   sodipodi:docname="burger.svg"
   inkscape:version="1.2.2 (732a01da63, 2022-12-09)"
   xml:space="preserve"
   xmlns:inkscape="http://www.inkscape.org/namespaces/inkscape"
   xmlns:sodipodi="http://sodipodi.sourceforge.net/DTD/sodipodi-0.dtd"
   xmlns:xlink="http://www.w3.org/1999/xlink"
   xmlns="http://www.w3.org/2000/svg"
   xmlns:svg="http://www.w3.org/2000/svg"><sodipodi:namedview
     id="namedview1857"
     pagecolor="#ffffff"
     bordercolor="#cccccc"
     borderopacity="1"
     inkscape:showpageshadow="0"
     inkscape:pageopacity="1"
     inkscape:pagecheckerboard="0"
     inkscape:deskcolor="#d1d1d1"
     showgrid="false"
     inkscape:zoom="0.25549475"
     inkscape:cx="291.59112"
     inkscape:cy="136.98912"
     inkscape:window-width="1366"
     inkscape:window-height="705"
     inkscape:window-x="-8"
     inkscape:window-y="-8"
     inkscape:window-maximized="1"
     inkscape:current-layer="svg1855" /><defs
     id="defs1743"><inkscape:path-effect
       effect="skeletal"
       id="path-effect5222"
       is_visible="true"
       lpeversion="1"
       pattern="M 0,18.867956 C 0,8.4528442 8.4528442,0 18.867956,0 c 10.415111,0 18.867955,8.4528442 18.867955,18.867956 0,10.415111 -8.452844,18.867955 -18.867955,18.867955 C 8.4528442,37.735911 0,29.283067 0,18.867956 Z"
       copytype="single_stretched"
       prop_scale="1"
       scale_y_rel="false"
       spacing="0"
       normal_offset="0"
       tang_offset="0"
       prop_units="false"
       vertical_pattern="false"
       hide_knot="false"
       fuse_tolerance="0" /><radialGradient
       id="d"
       cx="2009.8"
       cy="252.55"
       r="361.60001"
       gradientTransform="matrix(-0.33210145,0.35173086,-0.32766999,-0.37797943,1023.4807,-585.4264)"
       gradientUnits="userSpaceOnUse"
       xlink:href="#a" /><linearGradient
       id="a"><stop
         stop-color="#de7e31"
         offset="0"
         id="stop1737" /><stop
         stop-color="#de7e31"
         stop-opacity="0"
         offset="1"
         id="stop1739" /></linearGradient><radialGradient
       id="e"
       cx="2009.8"
       cy="252.55"
       r="361.60001"
       gradientTransform="matrix(-0.36783137,0.38355863,-0.37500517,-0.41154246,1107.9369,-641.19637)"
       gradientUnits="userSpaceOnUse"
       xlink:href="#a" /></defs><rect
     x="-1118.8638"
     y="-278.68655"
     width="544.23932"
     height="456.23236"
     fill="#f2deb3"
     id="rect1745"
     style="stroke-width:5.12012;fill:#ff5332;fill-opacity:1" /><g
     id="g517"
     transform="matrix(0.34600651,0,0,0.34600651,-1.7205499,-4.8123334)"
     style="stroke-width:2.89012"><path
       d="m 47.565053,297.09671 c 152.915307,7.25515 323.099417,17.81257 478.598087,9.6184 v 32.0606 L 46.591323,333.4322 Z"
       fill="#a9011a"
       stroke="#000000"
       stroke-width="2.05648px"
       id="path1749" /><path
       d="m 46.571453,317.96378 c -22.48918,49.20015 -5.65181,71.95403 -4.36509,93.16156 118.818867,13.10122 349.171527,30.27043 481.519277,3.02265 4.58289,-23.96857 17.86019,-67.036 -3.39812,-90.83983 -169.31967,22.48591 -355.29211,8.43162 -473.769187,-5.3435 z"
       fill="#e99442"
       id="path1751"
       style="stroke-width:6.03818" /><path
       d="m 60.084433,268.23427 -0.96677,22.44198 C 198.2696,271.49897 346.8846,264.84062 524.18289,310.98166 V 284.26303 C 373.50319,241.94901 215.92789,233.66808 60.091393,268.23251 Z"
       fill="#e9afc6"
       id="path1753"
       style="stroke-width:6.03818" /><path
       d="m 40.609843,294.68053 -35.6504298,-9.34691 20.3032598,29.92337 -3.8675,19.2368 34.80786,-25.64892 31.90654,20.30541 19.337077,-25.64892 19.33728,33.13031 7.73479,-11.75584 h 34.80785 l 31.90654,8.54957 7.73499,-21.37403 34.80786,7.48095 10.63551,18.16797 20.30326,3.20606 12.56906,-22.44198 21.27103,17.09935 17.40353,-20.30541 19.33728,11.75584 c 0,0 13.53604,-3.20606 16.43656,1.06871 2.90052,4.27489 25.13812,-10.68702 25.13812,-10.68702 l 6.76802,9.6184 c 30.05844,-6.42903 29.78818,2.61476 37.70719,7.48095 l 6.76801,12.82446 6.76802,-22.44198 27.07167,-7.48095 13.53604,7.48095 45.65203,11.75585 -4.07715,-22.44198 5.80105,-25.64892 5.80124,-13.89307 -34.80786,18.16797 -18.3703,-9.6184 h -11.60249 l -10.63531,5.3435 -8.70177,-2.13742 -21.27103,-4.2749 -11.60248,-13.89307 -24.17235,9.6184 -30.93877,-11.75584 -26.10589,9.61839 -25.13812,-10.68701 -19.33708,7.48096 -10.63552,-4.2749 -71.54727,1.0687 -26.10589,2.13743 -29.00523,-16.03052 -24.17234,21.37402 -20.30326,1.06871 -7.73479,-17.09936 -21.271027,12.82446 -24.17234,16.03052 -9.66874,-5.3435 z"
       fill="#979917"
       id="path1755"
       style="stroke-width:6.03818" /><path
       d="m 40.808563,245.7857 c 4.32296,8.19351 -3.7733,14.24935 24.17234,22.44198 170.649117,-35.46742 315.806377,-18.67493 450.558647,13.89307 21.09218,-7.08492 9.77307,-23.1273 12.56906,-35.26754 C 431.29405,168.87628 64.434423,133.67904 40.806573,245.78449 Z"
       fill="#6b240d"
       id="path1757"
       style="stroke-width:6.03818" /><path
       d="m 38.622643,185.79838 -5.10016,67.0338 10.05724,-7.05131 25.13812,-23.5117 c 65.110717,-17.57951 129.748487,-32.43181 292.953537,-10.68701 25.05864,8.14694 42.22807,33.65089 57.04466,58.77923 37.94764,-40.26026 52.21775,-71.67068 111.18801,-17.09935 L 514.43427,209.44559 C 339.30799,101.68807 57.993503,161.26903 38.618263,185.79772 Z"
       fill="#ffae2e"
       id="path1759"
       style="stroke-width:6.03818" /><path
       d="M 38.423923,191.00416 C 217.00396,154.8646 424.51768,172.40897 515.09442,209.17212 614.01145,-33.830338 -3.6054368,-61.418798 38.423923,191.00416 Z"
       fill="#ed9c49"
       id="path1761"
       style="stroke-width:6.03818" /><path
       d="M 38.423923,144.48159 C 196.08268,199.82324 419.05287,152.2136 515.09442,157.87649 545.36748,-12.829288 69.821733,-41.608268 38.423923,144.48159 Z"
       fill="url(#d)"
       id="path1763"
       style="fill:url(#d);stroke-width:6.03818" /><path
       d="M 38.423923,140.74748 C 193.62053,154.18873 419.78814,143.38815 516.44572,153.74854 546.80423,-11.938158 69.881353,-39.871468 38.423923,140.74748 Z"
       fill="url(#e)"
       id="path1765"
       style="fill:url(#e);stroke-width:6.03818" /><path
       d="m 173.35503,85.263052 c 3.15151,-2.79487 7.50269,0.41572 7.87748,2.70459 0.37458,2.28901 -2.59887,6.65901 -6.52061,5.58425 -1.49935,-0.41082 -5.81615,-1.6814 -7.87748,-2.70459 -1.38091,-0.68543 2.9351,-2.40433 6.52061,-5.58425 z"
       fill="#ffffff"
       id="path1767"
       style="stroke-width:6.03818" /><path
       d="m 218.66327,87.679242 c -3.64552,-1.9261 -2.91622,-7.65228 -1.21299,-9.01853 1.70324,-1.36618 6.55539,-0.30073 7.38088,4.07128 0.31556,1.67136 1.15257,6.52172 1.21279,9.01852 0.0397,1.67257 -3.23318,-1.8799 -7.38068,-4.07127 z"
       fill="#ffffff"
       id="path1769"
       style="stroke-width:6.03818" /><path
       d="m 199.78484,50.206382 c 3.65129,1.91268 2.93907,7.64152 1.24001,9.01413 -1.69905,1.37244 -6.55439,0.32485 -7.39299,-4.04403 -0.32053,-1.6702 -1.17225,-6.51756 -1.24001,-9.01414 -0.0457,-1.67244 3.23894,1.86798 7.39299,4.04404 z"
       fill="#ffffff"
       id="path1771"
       style="stroke-width:6.03818" /><path
       d="m 266.35616,44.187882 c -0.10731,4.46445 -5.13533,6.06046 -6.958,4.89739 -1.82246,-1.16306 -2.91821,-6.49537 0.3581,-9.10902 1.25253,-0.99923 4.91932,-3.81977 6.95799,-4.89739 1.36561,-0.72192 -0.23667,4.02954 -0.35809,9.10902 z"
       fill="#ffffff"
       id="path1773"
       style="stroke-width:6.03818" /><path
       d="m 282.65123,85.658432 c 3.42196,-2.37446 7.40928,1.36914 7.54282,3.69061 0.13315,2.32152 -3.2763,6.28341 -7.05973,4.71596 -1.44649,-0.59915 -5.60193,-2.41135 -7.54283,-3.69062 -1.30023,-0.85684 3.16621,-2.01435 7.05974,-4.71595 z"
       fill="#ffffff"
       id="path1775"
       style="stroke-width:6.03818" /><path
       d="m 356.97264,78.322012 c -0.10731,4.46445 -5.13553,6.06045 -6.958,4.89739 -1.82246,-1.16307 -2.91821,-6.49537 0.3581,-9.10903 1.25253,-0.99922 4.91932,-3.81977 6.95799,-4.89739 1.36541,-0.72191 -0.23668,4.02954 -0.35809,9.10903 z"
       fill="#ffffff"
       id="path1777"
       style="stroke-width:6.03818" /><path
       d="m 309.67719,46.779792 c 4.02628,0.37545 5.17746,6.01652 4.0219,7.96046 -1.15555,1.94402 -6.03493,2.8456 -8.20655,-0.92062 -0.83025,-1.43976 -3.16621,-5.64882 -4.0219,-7.96045 -0.57311,-1.54856 3.62605,0.49347 8.20655,0.92063 z"
       fill="#ffffff"
       id="path1779"
       style="stroke-width:6.03818" /><path
       d="m 367.10737,129.23765 c -3.84046,1.38759 -6.88864,-3.31216 -6.50928,-5.60029 0.37936,-2.2879 4.55547,-5.21918 7.88284,-2.68526 1.27201,0.96861 4.9066,3.83954 6.50948,5.60028 1.07369,1.17945 -3.51337,1.10657 -7.88304,2.68527 z"
       fill="#ffffff"
       id="path1781"
       style="stroke-width:6.03818" /><path
       d="m 415.1977,104.1752 c -0.10731,4.46446 -5.13533,6.06046 -6.9578,4.89739 -1.82266,-1.16306 -2.9184,-6.49537 0.3581,-9.109018 1.25233,-0.99923 4.91932,-3.81977 6.95779,-4.89739 1.36561,-0.72191 -0.23647,4.02954 -0.35809,9.109018 z"
       fill="#ffffff"
       id="path1783"
       style="stroke-width:6.03818" /><path
       d="m 394.53078,57.169392 c 4.0386,0.12894 5.47018,5.691 4.41358,7.70258 -1.05659,2.01166 -5.88331,3.2098 -8.24014,-0.41791 -0.90099,-1.38682 -3.44362,-5.44674 -4.41358,-7.70258 -0.64981,-1.51117 3.64493,0.27125 8.24014,0.41793 z"
       fill="#ffffff"
       id="path1785"
       style="stroke-width:6.03818" /><path
       d="m 437.45438,139.29777 c -3.61711,1.99017 -7.25111,-2.16974 -7.17699,-4.49433 0.0735,-2.32459 3.8206,-5.89593 7.44586,-3.92389 1.38587,0.75385 5.35968,3.01013 7.17698,4.49433 1.21736,0.99435 -3.33055,1.65957 -7.44585,3.92389 z"
       fill="#ffffff"
       id="path1787"
       style="stroke-width:6.03818" /><path
       d="m 496.07688,125.70123 c -0.10731,4.46445 -5.13533,6.06023 -6.95779,4.89739 -1.82247,-1.16304 -2.91821,-6.49537 0.35809,-9.10903 1.25253,-0.99922 4.91932,-3.81977 6.9578,-4.89739 1.3656,-0.72191 -0.23648,4.02976 -0.3581,9.10903 z"
       fill="#ffffff"
       id="path1789"
       style="stroke-width:6.03818" /><path
       d="m 462.29442,97.761332 c 3.79198,1.54229 3.54855,7.318838 1.96773,8.854438 -1.58062,1.53564 -6.50153,0.97454 -7.69187,-3.29348 -0.45487,-1.63159 -1.69727,-6.374778 -1.96773,-8.854448 -0.18083,-1.66115 3.37765,1.53876 7.69187,3.29349 z"
       fill="#ffffff"
       id="path1791"
       style="stroke-width:6.03818" /><path
       d="m 308.88231,115.53128 c 3.75363,1.65309 3.37129,7.42033 1.75431,8.90914 -1.61699,1.4887 -6.5226,0.7833 -7.61,-3.51819 -0.41572,-1.64437 -1.54346,-6.42222 -1.7543,-8.90914 -0.1411,-1.66589 3.33949,1.63736 7.60999,3.51819 z"
       fill="#ffffff"
       id="path1793"
       style="stroke-width:6.03818" /><path
       d="m 196.80403,119.94631 c -0.1073,4.46445 -5.13533,6.06046 -6.95779,4.89739 -1.82247,-1.16306 -2.91821,-6.49537 0.35809,-9.10902 1.25254,-0.99925 4.91933,-3.81977 6.9578,-4.89739 1.3656,-0.72192 -0.23648,4.02954 -0.3581,9.10902 z"
       fill="#ffffff"
       id="path1795"
       style="stroke-width:6.03818" /><path
       d="m 252.64445,138.37522 c -2.80951,3.20958 -7.49056,0.62753 -8.1221,-1.59138 -0.63133,-2.21894 1.82287,-6.96675 5.83563,-6.44397 1.53412,0.19988 5.96101,0.86196 8.12229,1.59141 1.44768,0.48862 -2.6392,2.79223 -5.83582,6.44397 z"
       fill="#ffffff"
       id="path1797"
       style="stroke-width:6.03818" /><path
       d="m 147.91883,136.618 c 2.03768,3.85645 -1.4751,8.14189 -3.57836,8.21503 -2.10345,0.0731 -5.57709,-3.82021 -4.03879,-7.95013 0.58801,-1.5788 2.3596,-6.11185 3.57836,-8.21503 0.81634,-1.40901 1.72032,3.56233 4.03879,7.95013 z"
       fill="#ffffff"
       id="path1799"
       style="stroke-width:6.03818" /><path
       d="m 132.21992,71.974032 c 2.88184,3.13049 0.50932,8.28444 -1.50292,8.96493 -2.01224,0.68059 -6.28851,-2.06914 -5.78435,-6.50042 0.19276,-1.69404 0.82628,-6.58192 1.50312,-8.96493 0.45328,-1.59638 2.50546,2.93874 5.78415,6.50042 z"
       fill="#ffffff"
       id="path1801"
       style="stroke-width:6.03818" /><path
       d="m 81.943673,120.67117 c -0.10731,4.46445 -5.13553,6.06045 -6.95799,4.89739 -1.82247,-1.16307 -2.91821,-6.49537 0.35809,-9.10903 1.25254,-0.99924 4.91932,-3.81977 6.958,-4.89739 1.3654,-0.72191 -0.23668,4.02976 -0.3581,9.10903 z"
       fill="#ffffff"
       id="path1803"
       style="stroke-width:6.03818" /><path
       d="m 115.72613,121.26423 c -4.04038,-0.002 -5.61365,-5.51769 -4.60912,-7.56157 1.00473,-2.04387 5.79906,-3.39254 8.24749,0.16013 0.93617,1.35812 3.58194,5.33692 4.60912,7.56157 0.68817,1.49026 -3.65049,-0.15705 -8.24749,-0.16013 z"
       fill="#ffffff"
       id="path1805"
       style="stroke-width:6.03818" /><path
       d="m 390.15894,89.063052 c -3.15151,-2.79487 -7.50289,0.41572 -7.87748,2.7046 -0.37478,2.289 2.59887,6.65901 6.52061,5.58424 1.49935,-0.41082 5.81615,-1.6814 7.87748,-2.70459 1.3809,-0.68543 -2.9351,-2.40433 -6.52061,-5.58425 z"
       fill="#ffffff"
       id="path1807"
       style="stroke-width:6.03818" /><path
       d="m 333.12619,96.750922 c 3.64553,-1.9261 2.91623,-7.65228 1.21299,-9.01853 -1.70323,-1.3662 -6.55538,-0.30075 -7.38087,4.07128 -0.31537,1.67134 -1.15258,6.52172 -1.21279,9.018518 -0.0397,1.6726 3.23318,-1.879878 7.38067,-4.071268 z"
       fill="#ffffff"
       id="path1809"
       style="stroke-width:6.03818" /><path
       d="m 331.53643,56.268812 c -3.65129,1.91268 -2.93907,7.64152 -1.24001,9.01414 1.69906,1.37243 6.55439,0.32484 7.39299,-4.04404 0.32054,-1.6702 1.17225,-6.51755 1.24002,-9.01413 0.0457,-1.67244 -3.23895,1.86797 -7.393,4.04403 z"
       fill="#ffffff"
       id="path1811"
       style="stroke-width:6.03818" /><path
       d="m 280.66402,66.109282 c 0.10731,4.46446 5.13533,6.06046 6.9578,4.89739 1.82246,-1.16306 2.91821,-6.49537 -0.3581,-9.10902 -1.25233,-0.99923 -4.91932,-3.81977 -6.95779,-4.89739 -1.36561,-0.72191 0.23648,4.02954 0.35809,9.10902 z"
       fill="#ffffff"
       id="path1813"
       style="stroke-width:6.03818" /><path
       d="m 257.61246,93.214502 c -3.42196,-2.37467 -7.40929,1.36912 -7.54283,3.69062 -0.13314,2.32151 3.27631,6.283398 7.05974,4.715948 1.44649,-0.59917 5.60193,-2.411348 7.54283,-3.690608 1.30023,-0.85687 -3.16641,-2.01435 -7.05974,-4.71596 z"
       fill="#ffffff"
       id="path1815"
       style="stroke-width:6.03818" /><path
       d="m 200.381,93.434152 c 0.10731,4.46446 5.13533,6.06046 6.9578,4.8974 1.82246,-1.16307 2.9182,-6.49537 -0.3581,-9.10903 -1.25253,-0.99924 -4.91932,-3.81977 -6.95779,-4.89739 -1.36561,-0.72191 0.23647,4.02976 0.35809,9.10902 z"
       fill="#ffffff"
       id="path1817"
       style="stroke-width:6.03818" /><path
       d="m 231.38138,47.526612 c -4.02628,0.37545 -5.17766,6.01653 -4.02191,7.96046 1.15556,1.94402 6.03494,2.84561 8.20656,-0.92061 0.83025,-1.43977 3.16621,-5.64883 4.0219,-7.96046 0.57311,-1.54856 -3.62605,0.49347 -8.20655,0.92063 z"
       fill="#ffffff"
       id="path1819"
       style="stroke-width:6.03818" /><path
       d="m 176.53456,138.30933 c 3.84067,1.38759 6.88864,-3.31215 6.50948,-5.60028 -0.37936,-2.28791 -4.55566,-5.21919 -7.88304,-2.68526 -1.27201,0.9686 -4.9066,3.83954 -6.50928,5.60028 -1.07369,1.17945 3.51338,1.10657 7.88284,2.68526 z"
       fill="#ffffff"
       id="path1821"
       style="stroke-width:6.03818" /><path
       d="m 146.13035,109.46885 c 0.1073,4.46445 5.13553,6.06023 6.95799,4.89739 1.82246,-1.16307 2.91821,-6.49537 -0.35809,-9.10903 -1.25254,-0.99922 -4.91933,-3.81977 -6.958,-4.89739 -1.36541,-0.721908 0.23668,4.02976 0.3581,9.10903 z"
       fill="#ffffff"
       id="path1823"
       style="stroke-width:6.03818" /><path
       d="m 162.22669,62.463042 c -4.03879,0.12893 -5.47017,5.69099 -4.41358,7.70258 1.0566,2.01163 5.88332,3.20979 8.24014,-0.41791 0.9008,-1.38685 3.44363,-5.44675 4.41358,-7.70259 0.64982,-1.51119 -3.64493,0.27123 -8.24014,0.41792 z"
       fill="#ffffff"
       id="path1825"
       style="stroke-width:6.03818" /><path
       d="m 115.12997,148.36945 c 3.61731,1.99017 7.25131,-2.16974 7.17718,-4.49433 -0.0735,-2.32459 -3.82059,-5.89593 -7.44585,-3.92388 -1.38607,0.75385 -5.35969,3.01013 -7.17698,4.49432 -1.21736,0.99435 3.33035,1.65957 7.44565,3.92389 z"
       fill="#ffffff"
       id="path1827"
       style="stroke-width:6.03818" /><path
       d="m 66.046043,146.85384 c 0.10731,4.46446 5.13534,6.06046 6.9578,4.89739 1.82246,-1.16306 2.91821,-6.49537 -0.35809,-9.10902 -1.25254,-0.99923 -4.91933,-3.81977 -6.9578,-4.89739 -1.36561,-0.72189 0.23648,4.02976 0.35809,9.10902 z"
       fill="#ffffff"
       id="path1829"
       style="stroke-width:6.03818" /><path
       d="m 97.046423,88.711612 c -3.79178,1.54229 -3.54835,7.31885 -1.96773,8.85444 1.58062,1.53564 6.501527,0.97454 7.691867,-3.29348 0.45507,-1.63158 1.69727,-6.37478 1.96773,-8.85444 0.18083,-1.66115 -3.37765,1.53876 -7.691867,3.29348 z"
       fill="#ffffff"
       id="path1831"
       style="stroke-width:6.03818" /><path
       d="m 220.45176,124.60296 c -3.75363,1.65309 -3.37149,7.42033 -1.75431,8.90914 1.61699,1.4887 6.5226,0.78331 7.61,-3.51819 0.41572,-1.64437 1.54346,-6.42222 1.7543,-8.90914 0.14109,-1.66589 -3.33949,1.63737 -7.60999,3.51819 z"
       fill="#ffffff"
       id="path1833"
       style="stroke-width:6.03818" /><path
       d="m 340.67757,128.24921 c 0.10731,4.46445 5.13533,6.06023 6.95799,4.89739 1.82247,-1.16307 2.91821,-6.49537 -0.35809,-9.10903 -1.25254,-0.99922 -4.91932,-3.81977 -6.958,-4.89739 -1.3656,-0.72191 0.23668,4.02976 0.3581,9.10903 z"
       fill="#ffffff"
       id="path1835"
       style="stroke-width:6.03818" /><path
       d="m 295.96549,140.63765 c 2.80951,3.20958 7.49056,0.62753 8.1221,-1.59141 0.63133,-2.21893 -1.82286,-6.96674 -5.83562,-6.44397 -1.53413,0.19989 -5.96102,0.86197 -8.1221,1.59144 -1.44788,0.48861 2.639,2.79223 5.83562,6.44397 z"
       fill="#ffffff"
       id="path1837"
       style="stroke-width:6.03818" /><path
       d="m 394.53078,137.36482 c -2.03787,3.85645 1.47491,8.14189 3.57816,8.21503 2.10346,0.0731 5.57709,-3.82021 4.03879,-7.95013 -0.58801,-1.5788 -2.3596,-6.11185 -3.57835,-8.21503 -0.81635,-1.40901 -1.72033,3.56233 -4.0386,7.95013 z"
       fill="#ffffff"
       id="path1839"
       style="stroke-width:6.03818" /><path
       d="m 431.89021,86.317392 c -2.88184,3.1305 -0.50932,8.28444 1.50292,8.96515 2.01244,0.68059 6.28851,-2.06914 5.78435,-6.50042 -0.19276,-1.69404 -0.82628,-6.58191 -1.50312,-8.96493 -0.45328,-1.5964 -2.50546,2.93874 -5.78415,6.50042 z"
       fill="#ffffff"
       id="path1841"
       style="stroke-width:6.03818" /><path
       d="m 465.87139,138.06771 c 0.10731,4.46445 5.13553,6.06023 6.95799,4.89739 1.82247,-1.16306 2.91821,-6.49537 -0.35809,-9.10902 -1.25254,-0.99923 -4.91932,-3.81977 -6.958,-4.89739 -1.3654,-0.72192 0.23668,4.02976 0.3581,9.10902 z"
       fill="#ffffff"
       id="path1843"
       style="stroke-width:6.03818" /><path
       d="m 445.00575,121.26423 c 4.04038,-0.002 5.61385,-5.51769 4.60912,-7.56157 -1.00473,-2.04387 -5.79906,-3.39254 -8.24749,0.16013 -0.93617,1.35812 -3.58193,5.33692 -4.60912,7.56157 -0.68817,1.49026 3.65049,-0.15705 8.24749,-0.16013 z"
       fill="#ffffff"
       id="path1845"
       style="stroke-width:6.03818" /><path
       d="m 506.0129,153.48737 c 3.81046,1.48523 3.63817,7.26482 2.07643,8.82414 -1.56175,1.55923 -6.48902,1.07204 -7.73161,-3.17773 -0.47495,-1.6246 -1.77557,-6.34864 -2.07643,-8.82413 -0.20151,-1.6583 3.39633,1.48786 7.73161,3.17772 z"
       fill="#ffffff"
       id="path1847"
       style="stroke-width:6.03818" /></g></svg>
