<?xml version="1.0" encoding="UTF-8" standalone="no"?>
<svg
   width="100%"
   height="100%"
   viewBox="0 0 1374 1291"
   version="1.1"
   style="fill-rule:evenodd;clip-rule:evenodd;stroke-linejoin:round;stroke-miterlimit:2;"
   id="svg451"
   sodipodi:docname="grocery.svg"
   inkscape:version="1.2.2 (732a01da63, 2022-12-09)"
   xmlns:inkscape="http://www.inkscape.org/namespaces/inkscape"
   xmlns:sodipodi="http://sodipodi.sourceforge.net/DTD/sodipodi-0.dtd"
   xmlns="http://www.w3.org/2000/svg"
   xmlns:svg="http://www.w3.org/2000/svg">
  <defs
     id="defs455" />
  <sodipodi:namedview
     id="namedview453"
     pagecolor="#505050"
     bordercolor="#eeeeee"
     borderopacity="1"
     inkscape:showpageshadow="0"
     inkscape:pageopacity="0"
     inkscape:pagecheckerboard="0"
     inkscape:deskcolor="#505050"
     showgrid="false"
     inkscape:zoom="0.28755311"
     inkscape:cx="1166.741"
     inkscape:cy="692.04608"
     inkscape:window-width="1366"
     inkscape:window-height="705"
     inkscape:window-x="-8"
     inkscape:window-y="-8"
     inkscape:window-maximized="1"
     inkscape:current-layer="svg451" />
  <g
     transform="matrix(4.16667,0,0,4.16667,390.29449,-693.86787)"
     id="g231">
    <g
       transform="matrix(0.24,0,0,0.24,-0.347004,9.61176)"
       id="g229">
      <rect
         x="1283.89"
         y="452.117"
         width="1373.52"
         height="1290.45"
         style="fill:#ffffff"
         id="rect227" />
    </g>
  </g>
  <g
     transform="matrix(4.16667,0,0,4.16667,-1282.44,-492.166)"
     id="g237">
    <g
       transform="translate(443.177,188.434)"
       id="g235">
      <path
         d="M 0,22.331 C -0.533,21.021 -2.825,14.986 -0.096,8.247 1.908,3.301 5.53,0.657 6.989,-0.294 5.192,-0.292 3.396,-0.291 1.6,-0.289 0.245,1.345 -1.546,3.943 -2.671,7.504 -4.852,14.411 -3.09,20.385 -2.3,22.625 -1.533,22.527 -0.767,22.429 0,22.331"
         style="fill:#935f37;fill-rule:nonzero"
         id="path233" />
    </g>
  </g>
  <g
     transform="matrix(4.16667,0,0,4.16667,-1282.44,-492.166)"
     id="g243">
    <g
       transform="matrix(0.457313,0.889306,0.889306,-0.457313,444.518,188.17)"
       id="g241">
      <path
         d="m 11.021,-5.555 c -3.535,-0.079 -6.48,5.207 -7.14,9.229 -1.367,8.325 6.473,14.765 7.14,15.297 0.853,-0.734 8.039,-7.116 6.727,-15.317 -0.607,-3.792 -3.215,-9.13 -6.727,-9.209"
         style="fill:#94c11f;fill-rule:nonzero"
         id="path239" />
    </g>
  </g>
  <g
     transform="matrix(4.16667,0,0,4.16667,-1282.44,-492.166)"
     id="g249">
    <g
       transform="matrix(0.923973,-0.382459,-0.382459,-0.923973,440.08,195.453)"
       id="g247">
      <path
         d="m -5.974,-1.727 c -4.715,-0.105 -8.643,6.945 -9.523,12.31 -1.823,11.103 8.633,19.693 9.523,20.402 1.137,-0.98 10.722,-9.49 8.972,-20.428 C 2.189,5.499 -1.29,-1.622 -5.974,-1.727"
         style="fill:#94c11f;fill-rule:nonzero"
         id="path245" />
    </g>
  </g>
  <g
     transform="matrix(4.16667,0,0,4.16667,-1282.44,-492.166)"
     id="g255">
    <g
       transform="translate(477.676,370.961)"
       id="g253">
      <path
         d="m 0,-1.996 c 0,-0.615 0.043,-1.22 0.11,-1.817 -0.297,-0.006 -0.587,-0.019 -0.884,-0.025 -14.372,-0.263 -28.387,-0.156 -42.046,0.254 0.051,0.523 0.08,1.053 0.08,1.588 0,1.42 -0.203,2.789 -0.55,4.101 C -30.463,1.788 -17.388,1.668 -4.011,1.826 -2.494,1.844 -1.008,1.887 0.5,1.911 0.186,0.658 0,-0.645 0,-1.996"
         style="fill:#94c11f;fill-rule:nonzero"
         id="path251" />
    </g>
  </g>
  <g
     transform="matrix(4.16667,0,0,4.16667,-1282.44,-492.166)"
     id="g261">
    <g
       transform="translate(480.562,177.485)"
       id="g259">
      <path
         d="m 0,0.667 c 1.004,-1.457 2.008,-2.915 3.012,-4.372 -1.9,1.232 -3.798,2.464 -5.698,3.696 1.289,1.46 2.577,2.92 3.865,4.381 C 1.181,4.363 1.183,4.355 1.185,4.346 0.502,3.038 0.154,1.746 0,0.667"
         style="fill:#935f37;fill-rule:nonzero"
         id="path257" />
    </g>
  </g>
  <g
     transform="matrix(4.16667,0,0,4.16667,-1282.44,-492.166)"
     id="g267">
    <g
       transform="matrix(0.289784,-0.957092,-0.957092,-0.289784,490.318,182.81)"
       id="g265">
      <path
         d="M -71.989,-74.455 H -48.42 L -102.315,103.55 -121.926,90.476 Z"
         style="fill:#f9b233;fill-rule:nonzero"
         id="path263" />
    </g>
  </g>
  <g
     transform="matrix(4.16667,0,0,4.16667,-1282.44,-492.166)"
     id="g273">
    <g
       transform="matrix(0.360782,-0.93265,-0.93265,-0.360782,584.185,224.618)"
       id="g271">
      <path
         d="m -31.619,25.34 h 72.24 l -3.076,19.314 -76.635,10e-4 z"
         style="fill:#f9b233;fill-rule:nonzero"
         id="path269" />
    </g>
  </g>
  <g
     transform="matrix(4.16667,0,0,4.16667,-1282.44,-492.166)"
     id="g279">
    <g
       transform="matrix(-0.0418986,0.999122,0.999122,0.0418986,573.838,155.62)"
       id="g277">
      <path
         d="m 14.832,-15.742 c 1.095,6.607 2.19,13.212 3.284,19.818 -1.094,3.378 -2.189,6.757 -3.284,10.136 -1.155,-3.07 -2.311,-6.141 -3.466,-9.211 1.155,-6.913 2.311,-13.828 3.466,-20.743"
         style="fill:#f9b233;fill-rule:nonzero"
         id="path275" />
    </g>
  </g>
  <g
     transform="matrix(4.16667,0,0,4.16667,-1282.44,-492.166)"
     id="g285">
    <g
       transform="matrix(0,1,1,0,418.933,356.96)"
       id="g283">
      <path
         d="M 12.005,-12.006 C 5.375,-12.006 0,-6.631 0,-0.001 0,6.63 5.375,12.005 12.005,12.005 c 6.631,0 12.006,-5.375 12.006,-12.006 0,-6.63 -5.375,-12.005 -12.006,-12.005"
         style="fill:#94c11f;fill-rule:nonzero"
         id="path281" />
    </g>
  </g>
  <g
     transform="matrix(4.16667,0,0,4.16667,-1282.44,-492.166)"
     id="g291">
    <g
       transform="matrix(0,1,1,0,493.705,356.96)"
       id="g289">
      <path
         d="M 12.005,-12.006 C 5.375,-12.006 0,-6.631 0,0 0,6.63 5.375,12.005 12.005,12.005 18.636,12.005 24.011,6.63 24.011,0 c 0,-6.631 -5.375,-12.006 -12.006,-12.006"
         style="fill:#94c11f;fill-rule:nonzero"
         id="path287" />
    </g>
  </g>
  <g
     transform="matrix(4.16667,0,0,4.16667,-1282.44,-492.166)"
     id="g297">
    <g
       transform="translate(547.223,277.567)"
       id="g295">
      <path
         d="M 0,20.417 H 11.101 L 17.235,0 h -11.1 z"
         style="fill:#94c11f;fill-rule:nonzero"
         id="path293" />
    </g>
  </g>
  <g
     transform="matrix(4.16667,0,0,4.16667,-1282.44,-492.166)"
     id="g303">
    <g
       transform="matrix(-1,0,0,1,562.621,297.985)"
       id="g301">
      <path
         d="M -16.888,-20.417 H -6.136 L 0,0 h -10.752 z"
         style="fill:#94c11f;fill-rule:nonzero"
         id="path299" />
    </g>
  </g>
  <g
     transform="matrix(4.16667,0,0,4.16667,-1282.44,-492.166)"
     id="g309">
    <g
       transform="matrix(-1,0,0,1,369.689,297.985)"
       id="g307">
      <path
         d="M -179.371,-20.417 H 0 L -6.182,0 h -167.053 z"
         style="fill:#94c11f;fill-rule:nonzero"
         id="path305" />
    </g>
  </g>
  <g
     transform="matrix(4.16667,0,0,4.16667,-1282.44,-492.166)"
     id="g315">
    <g
       transform="matrix(-0.287817,0.957685,0.957685,0.287817,601.5,284.827)"
       id="g313">
      <path
         d="M -1.86,-19.034 H 19.459 L 14.168,-1.427 -7.164,-1.383 Z"
         style="fill:#94c11f;fill-rule:nonzero"
         id="path311" />
    </g>
  </g>
  <g
     transform="matrix(4.16667,0,0,4.16667,-1282.44,-492.166)"
     id="g321">
    <g
       transform="matrix(-1,0,0,1,555.199,322.683)"
       id="g319">
      <path
         d="M -16.888,-20.417 H -6.136 L 0,0 h -10.752 z"
         style="fill:#e30613;fill-rule:nonzero"
         id="path317" />
    </g>
  </g>
  <g
     transform="matrix(4.16667,0,0,4.16667,-1282.44,-492.166)"
     id="g327">
    <g
       transform="translate(539.801,302.266)"
       id="g325">
      <path
         d="M 0,20.417 H 11.101 L 17.235,0 h -11.1 z"
         style="fill:#e30613;fill-rule:nonzero"
         id="path323" />
    </g>
  </g>
  <g
     transform="matrix(4.16667,0,0,4.16667,-1282.44,-492.166)"
     id="g333">
    <g
       transform="translate(570.25,302.266)"
       id="g331">
      <path
         d="M 0,20.417 H 12.345 L 18.527,0 H 6.135 Z"
         style="fill:#e30613;fill-rule:nonzero"
         id="path329" />
    </g>
  </g>
  <g
     transform="matrix(4.16667,0,0,4.16667,-1282.44,-492.166)"
     id="g339">
    <g
       transform="matrix(-1,0,0,1,377.167,322.683)"
       id="g337">
      <path
         d="M -164.471,-20.417 H 0 L -6.182,0 h -152.153 z"
         style="fill:#e30613;fill-rule:nonzero"
         id="path335" />
    </g>
  </g>
  <g
     transform="matrix(4.16667,0,0,4.16667,-1282.44,-492.166)"
     id="g345">
    <g
       transform="translate(531.735,326.964)"
       id="g343">
      <path
         d="M 0,22.558 H 11.101 L 17.879,0 h -11.1 z"
         style="fill:#dedc00;fill-rule:nonzero"
         id="path341" />
    </g>
  </g>
  <g
     transform="matrix(4.16667,0,0,4.16667,-1282.44,-492.166)"
     id="g351">
    <g
       transform="matrix(-1,0,0,1,547.135,349.522)"
       id="g349">
      <path
         d="M -17.53,-22.558 H -6.778 L 0,0 h -10.752 z"
         style="fill:#dedc00;fill-rule:nonzero"
         id="path347" />
    </g>
  </g>
  <g
     transform="matrix(4.16667,0,0,4.16667,-1282.44,-492.166)"
     id="g357">
    <g
       transform="translate(562.185,326.964)"
       id="g355">
      <path
         d="M 0,22.558 H 4.806 L 11.636,0 H 6.778 Z"
         style="fill:#dedc00;fill-rule:nonzero"
         id="path353" />
    </g>
  </g>
  <g
     transform="matrix(4.16667,0,0,4.16667,-1282.44,-492.166)"
     id="g363">
    <g
       transform="matrix(-1,0,0,1,384.645,349.522)"
       id="g361">
      <path
         d="M -149.571,-22.558 H 0 L -6.83,0 h -135.963 z"
         style="fill:#dedc00;fill-rule:nonzero"
         id="path359" />
    </g>
  </g>
  <g
     transform="matrix(4.16667,0,0,4.16667,-1282.44,-492.166)"
     id="g369">
    <g
       transform="translate(415.982,205.207)"
       id="g367">
      <path
         d="M 0,45.522 H 67.957 C 69.623,38.805 69.752,30.941 67.742,23.871 64.618,12.883 55.348,0.238 45.169,0.093 38.548,0 37.509,5.279 26.344,8.321 14.918,11.434 11.108,7.239 5.46,10.792 c -8.433,5.305 -9.546,20.699 -6.586,31.376 0.313,1.13 0.703,2.246 1.126,3.354"
         style="fill:#94c11f;fill-rule:nonzero"
         id="path365" />
    </g>
  </g>
  <g
     transform="matrix(4.16667,0,0,4.16667,-1282.44,-492.166)"
     id="g375">
    <g
       transform="translate(421.442,236.99)"
       id="g373">
      <path
         d="m 0,-20.991 c 3.913,-2.461 6.948,-1.207 12.24,-1.237 -5.595,-7.548 -13.968,-12.502 -21.083,-11.693 -5.793,0.659 -6.603,4.659 -16.607,7.574 -8.991,2.62 -11.119,0.2 -15.944,2.531 -9.214,4.453 -15.55,20.095 -10.868,33.665 0.467,1.353 1.036,2.649 1.686,3.89 H -5.46 C -5.883,12.631 -6.273,11.515 -6.586,10.385 -9.546,-0.292 -8.433,-15.686 0,-20.991"
         style="fill:#e30613;fill-rule:nonzero"
         id="path371" />
    </g>
  </g>
  <g
     transform="matrix(4.16667,0,0,4.16667,-1282.44,-492.166)"
     id="g381">
    <g
       transform="translate(386.998,197.534)"
       id="g379">
      <path
         d="m 0,9.584 c 0.347,1.855 -3.134,3.805 -4.398,5.171 3.345,-0.7 6.13,0.471 13.393,-1.647 C 16.902,10.804 19.071,7.829 22.49,6.355 20.086,5.709 15.669,5.482 15.154,3.31 14.339,-0.132 24.12,-5.213 23.904,-5.46 23.746,-5.642 18.246,-3.159 13.444,1.921 12.829,2.572 10.454,5.085 8.985,7.496 8.914,7.102 8.866,6.688 8.85,6.251 8.753,3.589 9.873,1.478 10.461,0.521 9.422,0.578 8.383,0.635 7.344,0.692 6.417,2.201 5.353,4.286 4.659,6.83 2.524,6.444 0.28,6.18 -1.789,6.085 -5.344,5.92 -8.394,6.249 -10.564,6.595 -6.096,6.763 -0.417,7.355 0,9.584"
         style="fill:#94c11f;fill-rule:nonzero"
         id="path377" />
    </g>
  </g>
  <g
     transform="matrix(4.16667,0,0,4.16667,-1282.44,-492.166)"
     id="g387">
    <g
       transform="translate(483.938,194.05)"
       id="g385">
      <path
         d="m 0,56.679 h 5.071 c 0.447,-0.705 0.894,-1.408 1.319,-2.138 0,0 3.583,-6.239 5.81,-13.329 C 14.492,33.921 15.319,22.893 13.536,9.836 11.396,8.044 9.077,6.688 6.656,5.864 4.358,3.241 1.483,1.171 -1.797,0 -4.619,2.042 -6.8,4.835 -8.271,7.995 c -2.264,1.588 -4.233,3.749 -5.86,6.321 6.465,4.438 11.717,12.976 13.916,20.712 2.011,7.07 1.881,14.934 0.215,21.651"
         style="fill:#dedc00;fill-rule:nonzero"
         id="path383" />
    </g>
  </g>
  <g
     transform="matrix(4.16667,0,0,4.16667,-1282.44,-492.166)"
     id="g393">
    <g
       transform="translate(494.268,236.241)"
       id="g391">
      <path
         d="m 0,-47.974 h 0.017 c 2.025,3.38 12.985,22.413 6.749,46.688 C 5.213,4.754 2.868,9.973 0.174,14.487 h 22.811 c 10.619,-18.064 9.959,-40.07 3.773,-52.742 -1.912,-3.916 -5.934,-12.152 -14.645,-15.346 -3.254,-1.193 -6.197,-1.329 -8.102,-1.27 -2.308,-0.336 -5.917,-1.176 -9.687,-3.505 -2.175,-1.344 -3.823,-2.826 -5.017,-4.085 -1.004,1.458 -2.008,2.915 -3.012,4.372 0.189,1.322 0.638,2.962 1.682,4.563 3.644,5.586 11.188,5.569 12.023,5.552"
         style="fill:#f9b233;fill-rule:nonzero"
         id="path389" />
    </g>
  </g>
  <g
     transform="matrix(4.16667,0,0,4.16667,-1282.44,-492.166)"
     id="g399">
    <g
       transform="translate(490.328,190.405)"
       id="g397">
      <path
         d="m 0,58.186 c -0.425,0.73 -0.872,1.433 -1.318,2.138 H 4.113 C 6.808,55.809 9.152,50.59 10.705,44.55 16.941,20.275 5.981,1.242 3.956,-2.138 H 3.939 C 9.373,17.665 8.971,34.803 5.811,44.856 3.583,51.946 0,58.186 0,58.186"
         style="fill:#e59e2d;fill-rule:nonzero"
         id="path395" />
    </g>
  </g>
  <g
     transform="matrix(4.16667,0,0,4.16667,-1282.44,-492.166)"
     id="g405">
    <g
       transform="matrix(-0.998468,-0.0553379,-0.0553379,0.998468,519.58,245.449)"
       id="g403">
      <path
         d="M 3.92,-46.023 C 3.068,-46.245 -2.6,-35.351 -2.315,-21.919 -2.053,-9.617 3.103,0.308 3.92,0.093 4.654,-0.1 1.625,-8.407 1.433,-21.711 1.22,-36.527 4.694,-45.822 3.92,-46.023"
         style="fill:#e59e2d;fill-rule:nonzero"
         id="path401" />
    </g>
  </g>
  <g
     transform="matrix(4.16667,0,0,4.16667,-1317.2162,-582.58408)"
     id="g411">
    <g
       transform="matrix(0.278993,0.960293,0.960293,-0.278993,437.428,202.676)"
       id="g409">
      <path
         d="m 12.436,-12.766 c -0.782,0.354 2.991,6.201 2.841,15.588 -0.14,8.791 -3.616,14.176 -2.841,14.538 0.896,0.418 6.94,-6.089 7.19,-14.368 0.269,-8.906 -6.279,-16.17 -7.19,-15.758"
         style="fill:#89ad27;fill-rule:nonzero"
         id="path407" />
    </g>
  </g>
  <g
     transform="matrix(4.16667,0,0,4.16667,-1282.44,-492.166)"
     id="g417">
    <g
       transform="matrix(-0.988563,-0.150811,-0.150811,0.988563,488.31,243.657)"
       id="g415">
      <path
         d="m -1.54,-34.85 c -0.602,-0.089 -2.672,6.567 -3.146,14.066 -0.717,11.307 2.42,20.96 3.146,20.859 0.586,-0.083 -0.59,-6.505 -0.377,-19.93 0.153,-9.709 0.903,-14.917 0.377,-14.995"
         style="fill:#c4bf02;fill-rule:nonzero"
         id="path413" />
    </g>
  </g>
  <g
     transform="matrix(4.16667,0,0,4.16667,-1282.44,-492.166)"
     id="g423">
    <g
       transform="matrix(-0.998517,-0.0544406,-0.0544406,0.998517,369.31,247.239)"
       id="g421">
      <path
         d="m -4.649,-26.606 c 0.594,-0.182 3.737,5.015 4.211,11.395 0.618,8.327 -3.555,15.374 -4.211,15.185 -0.57,-0.165 1.757,-5.712 1.435,-14.834 -0.253,-7.168 -1.967,-11.583 -1.435,-11.746"
         style="fill:#be1622;fill-rule:nonzero"
         id="path419" />
    </g>
  </g>
  <g
     transform="matrix(4.16667,0,0,4.16667,-1282.44,-492.166)"
     id="g429">
    <g
       transform="matrix(-0.94341,-0.331629,-0.331629,0.94341,402.224,236.857)"
       id="g427">
      <path
         d="m -9.848,-27.098 c -0.457,0.336 1.846,3.176 3.084,6.952 3.387,10.333 -3.644,20.247 -3.084,20.497 0.618,0.278 10.047,-11.426 6.144,-20.781 -1.688,-4.046 -5.622,-7.052 -6.144,-6.668"
         style="fill:#be1622;fill-rule:nonzero"
         id="path425" />
    </g>
  </g>
  <g
     transform="matrix(4.16667,0,0,4.16667,-1282.44,-492.166)"
     id="g435">
    <g
       transform="matrix(-0.897656,0.440698,0.440698,0.897656,441.417,189.39)"
       id="g433">
      <path
         d="M 5.85,-19.859 C 5.243,-20.066 1.614,-14.873 1.823,-8.682 2.012,-3.119 5.237,1.387 5.85,1.174 6.419,0.977 4.499,-3.187 4.604,-10.047 c 0.093,-6.129 1.729,-9.647 1.246,-9.812"
         style="fill:#89ad27;fill-rule:nonzero"
         id="path431" />
    </g>
  </g>
  <g
     transform="matrix(4.16667,0,0,4.16667,-1282.44,-492.166)"
     id="g441">
    <g
       transform="matrix(-0.543713,-0.839271,-0.839271,0.543713,448.661,193.161)"
       id="g439">
      <path
         d="m -6.39,-13.258 c -0.468,-0.19 -3.56,3.617 -3.545,8.334 0.014,4.683 3.085,8.457 3.545,8.268 0.392,-0.16 -1.301,-3.13 -1.362,-8.004 -0.065,-5.198 1.777,-8.43 1.362,-8.598"
         style="fill:#89ad27;fill-rule:nonzero"
         id="path437" />
    </g>
  </g>
  <g
     transform="matrix(4.16667,0,0,4.16667,-1282.44,-492.166)"
     id="g447">
    <g
       transform="matrix(-0.964364,0.264581,0.264581,0.964364,487.488,244.542)"
       id="g445">
      <path
         d="M 6.382,-32.714 C 5.55,-32.937 0.09,-23.257 1.397,-12.074 2.234,-4.923 5.621,0.978 6.382,0.758 7.157,0.535 4.829,-5.949 4.783,-16.315 4.735,-26.697 7.015,-32.543 6.382,-32.714"
         style="fill:#89ad27;fill-rule:nonzero"
         id="path443" />
    </g>
  </g>
</svg>
