<?xml version="1.0" encoding="UTF-8" standalone="no"?>
<svg
   width="1551.8579"
   height="1015.155"
   version="1.1"
   style="clip-rule:evenodd;fill-rule:evenodd;image-rendering:optimizeQuality;shape-rendering:geometricPrecision;text-rendering:geometricPrecision"
   viewBox="0 0 1551.8579 1015.3447"
   id="svg6261"
   sodipodi:docname="medicine.svg"
   inkscape:version="1.2.2 (732a01da63, 2022-12-09)"
   xmlns:inkscape="http://www.inkscape.org/namespaces/inkscape"
   xmlns:sodipodi="http://sodipodi.sourceforge.net/DTD/sodipodi-0.dtd"
   xmlns="http://www.w3.org/2000/svg"
   xmlns:svg="http://www.w3.org/2000/svg">
  <sodipodi:namedview
     id="namedview6263"
     pagecolor="#505050"
     bordercolor="#eeeeee"
     borderopacity="1"
     inkscape:showpageshadow="0"
     inkscape:pageopacity="0"
     inkscape:pagecheckerboard="0"
     inkscape:deskcolor="#505050"
     showgrid="false"
     inkscape:zoom="0.17787784"
     inkscape:cx="326.06647"
     inkscape:cy="618.40192"
     inkscape:window-width="1366"
     inkscape:window-height="705"
     inkscape:window-x="-8"
     inkscape:window-y="-8"
     inkscape:window-maximized="1"
     inkscape:current-layer="Layer_x0020_1" />
  <defs
     id="defs5857">
    <style
       type="text/css"
       id="style5855">  .str0 {stroke:#E9F4EA;stroke-width:13.92;stroke-miterlimit:22.9256} .str13 {stroke:#46B153;stroke-width:10.01;stroke-miterlimit:22.9256} .str12 {stroke:#89CED4;stroke-width:12.13;stroke-miterlimit:22.9256} .str4 {stroke:#008089;stroke-width:6.09;stroke-miterlimit:22.9256} .str1 {stroke:#FEFEFE;stroke-width:14.58;stroke-miterlimit:22.9256} .str3 {stroke:#1A9545;stroke-width:7.63;stroke-miterlimit:22.9256} .str8 {stroke:#55B665;stroke-width:10.36;stroke-miterlimit:22.9256} .str10 {stroke:#EE8182;stroke-width:8.57;stroke-miterlimit:22.9256} .str9 {stroke:#E73A5A;stroke-width:5.86;stroke-miterlimit:22.9256} .str11 {stroke:#EA625F;stroke-width:7.08;stroke-miterlimit:22.9256} .str6 {stroke:#8ED0D8;stroke-width:12.25;stroke-miterlimit:22.9256} .str14 {stroke:#DA2E51;stroke-width:5.01;stroke-miterlimit:22.9256} .str2 {stroke:#2BA943;stroke-width:9.26;stroke-miterlimit:22.9256} .str5 {stroke:#0096A8;stroke-width:8.39;stroke-miterlimit:22.9256} .str15 {stroke:#9ED1AE;stroke-width:12.04;stroke-miterlimit:22.9256} .str7 {stroke:#93CDA3;stroke-width:11.78;stroke-miterlimit:22.9256} .fil1 {fill:none;fill-rule:nonzero} .fil2 {fill:#FEFEFE;fill-rule:nonzero} .fil11 {fill:#EE8182;fill-rule:nonzero} .fil12 {fill:#EA625F;fill-rule:nonzero} .fil10 {fill:#E73A5A;fill-rule:nonzero} .fil15 {fill:#DA2E51;fill-rule:nonzero} .fil0 {fill:#E9F4EA;fill-rule:nonzero} .fil16 {fill:#9ED1AE;fill-rule:nonzero} .fil7 {fill:#8ED0D8;fill-rule:nonzero} .fil8 {fill:#93CDA3;fill-rule:nonzero} .fil13 {fill:#89CED4;fill-rule:nonzero} .fil9 {fill:#55B665;fill-rule:nonzero} .fil14 {fill:#46B153;fill-rule:nonzero} .fil3 {fill:#2BA943;fill-rule:nonzero} .fil4 {fill:#1A9545;fill-rule:nonzero} .fil6 {fill:#0096A8;fill-rule:nonzero} .fil5 {fill:#008089;fill-rule:nonzero}  </style>
  </defs>
  <g
     id="Layer_x0020_1"
     inkscape:label="Layer 1"
     inkscape:groupmode="layer"
     transform="translate(-613.74988,-873.69429)">
    <metadata
       id="CorelCorpID_0Corel-Layer" />
    <path
       class="fil1 str3"
       d="m 1445.5461,1397.9055 c -0.6218,0.2151 -1.2447,0.1926 -1.8282,-0.2487 4.559,-22.3557 7.7604,-45.0009 9.5753,-67.7468 1.6139,-20.2662 2.1282,-40.6282 1.5164,-60.935 0.6222,0 1.2451,0 1.8683,0 0.701,24.3369 -0.1905,48.6987 -2.6147,72.9349 -1.8862,18.8119 -4.7279,37.5356 -8.5206,56.0466 z"
       id="path5898" />
    <path
       class="fil1 str3"
       d="m 1479.6666,1475.9142 c 0.4311,-0.4862 0.6223,-1.0856 0.4523,-1.79 -22.4291,-4.2043 -44.6151,-9.7734 -66.364,-16.6621 -19.3836,-6.1357 -38.4286,-13.3503 -57.0088,-21.5733 -0.2693,0.5427 -0.5199,1.1307 -0.735,1.712 22.2701,9.8367 45.1739,18.2001 68.5386,25.0775 18.1367,5.3374 36.5496,9.7678 55.124,13.2381 z"
       id="path5938" />
    <path
       class="fil1 str12"
       d="m 1226.7765,1665.2336 c -34.1961,0 -68.3833,-2.8959 -102.5674,-8.6979 41.1993,-1.7302 82.2926,-6.5814 122.7951,-14.47 23.8538,-0.8363 47.8471,-3.1329 71.6997,-6.8817 v -71.0251 c 0.2476,-1.6339 0.4864,-3.2623 0.7241,-4.8896 h 22.0786 v -99.3082 h -7.4201 c 2.4762,-16.7788 4.954,-33.562 7.4233,-50.3463 v 190.4455 c -5.5894,11.4109 -5.0704,24.0568 0,34.5246 v 19.7865 c -38.2489,7.2371 -76.4998,10.8622 -114.7355,10.8622 z"
       id="path6078" />
    <path
       class="fil1 str13"
       d="m 1247.0042,1642.0657 c 7.5232,-1.4585 15.0314,-3.0381 22.513,-4.7105 10.9167,-2.4233 22.3195,-5.3587 30.4996,-12.9964 10.8827,-10.1195 13.6497,-25.9965 15.8162,-40.7038 0.95,-6.4964 1.9066,-13.0008 2.8709,-19.4961 v 71.0251 c -23.8526,3.7488 -47.8459,6.0477 -71.6997,6.8817 z"
       id="path6082" />
    <path
       class="fil1 str15"
       d="m 1587.7205,1674.4552 c -71.2725,0 -142.534,-5.8607 -213.7976,-17.5691 2.2005,0 4.4214,0 6.6211,0 40.0332,0 79.9761,-3.0982 119.7765,-8.2523 29.1971,2.0014 58.3693,3.0125 87.3709,3.0125 70.7433,0 142.5146,-6.0138 213.2896,-17.8194 8.0074,-1.342 11.4549,-7.2085 12.5699,-9.6615 0.5884,-1.3409 1.4781,-3.8523 1.4781,-6.9759 0,-2.6041 -0.6221,-5.6287 -2.5713,-8.7274 l -96.5732,-154.1527 c -14.4637,-41.7059 -31.1362,-82.6542 -49.9029,-122.6073 l 165.8009,264.6474 c 4.1517,6.6362 6.059,13.8441 6.0547,20.9001 0,8.9491 -3.0883,17.6562 -8.575,24.6199 -5.7758,7.3307 -14.2195,12.727 -24.5257,14.4502 -72.3365,12.0722 -144.6847,18.1121 -217.0236,18.1121 z"
       id="path6226" />
    <g
       id="g1679"
       transform="matrix(1.2083608,0,0,1.2083608,-261.24156,-309.72398)">
      <path
         class="fil1 str6"
         d="m 1715.6078,1571.4888 c 5.4061,3.3199 10.0062,7.4496 14.4204,11.7671 4.3224,4.4056 8.4519,9.0091 11.7719,14.4218 -5.4175,-3.3163 -10.0154,-7.4451 -14.4198,-11.7725 -4.3221,-4.4089 -8.4527,-9.009 -11.7725,-14.4164 z"
         id="path5962" />
      <path
         class="fil1 str9"
         d="m 1089.1749,1429.8672 -24.7677,180.1781 c -2.6799,19.4633 -20.692,33.1051 -40.1554,30.4273 -19.4644,-2.6741 -33.11108,-20.6672 -30.43068,-40.1314 l 24.55968,-178.6585 c 8.0509,-4.5933 18.5051,-5.1418 26.7349,-0.7577 5.5952,3.001 10.0302,7.85 15.6503,10.8295 8.8272,4.6839 20.2346,3.7791 28.4089,-1.8861 z"
         id="path6110" />
      <path
         class="fil3"
         d="m 1328.7014,1267.2474 c -0.2374,0.7919 -0.5976,1.4338 -1.4105,1.7923 -0.8064,0.4027 -2.0319,0.5281 -3.7586,0.3332 -8.1786,-0.9309 -21.1705,-7.6769 -28.9113,-10.4656 -19.2485,-6.9474 -38.5014,-13.8949 -57.7497,-20.8423 -13.6661,-4.9355 -28.0816,-10.4282 -36.8666,-21.9706 -7.7723,-10.2463 -9.761,-24.7052 -4.6866,-36.4936 0.2341,-0.5698 0.5298,-1.1672 0.8064,-1.7216 0.3309,-0.6669 0.7222,-1.334 1.0973,-2.0077 5.8219,-9.8392 16.7144,-16.6602 28.1557,-16.9923 13.4261,-0.375 25.6789,7.3295 36.1544,15.7264 26.1833,20.9561 47.416,48.0514 61.6862,78.4103 2.2217,4.734 6.1346,10.9632 5.4553,14.2299 z"
         id="path5868"
         style="stroke-width:0.606243" />
      <path
         class="fil1 str2"
         d="m 1328.7014,1267.2474 c -0.2374,0.7919 -0.5976,1.4338 -1.4105,1.7923 -0.8064,0.4027 -2.0319,0.5281 -3.7586,0.3332 -8.1786,-0.9309 -21.1705,-7.6769 -28.9113,-10.4656 -19.2485,-6.9474 -38.5014,-13.8949 -57.7497,-20.8423 -13.6661,-4.9355 -28.0816,-10.4282 -36.8666,-21.9706 -7.7723,-10.2463 -9.761,-24.7052 -4.6866,-36.4936 0.2341,-0.5698 0.5298,-1.1672 0.8064,-1.7216 0.3309,-0.6669 0.7222,-1.334 1.0973,-2.0077 5.8219,-9.8392 16.7144,-16.6602 28.1557,-16.9923 13.4261,-0.375 25.6789,7.3295 36.1544,15.7264 26.1833,20.9561 47.416,48.0514 61.6862,78.4103 2.2217,4.734 6.1346,10.9632 5.4553,14.2299 z"
         id="path5870" />
      <path
         class="fil4"
         d="m 1546.49,1635.1496 c 0.3043,1.4103 -1.8172,2.2233 -2.1512,0.792 -1.1251,-5.0784 -2.3428,-10.1835 -3.5975,-15.2399 -10.2804,-41.4125 -24.467,-81.8786 -42.2012,-120.6718 -17.7373,-38.8667 -39.0697,-76.0898 -63.6724,-111.0326 -23.8906,-33.976 -50.8759,-65.73 -80.5317,-94.826 -8.7788,-8.612 -17.8119,-16.9795 -27.0327,-25.1218 -21.1814,-18.6581 -43.4745,-36.0281 -66.7424,-52.0017 -20.7331,-14.2299 -42.2547,-27.2882 -64.4127,-39.1642 0.3309,-0.6669 0.7219,-1.334 1.0976,-2.0077 26.535,14.1991 52.1431,30.1617 76.5983,47.7108 19.0067,13.6171 37.3132,28.1915 54.853,43.6634 13.0905,11.5161 25.7431,23.5407 37.9021,36.0087 29.1117,29.8476 55.5162,62.3213 78.7523,96.9447 23.8258,35.521 44.3765,73.2483 61.3279,112.5001 17.0349,39.4782 30.373,80.4918 39.8062,122.4487 z"
         id="path5872"
         style="stroke-width:0.606243" />
      <path
         class="fil1 str3"
         d="m 1546.49,1635.1496 c 0.3043,1.4103 -1.8172,2.2233 -2.1512,0.792 -1.1251,-5.0784 -2.3428,-10.1835 -3.5975,-15.2399 -10.2804,-41.4125 -24.467,-81.8786 -42.2012,-120.6718 -17.7373,-38.8667 -39.0697,-76.0898 -63.6724,-111.0326 -23.8906,-33.976 -50.8759,-65.73 -80.5317,-94.826 -8.7788,-8.612 -17.8119,-16.9795 -27.0327,-25.1218 -21.1814,-18.6581 -43.4745,-36.0281 -66.7424,-52.0017 -20.7331,-14.2299 -42.2547,-27.2882 -64.4127,-39.1642 0.3309,-0.6669 0.7219,-1.334 1.0976,-2.0077 26.535,14.1991 52.1431,30.1617 76.5983,47.7108 19.0067,13.6171 37.3132,28.1915 54.853,43.6634 13.0905,11.5161 25.7431,23.5407 37.9021,36.0087 29.1117,29.8476 55.5162,62.3213 78.7523,96.9447 23.8258,35.521 44.3765,73.2483 61.3279,112.5001 17.0349,39.4782 30.373,80.4918 39.8062,122.4487 z"
         id="path5874" />
      <path
         class="fil3"
         d="m 1372.0906,1307.6814 c -0.6251,0.5281 -1.3619,0.7225 -2.2232,0.4723 -0.8891,-0.2362 -1.8885,-0.903 -3.0873,-2.1744 -5.6426,-5.9957 -11.2687,-19.4892 -15.404,-26.6088 -10.2681,-17.7022 -20.5381,-35.3972 -30.815,-53.1063 -7.2859,-12.5609 -14.7974,-26.0433 -14.0763,-40.5523 0.6525,-12.8388 8.377,-25.1872 19.8652,-30.9356 0.5699,-0.3056 1.1394,-0.5698 1.7441,-0.8059 0.6946,-0.3055 1.4102,-0.5975 2.1505,-0.8338 10.8035,-3.7808 23.4979,-2.0314 32.4893,5.0926 10.5291,8.3425 14.9202,22.1345 17.5687,35.3014 6.553,32.9017 5.3844,67.3109 -3.2194,99.7334 -1.3336,5.0564 -2.3429,12.3373 -4.972,14.4034 z"
         id="path5876"
         style="stroke-width:0.606243" />
      <path
         class="fil1 str2"
         d="m 1372.0906,1307.6814 c -0.6251,0.5281 -1.3619,0.7225 -2.2232,0.4723 -0.8891,-0.2362 -1.8885,-0.903 -3.0873,-2.1744 -5.6426,-5.9957 -11.2687,-19.4892 -15.404,-26.6088 -10.2681,-17.7022 -20.5381,-35.3972 -30.815,-53.1063 -7.2859,-12.5609 -14.7974,-26.0433 -14.0763,-40.5523 0.6525,-12.8388 8.377,-25.1872 19.8652,-30.9356 0.5699,-0.3056 1.1394,-0.5698 1.7441,-0.8059 0.6946,-0.3055 1.4102,-0.5975 2.1505,-0.8338 10.8035,-3.7808 23.4979,-2.0314 32.4893,5.0926 10.5291,8.3425 14.9202,22.1345 17.5687,35.3014 6.553,32.9017 5.3844,67.3109 -3.2194,99.7334 -1.3336,5.0564 -2.3429,12.3373 -4.972,14.4034 z"
         id="path5878" />
      <path
         class="fil4"
         d="m 1372.0906,1307.6814 c -0.6251,0.5281 -1.3619,0.7225 -2.2232,0.4723 -4.2017,-27.8995 -10.1013,-55.574 -17.655,-82.7523 -6.7224,-24.2314 -14.7921,-48.0933 -24.1281,-71.42 0.6946,-0.3053 1.4102,-0.5974 2.151,-0.8337 11.1657,27.9539 20.4921,56.6357 27.9522,85.8221 5.7911,22.6485 10.4543,45.5989 13.9144,68.7089 z"
         id="path5880"
         style="stroke-width:0.606243" />
      <path
         class="fil1 str3"
         d="m 1372.0906,1307.6814 c -0.6251,0.5281 -1.3619,0.7225 -2.2232,0.4723 -4.2017,-27.8995 -10.1013,-55.574 -17.655,-82.7523 -6.7224,-24.2314 -14.7921,-48.0933 -24.1281,-71.42 0.6946,-0.3053 1.4102,-0.5974 2.151,-0.8337 11.1657,27.9539 20.4921,56.6357 27.9522,85.8221 5.7911,22.6485 10.4543,45.5989 13.9144,68.7089 z"
         id="path5882" />
      <path
         class="fil3"
         d="m 1413.079,1355.9509 c -0.7637,0.2646 -1.5296,0.2361 -2.2463,-0.3332 -0.7644,-0.5003 -1.4814,-1.5048 -2.1512,-3.0915 -3.2374,-7.5714 -3.8848,-22.182 -5.3287,-30.2812 -3.5641,-20.1589 -7.1295,-40.3037 -10.6877,-60.4624 -2.5331,-14.3061 -4.9595,-29.5419 0.6944,-42.9199 5.0066,-11.84 16.5215,-20.7756 29.2878,-22.2319 0.6392,0 1.2644,-0.2361 1.8885,-0.2361 0.7638,0 1.5295,0 2.319,0 11.4397,0.2361 22.7586,6.1708 28.7555,15.9515 7.025,11.4452 6.4067,25.9111 4.3753,39.1863 -5.1453,33.1505 -18.0662,65.0559 -37.2829,92.5554 -3.0011,4.2866 -6.4456,10.7797 -9.615,11.8218 z"
         id="path5884"
         style="stroke-width:0.606243" />
      <path
         class="fil1 str2"
         d="m 1413.079,1355.9509 c -0.7637,0.2646 -1.5296,0.2361 -2.2463,-0.3332 -0.7644,-0.5003 -1.4814,-1.5048 -2.1512,-3.0915 -3.2374,-7.5714 -3.8848,-22.182 -5.3287,-30.2812 -3.5641,-20.1589 -7.1295,-40.3037 -10.6877,-60.4624 -2.5331,-14.3061 -4.9595,-29.5419 0.6944,-42.9199 5.0066,-11.84 16.5215,-20.7756 29.2878,-22.2319 0.6392,0 1.2644,-0.2361 1.8885,-0.2361 0.7638,0 1.5295,0 2.319,0 11.4397,0.2361 22.7586,6.1708 28.7555,15.9515 7.025,11.4452 6.4067,25.9111 4.3753,39.1863 -5.1453,33.1505 -18.0662,65.0559 -37.2829,92.5554 -3.0011,4.2866 -6.4456,10.7797 -9.615,11.8218 z"
         id="path5886" />
      <path
         class="fil4"
         d="m 1413.079,1355.9509 c -0.7637,0.2646 -1.5296,0.2361 -2.2463,-0.3332 5.6382,-27.6439 9.6029,-55.6588 11.8466,-83.7836 2.008,-25.0594 2.6244,-50.2453 1.8644,-75.3562 0.7645,0 1.5304,0 2.318,0 0.8892,30.095 -0.2338,60.2234 -3.2307,90.1988 -2.3428,23.2656 -5.8514,46.4187 -10.5353,69.3161 z"
         id="path5888"
         style="stroke-width:0.606243" />
      <path
         class="fil1 str3"
         d="m 1413.079,1355.9509 c -0.7637,0.2646 -1.5296,0.2361 -2.2463,-0.3332 5.6382,-27.6439 9.6029,-55.6588 11.8466,-83.7836 2.008,-25.0594 2.6244,-50.2453 1.8644,-75.3562 0.7645,0 1.5304,0 2.318,0 0.8892,30.095 -0.2338,60.2234 -3.2307,90.1988 -2.3428,23.2656 -5.8514,46.4187 -10.5353,69.3161 z"
         id="path5890" />
      <path
         class="fil3"
         d="m 1473.697,1445.644 c -0.764,0.2643 -1.5294,0.2367 -2.2464,-0.3056 -0.7368,-0.5002 -1.458,-1.5061 -2.1512,-3.0734 -3.2183,-7.5255 -3.8612,-22.0374 -5.2921,-30.0896 -3.5408,-20.0183 -7.0825,-40.0479 -10.6286,-60.0731 -2.5094,-14.2104 -4.9161,-29.3531 0.7223,-42.6476 4.9759,-11.7635 16.4153,-20.6438 29.1047,-22.0875 0.6248,0 1.2641,-0.2359 1.888,-0.2359 0.7647,0 1.5283,0 2.2942,0 11.366,0.2359 22.6122,6.1402 28.5663,15.8457 6.9841,11.3801 6.3709,25.7488 4.3481,38.9335 -5.1137,32.9421 -17.9468,64.6419 -37.0428,91.9662 -2.9778,4.2616 -6.4011,10.7061 -9.5536,11.7441 z"
         id="path5892"
         style="stroke-width:0.606243" />
      <path
         class="fil1 str2"
         d="m 1473.697,1445.644 c -0.764,0.2643 -1.5294,0.2367 -2.2464,-0.3056 -0.7368,-0.5002 -1.458,-1.5061 -2.1512,-3.0734 -3.2183,-7.5255 -3.8612,-22.0374 -5.2921,-30.0896 -3.5408,-20.0183 -7.0825,-40.0479 -10.6286,-60.0731 -2.5094,-14.2104 -4.9161,-29.3531 0.7223,-42.6476 4.9759,-11.7635 16.4153,-20.6438 29.1047,-22.0875 0.6248,0 1.2641,-0.2359 1.888,-0.2359 0.7647,0 1.5283,0 2.2942,0 11.366,0.2359 22.6122,6.1402 28.5663,15.8457 6.9841,11.3801 6.3709,25.7488 4.3481,38.9335 -5.1137,32.9421 -17.9468,64.6419 -37.0428,91.9662 -2.9778,4.2616 -6.4011,10.7061 -9.5536,11.7441 z"
         id="path5894" />
      <path
         class="fil4"
         d="m 1473.697,1445.644 c -0.764,0.2643 -1.5294,0.2367 -2.2464,-0.3056 5.602,-27.4702 9.5358,-55.2961 11.7659,-83.2457 1.9831,-24.9026 2.6151,-49.923 1.8633,-74.8755 0.7646,0 1.53,0 2.2957,0 0.8614,29.9046 -0.2341,59.8398 -3.2129,89.6207 -2.3177,23.1156 -5.8095,46.1229 -10.4699,68.8688 z"
         id="path5896"
         style="stroke-width:0.606243" />
      <path
         class="fil3"
         d="m 1512.3249,1526.6096 c -0.792,0.2363 -1.5279,0 -2.1509,-0.6948 -0.6392,-0.6253 -1.1946,-1.7203 -1.6242,-3.3737 -1.9845,-7.9368 -0.3042,-22.3653 -0.4011,-30.5437 -0.3042,-20.3323 -0.5976,-40.6663 -0.8894,-61.0002 -0.234,-14.4297 -0.234,-29.7613 7.5046,-41.9833 6.7892,-10.8215 19.5013,-17.7564 32.2514,-17.1616 0.6389,0 1.2643,0 1.888,0.2364 0.7648,0 1.5052,0.2359 2.2706,0.3053 11.1994,1.9843 21.3396,9.6709 25.6753,20.2047 5.073,12.3442 2.1743,26.4407 -1.9357,39.1349 -10.3063,31.6931 -28.0386,60.9459 -51.2526,84.8618 -3.625,3.728 -8.0331,9.5471 -11.3137,10.0684 z"
         id="path5900"
         style="stroke-width:0.606243" />
      <path
         class="fil1 str2"
         d="m 1512.3249,1526.6096 c -0.792,0.2363 -1.5279,0 -2.1509,-0.6948 -0.6392,-0.6253 -1.1946,-1.7203 -1.6242,-3.3737 -1.9845,-7.9368 -0.3042,-22.3653 -0.4011,-30.5437 -0.3042,-20.3323 -0.5976,-40.6663 -0.8894,-61.0002 -0.234,-14.4297 -0.234,-29.7613 7.5046,-41.9833 6.7892,-10.8215 19.5013,-17.7564 32.2514,-17.1616 0.6389,0 1.2643,0 1.888,0.2364 0.7648,0 1.5052,0.2359 2.2706,0.3053 11.1994,1.9843 21.3396,9.6709 25.6753,20.2047 5.073,12.3442 2.1743,26.4407 -1.9357,39.1349 -10.3063,31.6931 -28.0386,60.9459 -51.2526,84.8618 -3.625,3.728 -8.0331,9.5471 -11.3137,10.0684 z"
         id="path5902" />
      <path
         class="fil5"
         d="m 1512.3249,1526.6096 c -0.792,0.2363 -1.5279,0 -2.1509,-0.6948 9.9184,-26.2197 18.2556,-53.0633 24.9178,-80.2957 5.9487,-24.2621 10.5491,-48.8573 13.7995,-73.6097 0.7637,0 1.5059,0.2362 2.2699,0.3055 -3.9097,29.6558 -9.7656,59.0408 -17.484,87.9588 -5.9898,22.4431 -13.0985,44.6029 -21.3396,66.3092 z"
         id="path5904"
         style="stroke-width:0.606243" />
      <path
         class="fil1 str4"
         d="m 1512.3249,1526.6096 c -0.792,0.2363 -1.5279,0 -2.1509,-0.6948 9.9184,-26.2197 18.2556,-53.0633 24.9178,-80.2957 5.9487,-24.2621 10.5491,-48.8573 13.7995,-73.6097 0.7637,0 1.5059,0.2362 2.2699,0.3055 -3.9097,29.6558 -9.7656,59.0408 -17.484,87.9588 -5.9898,22.4431 -13.0985,44.6029 -21.3396,66.3092 z"
         id="path5906" />
      <path
         class="fil3"
         d="m 1351.2789,1292.8957 c 0.4015,-0.6945 0.4709,-1.4574 0,-2.2704 -0.3584,-0.8057 -1.2224,-1.7215 -2.669,-2.6609 -6.8809,-4.5213 -21.1438,-7.7351 -28.8684,-10.5794 -19.2122,-7.0629 -38.4177,-14.1201 -57.6305,-21.1744 -13.6333,-5.0091 -28.2078,-10.0766 -42.3753,-6.8641 -12.5374,2.8443 -23.364,12.604 -27.0452,24.9175 -0.2338,0.5977 -0.3634,1.223 -0.4705,1.8399 -0.2338,0.7364 -0.3309,1.5062 -0.4603,2.2704 -1.8648,11.295 2.0789,23.4907 10.6323,31.119 10.0323,8.9289 24.3817,10.8741 37.8055,11.209 33.5435,0.7642 67.2262,-6.3236 97.6788,-20.4004 4.7515,-2.1982 11.7419,-4.4422 13.3304,-7.3851 z"
         id="path5908"
         style="stroke-width:0.606243" />
      <path
         class="fil1 str2"
         d="m 1351.2789,1292.8957 c 0.4015,-0.6945 0.4709,-1.4574 0,-2.2704 -0.3584,-0.8057 -1.2224,-1.7215 -2.669,-2.6609 -6.8809,-4.5213 -21.1438,-7.7351 -28.8684,-10.5794 -19.2122,-7.0629 -38.4177,-14.1201 -57.6305,-21.1744 -13.6333,-5.0091 -28.2078,-10.0766 -42.3753,-6.8641 -12.5374,2.8443 -23.364,12.604 -27.0452,24.9175 -0.2338,0.5977 -0.3634,1.223 -0.4705,1.8399 -0.2338,0.7364 -0.3309,1.5062 -0.4603,2.2704 -1.8648,11.295 2.0789,23.4907 10.6323,31.119 10.0323,8.9289 24.3817,10.8741 37.8055,11.209 33.5435,0.7642 67.2262,-6.3236 97.6788,-20.4004 4.7515,-2.1982 11.7419,-4.4422 13.3304,-7.3851 z"
         id="path5910" />
      <path
         class="fil4"
         d="m 1351.2789,1292.8957 c 0.4015,-0.6945 0.4709,-1.4574 0,-2.2704 -28.2105,0.6948 -56.4856,-0.3332 -84.5604,-3.0902 -25.0246,-2.4385 -49.9226,-6.2692 -74.5125,-11.4339 -0.2341,0.7363 -0.3309,1.5062 -0.4599,2.2704 29.468,6.1707 59.3255,10.4031 89.3592,12.7083 23.3153,1.7924 46.7227,2.4177 70.0886,1.8396 z"
         id="path5912"
         style="stroke-width:0.606243" />
      <path
         class="fil1 str3"
         d="m 1351.2789,1292.8957 c 0.4015,-0.6945 0.4709,-1.4574 0,-2.2704 -28.2105,0.6948 -56.4856,-0.3332 -84.5604,-3.0902 -25.0246,-2.4385 -49.9226,-6.2692 -74.5125,-11.4339 -0.2341,0.7363 -0.3309,1.5062 -0.4599,2.2704 29.468,6.1707 59.3255,10.4031 89.3592,12.7083 23.3153,1.7924 46.7227,2.4177 70.0886,1.8396 z"
         id="path5914" />
      <path
         class="fil3"
         d="m 1407.0085,1352.9926 c 0.304,-0.7362 0.2606,-1.5062 -0.234,-2.2467 -0.471,-0.7641 -1.4343,-1.5299 -2.9696,-2.2941 -7.3657,-3.5709 -21.8306,-4.9091 -29.8032,-6.7112 -19.8363,-4.4936 -39.6672,-8.9788 -59.5035,-13.4641 -14.077,-3.1819 -29.0874,-6.3097 -42.6312,-1.32 -11.9854,4.4115 -21.3952,15.4163 -23.443,28.019 0,0.6253 -0.2341,1.2645 -0.2341,1.8635 0,0.7641 -0.2372,1.5297 -0.2372,2.2938 -0.3905,11.3674 5.0575,22.8795 14.4727,29.2933 11.0325,7.5117 25.4124,7.5796 38.6834,6.1832 33.1504,-3.546 65.4202,-14.8647 93.6224,-32.6391 4.3949,-2.7775 10.9964,-5.8858 12.1794,-8.9858 z"
         id="path5916"
         style="stroke-width:0.606243" />
      <path
         class="fil1 str2"
         d="m 1407.0085,1352.9926 c 0.304,-0.7362 0.2606,-1.5062 -0.234,-2.2467 -0.471,-0.7641 -1.4343,-1.5299 -2.9696,-2.2941 -7.3657,-3.5709 -21.8306,-4.9091 -29.8032,-6.7112 -19.8363,-4.4936 -39.6672,-8.9788 -59.5035,-13.4641 -14.077,-3.1819 -29.0874,-6.3097 -42.6312,-1.32 -11.9854,4.4115 -21.3952,15.4163 -23.443,28.019 0,0.6253 -0.2341,1.2645 -0.2341,1.8635 0,0.7641 -0.2372,1.5297 -0.2372,2.2938 -0.3905,11.3674 5.0575,22.8795 14.4727,29.2933 11.0325,7.5117 25.4124,7.5796 38.6834,6.1832 33.1504,-3.546 65.4202,-14.8647 93.6224,-32.6391 4.3949,-2.7775 10.9964,-5.8858 12.1794,-8.9858 z"
         id="path5918" />
      <path
         class="fil4"
         d="m 1407.0085,1352.9926 c 0.304,-0.7362 0.2606,-1.5062 -0.234,-2.2467 -27.7051,4.2922 -55.6938,6.9044 -83.7085,7.8076 -24.9721,0.8059 -49.9922,0.2359 -74.8827,-1.6965 0,0.7642 -0.2374,1.5297 -0.2374,2.2939 29.8214,2.2941 59.7805,2.629 89.6698,1.0561 23.1986,-1.2506 46.3463,-3.6141 69.2854,-7.1921 z"
         id="path5920"
         style="stroke-width:0.606243" />
      <path
         class="fil1 str3"
         d="m 1407.0085,1352.9926 c 0.304,-0.7362 0.2606,-1.5062 -0.234,-2.2467 -27.7051,4.2922 -55.6938,6.9044 -83.7085,7.8076 -24.9721,0.8059 -49.9922,0.2359 -74.8827,-1.6965 0,0.7642 -0.2374,1.5297 -0.2374,2.2939 29.8214,2.2941 59.7805,2.629 89.6698,1.0561 23.1986,-1.2506 46.3463,-3.6141 69.2854,-7.1921 z"
         id="path5922" />
      <path
         class="fil3"
         d="m 1462.7468,1432.9565 c 0.3582,-0.7225 0.3582,-1.5062 0,-2.2704 -0.4335,-0.7922 -1.3619,-1.6006 -2.8486,-2.4233 -7.1726,-3.9365 -21.5592,-5.997 -29.4352,-8.198 -19.5789,-5.4746 -39.1669,-10.9435 -58.7501,-16.4154 -13.9005,-3.8821 -28.7362,-7.7492 -42.5146,-3.4445 -12.1927,3.8072 -22.1401,14.3325 -24.8145,26.8143 -0.2339,0.6253 -0.2607,1.2506 -0.3308,1.8648 -0.2374,0.764 -0.2374,1.5062 -0.2641,2.2704 -0.931,11.3313 3.91,23.0989 12.9985,29.9796 10.6406,8.0508 25.0011,8.8399 38.3279,8.1104 33.2812,-1.8883 66.079,-11.5785 95.1299,-27.9286 4.5301,-2.5526 11.2829,-5.3289 12.6166,-8.3663 z"
         id="path5924"
         style="stroke-width:0.606243" />
      <path
         class="fil1 str2"
         d="m 1462.7468,1432.9565 c 0.3582,-0.7225 0.3582,-1.5062 0,-2.2704 -0.4335,-0.7922 -1.3619,-1.6006 -2.8486,-2.4233 -7.1726,-3.9365 -21.5592,-5.997 -29.4352,-8.198 -19.5789,-5.4746 -39.1669,-10.9435 -58.7501,-16.4154 -13.9005,-3.8821 -28.7362,-7.7492 -42.5146,-3.4445 -12.1927,3.8072 -22.1401,14.3325 -24.8145,26.8143 -0.2339,0.6253 -0.2607,1.2506 -0.3308,1.8648 -0.2374,0.764 -0.2374,1.5062 -0.2641,2.2704 -0.931,11.3313 3.91,23.0989 12.9985,29.9796 10.6406,8.0508 25.0011,8.8399 38.3279,8.1104 33.2812,-1.8883 66.079,-11.5785 95.1299,-27.9286 4.5301,-2.5526 11.2829,-5.3289 12.6166,-8.3663 z"
         id="path5926" />
      <path
         class="fil4"
         d="m 1462.7468,1432.9565 c 0.3582,-0.7225 0.3582,-1.5062 0,-2.2704 -27.8801,2.911 -55.969,4.1225 -83.9961,3.6251 -24.976,-0.4306 -49.9343,-2.2468 -74.6991,-5.4314 -0.2341,0.7641 -0.2341,1.5048 -0.2606,2.2704 29.6751,3.7752 59.5796,5.6079 89.5126,5.5177 23.2294,0 46.4656,-1.2922 69.5604,-3.724 z"
         id="path5928"
         style="stroke-width:0.606243" />
      <path
         class="fil1 str3"
         d="m 1462.7468,1432.9565 c 0.3582,-0.7225 0.3582,-1.5062 0,-2.2704 -27.8801,2.911 -55.969,4.1225 -83.9961,3.6251 -24.976,-0.4306 -49.9343,-2.2468 -74.6991,-5.4314 -0.2341,0.7641 -0.2341,1.5048 -0.2606,2.2704 29.6751,3.7752 59.5796,5.6079 89.5126,5.5177 23.2294,0 46.4656,-1.2922 69.5604,-3.724 z"
         id="path5930" />
      <path
         class="fil3"
         d="m 1515.6235,1541.4993 c 0.5297,-0.5974 0.7647,-1.334 0.5558,-2.1995 -0.2338,-0.8615 -0.8331,-1.912 -2.0312,-3.1402 -5.7523,-5.8137 -18.9568,-11.8899 -25.8738,-16.2418 -17.2115,-10.8324 -34.4216,-21.6594 -51.6337,-32.4933 -12.2144,-7.681 -25.3287,-15.6248 -39.7639,-15.4246 -12.7738,0.2359 -25.3039,7.4212 -31.4348,18.6246 -0.3041,0.5559 -0.5975,1.1255 -0.8614,1.698 -0.3309,0.667 -0.6393,1.3895 -0.9031,2.1023 -4.134,10.5894 -2.8427,23.2546 3.9032,32.4404 7.9061,10.7547 21.4493,15.5971 34.4289,18.7011 32.4334,7.6812 66.6381,7.7479 99.1388,0.3611 5.0741,-1.1393 12.3371,-1.8882 14.4822,-4.4184 z"
         id="path5932"
         style="stroke-width:0.606243" />
      <path
         class="fil1 str2"
         d="m 1515.6235,1541.4993 c 0.5297,-0.5974 0.7647,-1.334 0.5558,-2.1995 -0.2338,-0.8615 -0.8331,-1.912 -2.0312,-3.1402 -5.7523,-5.8137 -18.9568,-11.8899 -25.8738,-16.2418 -17.2115,-10.8324 -34.4216,-21.6594 -51.6337,-32.4933 -12.2144,-7.681 -25.3287,-15.6248 -39.7639,-15.4246 -12.7738,0.2359 -25.3039,7.4212 -31.4348,18.6246 -0.3041,0.5559 -0.5975,1.1255 -0.8614,1.698 -0.3309,0.667 -0.6393,1.3895 -0.9031,2.1023 -4.134,10.5894 -2.8427,23.2546 3.9032,32.4404 7.9061,10.7547 21.4493,15.5971 34.4289,18.7011 32.4334,7.6812 66.6381,7.7479 99.1388,0.3611 5.0741,-1.1393 12.3371,-1.8882 14.4822,-4.4184 z"
         id="path5934" />
      <path
         class="fil4"
         d="m 1515.6235,1541.4993 c 0.5297,-0.5974 0.7647,-1.334 0.5558,-2.1995 -27.5604,-5.1662 -54.822,-12.0094 -81.5466,-20.474 -23.8181,-7.5394 -47.2201,-16.4046 -70.051,-26.5088 -0.331,0.6669 -0.6389,1.3894 -0.9032,2.1037 27.365,12.0871 55.5086,22.3638 84.2186,30.8146 22.286,6.5585 44.9113,12.0025 67.7351,16.2667 z"
         id="path5936"
         style="stroke-width:0.606243" />
      <path
         class="fil6"
         d="m 1855.914,1550.4991 c 0,16.6989 -13.5363,30.2353 -30.2325,30.2353 -16.6895,0 -30.2282,-13.5364 -30.2282,-30.2353 0,-16.6878 13.5387,-30.2242 30.2282,-30.2242 16.6962,0 30.2325,13.5364 30.2325,30.2242 z"
         id="path5940"
         style="stroke-width:0.606243" />
      <path
         class="fil1 str5"
         d="m 1855.914,1550.4991 c 0,16.6989 -13.5363,30.2353 -30.2325,30.2353 -16.6895,0 -30.2282,-13.5364 -30.2282,-30.2353 0,-16.6878 13.5387,-30.2242 30.2282,-30.2242 16.6962,0 30.2325,13.5364 30.2325,30.2242 z"
         id="path5942" />
      <path
         class="fil2"
         d="m 1851.3065,1545.9472 c 0,16.3583 -13.2695,29.6225 -29.6338,29.6225 -16.3606,0 -29.6266,-13.2642 -29.6266,-29.6225 0,-16.3698 13.266,-29.6323 29.6266,-29.6323 16.3643,0 29.6338,13.2625 29.6338,29.6323 z"
         id="path5944"
         style="stroke-width:0.606243" />
      <path
         class="fil1 str1"
         d="m 1851.3065,1545.9472 c 0,16.3583 -13.2695,29.6225 -29.6338,29.6225 -16.3606,0 -29.6266,-13.2642 -29.6266,-29.6225 0,-16.3698 13.266,-29.6323 29.6266,-29.6323 16.3643,0 29.6338,13.2625 29.6338,29.6323 z"
         id="path5946" />
      <path
         class="fil7"
         d="m 1805.5426,1529.5303 c 6.6429,4.0796 12.2954,9.1553 17.7194,14.466 5.3113,5.4065 10.3855,11.063 14.4651,17.7187 -6.6569,-4.0795 -12.3067,-9.1525 -17.7187,-14.47 -5.3109,-5.4192 -10.3865,-11.0703 -14.4658,-17.7147 z"
         id="path5948"
         style="stroke-width:0.606243" />
      <path
         class="fil1 str6"
         d="m 1805.5426,1529.5303 c 6.6429,4.0796 12.2954,9.1553 17.7194,14.466 5.3113,5.4065 10.3855,11.063 14.4651,17.7187 -6.6569,-4.0795 -12.3067,-9.1525 -17.7187,-14.47 -5.3109,-5.4192 -10.3865,-11.0703 -14.4658,-17.7147 z"
         id="path5950" />
      <path
         class="fil6"
         d="m 1855.914,1679.908 c 0,16.696 -13.5363,30.2282 -30.2325,30.2282 -16.6895,0 -30.2282,-13.5322 -30.2282,-30.2282 0,-16.6949 13.5387,-30.2313 30.2282,-30.2313 16.6962,0 30.2325,13.5364 30.2325,30.2313 z"
         id="path5952"
         style="stroke-width:0.606243" />
      <path
         class="fil1 str5"
         d="m 1855.914,1679.908 c 0,16.696 -13.5363,30.2282 -30.2325,30.2282 -16.6895,0 -30.2282,-13.5322 -30.2282,-30.2282 0,-16.6949 13.5387,-30.2313 30.2282,-30.2313 16.6962,0 30.2325,13.5364 30.2325,30.2313 z"
         id="path5954" />
      <path
         class="fil2"
         d="m 1851.3065,1675.3503 c 0,16.3615 -13.2695,29.6252 -29.6338,29.6252 -16.3606,0 -29.6266,-13.2637 -29.6266,-29.6252 0,-16.3626 13.266,-29.6267 29.6266,-29.6267 16.3643,0 29.6338,13.2641 29.6338,29.6267 z"
         id="path5956"
         style="stroke-width:0.606243" />
      <path
         class="fil1 str1"
         d="m 1851.3065,1675.3503 c 0,16.3615 -13.2695,29.6252 -29.6338,29.6252 -16.3606,0 -29.6266,-13.2637 -29.6266,-29.6252 0,-16.3626 13.266,-29.6267 29.6266,-29.6267 16.3643,0 29.6338,13.2641 29.6338,29.6267 z"
         id="path5958" />
      <path
         class="fil7"
         d="m 1805.5426,1658.9391 c 6.6429,4.0794 12.2954,9.1539 17.7194,14.4592 5.3113,5.4135 10.3855,11.0701 14.4651,17.7211 -6.6569,-4.0749 -12.3067,-9.1483 -17.7187,-14.4657 -5.3109,-5.4176 -10.3865,-11.0701 -14.4658,-17.7146 z"
         id="path5960"
         style="stroke-width:0.606243" />
      <path
         class="fil8"
         d="m 1345.8625,1443.4318 v 317.3515 c -89.0303,16.8461 -178.0215,17.7577 -267.0169,2.6595 -4.9713,-0.8341 -9.9486,-1.7205 -14.9202,-2.6595 v -317.3515 l 49.7676,-51.9711 h 182.3687 z"
         id="path5964"
         style="stroke-width:0.606243" />
      <path
         class="fil1 str7"
         d="m 1345.8625,1443.4318 v 317.3515 c -89.0303,16.8461 -178.0215,17.7577 -267.0169,2.6595 -4.9713,-0.8341 -9.9486,-1.7205 -14.9202,-2.6595 v -317.3515 l 49.7676,-51.9711 h 182.3687 z"
         id="path5966" />
      <path
         class="fil9"
         d="m 1204.8895,1746.0991 c -37.447,0 -75.3441,-2.9891 -112.9565,-8.8928 V 1454.691 l 33.7259,-35.2112 h 158.4537 l 33.7237,35.2112 v 282.5153 c -37.6089,5.9037 -75.5057,8.8928 -112.9468,8.8928 z"
         id="path5968"
         style="stroke-width:0.606243" />
      <path
         class="fil1 str8"
         d="m 1204.8895,1746.0991 c -37.447,0 -75.3441,-2.9891 -112.9565,-8.8928 V 1454.691 l 33.7259,-35.2112 h 158.4537 l 33.7237,35.2112 v 282.5153 c -37.6089,5.9037 -75.5057,8.8928 -112.9468,8.8928 z"
         id="path5970" />
      <polygon
         class="fil10"
         points="1461.01,1235 995.94,1235 995.94,1436.28 1461.01,1436.28 "
         id="polygon5972"
         transform="matrix(0.60624278,0,0,0.60624278,460.13096,773.18758)" />
      <polygon
         class="fil1 str9"
         points="1461.01,1235 995.94,1235 995.94,1436.28 1461.01,1436.28 "
         id="polygon5974"
         transform="matrix(0.60624278,0,0,0.60624278,460.13096,773.18758)" />
      <polygon
         class="fil2"
         points="1255.97,1363.14 1297.24,1363.14 1297.24,1308.14 1255.97,1308.14 1255.97,1266.87 1200.98,1266.87 1200.98,1308.14 1159.72,1308.14 1159.72,1363.14 1200.98,1363.14 1200.98,1404.4 1255.97,1404.4 "
         id="polygon5976"
         transform="matrix(0.60624278,0,0,0.60624278,460.13096,773.18758)" />
      <polygon
         class="fil1 str1"
         points="1255.97,1363.14 1297.24,1363.14 1297.24,1308.14 1255.97,1308.14 1255.97,1266.87 1200.98,1266.87 1200.98,1308.14 1159.72,1308.14 1159.72,1363.14 1200.98,1363.14 1200.98,1404.4 1255.97,1404.4 "
         id="polygon5978"
         transform="matrix(0.60624278,0,0,0.60624278,460.13096,773.18758)" />
      <polygon
         class="fil11"
         points="1434.3,951.55 1022.65,951.55 1022.65,1031.05 1434.3,1031.05 "
         id="polygon5980"
         transform="matrix(0.60624278,0,0,0.60624278,460.13096,773.18758)" />
      <polygon
         class="fil1 str10"
         points="1434.3,951.55 1022.65,951.55 1022.65,1031.05 1434.3,1031.05 "
         id="polygon5982"
         transform="matrix(0.60624278,0,0,0.60624278,460.13096,773.18758)" />
      <polygon
         class="fil12"
         points="1231.8,957.61 1225.15,957.61 1225.15,1024.99 1231.8,1024.99 "
         id="polygon5984"
         transform="matrix(0.60624278,0,0,0.60624278,460.13096,773.18758)" />
      <polygon
         class="fil1 str11"
         points="1231.8,957.61 1225.15,957.61 1225.15,1024.99 1231.8,1024.99 "
         id="polygon5986"
         transform="matrix(0.60624278,0,0,0.60624278,460.13096,773.18758)" />
      <polygon
         class="fil12"
         points="1214.41,957.61 1207.76,957.61 1207.76,1024.99 1214.41,1024.99 "
         id="polygon5988"
         transform="matrix(0.60624278,0,0,0.60624278,460.13096,773.18758)" />
      <polygon
         class="fil1 str11"
         points="1214.41,957.61 1207.76,957.61 1207.76,1024.99 1214.41,1024.99 "
         id="polygon5990"
         transform="matrix(0.60624278,0,0,0.60624278,460.13096,773.18758)" />
      <polygon
         class="fil12"
         points="1197.02,957.61 1190.37,957.61 1190.37,1024.99 1197.02,1024.99 "
         id="polygon5992"
         transform="matrix(0.60624278,0,0,0.60624278,460.13096,773.18758)" />
      <polygon
         class="fil1 str11"
         points="1197.02,957.61 1190.37,957.61 1190.37,1024.99 1197.02,1024.99 "
         id="polygon5994"
         transform="matrix(0.60624278,0,0,0.60624278,460.13096,773.18758)" />
      <polygon
         class="fil12"
         points="1179.63,957.61 1172.97,957.61 1172.97,1024.99 1179.63,1024.99 "
         id="polygon5996"
         transform="matrix(0.60624278,0,0,0.60624278,460.13096,773.18758)" />
      <polygon
         class="fil1 str11"
         points="1179.63,957.61 1172.97,957.61 1172.97,1024.99 1179.63,1024.99 "
         id="polygon5998"
         transform="matrix(0.60624278,0,0,0.60624278,460.13096,773.18758)" />
      <polygon
         class="fil12"
         points="1162.24,957.61 1155.58,957.61 1155.58,1024.99 1162.24,1024.99 "
         id="polygon6000"
         transform="matrix(0.60624278,0,0,0.60624278,460.13096,773.18758)" />
      <polygon
         class="fil1 str11"
         points="1162.24,957.61 1155.58,957.61 1155.58,1024.99 1162.24,1024.99 "
         id="polygon6002"
         transform="matrix(0.60624278,0,0,0.60624278,460.13096,773.18758)" />
      <polygon
         class="fil12"
         points="1144.85,957.61 1138.19,957.61 1138.19,1024.99 1144.85,1024.99 "
         id="polygon6004"
         transform="matrix(0.60624278,0,0,0.60624278,460.13096,773.18758)" />
      <polygon
         class="fil1 str11"
         points="1144.85,957.61 1138.19,957.61 1138.19,1024.99 1144.85,1024.99 "
         id="polygon6006"
         transform="matrix(0.60624278,0,0,0.60624278,460.13096,773.18758)" />
      <polygon
         class="fil12"
         points="1127.46,957.61 1120.8,957.61 1120.8,1024.99 1127.46,1024.99 "
         id="polygon6008"
         transform="matrix(0.60624278,0,0,0.60624278,460.13096,773.18758)" />
      <polygon
         class="fil1 str11"
         points="1127.46,957.61 1120.8,957.61 1120.8,1024.99 1127.46,1024.99 "
         id="polygon6010"
         transform="matrix(0.60624278,0,0,0.60624278,460.13096,773.18758)" />
      <polygon
         class="fil12"
         points="1110.06,957.61 1103.41,957.61 1103.41,1024.99 1110.06,1024.99 "
         id="polygon6012"
         transform="matrix(0.60624278,0,0,0.60624278,460.13096,773.18758)" />
      <polygon
         class="fil1 str11"
         points="1110.06,957.61 1103.41,957.61 1103.41,1024.99 1110.06,1024.99 "
         id="polygon6014"
         transform="matrix(0.60624278,0,0,0.60624278,460.13096,773.18758)" />
      <polygon
         class="fil12"
         points="1092.67,957.61 1086.02,957.61 1086.02,1024.99 1092.67,1024.99 "
         id="polygon6016"
         transform="matrix(0.60624278,0,0,0.60624278,460.13096,773.18758)" />
      <polygon
         class="fil1 str11"
         points="1092.67,957.61 1086.02,957.61 1086.02,1024.99 1092.67,1024.99 "
         id="polygon6018"
         transform="matrix(0.60624278,0,0,0.60624278,460.13096,773.18758)" />
      <polygon
         class="fil12"
         points="1075.28,957.61 1068.63,957.61 1068.63,1024.99 1075.28,1024.99 "
         id="polygon6020"
         transform="matrix(0.60624278,0,0,0.60624278,460.13096,773.18758)" />
      <polygon
         class="fil1 str11"
         points="1075.28,957.61 1068.63,957.61 1068.63,1024.99 1075.28,1024.99 "
         id="polygon6022"
         transform="matrix(0.60624278,0,0,0.60624278,460.13096,773.18758)" />
      <polygon
         class="fil12"
         points="1057.89,957.61 1051.24,957.61 1051.24,1024.99 1057.89,1024.99 "
         id="polygon6024"
         transform="matrix(0.60624278,0,0,0.60624278,460.13096,773.18758)" />
      <polygon
         class="fil1 str11"
         points="1057.89,957.61 1051.24,957.61 1051.24,1024.99 1057.89,1024.99 "
         id="polygon6026"
         transform="matrix(0.60624278,0,0,0.60624278,460.13096,773.18758)" />
      <polygon
         class="fil12"
         points="1040.5,957.61 1033.84,957.61 1033.84,1024.99 1040.5,1024.99 "
         id="polygon6028"
         transform="matrix(0.60624278,0,0,0.60624278,460.13096,773.18758)" />
      <polygon
         class="fil1 str11"
         points="1040.5,957.61 1033.84,957.61 1033.84,1024.99 1040.5,1024.99 "
         id="polygon6030"
         transform="matrix(0.60624278,0,0,0.60624278,460.13096,773.18758)" />
      <polygon
         class="fil12"
         points="1249.19,957.61 1242.54,957.61 1242.54,1024.99 1249.19,1024.99 "
         id="polygon6032"
         transform="matrix(0.60624278,0,0,0.60624278,460.13096,773.18758)" />
      <polygon
         class="fil1 str11"
         points="1249.19,957.61 1242.54,957.61 1242.54,1024.99 1249.19,1024.99 "
         id="polygon6034"
         transform="matrix(0.60624278,0,0,0.60624278,460.13096,773.18758)" />
      <polygon
         class="fil12"
         points="1266.59,957.61 1259.93,957.61 1259.93,1024.99 1266.59,1024.99 "
         id="polygon6036"
         transform="matrix(0.60624278,0,0,0.60624278,460.13096,773.18758)" />
      <polygon
         class="fil1 str11"
         points="1266.59,957.61 1259.93,957.61 1259.93,1024.99 1266.59,1024.99 "
         id="polygon6038"
         transform="matrix(0.60624278,0,0,0.60624278,460.13096,773.18758)" />
      <polygon
         class="fil12"
         points="1283.97,957.61 1277.32,957.61 1277.32,1024.99 1283.97,1024.99 "
         id="polygon6040"
         transform="matrix(0.60624278,0,0,0.60624278,460.13096,773.18758)" />
      <polygon
         class="fil1 str11"
         points="1283.97,957.61 1277.32,957.61 1277.32,1024.99 1283.97,1024.99 "
         id="polygon6042"
         transform="matrix(0.60624278,0,0,0.60624278,460.13096,773.18758)" />
      <polygon
         class="fil12"
         points="1301.37,957.61 1294.71,957.61 1294.71,1024.99 1301.37,1024.99 "
         id="polygon6044"
         transform="matrix(0.60624278,0,0,0.60624278,460.13096,773.18758)" />
      <polygon
         class="fil1 str11"
         points="1301.37,957.61 1294.71,957.61 1294.71,1024.99 1301.37,1024.99 "
         id="polygon6046"
         transform="matrix(0.60624278,0,0,0.60624278,460.13096,773.18758)" />
      <polygon
         class="fil12"
         points="1318.76,957.61 1312.1,957.61 1312.1,1024.99 1318.76,1024.99 "
         id="polygon6048"
         transform="matrix(0.60624278,0,0,0.60624278,460.13096,773.18758)" />
      <polygon
         class="fil1 str11"
         points="1318.76,957.61 1312.1,957.61 1312.1,1024.99 1318.76,1024.99 "
         id="polygon6050"
         transform="matrix(0.60624278,0,0,0.60624278,460.13096,773.18758)" />
      <polygon
         class="fil12"
         points="1336.15,957.61 1329.5,957.61 1329.5,1024.99 1336.15,1024.99 "
         id="polygon6052"
         transform="matrix(0.60624278,0,0,0.60624278,460.13096,773.18758)" />
      <polygon
         class="fil1 str11"
         points="1336.15,957.61 1329.5,957.61 1329.5,1024.99 1336.15,1024.99 "
         id="polygon6054"
         transform="matrix(0.60624278,0,0,0.60624278,460.13096,773.18758)" />
      <polygon
         class="fil12"
         points="1353.54,957.61 1346.89,957.61 1346.89,1024.99 1353.54,1024.99 "
         id="polygon6056"
         transform="matrix(0.60624278,0,0,0.60624278,460.13096,773.18758)" />
      <polygon
         class="fil1 str11"
         points="1353.54,957.61 1346.89,957.61 1346.89,1024.99 1353.54,1024.99 "
         id="polygon6058"
         transform="matrix(0.60624278,0,0,0.60624278,460.13096,773.18758)" />
      <polygon
         class="fil12"
         points="1370.93,957.61 1364.28,957.61 1364.28,1024.99 1370.93,1024.99 "
         id="polygon6060"
         transform="matrix(0.60624278,0,0,0.60624278,460.13096,773.18758)" />
      <polygon
         class="fil1 str11"
         points="1370.93,957.61 1364.28,957.61 1364.28,1024.99 1370.93,1024.99 "
         id="polygon6062"
         transform="matrix(0.60624278,0,0,0.60624278,460.13096,773.18758)" />
      <polygon
         class="fil12"
         points="1388.32,957.61 1381.67,957.61 1381.67,1024.99 1388.32,1024.99 "
         id="polygon6064"
         transform="matrix(0.60624278,0,0,0.60624278,460.13096,773.18758)" />
      <polygon
         class="fil1 str11"
         points="1388.32,957.61 1381.67,957.61 1381.67,1024.99 1388.32,1024.99 "
         id="polygon6066"
         transform="matrix(0.60624278,0,0,0.60624278,460.13096,773.18758)" />
      <polygon
         class="fil12"
         points="1405.71,957.61 1399.06,957.61 1399.06,1024.99 1405.71,1024.99 "
         id="polygon6068"
         transform="matrix(0.60624278,0,0,0.60624278,460.13096,773.18758)" />
      <polygon
         class="fil1 str11"
         points="1405.71,957.61 1399.06,957.61 1399.06,1024.99 1405.71,1024.99 "
         id="polygon6070"
         transform="matrix(0.60624278,0,0,0.60624278,460.13096,773.18758)" />
      <polygon
         class="fil12"
         points="1423.11,957.61 1416.45,957.61 1416.45,1024.99 1423.11,1024.99 "
         id="polygon6072"
         transform="matrix(0.60624278,0,0,0.60624278,460.13096,773.18758)" />
      <polygon
         class="fil1 str11"
         points="1423.11,957.61 1416.45,957.61 1416.45,1024.99 1423.11,1024.99 "
         id="polygon6074"
         transform="matrix(0.60624278,0,0,0.60624278,460.13096,773.18758)" />
      <path
         class="fil13"
         d="m 1204.878,1774.1306 c -42.0194,0 -84.0278,-3.5584 -126.0324,-10.6878 50.6247,-2.126 101.1192,-8.0871 150.8878,-17.7804 29.3109,-1.0276 58.7934,-3.8496 88.1029,-8.4561 v -87.274 c 0.3042,-2.0077 0.5977,-4.0086 0.8897,-6.0082 h 27.1297 v -122.0276 h -9.1176 c 3.0427,-20.6174 6.0873,-41.2402 9.1215,-61.8644 v 234.015 c -6.8681,14.0215 -6.2303,29.5605 0,42.4231 v 24.3131 c -46.9993,8.8928 -94.0011,13.3473 -140.9843,13.3473 z"
         id="path6076"
         style="stroke-width:0.606243" />
      <path
         class="fil14"
         d="m 1229.7334,1745.6624 c 9.2443,-1.7922 18.4702,-3.7332 27.6634,-5.7882 13.4142,-2.9777 27.4257,-6.5846 37.4772,-15.9696 13.3724,-12.4346 16.7724,-31.9439 19.4346,-50.0159 1.1673,-7.9826 2.3428,-15.9751 3.5277,-23.9564 v 87.274 c -29.3095,4.6065 -58.792,7.4313 -88.1029,8.4561 z"
         id="path6080"
         style="stroke-width:0.606243" />
      <path
         class="fil15"
         d="m 1345.8584,1643.9241 h -27.1297 c 5.9957,-40.6869 12.0092,-81.3531 18.0119,-122.0276 h 9.1178 z"
         id="path6084"
         style="stroke-width:0.606243" />
      <path
         class="fil1 str14"
         d="m 1345.8584,1643.9241 h -27.1297 c 5.9957,-40.6869 12.0092,-81.3531 18.0119,-122.0276 h 9.1178 z"
         id="path6086" />
      <path
         class="fil16"
         d="m 1091.933,1521.8965 h -14.8268 v -59.908 c 0,-10.1544 7.8742,-15.2274 15.7484,-15.2274 1.9607,0 3.9294,0.3333 5.7652,0.9588 l -6.6868,6.9823 z"
         id="path6088"
         style="stroke-width:0.606243" />
      <path
         class="fil1 str15"
         d="m 1091.933,1521.8965 h -14.8268 v -59.908 c 0,-10.1544 7.8742,-15.2274 15.7484,-15.2274 1.9607,0 3.9294,0.3333 5.7652,0.9588 l -6.6868,6.9823 z"
         id="path6090" />
      <path
         class="fil8"
         d="m 1108.6238,1521.8965 h -16.6908 v -67.2055 l 6.6868,-6.9838 c 5.5592,1.8871 10.004,6.6628 10.004,14.2813 z"
         id="path6092"
         style="stroke-width:0.606243" />
      <path
         class="fil1 str7"
         d="m 1108.6238,1521.8965 h -16.6908 v -67.2055 l 6.6868,-6.9838 c 5.5592,1.8871 10.004,6.6628 10.004,14.2813 z"
         id="path6094" />
      <path
         class="fil16"
         d="m 1081.8566,1307.7732 -55.1905,401.4712 c -4.91,35.7151 -37.83727,60.6804 -73.57527,55.7685 -25.2186,-3.4666 -45.0495,-20.9025 -52.8335,-43.4052 -3.2433,-9.3732 -4.3766,-19.65 -2.9334,-30.1436 l 55.1905,-401.4653 z"
         id="path6096"
         style="stroke-width:0.606243" />
      <path
         class="fil1 str15"
         d="m 1081.8566,1307.7732 -55.1905,401.4712 c -4.91,35.7151 -37.83727,60.6804 -73.57527,55.7685 -25.2186,-3.4666 -45.0495,-20.9025 -52.8335,-43.4052 -3.2433,-9.3732 -4.3766,-19.65 -2.9334,-30.1436 l 55.1905,-401.4653 z"
         id="path6098" />
      <path
         class="fil9"
         d="m 1057.6252,1326.1256 -52.2628,380.1909 c -3.293,23.916 -25.42587,40.6787 -49.34197,37.3883 -23.9174,-3.2858 -40.6862,-25.3953 -37.3925,-49.3125 l 52.2694,-380.1928 z"
         id="path6100"
         style="stroke-width:0.606243" />
      <path
         class="fil1 str8"
         d="m 1057.6252,1326.1256 -52.2628,380.1909 c -3.293,23.916 -25.42587,40.6787 -49.34197,37.3883 -23.9174,-3.2858 -40.6862,-25.3953 -37.3925,-49.3125 l 52.2694,-380.1928 z"
         id="path6102" />
      <path
         class="fil15"
         d="m 1035.7964,1484.9178 c -8.8091,-6.8807 -20.1215,-10.3669 -31.2971,-10.5725 -11.17657,-0.2363 -22.38867,3.3166 -31.43837,9.875 9.9128,6.1971 19.4851,12.9361 31.08857,14.4162 11.5977,1.481 25.3415,-3.874 31.6469,-13.7187 z"
         id="path6104"
         style="stroke-width:0.606243" />
      <path
         class="fil1 str14"
         d="m 1035.7964,1484.9178 c -8.8091,-6.8807 -20.1215,-10.3669 -31.2971,-10.5725 -11.17657,-0.2363 -22.38867,3.3166 -31.43837,9.875 9.9128,6.1971 19.4851,12.9361 31.08857,14.4162 11.5977,1.481 25.3415,-3.874 31.6469,-13.7187 z"
         id="path6106" />
      <path
         class="fil10"
         d="m 1035.7964,1484.9178 -30.434,221.3987 c -3.293,23.916 -25.42587,40.6787 -49.34197,37.3883 -23.9174,-3.2858 -40.6862,-25.3953 -37.3925,-49.3125 l 30.1783,-219.5314 c 9.8928,-5.6442 22.7387,-6.3182 32.8512,-0.9311 6.8753,3.6876 12.3249,9.6459 19.23077,13.3071 10.8466,5.7554 24.8638,4.6436 34.9082,-2.3176 z"
         id="path6108"
         style="stroke-width:0.606243" />
      <path
         class="fil15"
         d="m 969.43013,1519.3702 c -8.5676,-1.1671 -10.4156,12.1318 -1.8394,13.3129 8.5648,1.167 10.4156,-12.1316 1.8394,-13.3129 z"
         id="path6112"
         style="stroke-width:0.606243" />
      <path
         class="fil1 str14"
         d="m 969.43013,1519.3702 c -8.5676,-1.1671 -10.4156,12.1318 -1.8394,13.3129 8.5648,1.167 10.4156,-12.1316 1.8394,-13.3129 z"
         id="path6114" />
      <path
         class="fil15"
         d="m 984.13773,1543.5114 c -5.1408,-0.6947 -6.2509,7.2863 -1.0971,7.9895 5.1408,0.7224 6.2498,-7.2796 1.0971,-7.9895 z"
         id="path6116"
         style="stroke-width:0.606243" />
      <path
         class="fil1 str14"
         d="m 984.13773,1543.5114 c -5.1408,-0.6947 -6.2509,7.2863 -1.0971,7.9895 5.1408,0.7224 6.2498,-7.2796 1.0971,-7.9895 z"
         id="path6118" />
      <path
         class="fil15"
         d="m 964.70763,1563.8131 c -10.2813,-1.4088 -12.4943,14.562 -2.1984,15.982 10.277,1.4103 12.4901,-14.5689 2.1984,-15.982 z"
         id="path6120"
         style="stroke-width:0.606243" />
      <path
         class="fil1 str14"
         d="m 964.70763,1563.8131 c -10.2813,-1.4088 -12.4943,14.562 -2.1984,15.982 10.277,1.4103 12.4901,-14.5689 2.1984,-15.982 z"
         id="path6122" />
      <path
         class="fil15"
         d="m 983.51393,1648.8945 c -10.283,-1.4103 -12.4972,14.5617 -2.1977,15.975 10.2762,1.4089 12.4938,-14.5577 2.1977,-15.975 z"
         id="path6124"
         style="stroke-width:0.606243" />
      <path
         class="fil1 str14"
         d="m 983.51393,1648.8945 c -10.283,-1.4103 -12.4972,14.5617 -2.1977,15.975 10.2762,1.4089 12.4938,-14.5577 2.1977,-15.975 z"
         id="path6126" />
      <path
         class="fil15"
         d="m 964.04563,1674.5194 c -3.4249,-0.4723 -4.1628,4.8564 -0.736,5.3218 3.4252,0.4708 4.1656,-4.8492 0.736,-5.3218 z"
         id="path6128"
         style="stroke-width:0.606243" />
      <path
         class="fil1 str14"
         d="m 964.04563,1674.5194 c -3.4249,-0.4723 -4.1628,4.8564 -0.736,5.3218 3.4252,0.4708 4.1656,-4.8492 0.736,-5.3218 z"
         id="path6130" />
      <path
         class="fil15"
         d="m 996.25723,1596.5385 c -8.5674,-1.1673 -10.4155,12.1358 -1.8396,13.3197 8.56447,1.1671 10.40697,-12.1359 1.8396,-13.3197 z"
         id="path6132"
         style="stroke-width:0.606243" />
      <path
         class="fil1 str14"
         d="m 996.25723,1596.5385 c -8.5674,-1.1673 -10.4155,12.1358 -1.8396,13.3197 8.56447,1.1671 10.40697,-12.1359 1.8396,-13.3197 z"
         id="path6134" />
      <path
         class="fil15"
         d="m 953.78313,1607.9727 c -5.1397,-0.7227 -6.2514,7.2865 -1.0976,7.9908 5.1479,0.7225 6.2498,-7.2823 1.0976,-7.9908 z"
         id="path6136"
         style="stroke-width:0.606243" />
      <path
         class="fil1 str14"
         d="m 953.78313,1607.9727 c -5.1397,-0.7227 -6.2514,7.2865 -1.0976,7.9908 5.1479,0.7225 6.2498,-7.2823 1.0976,-7.9908 z"
         id="path6138" />
      <path
         class="fil15"
         d="m 1018.318,1506.6524 c -6.8519,-0.9588 -8.331,9.704 -1.4573,10.6434 6.8513,0.9587 8.3311,-9.7042 1.4573,-10.6434 z"
         id="path6140"
         style="stroke-width:0.606243" />
      <path
         class="fil1 str14"
         d="m 1018.318,1506.6524 c -6.8519,-0.9588 -8.331,9.704 -1.4573,10.6434 6.8513,0.9587 8.3311,-9.7042 1.4573,-10.6434 z"
         id="path6142" />
      <path
         class="fil8"
         d="m 947.72773,1482.7363 c -3.4392,-1.0004 -6.2441,-3.9726 -5.6165,-8.5369 l 17.9817,-130.8094 c 0.6252,-4.577 4.1352,-6.6878 7.713,-6.7112 l -18.9997,138.1821 v 0 z"
         id="path6144"
         style="stroke-width:0.606243" />
      <path
         class="fil1 str7"
         d="m 947.72773,1482.7363 c -3.4392,-1.0004 -6.2441,-3.9726 -5.6165,-8.5369 l 17.9817,-130.8094 c 0.6252,-4.577 4.1352,-6.6878 7.713,-6.7112 l -18.9997,138.1821 v 0 z"
         id="path6146" />
      <path
         class="fil16"
         d="m 962.07693,1765.6255 c -2.9708,0 -5.9646,-0.2351 -8.9861,-0.6252 -25.2186,-3.467 -45.0495,-20.9021 -52.8335,-43.4047 5.79,8.8258 13.2224,16.5196 22.2011,22.073 9.1109,5.6261 19.8891,8.7777 30.5414,8.7777 7.065,0 14.0796,-1.3893 20.5154,-4.3662 6.1847,-2.8536 10.8645,-7.2123 14.4301,-12.5232 9.1845,-6.7651 15.74307,-17.0854 17.41707,-29.2528 l 30.434,-221.3987 v 0 l 21.8288,-158.7925 -7.2989,-1.0002 2.9279,-21.2801 28.6024,3.9294 -48.0805,349.7432 -7.11,51.729 c -4.4993,32.6961 -32.47657,56.3802 -64.58917,56.3802 z"
         id="path6148"
         style="stroke-width:0.606243" />
      <path
         class="fil1 str15"
         d="m 962.07693,1765.6255 c -2.9708,0 -5.9646,-0.2351 -8.9861,-0.6252 -25.2186,-3.467 -45.0495,-20.9021 -52.8335,-43.4047 5.79,8.8258 13.2224,16.5196 22.2011,22.073 9.1109,5.6261 19.8891,8.7777 30.5414,8.7777 7.065,0 14.0796,-1.3893 20.5154,-4.3662 6.1847,-2.8536 10.8645,-7.2123 14.4301,-12.5232 9.1845,-6.7651 15.74307,-17.0854 17.41707,-29.2528 l 30.434,-221.3987 v 0 l 21.8288,-158.7925 -7.2989,-1.0002 2.9279,-21.2801 28.6024,3.9294 -48.0805,349.7432 -7.11,51.729 c -4.4993,32.6961 -32.47657,56.3802 -64.58917,56.3802 z"
         id="path6150" />
      <path
         class="fil8"
         d="m 1035.7964,1484.9178 c -2.1511,-1.6729 -4.4505,-3.1594 -6.8572,-4.4308 l 21.3871,-155.3633 7.2989,1.0004 z"
         id="path6152"
         style="stroke-width:0.606243" />
      <path
         class="fil1 str7"
         d="m 1035.7964,1484.9178 c -2.1511,-1.6729 -4.4505,-3.1594 -6.8572,-4.4308 l 21.3871,-155.3633 7.2989,1.0004 z"
         id="path6154" />
      <path
         class="fil15"
         d="m 1027.7678,1488.9739 1.1674,-8.4869 c 2.4065,1.2642 4.7101,2.7511 6.8572,4.4308 v 0 c -2.4691,1.7203 -5.1842,3.0668 -8.0283,4.0561 z"
         id="path6156"
         style="stroke-width:0.606243" />
      <path
         class="fil1 str14"
         d="m 1027.7678,1488.9739 1.1674,-8.4869 c 2.4065,1.2642 4.7101,2.7511 6.8572,4.4308 v 0 c -2.4691,1.7203 -5.1842,3.0668 -8.0283,4.0561 z"
         id="path6158" />
      <path
         class="fil15"
         d="m 987.94533,1735.5697 c 5.7287,-8.544 8.5649,-19.5405 10.0997,-30.6968 l 29.72277,-215.899 c 2.8445,-0.9866 5.5598,-2.3428 8.0286,-4.0561 v 0 l -30.434,221.3987 c -1.6729,12.1678 -8.23257,22.4876 -17.41707,29.2532 z"
         id="path6160"
         style="stroke-width:0.606243" />
      <path
         class="fil1 str14"
         d="m 987.94533,1735.5697 c 5.7287,-8.544 8.5649,-19.5405 10.0997,-30.6968 l 29.72277,-215.899 c 2.8445,-0.9866 5.5598,-2.3428 8.0286,-4.0561 v 0 l -30.434,221.3987 c -1.6729,12.1678 -8.23257,22.4876 -17.41707,29.2532 z"
         id="path6162" />
      <path
         class="fil8"
         d="M 1074.8189,1327.5497 953.95393,1310.937 c -12.3632,-1.6966 -21.0004,-13.0946 -19.3038,-25.4556 l 1.2224,-8.8759 c 1.6983,-12.3554 13.0905,-20.9924 25.446,-19.2959 l 120.87177,16.6169 c 12.3606,1.6967 21.0007,13.0946 19.304,25.4498 l -1.2224,8.8763 c -1.6982,12.3538 -13.0878,20.9938 -25.4515,19.2971 z"
         id="path6164"
         style="stroke-width:0.606243" />
      <path
         class="fil1 str7"
         d="M 1074.8189,1327.5497 953.95393,1310.937 c -12.3632,-1.6966 -21.0004,-13.0946 -19.3038,-25.4556 l 1.2224,-8.8759 c 1.6983,-12.3554 13.0905,-20.9924 25.446,-19.2959 l 120.87177,16.6169 c 12.3606,1.6967 21.0007,13.0946 19.304,25.4498 l -1.2224,8.8763 c -1.6982,12.3538 -13.0878,20.9938 -25.4515,19.2971 z"
         id="path6166" />
      <path
         class="fil8"
         d="m 1915.0719,1763.2064 c -176.4529,29.4518 -352.9364,29.6641 -529.3838,0.667 -1.3615,-0.2352 -2.697,-0.46 -4.0672,-0.667 -34.1796,-5.7097 -51.6222,-44.3037 -33.2335,-73.6876 l 230.3831,-367.6813 v -237.1847 h 139.1876 v 237.1847 l 26.615,42.4852 203.7327,325.1961 c 18.3882,29.3839 0.9587,67.9779 -33.2339,73.6876 z"
         id="path6168"
         style="stroke-width:0.606243" />
      <path
         class="fil1 str7"
         d="m 1915.0719,1763.2064 c -176.4529,29.4518 -352.9364,29.6641 -529.3838,0.667 -1.3615,-0.2352 -2.697,-0.46 -4.0672,-0.667 -34.1796,-5.7097 -51.6222,-44.3037 -33.2335,-73.6876 l 230.3831,-367.6813 v -237.1847 h 139.1876 v 237.1847 l 26.615,42.4852 203.7327,325.1961 c 18.3882,29.3839 0.9587,67.9779 -33.2339,73.6876 z"
         id="path6170" />
      <path
         class="fil9"
         d="m 1925.8928,1723.6991 c -1.3614,3.011 -5.6063,10.2266 -15.4456,11.8706 -86.9667,14.506 -175.1576,21.8966 -262.0853,21.8966 -86.9671,0 -175.1496,-7.3906 -262.1163,-21.8966 -9.8435,-1.6495 -14.0769,-8.8596 -15.4098,-11.8706 -1.3615,-3.0067 -3.9582,-10.9242 1.2929,-19.296 l 136.1085,-217.1813 98.558,-157.3251 v -249.7971 h 83.1446 v 249.7971 l 106.6805,170.2862 127.9416,204.2202 c 5.2554,8.3718 2.6619,16.2893 1.3336,19.296 z"
         id="path6172"
         style="stroke-width:0.606243" />
      <path
         class="fil1 str8"
         d="m 1925.8928,1723.6991 c -1.3614,3.011 -5.6063,10.2266 -15.4456,11.8706 -86.9667,14.506 -175.1576,21.8966 -262.0853,21.8966 -86.9671,0 -175.1496,-7.3906 -262.1163,-21.8966 -9.8435,-1.6495 -14.0769,-8.8596 -15.4098,-11.8706 -1.3615,-3.0067 -3.9582,-10.9242 1.2929,-19.296 l 136.1085,-217.1813 98.558,-157.3251 v -249.7971 h 83.1446 v 249.7971 l 106.6805,170.2862 127.9416,204.2202 c 5.2554,8.3718 2.6619,16.2893 1.3336,19.296 z"
         id="path6174" />
      <path
         class="fil16"
         d="m 1722.9773,1088.0657 h -149.2578 c -11.9602,0 -21.6588,-9.6933 -21.6588,-21.6555 v -19.0359 c 0,-11.9608 9.6986,-21.6621 21.6588,-21.6621 h 149.2578 c 11.9621,0 21.6623,9.7013 21.6623,21.6621 v 19.0359 c 0,11.9622 -9.7002,21.6555 -21.6623,21.6555 z"
         id="path6176"
         style="stroke-width:0.606243" />
      <path
         class="fil1 str15"
         d="m 1722.9773,1088.0657 h -149.2578 c -11.9602,0 -21.6588,-9.6933 -21.6588,-21.6555 v -19.0359 c 0,-11.9608 9.6986,-21.6621 21.6588,-21.6621 h 149.2578 c 11.9621,0 21.6623,9.7013 21.6623,21.6621 v 19.0359 c 0,11.9622 -9.7002,21.6555 -21.6623,21.6555 z"
         id="path6178" />
      <path
         class="fil15"
         d="m 1796.6175,1500.1829 c -26.1957,-20.8909 -59.8051,-33.3687 -93.3071,-33.0894 -33.506,0.2643 -66.7884,12.3845 -92.6399,33.7076 31.205,10.028 61.8195,19.8129 94.5017,22.2737 32.6824,2.4621 64.9895,-3.5531 91.4453,-22.8919 z"
         id="path6180"
         style="stroke-width:0.606243" />
      <path
         class="fil1 str14"
         d="m 1796.6175,1500.1829 c -26.1957,-20.8909 -59.8051,-33.3687 -93.3071,-33.0894 -33.506,0.2643 -66.7884,12.3845 -92.6399,33.7076 31.205,10.028 61.8195,19.8129 94.5017,22.2737 32.6824,2.4621 64.9895,-3.5531 91.4453,-22.8919 z"
         id="path6182" />
      <path
         class="fil10"
         d="m 1925.8928,1723.6991 c -1.3614,3.011 -5.6063,10.2266 -15.4456,11.8706 -86.9667,14.506 -175.1576,21.8966 -262.0853,21.8966 -86.9671,0 -175.1496,-7.3906 -262.1163,-21.8966 -9.8435,-1.6495 -14.0769,-8.8596 -15.4098,-11.8706 -1.3615,-3.0067 -3.9582,-10.9242 1.2929,-19.296 l 136.1085,-217.1813 c 34.0771,-16.7754 74.1445,-21.6429 111.0271,-12.3318 36.0002,9.1054 68.4337,30.5423 105.1359,36.078 24.4483,3.7087 49.8744,-0.2915 72.2201,-10.7851 l 127.9416,204.2202 c 5.2554,8.3718 2.6619,16.2893 1.3336,19.296 z"
         id="path6184"
         style="stroke-width:0.606243" />
      <path
         class="fil1 str9"
         d="m 1925.8928,1723.6991 c -1.3614,3.011 -5.6063,10.2266 -15.4456,11.8706 -86.9667,14.506 -175.1576,21.8966 -262.0853,21.8966 -86.9671,0 -175.1496,-7.3906 -262.1163,-21.8966 -9.8435,-1.6495 -14.0769,-8.8596 -15.4098,-11.8706 -1.3615,-3.0067 -3.9582,-10.9242 1.2929,-19.296 l 136.1085,-217.1813 c 34.0771,-16.7754 74.1445,-21.6429 111.0271,-12.3318 36.0002,9.1054 68.4337,30.5423 105.1359,36.078 24.4483,3.7087 49.8744,-0.2915 72.2201,-10.7851 l 127.9416,204.2202 c 5.2554,8.3718 2.6619,16.2893 1.3336,19.296 z"
         id="path6186" />
      <path
         class="fil15"
         d="m 1544.1595,1619.8626 c -20.278,0 -20.3138,31.5218 0,31.5218 20.2853,0 20.3158,-31.5218 0,-31.5218 z"
         id="path6188"
         style="stroke-width:0.606243" />
      <path
         class="fil1 str14"
         d="m 1544.1595,1619.8626 c -20.278,0 -20.3138,31.5218 0,31.5218 20.2853,0 20.3158,-31.5218 0,-31.5218 z"
         id="path6190" />
      <path
         class="fil15"
         d="m 1613.4548,1563.7784 c -29.2956,0 -29.3428,45.5266 0,45.5266 29.2977,0 29.3475,-45.5266 0,-45.5266 z"
         id="path6192"
         style="stroke-width:0.606243" />
      <path
         class="fil1 str14"
         d="m 1613.4548,1563.7784 c -29.2956,0 -29.3428,45.5266 0,45.5266 29.2977,0 29.3475,-45.5266 0,-45.5266 z"
         id="path6194" />
      <path
         class="fil15"
         d="m 1565.8166,1525.8135 c -11.2706,0 -11.2899,17.5158 0,17.5158 11.2685,0 11.2879,-17.5158 0,-17.5158 z"
         id="path6196"
         style="stroke-width:0.606243" />
      <path
         class="fil1 str14"
         d="m 1565.8166,1525.8135 c -11.2706,0 -11.2899,17.5158 0,17.5158 11.2685,0 11.2879,-17.5158 0,-17.5158 z"
         id="path6198" />
      <path
         class="fil15"
         d="m 1744.8213,1639.8613 c -11.2645,0 -11.2827,17.5076 0,17.5076 11.2676,0 11.2869,-17.5076 0,-17.5076 z"
         id="path6200"
         style="stroke-width:0.606243" />
      <path
         class="fil1 str14"
         d="m 1744.8213,1639.8613 c -11.2645,0 -11.2827,17.5076 0,17.5076 11.2676,0 11.2869,-17.5076 0,-17.5076 z"
         id="path6202" />
      <path
         class="fil15"
         d="m 1786.6884,1544.5841 c -11.2649,0 -11.2844,17.5089 0,17.5089 11.2698,0 11.2866,-17.5089 0,-17.5089 z"
         id="path6204"
         style="stroke-width:0.606243" />
      <path
         class="fil1 str14"
         d="m 1786.6884,1544.5841 c -11.2649,0 -11.2844,17.5089 0,17.5089 11.2698,0 11.2866,-17.5089 0,-17.5089 z"
         id="path6206" />
      <path
         class="fil15"
         d="m 1685.6404,1646.4642 c -15.7819,0 -15.8056,24.5161 0,24.5161 15.7717,0 15.7969,-24.5161 0,-24.5161 z"
         id="path6208"
         style="stroke-width:0.606243" />
      <path
         class="fil1 str14"
         d="m 1685.6404,1646.4642 c -15.7819,0 -15.8056,24.5161 0,24.5161 15.7717,0 15.7969,-24.5161 0,-24.5161 z"
         id="path6210" />
      <path
         class="fil15"
         d="m 1815.562,1582.9479 c -15.7725,0 -15.8039,24.5148 0,24.5148 15.7763,0 15.7996,-24.5148 0,-24.5148 z"
         id="path6212"
         style="stroke-width:0.606243" />
      <path
         class="fil1 str14"
         d="m 1815.562,1582.9479 c -15.7725,0 -15.8039,24.5148 0,24.5148 15.7763,0 15.7996,-24.5148 0,-24.5148 z"
         id="path6214" />
      <path
         class="fil15"
         d="m 1789.5797,1671.2208 c -24.7883,0 -24.8388,38.5205 0,38.5205 24.7898,0 24.8262,-38.5205 0,-38.5205 z"
         id="path6216"
         style="stroke-width:0.606243" />
      <path
         class="fil1 str14"
         d="m 1789.5797,1671.2208 c -24.7883,0 -24.8388,38.5205 0,38.5205 24.7898,0 24.8262,-38.5205 0,-38.5205 z"
         id="path6218" />
      <path
         class="fil15"
         d="m 1458.9894,1676.4717 c -18.0286,0 -18.0607,28.0219 0,28.0219 18.0231,0 18.0605,-28.0219 0,-28.0219 z"
         id="path6220"
         style="stroke-width:0.606243" />
      <path
         class="fil1 str14"
         d="m 1458.9894,1676.4717 c -18.0286,0 -18.0607,28.0219 0,28.0219 18.0231,0 18.0605,-28.0219 0,-28.0219 z"
         id="path6222" />
      <path
         class="fil16"
         d="m 1648.3976,1785.4619 c -87.578,0 -175.1424,-7.2015 -262.7095,-21.5885 2.7039,0 5.4329,0 8.1359,0 49.1918,0 98.2727,-3.807 147.1785,-10.1403 35.8768,2.4593 71.7229,3.7017 107.3594,3.7017 86.9277,0 175.1186,-7.3896 262.0853,-21.8961 9.8393,-1.649 14.0755,-8.8576 15.4456,-11.8718 0.723,-1.6476 1.8162,-4.7336 1.8162,-8.5718 0,-3.1999 -0.7644,-6.9164 -3.1595,-10.724 l -118.6669,-189.4193 c -17.7727,-51.2472 -38.2595,-101.5636 -61.3195,-150.657 l 203.7323,325.1926 c 5.1015,8.1544 7.4451,17.0113 7.4398,25.6815 0,10.9965 -3.7948,21.6956 -10.5367,30.2524 -7.0972,9.0078 -17.4726,15.6386 -30.1366,17.7561 -88.8855,14.834 -177.7852,22.2557 -266.6736,22.2557 z"
         id="path6224"
         style="stroke-width:0.606243" />
      <path
         class="fil15"
         d="m 1648.3619,1757.4663 c -35.6365,0 -71.4826,-1.2502 -107.3594,-3.7044 77.2821,-10.0098 154.0824,-26.3054 230.0502,-43.759 3.1649,-0.7226 6.3661,-1.4824 9.572,-2.2955 2.4969,1.2925 5.4828,2.0315 8.955,2.0315 8.6315,0 14.27,-4.6782 16.8894,-10.7714 10.3197,-4.7963 19.4126,-11.3061 25.6622,-20.801 14.2539,-21.6048 8.3721,-50.2201 1.3619,-75.1252 -8.3171,-29.6266 -17.5257,-58.9923 -27.6089,-88.0631 l 118.6662,189.4222 c 2.3941,3.807 3.1597,7.5227 3.1597,10.7242 0,3.8376 -1.0972,6.9278 -1.8157,8.5718 -1.3617,3.011 -5.6067,10.2265 -15.4473,11.87 -86.9651,14.5078 -175.1565,21.8972 -262.0842,21.8972 z"
         id="path6228"
         style="stroke-width:0.606243" />
      <path
         class="fil1 str14"
         d="m 1648.3619,1757.4663 c -35.6365,0 -71.4826,-1.2502 -107.3594,-3.7044 77.2821,-10.0098 154.0824,-26.3054 230.0502,-43.759 3.1649,-0.7226 6.3661,-1.4824 9.572,-2.2955 2.4969,1.2925 5.4828,2.0315 8.955,2.0315 8.6315,0 14.27,-4.6782 16.8894,-10.7714 10.3197,-4.7963 19.4126,-11.3061 25.6622,-20.801 14.2539,-21.6048 8.3721,-50.2201 1.3619,-75.1252 -8.3171,-29.6266 -17.5257,-58.9923 -27.6089,-88.0631 l 118.6662,189.4222 c 2.3941,3.807 3.1597,7.5227 3.1597,10.7242 0,3.8376 -1.0972,6.9278 -1.8157,8.5718 -1.3617,3.011 -5.6067,10.2265 -15.4473,11.87 -86.9651,14.5078 -175.1565,21.8972 -262.0842,21.8972 z"
         id="path6230" />
      <path
         class="fil15"
         d="m 1789.5797,1709.7413 c -3.4722,0 -6.4581,-0.736 -8.955,-2.0314 8.8452,-2.2463 17.7282,-4.9616 25.8444,-8.7302 -2.6194,6.0915 -8.2579,10.7718 -16.8894,10.7718 z"
         id="path6232"
         style="stroke-width:0.606243" />
      <path
         class="fil1 str14"
         d="m 1789.5797,1709.7413 c -3.4722,0 -6.4581,-0.736 -8.955,-2.0314 8.8452,-2.2463 17.7282,-4.9616 25.8444,-8.7302 -2.6194,6.0915 -8.2579,10.7718 -16.8894,10.7718 z"
         id="path6234" />
      <path
         class="fil16"
         d="m 1502.5845,1496.2298 c -2.6621,-4.2143 -3.14,-9.6584 0.4603,-15.2414 26.6697,-41.4164 53.344,-82.8413 80.0196,-124.2677 2.9761,-4.6312 7.16,-6.8307 11.4575,-7.2323 l -86.2803,137.7334 z"
         id="path6236"
         style="stroke-width:0.606243" />
      <path
         class="fil1 str15"
         d="m 1502.5845,1496.2298 c -2.6621,-4.2143 -3.14,-9.6584 0.4603,-15.2414 26.6697,-41.4164 53.344,-82.8413 80.0196,-124.2677 2.9761,-4.6312 7.16,-6.8307 11.4575,-7.2323 l -86.2803,137.7334 z"
         id="path6238" />
      <path
         class="fil14"
         d="m 1502.5845,1496.2298 v 0 l 5.6498,-9.008 86.2809,-137.7334 c 0.4972,0 0.9997,0 1.4806,0 11.027,0 21.9402,11.2952 14.2659,23.2128 -21.8242,33.8966 -43.6449,67.7862 -65.4697,101.6802 -12.6443,2.8623 -24.9526,7.1947 -36.5673,12.9126 z"
         id="path6240"
         style="stroke-width:0.606243" />
      <path
         class="fil1 str13"
         d="m 766.15917,1496.2298 v 0 l 5.64955,-9.008 86.28041,-137.7334 c 0.5028,0 1.0006,0 1.4825,0 11.0269,0 21.9387,11.2952 14.2646,23.2128 -21.8245,33.8966 -43.6444,67.7862 -65.46845,101.6802 -12.64584,2.8623 -24.95437,7.1947 -36.56877,12.9126 z"
         id="path6242" />
      <path
         class="fil15"
         d="m 1517.3034,1504.2027 c -5.862,0 -11.6939,-3.1959 -14.7189,-7.9729 l 5.6498,-9.008 c 11.6147,-5.7166 23.923,-10.0517 36.5674,-12.9126 -4.8491,7.5282 -9.6975,15.0592 -14.5494,22.5945 -3.3224,5.1564 -8.1466,7.299 -12.9489,7.299 z"
         id="path6244"
         style="stroke-width:0.606243" />
      <path
         class="fil1 str14"
         d="m 1517.3034,1504.2027 c -5.862,0 -11.6939,-3.1959 -14.7189,-7.9729 l 5.6498,-9.008 c 11.6147,-5.7166 23.923,-10.0517 36.5674,-12.9126 -4.8491,7.5282 -9.6975,15.0592 -14.5494,22.5945 -3.3224,5.1564 -8.1466,7.299 -12.9489,7.299 z"
         id="path6246" />
      <path
         class="fil16"
         d="m 1440.6762,1595.0281 c -1.3205,-3.6891 -1.0002,-7.9937 1.8395,-12.3956 11.3911,-17.6243 22.7806,-35.2543 34.1748,-52.8828 2.449,-3.782 5.7038,-5.9414 9.1644,-6.8208 z"
         id="path6248"
         style="stroke-width:0.606243" />
      <path
         class="fil1 str15"
         d="m 1440.6762,1595.0281 c -1.3205,-3.6891 -1.0002,-7.9937 1.8395,-12.3956 11.3911,-17.6243 22.7806,-35.2543 34.1748,-52.8828 2.449,-3.782 5.7038,-5.9414 9.1644,-6.8208 z"
         id="path6250" />
      <path
         class="fil15"
         d="m 1456.7778,1605.8328 c -6.9676,0 -13.8841,-4.4922 -16.1016,-10.8047 l 45.1804,-72.0992 c 1.2508,-0.3056 2.5247,-0.4726 3.7965,-0.4726 11.0376,0 21.9511,11.291 14.257,23.1976 -11.3896,17.6272 -22.7807,35.2584 -34.1769,52.8811 -3.3291,5.1593 -8.155,7.2936 -12.9554,7.2936 z"
         id="path6252"
         style="stroke-width:0.606243" />
      <path
         class="fil1 str14"
         d="m 1456.7778,1605.8328 c -6.9676,0 -13.8841,-4.4922 -16.1016,-10.8047 l 45.1804,-72.0992 c 1.2508,-0.3056 2.5247,-0.4726 3.7965,-0.4726 11.0376,0 21.9511,11.291 14.257,23.1976 -11.3896,17.6272 -22.7807,35.2584 -34.1769,52.8811 -3.3291,5.1593 -8.155,7.2936 -12.9554,7.2936 z"
         id="path6254" />
      <polygon
         class="fil9"
         points="652.29,1179.96 671.74,1179.96 671.74,1154.03 652.29,1154.03 652.29,1134.57 626.36,1134.57 626.36,1154.03 606.9,1154.03 606.9,1179.96 626.36,1179.96 626.36,1199.42 652.29,1199.42 "
         id="polygon6256"
         transform="matrix(0.60624278,0,0,0.60624278,460.13096,773.18758)" />
      <polygon
         class="fil1 str8"
         points="652.29,1179.96 671.74,1179.96 671.74,1154.03 652.29,1154.03 652.29,1134.57 626.36,1134.57 626.36,1154.03 606.9,1154.03 606.9,1179.96 626.36,1179.96 626.36,1199.42 652.29,1199.42 "
         id="polygon6258"
         transform="matrix(0.60624278,0,0,0.60624278,460.13096,773.18758)" />
    </g>
  </g>
</svg>
