<?xml version="1.0" encoding="UTF-8" standalone="no"?>
<svg
   viewBox="0 0 35.376419 46.920006"
   version="1.1"
   id="svg5017"
   sodipodi:docname="sweet.svg"
   width="35.376419"
   height="46.920006"
   inkscape:version="1.2.2 (732a01da63, 2022-12-09)"
   xmlns:inkscape="http://www.inkscape.org/namespaces/inkscape"
   xmlns:sodipodi="http://sodipodi.sourceforge.net/DTD/sodipodi-0.dtd"
   xmlns="http://www.w3.org/2000/svg"
   xmlns:svg="http://www.w3.org/2000/svg">
  <defs
     id="defs5021" />
  <sodipodi:namedview
     id="namedview5019"
     pagecolor="#505050"
     bordercolor="#eeeeee"
     borderopacity="1"
     inkscape:showpageshadow="0"
     inkscape:pageopacity="0"
     inkscape:pagecheckerboard="0"
     inkscape:deskcolor="#505050"
     showgrid="false"
     inkscape:zoom="1.0670732"
     inkscape:cx="-119.95429"
     inkscape:cy="9.3714286"
     inkscape:window-width="1366"
     inkscape:window-height="705"
     inkscape:window-x="-8"
     inkscape:window-y="-8"
     inkscape:window-maximized="1"
     inkscape:current-layer="svg5017" />
  <g
     id="g5284"
     transform="matrix(0.18560802,0,0,0.18560802,-0.39758029,0.77708282)">
    <path
       d="m 115.43,7.44 c 1,-0.5 2.72,-0.03 2.74,1.29 -3.78,2.63 -8.23,4.55 -10.98,8.41 -1.94,1.99 -2.74,4.71 -4.26,6.95 l -1.22,1.1 c -0.02,0.74 -0.04,2.2 -0.06,2.94 -0.94,0.88 -1.839998,1.8 -2.699998,2.76 -0.32,0.58 -0.62,1.17 -0.92,1.77 -0.56,0.07 -1.67,0.21 -2.23,0.29 0.37,-2.12 0.92,-4.22 2.05,-6.07 -2.12,0.23 -4.25,0.42 -6.33,0.9 -1.43,0.52 -2.83,1.11 -4.22,1.73 -1.92,1.49 -3.47,3.41 -4.65,5.53 -0.93,3.64 -2.78,8.2 -0.19,11.53 -2.52,2.13 0.15,5.97 -0.57,8.83 -3.44,-0.47 -6.85,0.15 -9.7,2.18 -0.35001,0.15 -1.05,0.44 -1.4,0.58 -2.53,0.67 -4.4,2.56 -6.09,4.44 -3.32,3.58 -4.53,8.35 -6.3,12.75 -6.86,1.46 -13.33,5.02 -17.63,10.64 l -0.51,0.55 c -0.9,0.98 -1.75,2.01 -2.46,3.14 l -0.15,-1.13 c 3.87,-7.13 11.25,-12.59 19.38,-13.71 2.17,-6.61 5.53,-13.21 11.39,-17.27 3.33,-2.61 7.43,-4.42 11.74,-4.04 -1.64,-7.99 -1.67,-17.78 4.79,-23.74 3.11,-2.36 7.02,-3.94 10.98,-3.78 1.74,-0.21 4.779998,0.83 4.959998,-1.82 2.05,-7.37 7.38,-13.88 14.54,-16.75 z"
       fill="#924759"
       id="path4729" />
    <path
       d="m 101.71,25.19 1.22,-1.1 c -0.14,0.73 -0.43,2.21 -0.58,2.95 4.21,-0.63 8.65,1.4 10.44,5.35 3.62,6.32 1.4,13.87 -1.51,19.99 7.39,1.26 14.76,4.98 18.77,11.54 1.25,2.26 2.14,4.69 3.07,7.09 3.74,0.5 7.81,-0.24 11.22,1.73 2.57,1.29 4.36,3.63 6.42,5.56 4.2,4.22 5.78,10.21 6.87,15.88 -0.28,0.32 -0.85001,0.96 -1.14,1.28 -0.22,-6.94 -2.77,-14.23 -8.47,-18.54 -1.4,-1.19 -2.87,-2.32 -4.53,-3.11 -3.57,-1.93 -7.7,-1.93 -11.64,-1.94 0.17,-1.35 -0.01,-2.66 -0.56001,-3.91 -0.89,-0.07 -1.67,0.17 -2.34,0.73 -0.28999,-0.19 -0.86,-0.56 -1.15,-0.75 l -0.48,-2.88 c 0.42,0.65 1.26,1.97 1.67,2.62 0.42,-0.6 0.84,-1.21 1.25,-1.81 -3.66,-5.37 -8.58,-10.02 -15.07,-11.57 -2.33,-0.66 -4.65,-1.5 -7.08,-1.61 -4.94,0.04 -9.25,2.77 -13.56,4.83 0.39,-0.93 0.73,-1.88 1.08,-2.82 4.87,-0.29 9.26,-2.94 14.21,-2.86 0.69,-1.38 1.39,-2.76 2.03,-4.16 1.42,-4.03 2.27,-8.46 0.94,-12.64 -1.58,-4.5 -6.12,-8.39 -11.14,-6.91 0.02,-0.74 0.04,-2.2 0.06,-2.94 z"
       fill="#653531"
       id="path4731" />
    <path
       d="m 91.52,27.78 c 2.08,-0.48 4.21,-0.67 6.33,-0.9 -1.13,1.85 -1.68,3.95 -2.05,6.07 0.56,-0.08 1.67,-0.22 2.23,-0.29 0.3,-0.6 0.6,-1.19 0.92,-1.77 0.62,0.8 1.25,1.61 1.91,2.38 1.08,1.21 2.14,2.45 3.17,3.7 -1.72,0 -3.45,-0.05 -5.17,-0.17 -3.62,-1.28 -5.75,2.33 -8.72,3.59 0.57,-3.22 1.47,-6.37 2.31,-9.52 z"
       fill="#fc7fa5"
       id="path4733" />
    <path
       d="m 87.3,29.51 c 1.39,-0.62 2.79,-1.21 4.22,-1.73 l 0.93,3.09 c -0.84,3.15 -1.74,6.3 -2.31,9.52 -0.35,2.17 -0.48,4.36 -0.52,6.56 0,1.53 0.01,3.07 0.04999,4.61 -1.13,-1.71 -2.45,-3.41 -2.68,-5.52 -1.19,-4.9 2.07,-9.33 3.33,-13.88 l -1.14,-1.03 c -0.47,-0.41 -1.41,-1.22 -1.88,-1.62 z"
       fill="#ef8ab0"
       id="path4735" />
    <path
       d="m 98.95,30.89 c 0.86,-0.96 1.76,-1.88 2.7,-2.76 5.02,-1.48 9.56,2.41 11.14,6.91 -2.34,-1.46 -4.49,-3.19 -6.55,-5.02 -0.49,0.25 -1.47,0.74 -1.96,0.99 0.6,0.94 1.2,1.87 1.77,2.82 -1.64,-0.4 -3.78,-2.42 -5.19,-0.56 -0.66,-0.77 -1.29,-1.58 -1.91,-2.38 z"
       fill="#f58cac"
       id="path4737" />
    <path
       d="m 82.65,35.04 c 1.18,-2.12 2.73,-4.04 4.65,-5.53 0.46999,0.4 1.41,1.21 1.88,1.62 -3.58,4.55 -4.74,10.43 -4.46,16.1 -0.95,-4.02 -0.36,-8.31 -2.07,-12.19 z"
       fill="#e48baa"
       id="path4739" />
    <path
       d="m 106.24,30.02 c 2.06,1.83 4.21,3.56 6.55,5.02 1.33,4.18 0.48,8.61 -0.94,12.64 -1.65,0.9 -3.36,1.86 -5.3,1.83 2.06,-1.95 3.96,-4.16 4.56,-7.01 -0.7,-0.1 -2.09,-0.31 -2.79,-0.42 0.89,-0.88 1.82,-1.72 2.74,-2.57 -0.43,-0.11 -1.27,-0.33 -1.69,-0.44 -0.56,-0.14 -1.68,-0.44 -2.24,-0.59 -0.35,-1.55 -0.66,-3.11 -1.08,-4.65 -0.57,-0.95 -1.17,-1.88 -1.77,-2.82 0.49,-0.25 1.47,-0.74 1.96,-0.99 z"
       fill="#f6669e"
       id="path4741" />
    <path
       d="m 84.72,47.23 c -0.28,-5.67 0.88,-11.55 4.46,-16.1 l 1.14,1.03 c -1.26,4.55 -4.52,8.98 -3.33,13.88 0.23,2.11 1.55,3.81 2.68,5.52 l 0.55,1.18 c -2.63,-0.89 -4.53,-2.96 -5.5,-5.51 z"
       fill="#fed1e9"
       id="path4743" />
    <path
       d="m 100.86,33.27 c 1.41,-1.86 3.55,0.16 5.19,0.56 0.42,1.54 0.73,3.1 1.08,4.65 -1.29,0.12 -2.41,-0.38 -3.1,-1.51 -1.03,-1.25 -2.09,-2.49 -3.17,-3.7 z"
       fill="#fdc0e3"
       id="path4745" />
    <path
       d="m 82.46,46.57 c -2.59,-3.33 -0.74,-7.89 0.19,-11.53 1.71,3.88 1.12,8.17 2.07,12.19 0.97,2.55 2.87,4.62 5.5,5.51 0.19,0.79 0.38,1.59 0.58,2.39 -0.45,0.02 -1.35,0.05 -1.8,0.07 -3,-2.18 -4.24,-5.84 -6.54,-8.63 z"
       fill="#f06a9b"
       id="path4747" />
    <path
       d="m 90.14,40.39 c 2.97,-1.26 5.1,-4.87 8.72,-3.59 -0.65,2.71 -0.42,5.49 1.83,7.39 2.82,-1.83 5.65,-3.66 8.68,-5.12 0.42,0.11 1.26,0.33 1.69,0.44 -0.92,0.85 -1.85,1.69 -2.74,2.57 -1.81,2.1 -3.33,4.64 -2.73,7.52 -3.17,1.32 -6.46,2.34 -9.82,3.02 -0.28999,-1.17 -0.56,-2.34 -0.84,-3.51 0.74,-1.93 0.97,-3.99 1.04,-6.04 -2.45,0.7 -4.62,2.02 -6.35,3.88 0.04,-2.2 0.17,-4.39 0.52,-6.56 z"
       fill="#fb5992"
       id="path4749" />
    <path
       d="m 98.86,36.8 c 1.72,0.12 3.45,0.17 5.17,0.17 0.69,1.13 1.81,1.63 3.1,1.51 0.56,0.15 1.68,0.45 2.24,0.59 -3.03,1.46 -5.86,3.29 -8.68,5.12 -2.25,-1.9 -2.48,-4.68 -1.83,-7.39 z"
       fill="#e25685"
       id="path4751" />
    <path
       d="m 108.32,42.08 c 0.7,0.11 2.09,0.32 2.79,0.42 -0.6,2.85 -2.5,5.06 -4.56,7.01 l -0.96,0.09 c -0.6,-2.88 0.92001,-5.42 2.73,-7.52 z"
       fill="#ff80ae"
       id="path4753" />
    <path
       d="m 89.62,46.95 c 1.73,-1.86 3.9,-3.18 6.35,-3.88 -0.07,2.05 -0.3,4.11 -1.04,6.04 -0.56,1.68 -1.05,3.38 -1.5,5.1 -0.22,-1.31 -0.45,-2.61 -0.68,-3.91 -0.85,0.81 -1.7,1.62 -2.53,2.44 l -0.55,-1.18 c -0.04,-1.54 -0.04999,-3.08 -0.04999,-4.61 z"
       fill="#f94285"
       id="path4755" />
    <path
       d="m 81.89,55.4 c 0.72,-2.86 -1.95,-6.7 0.57,-8.83 2.3,2.79 3.54,6.45 6.54,8.63 1.19,0.95 1.63,2.43 2.16,3.78 -1.06,0.42 -2.13,0.82 -3.21,1.21 -2.22,-1.31 -4.39,-2.78 -6.06,-4.79 z"
       fill="#b3184d"
       id="path4757" />
    <path
       d="m 106.55,49.51 c 1.94,0.03 3.65,-0.93 5.3,-1.83 -0.64,1.4 -1.34,2.78 -2.03,4.16 -4.95,-0.08 -9.34,2.57 -14.21,2.86 -0.35,0.94 -0.69,1.89 -1.08,2.82 -0.35,0.17 -1.04,0.49 -1.38,0.65 -0.5,0.21 -1.49,0.61 -1.99,0.81 -0.53001,-1.35 -0.97,-2.83 -2.16,-3.78 0.45,-0.02 1.35,-0.05 1.8,-0.07 -0.2,-0.8 -0.39,-1.6 -0.58,-2.39 0.83,-0.82 1.68,-1.63 2.53,-2.44 0.23,1.3 0.46,2.6 0.68,3.91 0.45,-1.72 0.94,-3.42 1.5,-5.1 0.28,1.17 0.55,2.34 0.84,3.51 3.36,-0.68 6.65,-1.7 9.82,-3.02 z"
       fill="#c23972"
       id="path4759" />
    <path
       d="m 94.53,57.52 c 4.31,-2.06 8.62,-4.79 13.56,-4.83 2.43,0.11 4.75,0.95 7.08,1.61 -1.39,1.27 -3.34,2.52 -2.72,4.69 -2.07,-0.87 -4.33,-2.1 -6.59,-1.09 -2.15,0.87 -4.34,-0.21 -6.5,-0.41 -1.5,0.68 -2.81,1.69 -4.22,2.52 -0.94,0.31 -1.88,0.62 -2.82,0.9 0.27,-0.91 0.55,-1.83 0.83,-2.74 0.34,-0.16 1.03,-0.48 1.38,-0.65 z"
       fill="#ffb7e0"
       id="path4761" />
    <path
       d="m 72.19,57.58 c 2.85,-2.03 6.26,-2.65 9.7,-2.18 1.67,2.01 3.84,3.48 6.06,4.79 -2.36,0.78 -4.78,1.4 -7.16,2.12 -1.69,-0.07 -3.38,-0.07 -5.07,-0.09 L 74.64,58.05 C 74.03,57.93 72.8,57.7 72.19,57.58 Z"
       fill="#e15187"
       id="path4763" />
    <path
       d="m 115.17,54.3 c 6.49,1.55 11.41,6.2 15.07,11.57 -0.41,0.6 -0.83,1.21 -1.25,1.81 -0.41,-0.65 -1.25,-1.97 -1.67,-2.62 -0.53,-0.37 -1.59,-1.1 -2.12,-1.46 -1.06,-0.67 -2.12,-1.34 -3.18,-2 l -1.92,2.19 c -2.31,-1.95 -4.83,-3.65 -7.65,-4.8 -0.62,-2.17 1.33,-3.42 2.72,-4.69 z"
       fill="#f5dcf1"
       id="path4765" />
    <path
       d="m 99.36,57.49 c 2.16,0.2 4.35,1.28 6.5,0.41 2.26,-1.01 4.52,0.22 6.59,1.09 2.82,1.15 5.34,2.85 7.65,4.8 l 1.92,-2.19 c 1.06,0.66 2.12,1.33 3.18,2 -0.55,0.07 -1.66,0.21 -2.21,0.29 0.57,1.46 1.14,2.92 1.72,4.39 -0.73,0.67 -1.46,1.34 -2.16,2.03 -2.57,2.39 -2.58,6.68 -5.92,8.37 -3.61,1.7 -7.43,2.93 -11,4.73 0.02,0.85 0.03,1.69 0.04,2.54 -0.43,0.23 -1.28,0.68 -1.71,0.91 4.49,2.05 9.2,-0.4 13.66,-1.29 0.71999,0.22 2.17,0.68 2.89,0.91 -4.51,2.51 -9.47,4.04 -14.3,5.79 -3.34,-1.35 -6.879999,-2.52 -9.669999,-4.88 -0.18,-1 -0.35,-2 -0.49,-3 1.76,-0.31 3.51,-0.62 5.269999,-0.93 0.31,-1.06 0.63,-2.11 0.96,-3.16 3.47,-1.48 3.92,-5.64 6.39,-8.14 -1.21,-1.59 -3.19,-1.84 -5.01,-2.22 -1.57,-0.66 -3.05,-1.54 -4.529999,-2.39 -0.25,0.38 -0.51,0.75 -0.77,1.13 1.02,2.06 3.209999,4.2 2.049999,6.66 -2.909999,1.89 -5.919999,-1.47 -8.759999,-2.19 -0.5,-1.16 -1,-2.31 -1.5,-3.46 -2.07,-0.28 -4.14,-0.55 -6.21,-0.8 4.49,-1.45 7.85,-4.79 11.6,-7.47 -0.1,-0.35 -0.3,-1.06 -0.4,-1.41 1.41,-0.83 2.72,-1.84 4.22,-2.52 z"
       fill="#fa8bbf"
       id="path4767" />
    <path
       d="m 64.7,62.6 c 1.69,-1.88 3.56,-3.77 6.09,-4.44 -0.26,1.62 -0.57,3.23 -0.89,4.84 0.65,1.02 1.29,2.04 1.96,3.04 3.36,2.47 7.54,-0.61 11.21,0.9 -0.99,1.02 -1.99,2.01 -3,3.01 0.47,0.96001 0.94,1.92 1.4,2.88 -0.11,1.27 -0.25,2.55 -0.24,3.83 2.26,1.49 4.67,2.72 6.93,4.2 -1.36,1.43 -2.74,2.85 -4.13,4.26 C 78.23,81.44 74.4,75.54 68.79,71.6 68.65,70.92 68.51,70.24 68.39,69.56 69.92,66.55 66.2,64.66 64.7,62.6 Z"
       fill="#ffb6d9"
       id="path4769" />
    <path
       d="m 72.19,57.58 c 0.61,0.12 1.84,0.35 2.45,0.47 l 1.08,4.17 c 1.69,0.02 3.38,0.02 5.07,0.09 -2.66,1.87 -6,2.39 -8.93,3.73 -0.67,-1 -1.31,-2.02 -1.96,-3.04 0.32,-1.61 0.63,-3.22 0.89,-4.84 0.35,-0.14 1.05,-0.43 1.4,-0.58 z"
       fill="#f97dad"
       id="path4771" />
    <path
       d="m 91.16,58.98 c 0.5,-0.2 1.49,-0.6 1.99,-0.81 -0.28,0.91 -0.56,1.83 -0.83,2.74 0.94,-0.28 1.88,-0.59 2.82,-0.9 0.1,0.35 0.3,1.06 0.4,1.41 -3.75,2.68 -7.11,6.02 -11.6,7.47 2.07,0.25 4.14,0.52 6.21,0.8 0.5,1.15 1,2.3 1.5,3.46 2.84,0.72 5.85,4.08 8.76,2.19 1.16,-2.46 -1.03,-4.6 -2.05,-6.66 0.26,-0.38 0.52,-0.75 0.77,-1.13 1.48,0.85 2.96,1.73 4.53,2.39 0.13,4.33 -2.78,7.69 -5.41,10.79 1.34,-0.14001 2.68,-0.27 4.03,-0.43 -0.33,1.05 -0.65,2.1 -0.96,3.16 -1.76,0.31 -3.51,0.62 -5.27,0.93 0.14,1 0.31,2 0.49,3 2.79,2.36 6.33,3.53 9.67,4.88 -4.75,1.71 -8.56,-3.24 -13.27,-2.59 -1.15,0.27 -2.29,0.58 -3.41,0.96 0.76,1.66 1.48,3.34 2.14,5.04 -3.59,-0.43 -5.57,-3.48 -7.23,-6.34 -1.37,0.05 -2.74,0.11 -4.11,0.17001 -1.43,-2.75 -2.85,-5.55 -4.95,-7.85 -2.58,-3.08 -6.22,-5.73 -6.59,-10.06 5.61,3.94 9.44,9.84 15.24,13.52 1.39,-1.41 2.77,-2.83 4.13,-4.26 -2.26,-1.48 -4.67,-2.71 -6.93,-4.2 -0.01,-1.28 0.13,-2.56 0.24,-3.83 -0.46,-0.96 -0.93,-1.92 -1.4,-2.88 1.01,-1 2.01,-1.99 3,-3.01 -3.67,-1.51 -7.85,1.57 -11.21,-0.9 2.93,-1.34 6.27,-1.86 8.93,-3.73 2.38,-0.72 4.8,-1.34 7.16,-2.12 1.08,-0.39 2.15,-0.79 3.21,-1.21 z"
       fill="#fd9fcd"
       id="path4773" />
    <path
       d="m 58.4,75.35 c 1.77,-4.4 2.98,-9.17 6.3,-12.75 1.5,2.06 5.22,3.95 3.69,6.96 -1.36,-0.82999 -2.86,-3.05 -4.64,-1.86 -1.08,0.5 -1.45,1.76 -2.1,2.67 -1.06,2.11 -1.93,4.3 -2.79,6.5 0.3,0.57999 0.9,1.74 1.2,2.33 3.4,3.16 7.91,5.23 9.93,9.69 0.38,-0.03 1.13,-0.08 1.51,-0.1 2.98,2.59 6.32,4.79 8.99,7.73 -2.7,0.39001 -5.38,1.39 -8.13,1.19 -2.94,-2.25 -1.77,-6.94 -4.51,-9.46 -2.96,-4.33 -8.03,-6.05 -12.22,-8.82 -3.46,1.71 -7.75,3.25 -8.97,7.33 l -0.05,0.14 c -1.94,-0.31 -3.89,-0.67 -5.84,-0.91 4.3,-5.62 10.77,-9.18 17.63,-10.64 z"
       fill="#f79fc6"
       id="path4775" />
    <path
       d="m 122.99,63.89 c 0.55,-0.08 1.66,-0.22 2.21,-0.29 0.53001,0.36 1.59,1.09 2.12,1.46 l 0.48,2.88 c 0.28999,0.19 0.86,0.56 1.15,0.75 0.93001,1.09 1.89,2.16 2.9,3.18 0.31,0.52 0.92,1.54 1.23,2.05 -1.51,-0.28 -3.02,-0.51 -4.53,-0.74 -0.2,0.6 -0.61,1.79 -0.81,2.38 -0.79,-0.47 -1.58,-0.94 -2.36,-1.41 -0.11,1.26 -0.21999,2.53 -0.32,3.79 -0.41,0.31 -1.24,0.91 -1.65,1.22 0.02,-1.62 0.03,-3.24 0.04,-4.86 0.84,-0.9 1.68,-1.79 2.52,-2.69 -0.86,-0.33 -2.57,-0.98 -3.42,-1.3 0.7,-0.69 1.43,-1.36 2.16,-2.03 -0.58,-1.47 -1.15,-2.93 -1.72,-4.39 z"
       fill="#e9558f"
       id="path4777" />
    <path
       d="m 63.75,67.7 c 1.78,-1.19 3.28,1.03 4.64,1.86 0.12,0.68 0.26,1.36 0.4,2.04 0.37,4.33 4.01,6.98 6.59,10.06 2.1,2.3 3.52,5.1 4.95,7.85 1.37,-0.06001 2.74,-0.12 4.11,-0.17001 1.66,2.86 3.64,5.91 7.23,6.34 l 1.01,0.33 c -1.97,1.53 -4.22,2.63 -6.63,3.25 -1.72,-1.15 -3.61,-2.04 -5.56,-2.74 -2.67,-2.94 -6.01,-5.14 -8.99,-7.73 -0.38,0.02 -1.13,0.07 -1.51,0.1 -2.02,-4.46 -6.53,-6.53 -9.93,-9.69 1.14,-0.03999 2.29,-0.07999 3.43,-0.12 -0.66,-2.89 -1.23,-5.81 -1.84,-8.71 0.65,-0.91 1.02,-2.17 2.1,-2.67 z"
       fill="#fb7bb0"
       id="path4779" />
    <path
       d="m 128.95,68.69 c 0.67,-0.56 1.45,-0.8 2.34,-0.73 0.55,1.25 0.73001,2.56 0.56001,3.91 -1.01,-1.02 -1.97,-2.09 -2.9,-3.18 z"
       fill="#f896bf"
       id="path4781" />
    <path
       d="m 98.25,80.73 c 2.63,-3.1 5.54,-6.46 5.41,-10.79 1.82,0.38 3.8,0.63 5.01,2.22 -2.47,2.5 -2.92,6.66 -6.39,8.14 -1.35,0.16 -2.69,0.28999 -4.03,0.43 z"
       fill="#ffb7de"
       id="path4783" />
    <path
       d="m 58.86,76.87 c 0.86,-2.2 1.73,-4.39 2.79,-6.5 0.61,2.9 1.18,5.82 1.84,8.71 -1.14,0.04 -2.29,0.08 -3.43,0.12 -0.3,-0.59 -0.9,-1.75 -1.2,-2.33 z"
       fill="#dc6091"
       id="path4785" />
    <path
       d="m 116.63,78.68 c 3.34,-1.69 3.35,-5.98 5.92,-8.37 0.85,0.32 2.56,0.97 3.42,1.3 -0.84,0.9 -1.68,1.79 -2.52,2.69 -0.01,1.62 -0.02,3.24 -0.04,4.86 -5.07,4.02 -11.38,6.06 -17.74,6.79 -0.01,-0.85 -0.02,-1.69 -0.04,-2.54 3.57,-1.8 7.39,-3.03 11,-4.73 z"
       fill="#ff6ea8"
       id="path4787" />
    <path
       d="m 131.85,71.87 c 3.94,0.01 8.07,0.01 11.64,1.94 -0.5,2.65 2.31,4.01 4.53,3.11 5.7,4.31 8.25,11.6 8.47,18.54 0.28999,-0.32 0.86,-0.96 1.14,-1.28 -0.06,0.17 -0.19,0.5 -0.25,0.67 -0.40001,1.17 -0.65001,2.37 -0.73001,3.61 3.07,1.15 5.89,2.93 7.99,5.48 -1.98,-0.18 -4.09,0.21 -5.99,-0.51 -1.26,-0.98 -2.23,-2.27 -3.27,-3.47 0.15999,-2.01 0.28999,-4.02 0.26,-6.04 -0.38,-0.29 -1.14,-0.89 -1.52,-1.18 -0.14999,-0.12 -0.45,-0.35 -0.59,-0.47 0.35001,-0.12 1.06,-0.35999 1.41,-0.46999 -1.73,-1.89 -3.2,-4.32 -5.72,-5.22 -1.94,-0.77 -3.54,0.98 -5.09,1.85 l -1.29,0.9 c -0.42,-1.95 -0.81999,-3.9 -1.19,-5.85 -1.94,1.14 -4.1,1.76 -6.36,1.76 0.10001,-0.57999 0.3,-1.74 0.41,-2.32 4.02,-1.6 5.38,-7.12 2.23,-10.21 -3.83,2.93 -6.34,7.23 -10.28,10.04 -2.23,1.51 -4.73,2.55 -7.14,3.73 -0.72,-0.23 -2.17,-0.69 -2.89,-0.91 6.43,-1.57 12.24,-5.25 16.04,-10.71 l -0.58,-0.94 c -0.31,-0.51 -0.92,-1.53 -1.23,-2.05 z"
       fill="#f8a8d0"
       id="path4789" />
    <path
       d="m 128.55,73.18 c 1.51,0.23 3.02,0.46 4.53,0.74 l 0.58,0.94 c -3.8,5.46 -9.61,9.14 -16.04,10.71 -4.46,0.89 -9.17,3.34 -13.66,1.29 0.43,-0.23 1.28,-0.68 1.71,-0.91 6.36,-0.73 12.67,-2.77 17.74,-6.79 0.41,-0.31 1.24,-0.91 1.65,-1.22 0.10001,-1.26 0.21,-2.53 0.32,-3.79 0.78001,0.47 1.57,0.94 2.36,1.41 0.2,-0.59 0.61001,-1.78 0.81,-2.38 z"
       fill="#d34a7f"
       id="path4791" />
    <path
       d="m 127.65,82.75 c 3.94,-2.81 6.45,-7.11 10.28,-10.04 3.15,3.09 1.79,8.61 -2.23,10.21 -1.43,0.96 -2.83,1.96 -4.21,2.98 1.01,1.66 3.53,4.05 1.26,5.81 -2.49,1.08 -5.23,1.79 -7.1,3.91 -3.95,0.28 -8.11,1.18 -11.87,-0.57 -2.75,-1.71 -5.31,1.64 -8.2,0.57999 -4.59,-1 -9.37,-1.64 -13.91,0.05 -0.66,-1.7 -1.38,-3.38 -2.14,-5.04 1.12,-0.38 2.26,-0.69 3.41,-0.96 4.71,-0.65 8.52,4.3 13.27,2.59 4.83,-1.75 9.79,-3.28 14.3,-5.79 2.41,-1.18 4.91,-2.22 7.14,-3.73 z"
       fill="#ffd8f3"
       id="path4793" />
    <path
       d="m 143.49,73.81 c 1.66,0.79 3.13,1.92 4.53,3.11 -2.22,0.9 -5.03,-0.46 -4.53,-3.11 z"
       fill="#ffffff"
       id="path4795" />
    <path
       d="m 46.66,86.76 c 1.22,-4.08 5.51,-5.62 8.97,-7.33 4.19,2.77 9.26,4.49 12.22,8.82 2.74,2.52 1.57,7.21 4.51,9.46 2.75,0.2 5.43,-0.8 8.13,-1.19 1.95,0.7 3.84,1.59 5.56,2.74 0.68,0.48 1.35,0.96 2.02,1.45 -0.77,0.18 -2.33,0.53 -3.1,0.71 -0.48,3.15 1.6,5.56 3.53,7.74 2.97,1.3 5.63,3.15 8.34,4.9 -0.73,0.3 -1.44,0.62 -2.14,0.96 -2.17,-1.07 -4.29,-2.27 -6.55,-3.15 -3.2,-1.06 -7.14,0.35 -9.78,-2.25 -1.74,-1.54 -3.99,-2.17 -6.15,-2.87 -2.12,-1.05 -4.39,-1.72 -6.68,-2.24 -2.51,-4.31 -8.17,-5.25 -10.38,-9.84 -1.75,-0.42 -3.87,-0.18 -5.19,-1.61 -1.73,-1.71 -2.32,-4.16 -3.31,-6.3 z"
       fill="#fbb5e0"
       id="path4797" />
    <path
       d="m 48.28,85.59 c 2.29,-1.46 4.81,-3.47 7.71,-2.77 2.28,1.29 4.14,3.2 6.42,4.5 3.16,1.52 4.98,4.65 6.86,7.44 0.82,1.19 -0.32999,2.72 -1.32,3.4 -2,0.25 -4.03,0.14 -6.04,0.13 -1.61,-1.77 -3.02,-3.74 -4.9,-5.23 -2.3,-1.12 -4.9,-1.56 -7.1,-2.91 -1.58,-0.97 -1.31,-2.99 -1.63,-4.56 z"
       fill="#ffedfb"
       id="path4799" />
    <path
       d="m 131.49,85.9 c 1.38,-1.02 2.78,-2.02 4.21,-2.98 -0.11,0.58 -0.31,1.74 -0.41,2.32 2.26,0 4.42,-0.62 6.36,-1.76 0.37001,1.95 0.77,3.9 1.19,5.85 -3.77,3.91 -9.7,3.81 -13.43,7.8 -1.25,-0.52 -2.5,-1.03 -3.76,-1.51 1.87,-2.12 4.61,-2.83 7.1,-3.91 2.27,-1.76 -0.25,-4.15 -1.26,-5.81 z"
       fill="#fdc0e3"
       id="path4801" />
    <path
       d="m 40.77,85.99 c 1.95,0.24 3.9,0.6 5.84,0.91 -0.27,2.62 -1.58,4.64 -4.07,5.61 1.74,4.75 4.52,9.06 8.87,11.79 0.67,-0.29 1.34,-0.55 2.03,-0.78001 2.45,2.22 4.72,4.62 7.21,6.81 2.98,0.35 6.08,0.35 8.72,-1.31 0.73,0.91 1.46,1.82 2.19,2.74 -1.63,0.3 -3.25,0.67 -4.88,1.02 -2.29,-0.24 -4.61,-0.29 -6.9,-0.59 -2.07,-0.79 -3.21,-2.88 -4.89,-4.21 -1.87,-1.01 -3.98,-1.42 -5.98,-2.1 l -0.16,-0.49 1.03,-0.61 c -4.81,-2.84 -6.14,-9.14 -11.57,-11.1 -0.83,0.77 -1.64,1.56 -2.44,2.35 0.39,-1.86 1.23,-3.57 2.19,-5.18 2.08,-0.38 3.17,-2.35 2.3,-4.31 l 0.51,-0.55 z"
       fill="#f271a3"
       id="path4803" />
    <path
       d="m 144.13,88.43 c 1.55,-0.87 3.15,-2.62 5.09,-1.85 2.52,0.9 3.99,3.33 5.72,5.22 -0.35001,0.11 -1.06,0.35 -1.41,0.46999 0.14,0.12 0.44,0.35001 0.59,0.47 -0.42,6.91 -9.09,6.97 -12.39,11.98 3.23,0.14 6.71,0.43 9.66,-1.18 1.46,-1.04 2.68,-2.36 3.99,-3.58 1.04,1.2 2.01,2.49 3.27,3.47 1.9,0.72 4.01,0.33 5.99,0.51 0.25,0.25 0.74,0.75 0.99,1 -3.82,1.23 -7.76,-0.92001 -11.54,0.41 -1.32,0.6 -2.22,1.81 -3.29,2.76 -2.54,-0.1 -4.99,0.56 -7.35,1.44 -1.88,-0.22 -3.75,-0.45 -5.63,-0.64 1.47,-0.33 2.9,-0.77 4.34,-1.21 -2.86,-1.58 -5.88,-2.87 -9.01,-3.82 l -0.77,-0.23 c -2.52,-0.8 -5.1,-1.38 -7.72,-1.73 3.97,-1.54 7.63,-3.69 11.19,-5.99 3.15,-1.92 8.8,-2.63 8.28,-7.5 z"
       fill="#fa79ab"
       id="path4805" />
    <path
       d="m 37.8,89.68 c 0.71,-1.13 1.56,-2.16 2.46,-3.14 0.87,1.96 -0.22,3.93 -2.3,4.31 -0.04,-0.3 -0.12,-0.88 -0.16,-1.17 z"
       fill="#eba4c0"
       id="path4807" />
    <path
       d="m 46.61,86.9 0.05,-0.14 c 0.99,2.14 1.58,4.59 3.31,6.3 1.32,1.43 3.44,1.19 5.19,1.61 2.21,4.59 7.87,5.53 10.38,9.84 2.29,0.52 4.56,1.19 6.68,2.24 1.64,1.56 3.16,3.24 4.71,4.89 -1.79,0.02 -3.58,0.01 -5.37,0.12 -0.73,-0.92001 -1.46,-1.83 -2.19,-2.74 -2.64,1.66 -5.74,1.66 -8.72,1.31 -2.49,-2.19 -4.76,-4.59 -7.21,-6.81 -0.69,0.23 -1.36,0.49 -2.03,0.78001 -4.35,-2.73 -7.13,-7.04 -8.87,-11.79 2.49,-0.97 3.8,-2.99 4.07,-5.61 z"
       fill="#fd8abf"
       id="path4809" />
    <path
       d="m 37.65,88.55 0.15,1.13 c 0.04,0.29 0.12,0.87 0.16,1.17 -0.96,1.61 -1.8,3.32 -2.19,5.18 -0.15,0.91 -0.21,1.83 -0.26,2.75 0.22,1.91 -0.91,4.51 0.77,5.93 2.38,0.71 4.93,0.34 7.38,0.33 -0.52,-1.04 -1.03,-2.09 -1.58,-3.11 2.08,1.4 4.33,2.55 6.67,3.46 l 0.16,0.49 c 0.14,0.4 0.42,1.19 0.56,1.59 1.17,0.63 2.38,1.19 3.58,1.77 -0.26,0.3 -0.77,0.92001 -1.03,1.22 -5.04,-2.63 -11.19,-4.16 -16.74,-2.28 -0.89,-0.84 -1.76,-1.69 -2.61,-2.55 -0.18,-5.85 1.49,-12.23 4.98,-17.08 z"
       fill="#a45a71"
       id="path4811" />
    <path
       d="m 129.41,97.13 c 3.73,-3.99 9.66,-3.89 13.43,-7.8 l 1.29,-0.9 c 0.51999,4.87 -5.13,5.58 -8.28,7.5 -3.56,2.3 -7.22,4.45 -11.19,5.99 -1.84,0.81 -3.65,1.79 -5.64,2.16 -2.03,-0.43 -3.94,-1.28 -5.86,-2.03 -1.14,1.12 -2.26,2.24 -3.37,3.38 3,1.31 6.3,0.68 9.45,0.41 -3.29,1.03 -6.76,1.11 -10.14,0.55 -3.48,-0.76 -7.06,-0.67 -10.56,-1.22 -3.64,-1.04 -7.37,-2.2 -10.47,-4.46 -0.67,-0.49 -1.34,-0.97 -2.02,-1.45 2.41,-0.62 4.66,-1.72 6.63,-3.25 4.65,1.55 9.66,0.93 14.37,2.16 2.25,0.62 4.09,2.39 6.49,2.51 4.89,0.76 9.18,-2.77 14.07,-2.19 z"
       fill="#fa9ac1"
       id="path4813" />
    <path
       d="m 154.12,92.74 c 0.38,0.29 1.14,0.89 1.52,1.18 0.03,2.02 -0.10001,4.03 -0.26,6.04 -1.31,1.22 -2.53,2.54 -3.99,3.58 -2.95,1.61 -6.43,1.32 -9.66,1.18 3.3,-5.01 11.97,-5.07 12.39,-11.98 z"
       fill="#c23972"
       id="path4815" />
    <path
       d="m 35.77,96.03 c 0.8,-0.79 1.61,-1.58 2.44,-2.35 5.43,1.96 6.76,8.26 11.57,11.1 l -1.03,0.61 c -2.34,-0.91 -4.59,-2.06 -6.67,-3.46 -1.96,-1.49 -4.23,-2.46 -6.57,-3.15 0.05,-0.92 0.11,-1.84 0.26,-2.75 z"
       fill="#d15b82"
       id="path4817" />
    <path
       d="m 91.67,95.68 c 4.54,-1.69 9.32,-1.05 13.91,-0.05 2.89,1.06 5.45,-2.29 8.2,-0.57999 3.76,1.75 7.92,0.85 11.87,0.57 1.26,0.48 2.51,0.99 3.76,1.51 l -1.8,1.36 c -4.89,-0.57999 -9.18,2.95 -14.07,2.19 -2.4,-0.12 -4.24,-1.89 -6.49,-2.51 -4.71,-1.23 -9.72,-0.61 -14.37,-2.16 l -1.01,-0.33 z"
       fill="#f8b7d1"
       id="path4819" />
    <path
       d="m 156.65,98.46 c 0.08,-1.24 0.33,-2.44 0.73001,-3.61 0.22,0.72 0.64999,2.15 0.87,2.87 11.05,5.48 15.58,18.95 13.48,30.59 l -0.47,-0.87 c 0.07,-5.11 0.21001,-10.36 -1.86,-15.15 -0.47,-0.97 -0.98,-1.92 -1.53,-2.84 -0.78,-0.53999 -1.56,-1.06 -2.35,-1.57 l -0.22,-1.2 0.81,0.31 0.34,-0.68 c -0.20999,-0.34 -0.62,-1.02 -0.81999,-1.37 -0.25,-0.25 -0.74,-0.75 -0.99,-1 -2.1,-2.55 -4.92,-4.33 -7.99,-5.48 z"
       fill="#653531"
       id="path4821" />
    <path
       d="m 94.05,98.21 c 4.72,-0.7 9.08,1.33 13.55,2.46 1.09,0.27 1.59,1.44 2.37,2.15 -3.12,1.42 -6.65,0.81 -9.97,0.84 -2.99,0.07 -6.15,-2.23 -5.95,-5.45 z"
       fill="#f07fb0"
       id="path4823" />
    <path
       d="m 35.51,98.78 c 2.34,0.69 4.61,1.66 6.57,3.15 0.55,1.02 1.06,2.07 1.58,3.11 -2.45,0.01 -5,0.38 -7.38,-0.33 -1.68,-1.42 -0.55,-4.02 -0.77,-5.93 z"
       fill="#ad3e5d"
       id="path4825" />
    <path
       d="m 84.97,101.42 c 0.77,-0.18 2.33,-0.53 3.1,-0.71 3.1,2.26 6.83,3.42 10.47,4.46 3.5,0.55 7.08,0.46 10.56,1.22 -0.29,1.45 -0.57,2.89 -0.85,4.34 4.34,0.26 8.68,0.57999 13.03,0.53 -7.89,2.84 -16.98,-1.69 -24.44,2.8 -2.71,-1.75 -5.37,-3.6 -8.34,-4.9 -1.93,-2.18 -4.01,-4.59 -3.53,-7.74 z"
       fill="#fdddf7"
       id="path4827" />
    <path
       d="m 109.79,105.43 c 1.11,-1.14 2.23,-2.26 3.37,-3.38 1.92,0.75 3.83,1.6 5.86,2.03 1.99,-0.37 3.8,-1.35 5.64,-2.16 2.62,0.35 5.2,0.93 7.72,1.73 -4.26,1.39 -8.73,1.67 -13.14,2.19 -3.15,0.27 -6.45,0.9 -9.45,-0.41 z"
       fill="#e67ea5"
       id="path4829" />
    <path
       d="m 119.24,105.84 c 4.41,-0.52 8.88,-0.8 13.14,-2.19 l 0.77,0.23 c 0.14,0.52 0.40001,1.56 0.53,2.08 -3.98,2.1 -8.15,3.83 -12.4,5.3 -4.35,0.05 -8.69,-0.27 -13.03,-0.53 0.28,-1.45 0.56,-2.89 0.85,-4.34 3.38,0.56 6.85,0.48 10.14,-0.55 z"
       fill="#ffeffd"
       id="path4831" />
    <path
       d="m 133.15,103.88 c 3.13,0.95 6.15,2.24 9.01,3.82 -1.44,0.44 -2.87,0.88 -4.34,1.21 -0.24,0.01 -0.73001,0.05 -0.97,0.07 -4.62,0.69 -9.55,1.16 -13.6,3.68 -0.96,0.82999 -1.87,1.71 -2.77,2.59 -0.88,-0.46 -1.76,-0.92 -2.64,-1.39 -0.91,0.24 -1.82,0.48 -2.72,0.72 -5.88,-2.03 -12.24,-1.2 -18.28,-0.52 7.46,-4.49 16.55,0.04 24.44,-2.8 4.25,-1.47 8.42,-3.2 12.4,-5.3 -0.12999,-0.52 -0.39,-1.56 -0.53,-2.08 z"
       fill="#f4a5c6"
       id="path4833" />
    <path
       d="m 150.8,108.11 c 1.07,-0.95 1.97,-2.16 3.29,-2.76 3.78,-1.33 7.72,0.82 11.54,-0.41 -0.08,0.44 -0.25,1.3 -0.33,1.74 l 0.22,1.2 c -1.94,-0.16 -3.88,-0.26 -5.82,-0.25 -0.17,-0.27 -0.52,-0.81 -0.7,-1.07 -2.65,0.71 -4.93,2.21 -7.26,3.57 -2.7,1.17 -5.64,0.23 -8.29,-0.57999 2.36,-0.88 4.81,-1.54 7.35,-1.44 z"
       fill="#bd6181"
       id="path4835" />
    <path
       d="m 165.63,104.94 c 0.2,0.35 0.61,1.03 0.81999,1.37 l -0.34,0.68 -0.81,-0.31 c 0.08,-0.44 0.25,-1.3 0.33,-1.74 z"
       fill="#ffedfb"
       id="path4837" />
    <path
       d="m 27.24,109.93 c 1.53,-1.76 3.57,-2.95 5.43,-4.3 0.85,0.86 1.72,1.71 2.61,2.55 -1.33,0.01 -2.66,0.02 -3.98,0.03 -3.91,3.16 -6.48,7.68 -7.73,12.5 -1.2,4.26 -0.45,8.74 -1.29,13.05 -1.92,-8.23 0.06,-17.03 4.96,-23.83 z"
       fill="#653531"
       id="path4839" />
    <path
       d="m 48.91,105.88 c 2,0.68 4.11,1.09 5.98,2.1 1.68,1.33 2.82,3.42 4.89,4.21 2.29,0.3 4.61,0.35 6.9,0.59 -1.62,0.84 -3.2,1.8 -4.94,2.41 -3.11,0.28 -5.26,-2.36 -7.45,-4.14 l -0.45,0.81 c -0.59,-0.48 -1.2,-0.95 -1.82,-1.4 0.26,-0.3 0.77,-0.92 1.03,-1.22 -1.2,-0.57999 -2.41,-1.14 -3.58,-1.77 -0.14,-0.4 -0.42,-1.19 -0.56,-1.59 z"
       fill="#bd597e"
       id="path4841" />
    <path
       d="m 72.22,106.75 c 2.16,0.7 4.41,1.33 6.15,2.87 2.64,2.6 6.58,1.19 9.78,2.25 2.26,0.88 4.38,2.08 6.55,3.15 -0.87,0.49 -1.72,0.99 -2.58,1.5 -2.09,-1.27 -4.62,-2.39 -6.96,-0.96999 -2.18,-1.41 -4.68,-2.16 -7.16,-2.87 -0.27,-0.26 -0.8,-0.78 -1.07,-1.04 -1.55,-1.65 -3.07,-3.33 -4.71,-4.89 z"
       fill="#e790ae"
       id="path4843" />
    <path
       d="m 151.74,110.13 c 2.33,-1.36 4.61,-2.86 7.26,-3.57 0.17999,0.26 0.53,0.8 0.7,1.07 -2.49,0.16 -4.61,1.55 -6.45,3.13 -1.58,1.8 -3.71,2.71 -5.94,1.33 -0.77,-0.3 -1.53,-0.26 -2.28,0.14001 l 0.79,-1.08 c -3.3,-0.78 -6.61,-1.63 -10.02,-1.64 l 1.05,-0.53 c 0.23999,-0.02 0.73,-0.06 0.97,-0.07 1.88,0.19 3.75,0.42 5.63,0.64 2.65,0.81 5.59,1.75 8.29,0.57999 z"
       fill="#76373a"
       id="path4845" />
    <path
       d="m 123.25,112.66 c 4.05,-2.52 8.98,-2.99 13.6,-3.68 l -1.05,0.53 c -4.05,2.11 -8.34,4.13 -11.22,7.82 -0.1,-1.64 -0.25,-3.35 -1.33,-4.67 z"
       fill="#d586a3"
       id="path4847" />
    <path
       d="m 54.29,111.05 c 2.19,1.78 4.34,4.42 7.45,4.14 1.74,-0.61 3.32,-1.57 4.94,-2.41 1.63,-0.35 3.25,-0.72 4.88,-1.02 1.79,-0.11 3.58,-0.1 5.37,-0.12 0.27,0.26 0.8,0.78 1.07,1.04 -6.03,-0.75 -12.23,0.75 -16.95,4.65 -0.72,0.17 -1.43,0.35 -2.15,0.53 -1.46,-2.17 -3.04,-4.3 -5.06,-6 z"
       fill="#653531"
       id="path4849" />
    <path
       d="m 27.9,118.03 c 0.99,-1.73 1.97,-3.48 3.09,-5.13 1.83,2.89 1.65,6.24 0.87,9.43 -0.51,-0.44 -1.53,-1.34 -2.04,-1.79 -0.67,-0.82 -1.29,-1.67 -1.92,-2.51 z"
       fill="#ecd1d3"
       id="path4851" />
    <path
       d="m 96.84,114.06 c 6.04,-0.68 12.4,-1.51 18.28,0.52 0.89999,-0.24 1.81,-0.48 2.72,-0.72 0.88,0.47 1.76,0.93 2.64,1.39 0.89999,-0.88 1.81,-1.76 2.77,-2.59 1.08,1.32 1.23,3.03 1.33,4.67 l -0.64,1.31 -0.29,0.04 c -3.38,0.23 -5.7,-2.75 -8.95,-3.05 -5.95,-1.74 -12.53,-0.71 -17.38,3.23 -2.68,-0.11 -5.77,-1.44 -8.05,0.64 -1.32,-1.36 -2.7,-2.67 -4.11,-3.95 2.34,-1.42 4.87,-0.3 6.96,0.96999 0.86,-0.51 1.71,-1.01 2.58,-1.5 0.7,-0.34 1.41,-0.66 2.14,-0.96 z"
       fill="#ca7e98"
       id="path4853" />
    <path
       d="m 114.7,115.63 c 3.25,0.3 5.57,3.28 8.95,3.05 -0.94,0.92 -1.98,1.73 -3.08,2.45 -1.52,-2.26 -3.56,-4.08 -5.87,-5.5 z"
       fill="#76373a"
       id="path4855" />
    <path
       d="m 89.27,119.5 c 2.28,-2.08 5.37,-0.75 8.05,-0.64 -1.63,1.28 -3.15,2.7 -4.71,4.08 -1.13,-1.14 -2.24,-2.29 -3.34,-3.44 z"
       fill="#80413f"
       id="path4857" />
    <g
       fill="#653531"
       id="g4863">
      <path
         d="m 170.61,130.67 c 0.24,-0.26 0.73,-0.78999 0.97,-1.05 -0.56,4.51 -2,8.93 -4.44,12.78 0.39999,0.27 1.2,0.81001 1.61,1.08 -5.7,2.26 -9.56,8.23 -16.15,8.38 -1.88,1.53 -4.24,1.84 -6.58,1.88 -3.49,0.06 -6.65,2.25 -10.17,1.71 -0.34001,-0.28999 -1.03,-0.87 -1.37,-1.16 -0.53999,-0.45 -1.61,-1.33 -2.14,-1.77 2.75,-1.33 5.85,-0.57001 8.77,-0.99 3.81,-0.56 7.49,-1.76 11.2,-2.75 0.47,-0.09 1.39,-0.28999 1.85,-0.39 -0.88,0.03 -2.66,0.09 -3.55,0.12 -0.05,-0.56999 -0.09,-1.14 -0.13,-1.7 2,1.86 4.2,0.02 6.15,-0.64999 3,-1.44 5.94,-3.04 9.09,-4.13 2.45,-3.4 3.54,-7.46 4.89,-11.36 z"
         id="path4859" />
      <path
         d="m 22.56,133.76 c 2.06,-0.31999 2.07,2.47 0.94,3.52 -1.17,-0.94 -1.49,-2.12 -0.94,-3.52 z"
         id="path4861" />
    </g>
    <path
       d="m 23.55,139.37 c 0.32,-0.25 0.97,-0.73999 1.29,-0.98 l 0.34,0.65 c -0.29,0.27 -0.87,0.81001 -1.16,1.08 z"
       fill="#4e3b3d"
       id="path4865" />
    <path
       d="m 24.66,140.55 c 1.29,0.62 3.26,2.48 1.73,3.82 -1.23,-0.7 -2.11,-2.43 -1.73,-3.82 z"
       fill="#653531"
       id="path4867" />
    <path
       d="m 152.6,151.86 c 6.59,-0.14999 10.45,-6.12 16.15,-8.38 0.33,0.44 0.99,1.31 1.32,1.75 0,1.58 -0.02,3.16 -0.04,4.74 -0.39999,0.07 -1.19,0.19 -1.59,0.25 -0.47,0.42 -1.42,1.25 -1.9,1.66 -0.39999,-0.04 -1.2,-0.12001 -1.6,-0.16 0.12,-0.5 0.37,-1.48 0.48999,-1.97 -1.79,0.39 -3.57,0.78999 -5.36,1.2 -0.46001,1.34 -0.93001,2.68 -1.39,4.02 -3.16,0.41 -6.01,1.84 -8.52,3.75 -1.7,0.06 -3.39,0.31999 -5,0.87 -1.61,0.52 -3.24,0.99 -4.9,1.31 l 0.06,-0.12 c -0.09,0.04 -0.26001,0.13 -0.34001,0.18001 l -0.57,0.2 c -0.32001,-0.04 -0.95,-0.13 -1.27,-0.18001 -0.67,-0.39999 -2,-1.2 -2.66,-1.6 -0.11,-0.07 -0.31999,-0.21001 -0.42999,-0.28 0.23999,-1.23 0.51,-2.44 0.8,-3.65 3.52,0.54001 6.68,-1.65 10.17,-1.71 2.34,-0.04 4.7,-0.35001 6.58,-1.88 z"
       fill="#994f4b"
       id="path4869" />
    <path
       d="m 27.08,145.4 c 2.81,0.90001 4.87,3.3 7.81,3.99 -1.74,0.62 -3.51,0.58 -5.23,-0.02 -0.33,1.05 -0.65,2.1 -0.99,3.15 -0.5,-1.84 -0.66,-3.75 -0.97,-5.62 -0.04,-0.14 -0.13,-0.40999 -0.17,-0.53999 l -0.45,-0.96 z"
       fill="#73352a"
       id="path4871" />
    <path
       d="m 27.53,146.36 c 0.04,0.13 0.13,0.39999 0.17,0.53999 l -0.2,-0.03 0.03,-0.51 z"
       fill="#beada9"
       id="path4873" />
    <path
       d="m 27.5,146.87 0.2,0.03 c 0.31,1.87 0.47,3.78 0.97,5.62 l 0.21,0.37 -0.88,2.16 c -2.08,-2.27 -0.54,-5.51 -0.5,-8.18 z"
       fill="#994f4b"
       id="path4875" />
    <path
       d="m 29.66,149.37 c 1.72,0.60001 3.49,0.64 5.23,0.02 2.95,0.43001 5.74,1.55 8.55,2.49 0.27,0.45 0.82,1.33 1.09,1.77 5.76,-0.04 11.49,1.79 17.21,0.72 1.2,0.49 2.39,0.96001 3.58,1.48 -0.14,0.56 -0.41,1.67 -0.54,2.22 -3.79,1.15 -7.1,-1.83 -10.82,-1.8 -3.45,-0.10001 -6.9,0.22 -10.29,0.8 1.28,1.74 3.42,1.85 5.4,1.86 -1.86,0.67001 -4.32,1.85 -5.88,-0.05 -3.36,-3.66 -7.27,-7 -12.14,-8.41 -0.03,0.53999 -0.09,1.62 -0.12,2.16 2.46,0.04 4.39,1.54 6.2,3.04 -2.18,-0.25 -4.36,-0.3 -6.54,-0.08 -0.58,-0.89999 -1.15,-1.8 -1.71,-2.7 l -0.21,-0.37 c 0.34,-1.05 0.66,-2.1 0.99,-3.15 z"
       fill="#80413f"
       id="path4877" />
    <path
       d="m 43.44,151.88 c 7.14,1.79 13.86,-1.65 20.6,-3.35 0.45,0.18001 1.35,0.52 1.8,0.7 1.66,1.22 3.23,2.57 4.74,3.98 l -0.11,0.12 c -1.6,0.81 -3.23,1.56 -4.85,2.36 -0.07,0.04 -0.23,0.12 -0.3,0.16 -1.19,-0.52 -2.38,-0.99 -3.58,-1.48 -5.72,1.07 -11.45,-0.76 -17.21,-0.72 -0.27,-0.43999 -0.82,-1.32 -1.09,-1.77 z"
       fill="#76373a"
       id="path4879" />
    <path
       d="m 160.07,150.95 c 1.79,-0.41 3.57,-0.81 5.36,-1.2 -0.12,0.49 -0.37,1.47 -0.48999,1.97 -1.97,1.27 -3.92,2.74 -6.26,3.25 0.46001,-1.34 0.93001,-2.68 1.39,-4.02 z"
       fill="#6b412f"
       id="path4881" />
    <path
       d="m 31.05,150.47 c 4.87,1.41 8.78,4.75 12.14,8.41 1.56,1.9 4.02,0.72 5.88,0.05 2.41,-0.81 4.86,-0.51 6.65,1.39 2.06,0.21999 4.06,0.76 5.95,1.6 -0.86,0.84 -1.73,1.69 -2.59,2.54 -3.06,-1.99 -6.37,-5.74 -10.31,-3.35 -1.73,0.56999 -3.52,0.96001 -5.35,1.03 -2.47,-1.46 -4.87,-3.04 -7.47,-4.25 -0.25,-0.11 -0.75,-0.33 -0.99,-0.44 -0.5,0.23 -1.49,0.7 -1.99,0.93001 -1.48,0 -2.96,-0.12001 -4.43,-0.34001 2.69,4.83 3.81,10.32 6.15,15.31 2.4,5.28 3.49,11 5.38,16.45 0.71,1.99 1.33,4.02 1.77,6.09 0.92,6.18 3.66,11.83 5.55,17.73 0.58,1.41 0.48,2.92 0,4.35 -0.53,-1.73 -1.05,-3.45 -1.64,-5.16 -0.77,-2.29 -1.57,-4.57 -2.26,-6.88 -3.2,-10.59 -5.75,-21.37 -9.8,-31.68 -2.17,-5.5 -4.15,-11.08 -6.36,-16.57 0.17,-0.65999 0.5,-1.97 0.67,-2.63 0.22,-0.54001 0.66,-1.62 0.88,-2.16 0.56,0.89999 1.13,1.8 1.71,2.7 2.18,-0.22 4.36,-0.17 6.54,0.08 -1.81,-1.5 -3.74,-3 -6.2,-3.04 0.03,-0.54001 0.09,-1.62 0.12,-2.16 z"
       fill="#73352a"
       id="path4883" />
    <path
       d="m 121.34,151.68 c 3.62,-2.25 7.57,-1.1 11,0.84001 0.53,0.44 1.6,1.32 2.14,1.77 -0.37,0.74 -1.11,2.22 -1.47,2.96 -3.76,-0.2 -7.34,1.21 -11.08,1.14 -3.91,-0.09 -7.75,2.01 -11.52,0.17 -3.47,0.27 -6.98,0.51001 -10.34,-0.58 -1.74,-0.65999 -3.47,0.18001 -5.14,0.64 -5.39,-2.19 -11.31,-1.21 -16.96,-1.24 1.31,0.28999 2.62,0.56999 3.93,0.86 l -2.37,2.16 c -2.59,-0.51 -5.24,-0.56 -7.87,-0.68999 -1.25,-0.84001 -2.49,-1.69 -3.73,-2.55 -0.43,0.14999 -1.3,0.44 -1.73,0.59 l -1.42,0.32 c 0.13,-0.55 0.4,-1.66 0.54,-2.22 l 0.3,-0.16 c 1.62,-0.8 3.25,-1.55 4.85,-2.36 l 0.3,0.07 c 2.86,0.88 5.77,1.62 8.76,1.89 5.02,0.51001 9.99,-0.67999 14.55,-2.73 8.44,4.59 19.07,4 27.26,-0.88 z"
       fill="#743b38"
       id="path4885" />
    <path
       d="m 158.68,154.97 c 2.34,-0.51 4.29,-1.98 6.26,-3.25 0.39999,0.04 1.2,0.12 1.6,0.16 1.86,0.36 3.63,0.06 5.31,-0.92 -3.02,8.42 -6.65,16.59 -10.67,24.57 -0.07,-4.78 3.3,-8.49 4.49,-12.94 0.74,-2.82 2.31,-5.65 1.66,-8.65 -0.86,1.1 -1.68,2.23 -2.45,3.38 -4.02,-0.24 -7.87,0.98999 -11.52,2.55 -0.8,-0.28999 -2.4,-0.87 -3.2,-1.15 2.51,-1.91 5.36,-3.34 8.52,-3.75 z"
       fill="#ffedcc"
       id="path4887" />
    <path
       d="m 70.58,153.21 c 0.04999,0.05 0.14,0.14 0.19,0.18999 l -0.3,-0.07 0.11,-0.12 z"
       fill="#c27b75"
       id="path4889" />
    <path
       d="m 65.32,155.85 c 0.07,-0.04 0.23,-0.12001 0.3,-0.16 z"
       fill="#80413f"
       id="path4891" />
    <path
       d="m 134.48,154.29 c 0.34001,0.29001 1.03,0.87001 1.37,1.16 -0.29001,1.21 -0.56001,2.42 -0.8,3.65 -5.21,0.62 -10.51,1.66 -15.21,4.09 -2.58,-0.95 -5.27,-1.55 -8.01,-1.87 -0.08,0.31 -0.24,0.92 -0.33,1.23 l 0.64,0.52 c -0.53,0.2 -1.57,0.59999 -2.1,0.79999 -0.69,-1.39 -1.28,-1.29 -1.79,0.29001 -0.98,0.55 -1.95,1.09 -2.93,1.64 -1.95,-1.07 -3.93,-2.07 -5.95,-3.01 l -0.15,1.27 c -0.3,0.17 -0.89,0.51001 -1.18,0.68001 -0.12,-0.07 -0.35,-0.20001 -0.47,-0.27 l 0.05,0.49 c -0.26,0.14 -0.77,0.42 -1.03,0.56 -1.47,-0.35001 -2.93,-0.81 -4.43,-1.03 -2.42,-0.75 -6.02,0.23 -7.21,-2.55 3.7,-0.52 7.36,0.17 11.03,0.56 4.49,-0.24 8.93,-1.05 13.35,-1.88 0.27,-0.51 0.81,-1.55 1.08,-2.06 3.77,1.84 7.61,-0.26 11.52,-0.17 3.74,0.07 7.32,-1.34 11.08,-1.14 0.36,-0.74 1.1,-2.22 1.47,-2.96 z"
       fill="#ca7c77"
       id="path4893" />
    <path
       d="m 164.88,157.32 c 0.76999,-1.15 1.59,-2.28 2.45,-3.38 0.64999,3 -0.92,5.83 -1.66,8.65 -1.19,4.45 -4.56,8.16 -4.49,12.94 -0.62999,1.39 -1.33,2.74 -2.09,4.06 -0.1,0.07 -0.3,0.23001 -0.39999,0.3 l 0.24,0.01 c -2.34,4.67 -5,9.19 -6.96,14.05 -0.96001,2.2 -1.63,4.58 -3.14,6.5 -0.05,0.11 -0.17,0.31 -0.23,0.41 -0.07,0.31999 -0.21001,0.96001 -0.28,1.28 -2.21,0.11 -3.09,2.42 -1.65,4.04 -0.17,0.37001 -0.5,1.1 -0.67,1.47 -1.39,-1.48 -1.87,-3.5 -0.66,-5.25 5.22,-10.44 9.54,-21.3 13.81,-32.16 2.16,-4.19 4.39,-8.36 5.73,-12.92 z"
       fill="#ec9b85"
       id="path4895" />
    <path
       d="m 43.67,157.07 c 3.39,-0.58 6.84,-0.90001 10.29,-0.8 3.72,-0.03 7.03,2.95 10.82,1.8 l 1.42,-0.32 c -1.55,1.34 -3.04,2.76 -4.53,4.17 -1.89,-0.84 -3.89,-1.38 -5.95,-1.6 -1.79,-1.9 -4.24,-2.2 -6.65,-1.39 -1.98,-0.01 -4.12,-0.12 -5.4,-1.86 z"
       fill="#c86d6d"
       id="path4897" />
    <path
       d="m 32.97,158.38 c 0.5,-0.23001 1.49,-0.70001 1.99,-0.93001 0.24,0.11 0.74,0.33 0.99,0.44 l -1.51,-0.07 c 2.8,6.34 3.82,13.34 7.19,19.43 1.12,2.86 1.32,6.06 2.95,8.74 -0.92,0.42 -1.84,0.86 -2.75,1.31 -2.29,-3.93 -4.4,-8.1 -4.76,-12.71 -1.55,-5.26 -4.76,-9.87 -5.95,-15.27 0.46,-0.23001 1.39,-0.70001 1.85,-0.94 z"
       fill="#e0ab7f"
       id="path4899" />
    <path
       d="m 77.97,157.38 c 5.65,0.03 11.57,-0.95001 16.96,1.24 1.67,-0.45999 3.4,-1.3 5.14,-0.64 3.36,1.09 6.87,0.85001 10.34,0.58 -0.27,0.51001 -0.81,1.55 -1.08,2.06 -4.42,0.83 -8.86,1.64 -13.35,1.88 -3.67,-0.39 -7.33,-1.08 -11.03,-0.56 -0.63,0.01 -1.25,0 -1.88,-0.03 -1.18,-0.51001 -2.36,-1.01 -3.54,-1.51 l 2.37,-2.16 c -1.31,-0.29001 -2.62,-0.57001 -3.93,-0.86 z"
       fill="#85383b"
       id="path4901" />
    <path
       d="m 153.36,159.87 c 3.65,-1.56 7.5,-2.79 11.52,-2.55 -1.34,4.56 -3.57,8.73 -5.73,12.92 -4.27,10.86 -8.59,21.72 -13.81,32.16 -1.21,1.75 -0.73,3.77 0.66,5.25 -1.42,3.24 -2.75,6.51 -4.17,9.74 -0.42,-0.38 -1.26,-1.14 -1.68,-1.51 -0.42,-0.38 -1.26,-1.15 -1.68,-1.53 0.10001,-0.51001 0.2,-1.03 0.31,-1.54 2.1,-5.86 6.01,-11 7.25,-17.16 0.82001,-3.77 2.26,-7.37 3.42,-11.05 0.91,-2.95 3.02,-5.38 3.64,-8.45 4.92,-2.19 5.57,-8.37 6.03,-13.1 -0.37,0.37999 -1.12,1.14 -1.5,1.52 -0.48999,-1.43 -0.97,-2.87 -1.43,-4.31 -2.61,3.98 -4.11,8.52 -5.97,12.86 -0.55,1.57 -1.87,2.61 -3.14,3.59 -0.65001,-2.6 -1.35,-5.19 -2,-7.79 -0.38,-0.17 -1.13,-0.51 -1.51,-0.67999 -0.13,0.34 -0.39002,1 -0.52,1.33 -3.4,7.01 -5.14,14.66 -6.43,22.3 -1.84,1.83 -2.86,4.28 -4.36,6.37 -0.28,-3.59 0.07,-7.26 -1,-10.75 -2.58,3.74 -5.16,7.76 -5.46,12.42 -0.95,6.81 -5.46,13.22 -3.15,20.24 -0.85,-1.07 -1.73,-2.12 -2.6,-3.17 0.11,2.59 0.3,5.18 0.59,7.76 -1.77,3.64 -3.04,7.61 -3.06,11.7 -1.91,0.37 -3.85,0.53 -5.79,0.61 0.53,-1.11 1.06,-2.21 1.61,-3.3 2.88,-3.52 1.22,-8.41 3.1,-12.33 1.62,-3.69 1.59,-7.85 3.3,-11.51 -0.2,-0.83 -0.39,-1.65 -0.59,-2.47 0.85,0.17999 1.7,0.36 2.55,0.53999 -0.63,-1.57 -1.26,-3.14 -1.88,-4.71 -1.53,0.06 -3.05,0.12 -4.57,0.17999 0.68,5.5 -1.91,10.67 -2.27,16.1 -1.09,5.26 -3.45,10.2 -4,15.58 -1.31,-0.21001 -2.61,-0.40001 -3.91,-0.60001 0.59,-0.17999 1.77,-0.53999 2.36,-0.73 -2.03,-3.63 0.29,-7.36 1.29,-10.91 1.48,-3.86 0.25,-8.03 1.23,-11.97 2.18,-0.06 2.56,-1.59 1.25,-3.24 -0.43,-3.23 -0.49,-6.5 -0.39,-9.75 -0.31,-2.86 3.67,-3.36 4,-6.01 0.18,-4.03 -2.16,-8.67 0.88,-12.15 0.38,1.25 0.79,2.5 1.22,3.75 3.65,-1.03 2.69,-5.33 4.73,-7.77 1.69,-2.31 2.64,-5.11 4.41,-7.33 1.21,-0.24 2.45,-0.27 3.68,-0.34999 0.73001,0.64999 1.46,1.29 2.19,1.94 1.03,-1.75 2.28,-3.36 3.9,-4.6 -0.61,-0.37001 -1.22,-0.73001 -1.83,-1.09 1.83,-0.98001 3.59,-2.07 5.36,-3.16 l 0.57,-0.2 c -0.23,2.66 -1.54,6.28 1.47,7.9 1.76,-2.85 3.35,-5.88 3.71,-9.27 1.61,-0.55 3.3,-0.81 5,-0.87 0.8,0.28 2.4,0.86 3.2,1.15 z"
       fill="#fbcda4"
       id="path4903" />
    <path
       d="m 28.54,158.04 c 1.47,0.22 2.95,0.34001 4.43,0.34001 -0.46,0.23999 -1.39,0.70999 -1.85,0.94 1.19,5.4 4.4,10.01 5.95,15.27 0.36,4.61 2.47,8.78 4.76,12.71 -0.61,0.81 -1.18,1.66 -1.76,2.5 -1.89,-5.45 -2.98,-11.17 -5.38,-16.45 -2.34,-4.99 -3.46,-10.48 -6.15,-15.31 z"
       fill="#ffedcc"
       id="path4905" />
    <path
       d="m 34.44,157.82 1.51,0.07 c 2.6,1.21 5,2.79 7.47,4.25 2.51,3.54 1.74,8.23 3.32,12.16 1.82,4.63 1.8,10.04 -0.26,14.54 -0.67,-0.92999 -1.31,-1.88 -1.9,-2.85 -1.63,-2.68 -1.83,-5.88 -2.95,-8.74 -3.37,-6.09 -4.39,-13.09 -7.19,-19.43 z"
       fill="#fbe4bb"
       id="path4907" />
    <path
       d="m 66.2,157.75 c 0.43,-0.14999 1.3,-0.44 1.73,-0.59 1.24,0.86 2.48,1.71 3.73,2.55 0.05,0.62 0.16,1.85 0.21,2.47 -3.04,-0.14 -6.06,0.39002 -9.02,1.07 0.32,0.27 0.96,0.82001 1.28,1.09 -0.92,0.32001 -1.83,0.64 -2.74,0.97 -0.58,-0.20999 -1.73,-0.64 -2.31,-0.84999 0.86,-0.85001 1.73,-1.7 2.59,-2.54 1.49,-1.41 2.98,-2.83 4.53,-4.17 z"
       fill="#c27b75"
       id="path4909" />
    <path
       d="m 119.84,163.19 c 4.7,-2.43 10,-3.47 15.21,-4.09 0.11,0.07 0.31999,0.20999 0.42999,0.28 0.66,0.39999 1.99,1.2 2.66,1.6 -3.85,-1.4 -7.55,-0.12999 -10.88,1.83 -3.25,-0.91 -6,1.16 -8.76,2.51 -0.71,-0.65001 -1.42,-1.3 -2.14,-1.94 -1.33,-0.65001 -2.81,-0.38 -4.22,-0.31 l -0.64,-0.52 c 0.09,-0.31 0.25,-0.92 0.33,-1.23 2.74,0.31999 5.43,0.92 8.01,1.87 z"
       fill="#653531"
       id="path4911" />
    <path
       d="m 135.05,159.1 c 0.11,0.07 0.31999,0.20999 0.42999,0.28 -0.11,-0.07 -0.31999,-0.21001 -0.42999,-0.28 z"
       fill="#ca7c77"
       id="path4913" />
    <path
       d="m 48.77,161.11 c 3.94,-2.39 7.25,1.36 10.31,3.35 0.58,0.20999 1.73,0.64 2.31,0.84999 -0.5,1.85 -1.09,3.67 -1.78,5.46 2.26,4.94 1.76,10.52 -0.41,15.4 -1.05,-3.47 -2.01,-6.98 -2.87,-10.5 -0.69,-4.63 -1.81,-9.18 -3.25,-13.63 -1.44,-0.31 -2.87,-0.62 -4.31,-0.92999 z"
       fill="#fbf3cd"
       id="path4915" />
    <path
       d="m 71.66,159.71 c 2.63,0.12999 5.28,0.17999 7.87,0.68999 1.18,0.5 2.36,1 3.54,1.51 -0.66,0.48 -2,1.45 -2.67,1.93 0.28,0.12001 0.82,0.38 1.09,0.5 l -1,0.1 c -3.08,0.45999 -5.94,-0.96001 -8.62,-2.26 -0.05,-0.62 -0.16,-1.85 -0.21,-2.47 z"
       fill="#c1665f"
       id="path4917" />
    <path
       d="m 139.98,160.96 c 0.08,-0.05 0.25,-0.14 0.34001,-0.18001 l -0.06,0.12 -0.28,0.06 z"
       fill="#fbcda4"
       id="path4919" />
    <path
       d="m 140.26,160.9 c 1.66,-0.31999 3.29,-0.78999 4.9,-1.31 -0.36,3.39 -1.95,6.42 -3.71,9.27 -3.01,-1.62 -1.7,-5.24 -1.47,-7.9 z"
       fill="#fbefdb"
       id="path4921" />
    <path
       d="m 43.42,162.14 c 1.83,-0.07 3.62,-0.46001 5.35,-1.03 1.44,0.31 2.87,0.62 4.31,0.92999 1.44,4.45 2.56,9 3.25,13.63 -0.04,3.87 -0.3,7.75 -0.41,11.62 -1.41,-8.21 -3.84,-16.16 -5.5,-24.31 -1.48,-0.1 -2.97,-0.2 -4.45,-0.28999 0.49,3.13 1.09,6.24 1.77,9.33 0.78,0.34 1.56,0.67999 2.35,1.02 0.92,3.51 2.03,7.01 2.23,10.65 0.4,-0.05 1.19,-0.16 1.59,-0.21001 -2.21,8.01 0.64,16.13 3.93,23.4 0.27,2.03 0.58,4.06 0.88,6.1 -1.1,-2.46 -2.18,-4.92 -3.14,-7.43 -2.53,-5.89 -3.46,-12.53 -7.25,-17.82 -0.18,5.05 0.99,9.99 1.69,14.96 0.17,2.07 0.02,4.29 1.23,6.1 2.17,3.6 3.18,7.7 4.48,11.65 -0.31,0.20999 -0.93,0.64 -1.24,0.84999 -4.58,-8.27 -6.26,-17.78 -11.15,-25.9 -0.38,0.12 -1.12,0.38 -1.5,0.5 -0.44,-2.07 -1.06,-4.1 -1.77,-6.09 0.58,-0.84 1.15,-1.69 1.76,-2.5 0.91,-0.45 1.83,-0.89 2.75,-1.31 0.59,0.97 1.23,1.92 1.9,2.85 2.06,-4.5 2.08,-9.91 0.26,-14.54 -1.58,-3.93 -0.81,-8.62 -3.32,-12.16 z"
       fill="#fec69b"
       id="path4923" />
    <path
       d="m 127.26,162.81 c 3.33,-1.96 7.03,-3.23 10.88,-1.83 0.32001,0.05 0.95,0.14 1.27,0.18001 -1.77,1.09 -3.53,2.18 -5.36,3.16 -1.8,0.93999 -3.85,0.95999 -5.81,1.23 -2.16,0.39 -3.67,3 -6.07,2.34 -1.46,-0.46001 -2.52,-1.63 -3.67,-2.57 2.76,-1.35 5.51,-3.42 8.76,-2.51 z"
       fill="#f8efd2"
       id="path4925" />
    <path
       d="m 150.22,173.12 c 1.86,-4.34 3.36,-8.88 5.97,-12.86 0.45999,1.44 0.94,2.88 1.43,4.31 0.38,-0.38 1.13,-1.14 1.5,-1.52 -0.45999,4.73 -1.11,10.91 -6.03,13.1 -0.62,3.07 -2.73,5.5 -3.64,8.45 -1.16,3.68 -2.6,7.28 -3.42,11.05 -0.51,0.44 -1.53,1.33 -2.04,1.77 -0.92,-2.2 -0.04,-4.17 1.47,-5.78 L 144.32,189 c 1.18,-2.01 2.71,-3.92 3.27,-6.23 0.18001,-2.03 -0.17,-4.07 -0.51,-6.06 1.27,-0.98001 2.59,-2.02 3.14,-3.59 z"
       fill="#f7bb8d"
       id="path4927" />
    <path
       d="m 62.85,163.25 c 2.96,-0.67999 5.98,-1.21 9.02,-1.07 2.68,1.3 5.54,2.72 8.62,2.26 l 1,-0.1 c 1.1,-0.04 2.24,-0.23 3.29,0.19 -1.48,0.36 -2.93,0.87 -4.37,1.36 -1.16,0.36 -2.35,0.58 -3.54,0.75 -2.23,-1 -4.27,-2.35 -6.19,-3.84 -2.21,0.37999 -4.4,0.92 -6.55,1.54 -0.32,-0.26999 -0.96,-0.81999 -1.28,-1.09 z"
       fill="#653531"
       id="path4929" />
    <path
       d="m 83.07,161.91 c 0.63,0.03 1.25,0.04 1.88,0.03 1.19,2.78 4.79,1.8 7.21,2.55 -1.52,0.34999 -3.03,0.72 -4.54,1.11 -0.71,-0.27 -2.13,-0.81001 -2.84,-1.07 -1.05,-0.42 -2.19,-0.23 -3.29,-0.19 -0.27,-0.12 -0.81,-0.37999 -1.09,-0.5 0.67,-0.48 2.01,-1.45 2.67,-1.93 z"
       fill="#994f4b"
       id="path4931" />
    <path
       d="m 45.97,162.69 c 1.48,0.09 2.97,0.19 4.45,0.28999 1.66,8.15 4.09,16.1 5.5,24.31 0.42,2.16 0.81,4.32 1.12,6.49 0.29,1.98 0.6,3.97 1.06,5.92 0.33,2.39 0.18,4.81 -0.26,7.18 -3.29,-7.27 -6.14,-15.39 -3.93,-23.4 -0.4,0.05 -1.19,0.16 -1.59,0.21001 -0.2,-3.64 -1.31,-7.14 -2.23,-10.65 -0.79,-0.34 -1.57,-0.67999 -2.35,-1.02 -0.68,-3.09 -1.28,-6.2 -1.77,-9.33 z"
       fill="#f0a375"
       id="path4933" />
    <path
       d="m 64.13,164.34 c 2.15,-0.62 4.34,-1.16 6.55,-1.54 1.92,1.49 3.96,2.84 6.19,3.84 -0.15,4.83 0.29,9.66 -0.06001,14.49 -2.44,-3.42 -2.35,-7.84 -4.55,-11.35 -0.67001,4.04 0.95,8.02 0.42,12.07 -0.31,2.79 -1.03,5.51 -1.73,8.22 -0.7,-1.09 -1.4,-2.19 -2.06,-3.31 -0.46,-6.34 0.26,-12.79 -1.17,-19.04 -1.41,-0.49 -2.81,-0.99 -4.21,-1.49 -0.56,1.56 -1.64,3.04 -1.58,4.75 1.55,11.11 0.32,22.79 4.95,33.31 0.54,3.21 0.73,6.46 0.85001,9.71 0.13,2.24 0.59,4.45 1.22,6.6 -0.96999,-1.33 -1.92,-1.69 -2.61,0.12999 0.05,-6.66 -2,-13.04 -4.41,-19.17 0.28,-3.43 -2.9,-5.47 -4.89,-7.78 -0.31,-2.17 -0.7,-4.33 -1.12,-6.49 0.11,-3.87 0.37,-7.75 0.41,-11.62 0.86,3.52 1.82,7.03 2.87,10.5 2.17,-4.88 2.67,-10.46 0.41,-15.4 0.69,-1.79 1.28,-3.61 1.78,-5.46 0.91,-0.33 1.82,-0.64999 2.74,-0.97 z"
       fill="#fdd8ac"
       id="path4935" />
    <path
       d="m 99.37,162.79 c 2.02,0.94 4,1.94 5.95,3.01 -0.65,0.1 -1.95,0.3 -2.6,0.39 -1.2,-0.65001 -2.37,-1.36 -3.5,-2.13 z"
       fill="#926152"
       id="path4937" />
    <path
       d="m 108.25,164.16 c 0.51,-1.58 1.1,-1.68 1.79,-0.29001 -0.44,0.07 -1.34,0.22 -1.79,0.29001 z"
       fill="#6a4634"
       id="path4939" />
    <path
       d="m 112.14,163.07 c 1.41,-0.07 2.89,-0.34001 4.22,0.31 -1.1,0.7 -2.22,1.39 -3.29,2.14 -1.77,4.57 -2.96,9.53 -6.22,13.33 -0.32,-4.37 -0.42,-8.78 -1.53,-13.05 0.98,-0.55 1.95,-1.09 2.93,-1.64 0.45,-0.07 1.35,-0.22 1.79,-0.29001 0.53,-0.2 1.57,-0.59999 2.1,-0.79999 z"
       fill="#fbecc4"
       id="path4941" />
    <path
       d="m 97.57,164.47 c 0.12,0.07 0.35,0.2 0.47,0.27 l -0.42,0.22 z"
       fill="#63382f"
       id="path4943" />
    <path
       d="m 99.22,164.06 c 1.13,0.77 2.3,1.48 3.5,2.13 -1.5,3.86 -2.36,7.92 -2.9,12.01 -0.7,-2.98 -2.48,-5.47 -4.49,-7.71 -0.49,-1.13 -0.98,-2.26 -1.47,-3.38 -0.88,1.54 -1.71,3.1 -2.46,4.71 -0.09,-1.49 -0.21,-2.97 -0.35,-4.45 -1.16,1.35 -1.91,2.98 -2.36,4.7 -0.67001,0.21999 -1.34,0.43999 -2.01,0.65999 -0.57,-1.51 -1.14,-3.01 -1.7,-4.51 -0.85001,0.45999 -1.69,0.91 -2.54,1.37 -0.68,-1.23 -1.35,-2.47 -2.03,-3.7 1.44,-0.49 2.89,-1 4.37,-1.36 0.71,0.26 2.13,0.8 2.84,1.07 1.46,0.57999 2.93,1.17 4.39,1.76 1.54,-0.58 3.08,-1.18 4.58,-1.84 0.26,-0.14 0.77,-0.42 1.03,-0.56 l 0.42,-0.22 c 0.29,-0.17 0.88,-0.51001 1.18,-0.68001 z"
       fill="#fff5d6"
       id="path4945" />
    <path
       d="m 113.07,165.52 c 1.07,-0.75 2.19,-1.44 3.29,-2.14 0.72,0.64 1.43,1.29 2.14,1.94 1.15,0.93999 2.21,2.11 3.67,2.57 2.4,0.66 3.91,-1.95 6.07,-2.34 1.96,-0.27 4.01,-0.29001 5.81,-1.23 0.61,0.35998 1.22,0.71999 1.83,1.09 -1.62,1.24 -2.87,2.85 -3.9,4.6 -0.73,-0.64999 -1.46,-1.29 -2.19,-1.94 -1.23,0.08 -2.47,0.10998 -3.68,0.34999 -1.77,2.22 -2.72,5.02 -4.41,7.33 -2.04,2.44 -1.08,6.74 -4.73,7.77 -0.43,-1.25 -0.84,-2.5 -1.22,-3.75 0.85,-3.03 0.92,-6.21 1.84,-9.23 0.53001,-1.29 0.13,-2.59 -0.23,-3.85 -0.49,0.14999 -1.48,0.47 -1.97,0.63 -0.78,-0.60001 -1.55,-1.2 -2.32,-1.8 z"
       fill="#ffeaba"
       id="path4947" />
    <path
       d="m 87.62,165.6 c 1.51,-0.39 3.02,-0.76001 4.54,-1.11 1.5,0.22 2.96,0.67999 4.43,1.03 -1.5,0.65999 -3.04,1.26 -4.58,1.84 -1.46,-0.59 -2.93,-1.18 -4.39,-1.76 z"
       fill="#946554"
       id="path4949" />
    <path
       d="m 63.51,166.23 c 1.4,0.5 2.8,1 4.21,1.49 1.43,6.25 0.71,12.7 1.17,19.04 -0.02,2.39 0.44,4.75 1.44,6.93 2.19,4.57 -0.32,9.73 1.36,14.43 l -0.94,0.27 c -1.5,-4.47 -0.02,-10.2 -3.7,-13.68 -0.22,3.19 -0.29,6.39 -0.17001,9.58 -4.63,-10.52 -3.4,-22.2 -4.95,-33.31 -0.06,-1.71 1.02,-3.19 1.58,-4.75 z"
       fill="#f8aa88"
       id="path4951" />
    <path
       d="m 76.87,166.64 c 1.19,-0.17 2.38,-0.39 3.54,-0.75 0.67999,1.23 1.35,2.47 2.03,3.7 0.85,-0.45999 1.69,-0.91 2.54,-1.37 0.56,1.5 1.13,3 1.7,4.51 0.67,-0.22 1.34,-0.44 2.01,-0.65999 -1.98,6.44 -0.34,13.28 -2.01,19.77 -0.63,-0.01 -1.89,-0.02 -2.52,-0.03 -0.2,-6.87 2.9,-13.88 0.41,-20.59 -1.44,0.59 -2.88,1.17 -4.33,1.73 -3.61,5.49 -0.92,12.27 -2.82,18.23 -0.8,-3.29 -0.74,-6.69 -0.61,-10.05 0.35001,-4.83 -0.09,-9.66 0.06001,-14.49 z"
       fill="#ffe5bc"
       id="path4953" />
    <path
       d="m 102.72,166.19 c 0.65,-0.09 1.95,-0.29001 2.6,-0.39 1.11,4.27 1.21,8.68 1.53,13.05 3.26,-3.8 4.45,-8.76 6.22,-13.33 0.77,0.59999 1.54,1.2 2.32,1.8 0.49,-0.16 1.48,-0.48001 1.97,-0.63 0.36,1.26 0.76,2.56 0.23,3.85 -0.92,3.02 -0.99,6.2 -1.84,9.23 -3.04,3.48 -0.7,8.12 -0.88,12.15 -0.33,2.65 -4.31,3.15 -4,6.01 -0.10001,3.25 -0.04,6.52 0.39,9.75 -1.4,-0.2 -2.8,-0.37 -4.2,-0.53999 -0.56,1.14 -1.14,2.28 -1.64,3.45 -1.43,4.48 -2.25,9.11 -2.91,13.76 -0.55,4.33 -2.36,8.37 -2.87,12.72 -1.24,-0.03 -2.47,-0.05 -3.71,-0.06 1.01,-4.12 1.34,-8.36 1.93,-12.55 1.06,-1.83 1.75,-3.83 1.78,-5.96 0.58,-0.72 1.17,-1.43 1.77,-2.14 -0.3,-0.39 -0.88,-1.19 -1.18,-1.59 0.3,-4.01 2.53,-8.99 -1.05,-12.13 -3.09,4.75 -1.81,10.66 -3.71,15.79 -1.98,5.99 -2.76,12.28 -3.62,18.5 -1.13,-0.05 -2.26,-0.10998 -3.39,-0.18999 0.68,-5.54 2.81,-10.97 2.19,-16.62 -0.47,-6.72 -0.2,-13.47 -0.99,-20.17 -0.10001,-1.13 -0.7,-2.12 -1.13,-3.13 -0.96,3.5 -1.28,7.13 -1.75,10.72 -0.98,-0.37999 -1.97,-0.73999 -2.96,-1.07 -0.88,0.56 -1.75,1.13 -2.62,1.7 -0.8,-3.84 -0.48,-7.88 -1.85,-11.6 -1.55,9.05 -0.41,18.32 0.71,27.35 0.43,3.97 -1.03,8.24 1.02,11.93 l -0.13,0.24 c -4.73,-0.07 -9.37,-1.19 -14.11,-1.19 0.01,-0.64 0.03001,-1.92 0.04,-2.56 2.23,1.28 4.76,1.74 7.29,1.99 -0.61,-3.6 -1.41,-7.37 -0.02,-10.89 -1.63,-4.97 -0.46,-10.41 -2.46,-15.32 -1.68,-4.7 0.82999,-9.86 -1.36,-14.43 -1,-2.18 -1.46,-4.54 -1.44,-6.93 0.66,1.12 1.36,2.22 2.06,3.31 0.7,-2.71 1.42,-5.43 1.73,-8.22 0.53,-4.05 -1.09,-8.03 -0.42,-12.07 2.2,3.51 2.11,7.93 4.55,11.35 -0.13,3.36 -0.19,6.76 0.61,10.05 1.9,-5.96 -0.79,-12.74 2.82,-18.23 1.45,-0.56 2.89,-1.14 4.33,-1.73 2.49,6.71 -0.61,13.72 -0.41,20.59 0.63,0.01 1.89,0.02 2.52,0.03 1.67,-6.49 0.03,-13.33 2.01,-19.77 0.45,-1.72 1.2,-3.35 2.36,-4.7 0.14,1.48 0.26,2.96 0.35,4.45 0.75,-1.61 1.58,-3.17 2.46,-4.71 0.49,1.12 0.98,2.25 1.47,3.38 -0.19,3.51 0.14,7.02 0.57,10.5 0.61,4.47 -2.17,9.54 1.17,13.41 1.57,-5.27 2.13,-10.76 2.75,-16.2 0.54,-4.09 1.4,-8.15 2.9,-12.01 z"
       fill="#f9c49b"
       id="path4955" />
    <path
       d="m 143.57,168.24 c 0.37999,0.17 1.13,0.51 1.51,0.67999 0.64999,2.6 1.35,5.19 2,7.79 0.34,1.99 0.69,4.03 0.51,6.06 -0.56,2.31 -2.09,4.22 -3.27,6.23 0.37999,0.88 0.76,1.76 1.14,2.64 -1.51,1.61 -2.39,3.58 -1.47,5.78 -3.47,4.22 -6.93,9.72 -5.21,15.39 -0.11,0.51001 -0.20999,1.03 -0.31,1.54 0.42,0.37999 1.26,1.15 1.68,1.53 -1.09,0.26999 -2.18,0.54999 -3.27,0.84 -0.17,-1.46 -0.33,-2.91 -0.5,-4.36 -1.09,0.56999 -2.18,1.14 -3.27,1.72 0.37,-1.04 0.76,-2.06 1.17,-3.08 1.75,-2.96 3.88,-5.87 4.37,-9.36 0.36,-3.06 -0.65999,-6.04 -1.9,-8.78 -1.55,4.71 -3.1,9.46 -3.71,14.41 -1.52,6.82 -5.05,12.98 -6.7,19.76 -0.19,-0.39999 -0.57,-1.2 -0.75,-1.6 -0.92999,-0.02 -1.86,-0.02 -2.78,0 0.11,-0.34999 0.34,-1.04 0.45,-1.38 0.24,-0.11 0.71,-0.32001 0.95,-0.43001 -0.04,-5.44 2.91,-10.23 3.73,-15.52 0.47,-2.59 0.76,-5.2 1.08,-7.8 -0.81,-0.10001 -2.41,-0.29001 -3.22,-0.39 0.3,-4.66 2.88,-8.68 5.46,-12.42 1.07,3.49 0.72,7.16 1,10.75 1.5,-2.09 2.52,-4.54 4.36,-6.37 3.53,-2.61 3.13,-7.33 4.33,-11.11 1.18,-3.63 1.95,-7.37 2.1,-11.19 0.12999,-0.33 0.39,-0.99 0.52,-1.33 z"
       fill="#ffc398"
       id="path4957" />
    <path
       d="m 121.71,178.38 c 2.79,-2.09 2.81,-5.96 5.18,-8.36 -0.16,2.25 -0.78,4.43 -1.49,6.57 0.46,0.36 1.38,1.1 1.84,1.46 -0.5,1.61 -0.99,3.23 -1.49,4.84 -0.51,-0.92999 -1.01,-1.85 -1.52,-2.77 -1.51,2.2 0.69,5.97 -2.33,7.04 -0.26,-2.92 0.13,-5.86 -0.19,-8.78 z"
       fill="#efb990"
       id="path4959" />
    <path
       d="m 136.62,191.87 c 1.29,-7.64 3.03,-15.29 6.43,-22.3 -0.15001,3.82 -0.92,7.56 -2.1,11.19 -1.2,3.78 -0.8,8.5 -4.33,11.11 z"
       fill="#ebb58a"
       id="path4961" />
    <path
       d="m 95.33,170.49 c 2.01,2.24 3.79,4.73 4.49,7.71 -0.62,5.44 -1.18,10.93 -2.75,16.2 -3.34,-3.87 -0.56,-8.94 -1.17,-13.41 -0.43,-3.48 -0.76,-6.99 -0.57,-10.5 z"
       fill="#ffe0b3"
       id="path4963" />
    <path
       d="m 158.69,179.89 c 0.1,-0.07 0.3,-0.23 0.39999,-0.3 l -0.16,0.31 -0.24,-0.01 z"
       fill="#ffdbc7"
       id="path4965" />
    <path
       d="m 48.33,187.73 c 3.79,5.29 4.72,11.93 7.25,17.82 -0.8,0.76 -1.59,1.51 -2.38,2.27 -0.14,-1.6 -0.27,-3.21 -0.41,-4.81 -0.45,0.92 -0.91,1.84 -1.37,2.75 -0.47,-1.02 -0.95,-2.04 -1.4,-3.07 -0.7,-4.97 -1.87,-9.91 -1.69,-14.96 z"
       fill="#dd9775"
       id="path4967" />
    <path
       d="m 136.75,192.86 c 1.24,2.74 2.26,5.72 1.9,8.78 -0.48999,3.49 -2.62,6.4 -4.37,9.36 -0.44,-1.24 -0.85001,-2.48 -1.24,-3.73 0.61,-4.95 2.16,-9.7 3.71,-14.41 z"
       fill="#f0a480"
       id="path4969" />
    <path
       d="m 57.04,193.78 c 1.99,2.31 5.17,4.35 4.89,7.78 -0.71,2.1 -1.2,4.27 -1.37,6.49 -0.33,-2.91 -1.26,-5.69 -2.46,-8.35 -0.46,-1.95 -0.77,-3.94 -1.06,-5.92 z"
       fill="#f1ba96"
       id="path4971" />
    <path
       d="m 41.84,195.89 c 0.38,-0.12 1.12,-0.38 1.5,-0.5 4.89,8.12 6.57,17.63 11.15,25.9 0.1,0.68001 0.17,1.37 0.22,2.06 l -2.4,3.12 c -1.4,-2.71 -2.53,-5.54 -3.64,-8.37 -0.28,0.1 -0.84,0.29999 -1.12,0.39999 l -0.31,0.11 c 0.04,-0.16 0.12,-0.48 0.15,-0.64 0.48,-1.43 0.58,-2.94 0,-4.35 -1.89,-5.9 -4.63,-11.55 -5.55,-17.73 z"
       fill="#d89e8b"
       id="path4973" />
    <path
       d="m 67.05,194.71 c 3.68,3.48 2.2,9.21 3.7,13.68 0.58,2.62 0.51,5.31 -0.64,7.76 -0.8,-0.72 -1.59,-1.43 -2.38,-2.15 -0.12,-3.25 -0.31,-6.5 -0.85001,-9.71 -0.12,-3.19 -0.05,-6.39 0.17001,-9.58 z"
       fill="#d18c69"
       id="path4975" />
    <path
       d="m 143.99,197.42 c 0.51,-0.44 1.53,-1.33 2.04,-1.77 -1.24,6.16 -5.15,11.3 -7.25,17.16 -1.72,-5.67 1.74,-11.17 5.21,-15.39 z"
       fill="#eca580"
       id="path4977" />
    <path
       d="m 79.35,196.57 c 1.37,3.72 1.05,7.76 1.85,11.6 1.98,6.17 -0.07999,12.56 0.81,18.83 0.12,2.95 0.95,6.25 -0.93,8.85 -2.05,-3.69 -0.59,-7.96 -1.02,-11.93 -1.12,-9.03 -2.26,-18.3 -0.71,-27.35 z"
       fill="#e89877"
       id="path4979" />
    <path
       d="m 88.53,196.82 c 0.43,1.01 1.03,2 1.13,3.13 0.78999,6.7 0.52,13.45 0.99,20.17 0.62,5.65 -1.51,11.08 -2.19,16.62 -0.6,-0.05 -1.81,-0.15001 -2.41,-0.20001 -0.23,-2.5 -0.81,-5.31 1.21,-7.26 1.48,-1.41 1.52,-3.23 0.89,-5.06 l -2.07,1.53 c -0.08,-6.08 -0.59,-12.21 0.7,-18.21 0.47,-3.59 0.79,-7.22 1.75,-10.72 z"
       fill="#ea9e81"
       id="path4981" />
    <path
       d="m 58.1,199.7 c 1.2,2.66 2.13,5.44 2.46,8.35 0.17,-2.22 0.66,-4.39 1.37,-6.49 2.41,6.13 4.46,12.51 4.41,19.17 0.69,-1.82 1.64,-1.46 2.61,-0.12999 -0.63,-2.15 -1.09,-4.36 -1.22,-6.6 0.78999,0.72 1.58,1.43 2.38,2.15 1.15,-2.45 1.22,-5.14 0.64,-7.76 l 0.94,-0.27 c 2,4.91 0.82999,10.35 2.46,15.32 -1.39,3.52 -0.59,7.29 0.02,10.89 -2.53,-0.25 -5.06,-0.71001 -7.29,-1.99 -0.01,0.64 -0.03,1.92 -0.04,2.56 -2.64,-0.76 -5.19,-1.82 -7.66,-3.03 -0.17,-1.54 -0.28,-3.09 -0.62,-4.61 -0.79,-1.45 -2.59,-0.62999 -3.82,-0.54999 0,-1.12 -0.01,-2.25 -0.03,-3.36 -0.05,-0.69 -0.12,-1.38 -0.22,-2.06 0.31,-0.20999 0.93,-0.64 1.24,-0.84999 -1.3,-3.95 -2.31,-8.05 -4.48,-11.65 -1.21,-1.81 -1.06,-4.03 -1.23,-6.1 0.45,1.03 0.93,2.05 1.4,3.07 0.46,-0.90999 0.92,-1.83 1.37,-2.75 0.14,1.6 0.27,3.21 0.41,4.81 0.79,-0.76001 1.58,-1.51 2.38,-2.27 0.96,2.51 2.04,4.97 3.14,7.43 -0.3,-2.04 -0.61,-4.07 -0.88,-6.1 0.44,-2.37 0.59,-4.79 0.26,-7.18 z"
       fill="#eca48a"
       id="path4983" />
    <path
       d="m 125.8,199.91 c 0.81,0.1 2.41,0.28999 3.22,0.39 -0.32001,2.6 -0.61,5.21 -1.08,7.8 -0.82,5.29 -3.77,10.08 -3.73,15.52 -0.24,0.11 -0.71,0.32001 -0.95,0.43001 -0.65,0.17 -1.96,0.52 -2.62,0.69 -0.29,-2.58 -0.48,-5.17 -0.59,-7.76 0.87,1.05 1.75,2.1 2.6,3.17 -2.31,-7.02 2.2,-13.43 3.15,-20.24 z"
       fill="#f5b08c"
       id="path4985" />
    <path
       d="m 148.6,200.86 c 0.06,-0.10001 0.17999,-0.3 0.23,-0.41 z"
       fill="#ffdfcb"
       id="path4987" />
    <path
       d="m 146.67,206.18 c -1.44,-1.62 -0.56,-3.93 1.65,-4.04 -0.27,1.44 -0.91,2.78 -1.65,4.04 z"
       fill="#fcd8ce"
       id="path4989" />
    <path
       d="m 99.18,202.64 c 3.58,3.14 1.35,8.12 1.05,12.13 0.3,0.39999 0.88,1.2 1.18,1.59 -0.60001,0.71001 -1.19,1.42 -1.77,2.14 -0.03,2.13 -0.72,4.13 -1.78,5.96 -0.46,-2.13 -1.08,-4.26 -2.39,-6.03 1.9,-5.13 0.62,-11.04 3.71,-15.79 z"
       fill="#e6a688"
       id="path4991" />
    <path
       d="m 115.31,203.45 c 1.52,-0.06 3.04,-0.12 4.57,-0.17999 0.62,1.57 1.25,3.14 1.88,4.71 -0.85,-0.17999 -1.7,-0.36 -2.55,-0.53999 0.2,0.81999 0.39,1.64 0.59,2.47 -1.71,3.66 -1.68,7.82 -3.3,11.51 -1.88,3.92 -0.22,8.81 -3.1,12.33 -0.62,-4.75 1.51,-9.62 -0.36,-14.2 0.36,-5.43 2.95,-10.6 2.27,-16.1 z"
       fill="#f1b490"
       id="path4993" />
    <path
       d="m 81.2,208.17 c 0.87,-0.56999 1.74,-1.14 2.62,-1.7 0.99,0.33 1.98,0.69 2.96,1.07 -1.29,6 -0.78,12.13 -0.7,18.21 l 2.07,-1.53 c 0.63,1.83 0.59,3.65 -0.89,5.06 -2.02,1.95 -1.44,4.76 -1.21,7.26 -1.7,-0.17 -3.4,-0.36 -5.1,-0.45 l 0.13,-0.24 c 1.88,-2.6 1.05,-5.9 0.93,-8.85 -0.89,-6.27 1.17,-12.66 -0.81,-18.83 z"
       fill="#f6b896"
       id="path4995" />
    <path
       d="m 107.06,207.14 c 1.4,0.17 2.8,0.34 4.2,0.53999 1.31,1.65 0.93,3.18 -1.25,3.24 -0.98,3.94 0.25,8.11 -1.23,11.97 -1,3.55 -3.32,7.28 -1.29,10.91 -0.59,0.19 -1.77,0.55 -2.36,0.73 1.3,0.2 2.6,0.39 3.91,0.60001 l -0.13,1.28 c -1.2,-0.63 -2.15,-0.31 -2.85,0.98 -1.42,-0.09 -2.83,-0.17999 -4.25,-0.26 1.52,-2.52 1.93,-5.42 1.9,-8.31 0.8,-6.01 4.01,-12.17 1.71,-18.23 0.5,-1.17 1.08,-2.31 1.64,-3.45 z"
       fill="#f4b899"
       id="path4997" />
    <path
       d="m 133.04,207.27 c 0.39,1.25 0.8,2.49 1.24,3.73 -0.41,1.02 -0.8,2.04 -1.17,3.08 -0.8,5.34 -2.13,10.61 -5.29,15.1 0.34,1.31 0.68,2.62 1.02,3.94 -1.3,0.29001 -2.6,0.59001 -3.86,1.02 0.39999,-2.38 0.88,-4.75 1.36,-7.11 1.65,-6.78 5.18,-12.94 6.7,-19.76 z"
       fill="#d39b7d"
       id="path4999" />
    <path
       d="m 105.42,210.59 c 2.3,6.06 -0.91,12.22 -1.71,18.23 0.03,2.89 -0.38,5.79 -1.9,8.31 -0.54,-0.02 -1.62,-0.05 -2.17,-0.06 0.51,-4.35 2.32,-8.39 2.87,-12.72 0.66,-4.65 1.48,-9.28 2.91,-13.76 z"
       fill="#dca482"
       id="path5001" />
    <path
       d="m 133.11,214.08 c 1.09,-0.58 2.18,-1.15 3.27,-1.72 0.17,1.45 0.33,2.9 0.5,4.36 1.09,-0.29001 2.18,-0.57001 3.27,-0.84 0.42001,0.37 1.26,1.13 1.68,1.51 -1.99,3.92 -3.04,8.26 -5.14,12.12 -2.16,1.98 -5.01,3.04 -7.85,3.61 -0.34,-1.32 -0.67999,-2.63 -1.02,-3.94 3.16,-4.49 4.49,-9.76 5.29,-15.1 z"
       fill="#f9b7a1"
       id="path5003" />
    <path
       d="m 95.47,218.43 c 1.31,1.77 1.93,3.9 2.39,6.03 -0.59,4.19 -0.92,8.43 -1.93,12.55 -1.36,-0.02 -2.72,-0.05 -4.08,-0.08 0.86,-6.22 1.64,-12.51 3.62,-18.5 z"
       fill="#d9977e"
       id="path5005" />
    <path
       d="m 113.04,219.55 c 1.87,4.58 -0.26,9.45 0.36,14.2 -0.55,1.09 -1.08,2.19 -1.61,3.3 -0.74,0.04 -2.22,0.12 -2.96,0.16 l 0.08,-0.8 0.13,-1.28 c 0.55,-5.38 2.91,-10.32 4,-15.58 z"
       fill="#d39573"
       id="path5007" />
    <path
       d="m 52.31,226.47 2.4,-3.12 c 0.02,1.11 0.03,2.24 0.03,3.36 1.23,-0.08 3.03,-0.90001 3.82,0.54999 0.34,1.52 0.45,3.07 0.62,4.61 -2.66,-1.26 -5.18,-2.95 -6.87,-5.4 z"
       fill="#ca7c77"
       id="path5009" />
    <path
       d="m 120.64,224.74 c 0.66,-0.17 1.97,-0.52 2.62,-0.69 -0.11,0.34 -0.34,1.03 -0.45,1.38 -0.93,3.09 -1.72,6.23 -2.37,9.39 -0.43,0.34999 -1.29,1.04 -1.72,1.39 l -1.14,0.23 c 0.02,-4.09 1.29,-8.06 3.06,-11.7 z"
       fill="#daa183"
       id="path5011" />
    <path
       d="m 122.81,225.43 c 0.92001,-0.02 1.85,-0.02 2.78,0 0.18,0.40001 0.56,1.2 0.75,1.6 -0.48,2.36 -0.96,4.73 -1.36,7.11 -2,0.94 -4.07,1.75 -6.26,2.07 0.43,-0.35001 1.29,-1.04 1.72,-1.39 0.64999,-3.16 1.44,-6.3 2.37,-9.39 z"
       fill="#ffc9ac"
       id="path5013" />
    <path
       d="m 106.06,237.39 c 0.7,-1.29 1.65,-1.61 2.85,-0.98 l -0.08,0.8 c -0.69,0.05 -2.08,0.14 -2.77,0.17999 z"
       fill="#ffdbca"
       id="path5015" />
  </g>
</svg>
