<?xml version="1.0" encoding="UTF-8"?>
<svg viewBox="0 0 744.09 1052.4" xmlns="http://www.w3.org/2000/svg" xmlns:xlink="http://www.w3.org/1999/xlink">
 <defs>
  <linearGradient id="ap" x1=".40057" x2=".33708" y1="-.31736" y2="1" xlink:href="#a"/>
  <linearGradient id="am" x1="-.008677" x2="1.6352" y1=".71176" y2="2.1685" xlink:href="#b"/>
  <linearGradient id="av" x1="-.053943" x2="1.0541" y1=".49997" y2=".49997" xlink:href="#a"/>
  <linearGradient id="au" x1="-.053978" x2="1.054" y1=".49998" y2=".49998" xlink:href="#a"/>
  <linearGradient id="al" x1="-.008422" x2="1.5874" y1=".71176" y2="2.1685" xlink:href="#b"/>
  <linearGradient id="at" x1="-.008472" x2="1.5967" y1=".73508" y2="1.8566" xlink:href="#b"/>
  <linearGradient id="aj" x1="-1.3113" x2=".33809" y1=".12967" y2=".72828" xlink:href="#ai"/>
  <linearGradient id="ak" x1=".5" x2=".5" y1=".644" y2=".057096">
   <stop stop-color="#e6e6e6" offset="0"/>
   <stop stop-color="#fffdf8" offset="1"/>
  </linearGradient>
  <linearGradient id="aw" x1="-.053952" x2="1.0541" y1=".49996" y2=".49996" xlink:href="#a"/>
  <linearGradient id="ax" x1="-.053996" x2="1.054" y1=".49999" y2=".49999" xlink:href="#a"/>
  <linearGradient id="bc" x1="-.053934" x2="1.0541" y1=".49999" y2=".49999" xlink:href="#a"/>
  <linearGradient id="ao" x1="-1.1925" x2="1.5427" y1=".94741" y2="-.038109" xlink:href="#ai"/>
  <linearGradient id="bb" x1="-.053952" x2="1.0541" y1=".50001" y2=".50001" xlink:href="#a"/>
  <linearGradient id="ba" x1="-.053943" x2="1.0541" y1=".5" y2=".5" xlink:href="#a"/>
  <linearGradient id="an" x1="-.05397" x2="1.0541" y1=".49999" y2=".49999" xlink:href="#a"/>
  <linearGradient id="az" x1="-.05397" x2="1.0541" y1=".5" y2=".5" xlink:href="#a"/>
  <linearGradient id="ay" x1="-.053943" x2="1.0541" y1=".50001" y2=".50001" xlink:href="#a"/>
  <linearGradient id="bf" x1="-.008473" x2="1.5967" y1=".73508" y2="1.8566" xlink:href="#b"/>
  <linearGradient id="b">
   <stop stop-color="#d3dddd" offset="0"/>
   <stop stop-color="#eddded" stop-opacity="0" offset="1"/>
  </linearGradient>
  <linearGradient id="a">
   <stop stop-color="#fff" offset="0"/>
   <stop stop-color="#fff" stop-opacity="0" offset="1"/>
  </linearGradient>
  <linearGradient id="ai">
   <stop stop-color="#ccc" stop-opacity=".555" offset="0"/>
   <stop stop-color="#ccc" stop-opacity="0" offset="1"/>
  </linearGradient>
  <linearGradient id="ah">
   <stop stop-color="#616161" offset="0"/>
   <stop offset="1"/>
  </linearGradient>
  <linearGradient id="bg" x1="-.053939" x2="1.0541" y1=".49997" y2=".49997" xlink:href="#a"/>
  <linearGradient id="as" x1="-.05393" x2="1.0541" y1=".49999" y2=".49999" xlink:href="#a"/>
  <linearGradient id="ar" x1="-.053937" x2="1.0541" y1=".50001" y2=".50001" xlink:href="#a"/>
  <linearGradient id="aq" x1="-.053933" x2="1.0541" y1=".5" y2=".5" xlink:href="#a"/>
  <linearGradient id="bl" x1="-.053957" x2="1.0541" y1=".5" y2=".5" xlink:href="#a"/>
  <linearGradient id="bk" x1="-.053935" x2="1.0541" y1=".50002" y2=".50002" xlink:href="#a"/>
  <linearGradient id="bh" x1="-.053948" x2="1.0541" y1=".49996" y2=".49996" xlink:href="#a"/>
  <linearGradient id="bj" x1="-.05396" x2="1.0541" y1=".49999" y2=".49999" xlink:href="#a"/>
  <linearGradient id="bi" x1="-.053985" x2="1.054" y1=".49999" y2=".49999" xlink:href="#a"/>
  <radialGradient id="be" cx="443.04" cy="84.005" r="52.418" gradientTransform="matrix(-.37372 -.37408 .48002 -.47954 645.4 301.93)" gradientUnits="userSpaceOnUse" xlink:href="#ah" spreadMethod="reflect"/>
  <radialGradient id="bd" cx="443.04" cy="84.005" r="52.418" gradientTransform="matrix(-.37372 -.37408 .48002 -.47954 322.67 301.93)" gradientUnits="userSpaceOnUse" xlink:href="#ah" spreadMethod="reflect"/>
 </defs>
 <g stroke-linecap="round">
  <g fill-rule="evenodd" stroke-width="4">
   <path d="m155.93 323.83c-10.381 40.822-48.601 67.816-54.428 111.13-7.8859 58.617-3.0603 112.68 1.9888 175.86 5.1185 64.048 17.29 144.26-2.4772 214.37-6.5591 33.938-9.0862 78.718 22.863 100.94 34.905 22.441 78.946 21.988 118.96 20.32 29.368-3.0529 62.715-10.856 81.426-35.306 21.024-41.824 5.0585-88.803-3.6149-131.47-3.3867-63.215 7.827-126.77 10.032-189.05 2.2053-62.281 12.677-125.57-4.5689-184.79-9.8825-33.936-45.49-58.297-49.496-93.54-0.99377-14.836-2.4606-28.282-4.3293-40.384-36.293-3.6924-72.217-4.8024-107.32-0.18405-5.3481 18.149-6.1243 28.166-9.0346 52.104z" fill="#c2ff00"/>
   <path d="m172.18 193.78c-7.5553 33.743-12.27 85.688-16.247 130.05-10.381 40.822-48.601 67.816-54.428 111.13-7.8859 58.617-3.0603 112.68 1.9888 175.86 5.1185 64.048 17.29 144.26-2.4772 214.37-6.5591 33.938-9.0862 78.718 22.863 100.94 34.905 22.441 78.946 21.988 118.96 20.32 29.368-3.0529 62.715-10.856 81.426-35.306 21.024-41.824 5.0585-88.803-3.6149-131.47-3.3867-63.215 7.827-126.77 10.032-189.05 2.2053-62.281 12.677-125.57-4.5689-184.79-9.8825-33.936-45.49-58.297-49.496-93.54-4.0059-39.252-8.458-74.881-16.658-114.78-1.8062-4.8202 5.7684-6.4312 3.1306-7.7863-22.601-11.611-67.319-10.449-92.766 0.62842-1.8027 0.51141-0.78711 3.0873 1.8536 3.421z" fill="url(#ak)" opacity=".478" stroke="#464746"/>
  </g>
  <g stroke-width="2.1">
   <path d="m262.62 190.16a46.169 11.976 0 1 1 -92.339 0 46.169 11.976 0 1 1 92.339 0z" fill="#e0e1dc"/>
   <path d="m257.41 187.04a39.4 10.588 0 1 1 -78.8 0 39.4 10.588 0 1 1 78.8 0z" fill="#c2bab9"/>
  </g>
 </g>
 <path d="m169.93 190.34c-1.1571-1.1571-2.3143-2.3142-3.4714-3.4714-0.11572-2.8928-0.23144-5.7856-0.34717-8.6785-0.69421-0.69428-1.3886-1.3886-2.0828-2.0828 1.1571-2.7771 2.3142-5.5542 3.4713-8.3313 1.0414-0.81 2.0829-1.62 3.1243-2.43 0 0-3.4714-2.4299-3.8185-4.5128-0.34717-2.0828-0.69434-3.8185 0.69421-5.2071s2.43-1.7357 2.43-1.7357-3.1242-4.8599-2.7771-7.637c0.34711-2.7771 4.1656-6.5956 4.1656-6.5956 0.11572-1.5043 0.23144-3.0085 0.34717-4.5128 0 0 1.7647-1.364 3.8185-3.8185 1.7427-2.0828 23.16-6.5956 28.465-7.2899 4.1874-0.54797 18.051 0 23.953 0.34717 5.9014 0.34711 23.258 3.4714 26.382 4.1656 3.1243 0.69428 6.2485 4.8599 6.2485 4.8599 0.11566 1.3886 0.23138 2.7771 0.34711 4.1656 0 0 2.0828 1.7357 3.4714 2.7771s3.1243 6.5956 3.1243 6.5956c-0.34717 1.0414-0.69428 2.0828-1.0414 3.1243l0.34717 3.4714c-1.1572 1.3886-2.3143 2.7771-3.4714 4.1656 0 0-0.69428 0.69428 1.0414 2.43s2.43 5.207 2.0828 6.5956c-0.34711 1.3886-1.3886 1.7357-1.3886 1.7357 1.1571 1.9671 2.3143 3.9342 3.4714 5.9014 0.19 2.8514 0.67596 5.9988 0 7.9841 0 0-3.8185 7.6371-4.8599 7.9842-1.0414 0.34717-5.5542-5.5542-24.647-6.2485-20.999-1.4605-39.293-1.1021-48.252 0.69428-9.7198 1.7357-19.44 6.9428-20.828 5.5542z" fill="url(#bd)" fill-rule="evenodd"/>
 <g stroke-linecap="round">
  <g stroke-width="2.1">
   <g fill="none">
    <path d="m170.28 176.8s17.357-11.108 59.014-9.0256c26.012 1.3115 34.02 9.7199 34.02 9.7199" stroke="url(#bf)"/>
    <path d="m172.15 163.43s17.704-11.053 59.361-8.0579c26.012 1.881 33.672 10.789 33.672 10.789" stroke="url(#al)"/>
    <path d="m171.46 151.63s15.968-11.053 57.625-8.0579c26.012 1.881 35.408 10.789 35.408 10.789" stroke="url(#am)"/>
   </g>
   <rect transform="rotate(-2.134)" x="179.74" y="167.96" width="3.4713" height="4.1657" rx=".030989" ry=".030989" fill="url(#an)" opacity=".713"/>
   <rect transform="rotate(-2.134)" x="186.1" y="166.57" width="3.4713" height="4.1657" rx=".030989" ry=".030989" fill="url(#bg)" opacity=".713"/>
   <rect transform="rotate(-2.134)" x="192.16" y="165.52" width="3.4713" height="4.1657" rx=".030989" ry=".030989" fill="url(#bh)" opacity=".713"/>
   <rect transform="rotate(-2.134)" x="198.83" y="165.88" width="3.4713" height="4.1657" rx=".030989" ry=".030989" fill="url(#bi)" opacity=".713"/>
   <rect transform="rotate(-3.462)" x="167.81" y="150.24" width="3.4713" height="4.1657" rx=".030989" ry=".030989" fill="url(#bj)" opacity=".713"/>
   <rect transform="rotate(-3.462)" x="175.17" y="148.5" width="3.4713" height="4.1657" rx=".030989" ry=".030989" fill="url(#bk)" opacity=".713"/>
   <rect transform="rotate(-3.462)" x="182.52" y="147.11" width="3.4713" height="4.1657" rx=".030989" ry=".030989" fill="url(#bl)" opacity=".713"/>
   <rect transform="rotate(-3.462)" x="189.88" y="146.42" width="3.4713" height="4.1657" rx=".030989" ry=".030989" fill="url(#aq)" opacity=".713"/>
   <rect transform="rotate(-3.462)" x="197.24" y="146.07" width="3.4713" height="4.1657" rx=".030989" ry=".030989" fill="url(#ar)" opacity=".713"/>
   <rect transform="rotate(-3.462)" x="204.6" y="145.72" width="3.4713" height="4.1657" rx=".030989" ry=".030989" fill="url(#as)" opacity=".713"/>
  </g>
  <path d="m135.89 396.82c-45.448 109.16-8.3162 226.01-2.5123 346.37 2.949 61.153-32.124 122.1 2.615 153.74 34.739 31.638 117.31 26.11 163.4 5.6617 48.541-52.107-0.76605-73.072 4.0422-171.51 5.175-103.98 21.081-195.8 11.427-296.03-10.928-113.46-140.22-131.3-178.97-38.229z" fill="#c2ef00" fill-rule="evenodd" stroke-width="4"/>
 </g>
 <g fill-rule="evenodd">
  <path d="m113.34 915.61c62.681 29.646 151.57 29.118 209.74-6.4193 6.2956-1.3307-8.5821 12.578-10.24 14.227-39.967 29.009-106.79 29.323-153.02 16.159-15.271-5.1646-37.942-8.5008-46.472-23.966z" fill="#c2b700"/>
  <path d="m178.58 195.11c-3.6517 49.241-8.7319 98.36-13.518 147.5-14.215 23.626-16.162-0.78409-9.5832-19.597 10.52-39.275 13.253-80.134 16.022-120.46 0.75635-3.4581 3.2546-7.0254 7.0795-7.4379z" fill="url(#ao)"/>
  <path d="m254.63 190.28c3.6517 49.242 4.34 97.043 9.1259 146.18 2.4991-1.6609 10.773 4.5251 14.103 11.892 11.331 8.5837 28.248 21.742 1.1896-24.022-10.52-39.275-14.57-86.282-17.339-126.61-0.75635-3.458-3.2546-7.0254-7.0795-7.4379z" fill="url(#aj)"/>
  <path d="m164.28 608.93c12.041 43.907 4.4473 206.24 16.592 82.75 5.1531-87.542 18.057-332.16 13.36-290.11-17.18 68.729-28.254 137.98-29.952 207.36z" fill="#fff" opacity=".368"/>
 </g>
 <path d="m310.58 885.45a95.214 28.503 0 1 1 -190.43 0 95.214 28.503 0 1 1 190.43 0z" fill="#c2de00" opacity=".368" stroke-linecap="round" stroke-opacity=".555" stroke-width="4"/>
 <g fill-rule="evenodd">
  <path d="m127.58 569.91c2.9007 88.582 21.308 184.56-5.2596 268.11-26.567 83.552 20.978 36.121 33.263-29.751 19.968-107.07-18.85-149.2 6.6152-294.5 12.22-69.726 19.914-88.982 5.5164-114.61-21.003-37.389-45.418 9.4129-40.135 170.76z" fill="#fff" opacity=".301"/>
  <path d="m181.35 346.67c5.159 2.5443 21.763 2.5369 32.072 0 13.433-3.3057 22.258 2.7954 31.436 10.022 8.5858 6.7612 11.017 15.916 10.5 24.054-0.78503 12.368-10.386 13.536-17.308 20.045-6.0894 5.726-21.144 0.46762-25.931-2.0045-8.3644-4.3193-12.912-5.6323-21.413-10.022-7.2362-3.7367-16.638-4.4514-23.545-8.018-11.45-5.9127-11.138-12.146-2.7368-20.045 5.867-5.5169 7.6194-6.9456 16.927-14.032z" fill="url(#ap)" opacity=".842"/>
 </g>
 <g stroke-linecap="round">
  <g fill-rule="evenodd" stroke-width="4">
   <path d="m462.66 327.83c-10.381 40.822-48.601 67.816-54.428 111.13-7.8859 58.617-3.0604 112.68 1.9888 175.86 5.1186 64.048 17.29 144.26-2.4771 214.37-6.5591 33.938-9.0862 78.718 22.863 100.94 34.905 22.441 78.946 21.988 118.96 20.32 29.368-3.0529 62.715-10.856 81.426-35.306 21.024-41.824 5.0585-88.803-3.6149-131.47-3.3867-63.215 7.827-126.77 10.032-189.05 2.2053-62.281 12.677-125.57-4.5689-184.79-9.8825-33.936-45.49-58.297-49.496-93.54-0.99377-14.836-2.4606-28.282-4.3293-40.384-36.293-3.6924-72.217-4.8023-107.32-0.18405-5.3481 18.149-6.1243 28.166-9.0346 52.104z" fill="#f3d700"/>
   <path d="m478.9 197.78c-7.5553 33.743-12.27 85.688-16.247 130.05-10.381 40.822-48.601 67.816-54.428 111.13-7.8859 58.617-3.0604 112.68 1.9888 175.86 5.1186 64.048 17.29 144.26-2.4771 214.37-6.5591 33.938-9.0862 78.718 22.863 100.94 34.905 22.441 78.946 21.988 118.96 20.32 29.368-3.0529 62.715-10.856 81.426-35.306 21.024-41.824 5.0585-88.803-3.6149-131.47-3.3867-63.215 7.827-126.77 10.032-189.05 2.2053-62.281 12.677-125.57-4.5689-184.79-9.8825-33.936-45.49-58.297-49.496-93.54-4.0059-39.252-8.458-74.881-16.658-114.78-1.8063-4.8203 5.7684-6.4311 3.1306-7.7863-22.601-11.611-67.319-10.449-92.766 0.62839-1.8027 0.51141-0.78705 3.0873 1.8536 3.421z" fill="url(#ak)" opacity=".478" stroke="#464746"/>
  </g>
  <g stroke-width="2.1">
   <path d="m569.34 194.16a46.169 11.976 0 1 1 -92.339 0 46.169 11.976 0 1 1 92.339 0z" fill="#e0e1dc"/>
   <path d="m564.13 191.04a39.4 10.588 0 1 1 -78.8 0 39.4 10.588 0 1 1 78.8 0z" fill="#c2bab9"/>
  </g>
 </g>
 <path d="m476.65 194.34l-3.4714-3.4714c-0.11569-2.8928-0.23142-5.7856-0.34714-8.6785l-2.0828-2.0828c1.1571-2.7771 2.3143-5.5542 3.4714-8.3313 1.0414-0.81 2.0828-1.62 3.1243-2.43 0 0-3.4714-2.43-3.8185-4.5128-0.34714-2.0828-0.69428-3.8185 0.69428-5.2071s2.43-1.7357 2.43-1.7357-3.1242-4.8599-2.7771-7.637c0.34714-2.7771 4.1657-6.5956 4.1657-6.5956 0.11569-1.5043 0.23142-3.0085 0.34714-4.5128 0 0 1.7647-1.364 3.8185-3.8185 1.7427-2.0828 23.16-6.5956 28.465-7.2899 4.1874-0.54797 18.051 0 23.952 0.34714 5.9014 0.34714 23.258 3.4714 26.383 4.1657 3.1242 0.69429 6.2485 4.8599 6.2485 4.8599 0.11572 1.3886 0.23144 2.7771 0.34717 4.1657 0 0 2.0828 1.7357 3.4714 2.7771s3.1242 6.5956 3.1242 6.5956c-0.34711 1.0414-0.69428 2.0828-1.0414 3.1242 0.11572 1.1571 0.23144 2.3143 0.34711 3.4714-1.1571 1.3886-2.3143 2.7771-3.4714 4.1656 0 0-0.69428 0.69428 1.0414 2.43s2.4299 5.2071 2.0828 6.5956c-0.34717 1.3886-1.3886 1.7357-1.3886 1.7357 1.1571 1.9671 2.3142 3.9342 3.4714 5.9014 0.19 2.8514 0.67596 5.9988 0 7.9842 0 0-3.8185 7.637-4.8599 7.9842-1.0414 0.34714-5.5543-5.5542-24.647-6.2485-20.999-1.4605-39.293-1.1021-48.252 0.69428-9.7199 1.7357-19.44 6.9428-20.828 5.5542z" fill="url(#be)" fill-rule="evenodd"/>
 <g stroke-linecap="round" stroke-width="2.1">
  <g fill="none">
   <path d="m477 180.8s17.357-11.108 59.014-9.0256c26.012 1.3115 34.02 9.7199 34.02 9.7199" stroke="url(#at)"/>
   <path d="m478.88 167.43s17.704-11.053 59.361-8.0579c26.012 1.881 33.672 10.789 33.672 10.789" stroke="url(#al)"/>
   <path d="m478.18 155.63s15.968-11.053 57.625-8.0579c26.012 1.881 35.408 10.789 35.408 10.789" stroke="url(#am)"/>
  </g>
  <rect transform="rotate(-2.134)" x="486.1" y="183.38" width="3.4713" height="4.1657" rx=".030989" ry=".030989" fill="url(#au)" opacity=".713"/>
  <rect transform="rotate(-2.134)" x="492.47" y="181.99" width="3.4713" height="4.1657" rx=".030989" ry=".030989" fill="url(#av)" opacity=".713"/>
  <rect transform="rotate(-2.134)" x="498.52" y="180.94" width="3.4713" height="4.1657" rx=".030989" ry=".030989" fill="url(#aw)" opacity=".713"/>
  <rect transform="rotate(-2.134)" x="505.19" y="181.3" width="3.4713" height="4.1657" rx=".030989" ry=".030989" fill="url(#ax)" opacity=".713"/>
  <rect transform="rotate(-3.462)" x="473.73" y="172.75" width="3.4713" height="4.1657" rx=".030989" ry=".030989" fill="url(#an)" opacity=".713"/>
  <rect transform="rotate(-3.462)" x="481.09" y="171.02" width="3.4713" height="4.1657" rx=".030989" ry=".030989" fill="url(#ay)" opacity=".713"/>
  <rect transform="rotate(-3.462)" x="488.45" y="169.63" width="3.4713" height="4.1657" rx=".030989" ry=".030989" fill="url(#az)" opacity=".713"/>
  <rect transform="rotate(-3.462)" x="495.81" y="168.93" width="3.4713" height="4.1657" rx=".030989" ry=".030989" fill="url(#ba)" opacity=".713"/>
  <rect transform="rotate(-3.462)" x="503.17" y="168.59" width="3.4713" height="4.1657" rx=".030989" ry=".030989" fill="url(#bb)" opacity=".713"/>
  <rect transform="rotate(-3.462)" x="510.53" y="168.24" width="3.4713" height="4.1657" rx=".030989" ry=".030989" fill="url(#bc)" opacity=".713"/>
 </g>
 <g fill-rule="evenodd">
  <path d="m420.06 919.61c62.681 29.646 151.57 29.118 209.74-6.4193 6.2956-1.3307-8.5821 12.578-10.24 14.227-39.967 29.009-106.79 29.323-153.02 16.159-15.271-5.1646-37.942-8.5008-46.472-23.966z" fill="#d4b100"/>
  <path d="m485.3 199.11c-3.6517 49.241-8.7318 98.36-13.518 147.5-14.215 23.626-16.162-0.78409-9.5832-19.597 10.52-39.275 13.253-80.134 16.022-120.46 0.75635-3.4581 3.2546-7.0254 7.0795-7.438z" fill="url(#ao)"/>
  <path d="m561.36 194.28c3.6517 49.241 4.34 97.043 9.1259 146.18 2.4992-1.6609 10.773 4.5251 14.103 11.892 11.331 8.5837 28.248 21.742 1.1896-24.022-10.52-39.275-14.57-86.282-17.339-126.61-0.75635-3.4581-3.2546-7.0254-7.0795-7.438z" fill="url(#aj)"/>
  <path d="m471.01 612.93c12.041 43.907 4.4473 206.24 16.592 82.75 5.1532-87.542 18.057-332.16 13.36-290.11-17.18 68.729-28.254 137.98-29.952 207.36z" fill="#fff" opacity=".368"/>
 </g>
 <path d="m617.3 889.45a95.214 28.503 0 1 1 -190.43 0 95.214 28.503 0 1 1 190.43 0z" fill="#ebd500" opacity=".368" stroke-linecap="round" stroke-opacity=".555" stroke-width="4"/>
 <g fill-rule="evenodd">
  <path d="m434.31 573.91c2.9008 88.582 21.308 184.56-5.2596 268.11-26.567 83.552 20.978 36.121 33.263-29.751 19.968-107.07-18.85-149.2 6.6152-294.5 12.22-69.726 19.914-88.982 5.5164-114.61-21.003-37.389-45.418 9.4129-40.135 170.76z" fill="#fff" opacity=".301"/>
  <path d="m488.08 350.67c5.159 2.5443 21.763 2.5369 32.072 0 13.433-3.3057 22.258 2.7954 31.436 10.022 8.5859 6.7612 11.017 15.916 10.5 24.054-0.78503 12.368-10.386 13.536-17.308 20.045-6.0894 5.726-21.144 0.46762-25.931-2.0045-8.3644-4.3193-12.912-5.6323-21.413-10.022-7.2362-3.7367-16.638-4.4514-23.545-8.018-11.45-5.9127-11.138-12.146-2.7367-20.045 5.867-5.5169 7.6194-6.9456 16.927-14.032z" fill="url(#ap)" opacity=".842"/>
 </g>
</svg>
