<?xml version="1.0" encoding="UTF-8"?>
<svg viewBox="0 0 256 256" xmlns="http://www.w3.org/2000/svg">
 <g transform="matrix(25.898 0 0 -25.898 225.39 256)">
  <path d="m0,0c.652,0 1.182.529 1.182,1.182v7.521c0,.652-.53,1.182-1.182,1.182h-7.521c-.653,0-1.182-.53-1.182-1.182v-7.521c0-.653.529-1.182 1.182-1.182h7.521z" fill="#231f20"/>
 </g>
 <g transform="matrix(25.898 0 0 -25.898 30.601 5.1906)">
  <path d="m0,0c-.541,0-.981-.44-.981-.981v-7.522c0-.541.44-.981.981-.981h7.521c.542,0 .982.44.982.981v7.522c0,.541-.44.981-.982.981h-7.521z" fill="#fff"/>
 </g>
 <g transform="matrix(25.898 0 0 -25.898 226 80.128)">
  <path d="m0,0-.648-5.102h-2.188l-.646,5.102h2.671l.53,1.846 .299-.084-.506-1.76 .488-.002z" fill="#231f20"/>
 </g>
 <g transform="matrix(25.898 0 0 -25.898 127.82 157.06)">
  <path d="m0,0c0,0 .082.742-1.053.742h-1.808c-1.133,0-1.053-.742-1.053-.742h3.914z" fill="#231f20"/>
 </g>
 <g transform="matrix(25.898 0 0 -25.898 26.452 192.98)">
  <path d="m0,0c0,0-.08-.744 1.053-.744h1.808c1.135,0 1.053.744 1.053.744h-3.914z" fill="#231f20"/>
 </g>
 <g transform="matrix(25.898 0 0 -25.898 123.42 183.67)">
  <path d="m0,0c.186,0 .336.15.336.336 0,.184-.15.334-.336.334h-3.59c-.185,0-.336-.15-.336-.334 0-.186.151-.336.336-.336h3.59z" fill="#231f20"/>
 </g>
</svg>
