<?xml version="1.0" encoding="UTF-8" standalone="no"?>
<!-- Generator: Adobe Illustrator 16.0.0, SVG Export Plug-In . SVG Version: 6.00 Build 0)  -->

<svg
   version="1.1"
   id="bg"
   x="0px"
   y="0px"
   width="146.50035"
   height="128.86182"
   viewBox="0 0 146.50035 128.86182"
   enable-background="new 0 0 3000 3000"
   xml:space="preserve"
   sodipodi:docname="local-store.svg"
   inkscape:version="1.2.2 (732a01da63, 2022-12-09)"
   xmlns:inkscape="http://www.inkscape.org/namespaces/inkscape"
   xmlns:sodipodi="http://sodipodi.sourceforge.net/DTD/sodipodi-0.dtd"
   xmlns="http://www.w3.org/2000/svg"
   xmlns:svg="http://www.w3.org/2000/svg"><defs
   id="defs139">
	
	

		
		
		
		
		
		
		
		
		
	</defs><sodipodi:namedview
   id="namedview137"
   pagecolor="#ffffff"
   bordercolor="#cccccc"
   borderopacity="1"
   inkscape:showpageshadow="0"
   inkscape:pageopacity="1"
   inkscape:pagecheckerboard="0"
   inkscape:deskcolor="#d1d1d1"
   showgrid="false"
   inkscape:zoom="0.045916667"
   inkscape:cx="-2264.9728"
   inkscape:cy="-805.80763"
   inkscape:window-width="1366"
   inkscape:window-height="705"
   inkscape:window-x="-8"
   inkscape:window-y="-8"
   inkscape:window-maximized="1"
   inkscape:current-layer="bg" />
<g
   id="g120"
   transform="translate(-1427.2773,-1446.39)">
		</g><g
   id="g1959"
   transform="matrix(0.07457777,0,0,0.0768829,-38.655821,-50.924235)"
   style="stroke-width:13.2063"><path
     fill="#ddad36"
     d="m 2294.779,1197.217 h 30.473 c 42.027,0 81.561,-15.844 111.308,-44.605 29.769,-28.69 46.166,-66.908 46.166,-107.615 0,-83.938 -70.641,-152.224 -157.474,-152.224 h -61.111 c -46.397,-136.091 -180.595,-230.412 -329.626,-230.412 -149.031,0 -283.239,94.333 -329.619,230.412 H 675.801 c -42.022,0 -81.553,15.854 -111.314,44.623 -29.767,28.772 -46.158,66.987 -46.158,107.602 0,83.934 70.645,152.221 157.472,152.221 h 30.474 v 124.584 915.576 h -79.247 c -25.631,0 -46.486,20.15 -46.486,44.934 v 4.868 c 0,24.779 20.855,44.938 46.486,44.938 h 1746.999 c 25.63,0 46.483,-20.158 46.483,-44.938 v -4.868 c 0,-24.783 -20.854,-44.934 -46.483,-44.934 h -79.247 v -915.576 -124.586 z"
     id="path4"
     style="stroke-width:32.828" /><g
     id="g118"
     style="stroke-width:13.2063">
			<rect
   x="755.91803"
   y="1340.149"
   fill="#e5e5e5"
   width="1494.113"
   height="916.06598"
   id="rect6"
   style="stroke-width:32.828" />
			<path
   fill="#ff8661"
   d="m 2425.914,1077.106 c 0,68.214 -65.137,123.507 -114.988,123.507 H 684.144 c -49.856,0 -107.447,-55.293 -107.447,-123.507 v -28.851 c 0,-68.21 96.349,-126.218 171.707,-126.218 l 1570.069,2.683 c 49.851,0 107.441,55.325 107.441,123.536 z"
   id="path8"
   style="stroke-width:32.828" />
			<path
   fill="#3b0037"
   d="M 1655.866,1217.049 H 714.504 c -82.938,0 -150.411,-67.475 -150.411,-150.409 0,-40.132 15.657,-77.891 44.088,-106.32 28.425,-28.427 66.185,-44.093 106.322,-44.093 h 895.863 c 3.666,0 7.113,1.739 9.299,4.687 2.186,2.938 2.85,6.746 1.784,10.262 -8.692,28.662 -13.098,58.601 -13.098,88.968 0,64.489 19.695,126.258 56.951,178.603 2.519,3.539 2.849,8.178 0.856,12.031 -1.985,3.851 -5.954,6.271 -10.292,6.271 M 714.504,939.396 c -33.951,0 -65.889,13.247 -89.942,37.304 -24.055,24.055 -37.307,55.995 -37.307,89.94 0,70.158 57.087,127.242 127.25,127.242 h 919.787 c -32.188,-52.161 -49.098,-111.783 -49.098,-173.739 0,-27.411 3.34,-54.504 9.941,-80.747 H 714.504 Z"
   id="path10"
   style="stroke-width:32.828" />
			<path
   fill="#3b0037"
   d="m 2289.99,1217.049 h -112.303 c -4.335,0 -8.307,-2.42 -10.297,-6.271 -1.982,-3.854 -1.652,-8.492 0.853,-12.031 37.267,-52.345 56.958,-114.114 56.958,-178.603 0,-30.367 -4.406,-60.306 -13.097,-88.968 -1.066,-3.516 -0.405,-7.323 1.783,-10.262 2.182,-2.948 5.636,-4.687 9.299,-4.687 h 66.804 c 82.938,0 150.41,67.475 150.41,150.414 0,40.222 -15.663,77.986 -44.095,106.335 -28.414,28.418 -66.174,44.073 -106.315,44.073 m -90.724,-23.167 h 90.725 c 33.95,0 65.89,-13.246 89.949,-37.305 24.052,-23.981 37.297,-55.915 37.297,-89.937 0,-70.16 -57.078,-127.244 -127.246,-127.244 h -51.571 c 6.603,26.242 9.942,53.336 9.942,80.747 0,61.956 -16.915,121.578 -49.096,173.739"
   id="path12"
   style="stroke-width:32.828" />
			<path
   fill="#3b0037"
   d="M 2336.575,2338.44 H 667.92 c -24.483,0 -44.4,-19.919 -44.4,-44.401 v -4.811 c 0,-24.488 19.917,-44.4 44.4,-44.4 h 1668.655 c 24.479,0 44.401,19.912 44.401,44.4 v 4.811 c 10e-4,24.482 -19.922,44.401 -44.401,44.401"
   id="path14"
   style="stroke-width:32.828" />
			<path
   fill="#ff8661"
   d="m 667.92,2267.995 c -11.709,0 -21.234,9.522 -21.234,21.233 v 4.811 c 0,11.712 9.524,21.234 21.234,21.234 h 1668.655 c 11.705,0 21.234,-9.522 21.234,-21.234 v -4.811 c 0,-11.711 -9.529,-21.233 -21.234,-21.233 z"
   id="path16"
   style="stroke-width:32.828" />
			<path
   fill="#3b0037"
   d="m 2249.299,2267.995 h -1494.1 c -6.399,0 -11.587,-5.191 -11.587,-11.587 V 1205.465 c 0,-6.396 5.188,-11.583 11.587,-11.583 h 900.667 c 3.749,0 7.255,1.812 9.438,4.864 57.882,81.288 151.898,129.825 251.47,129.825 99.578,0 193.588,-48.537 251.484,-129.825 2.167,-3.052 5.682,-4.864 9.426,-4.864 h 71.615 c 6.396,0 11.584,5.188 11.584,11.583 v 1050.943 c 0,6.396 -5.188,11.587 -11.584,11.587 M 766.779,2244.828 H 2237.715 V 1217.049 h -54.121 c -62.483,84.458 -161.764,134.687 -266.82,134.687 -105.05,0 -204.334,-50.229 -266.813,-134.687 H 766.779 Z"
   id="path18"
   style="stroke-width:32.828" />
			<rect
   x="755.91803"
   y="1217.049"
   fill="#3b0037"
   width="1494.113"
   height="123.101"
   id="rect20"
   style="stroke-width:32.828" />
			<path
   fill="#3b0037"
   d="M 1916.773,1351.736 H 755.199 c -6.399,0 -11.587,-5.188 -11.587,-11.586 v -134.684 c 0,-6.396 5.188,-11.583 11.587,-11.583 h 900.667 c 3.749,0 7.255,1.812 9.438,4.864 57.882,81.288 151.898,129.825 251.47,129.825 6.402,0 11.59,5.188 11.59,11.578 -10e-4,6.398 -5.188,11.586 -11.591,11.586 M 766.779,1328.571 h 1028.493 c -57.206,-22.584 -107.867,-60.911 -145.311,-111.522 H 766.779 Z"
   id="path22"
   style="stroke-width:32.828" />
			<path
   fill="#3b0037"
   d="m 2249.299,1351.736 h -332.525 c -6.396,0 -11.58,-5.188 -11.58,-11.586 0,-6.391 5.185,-11.578 11.58,-11.578 99.578,0 193.588,-48.537 251.484,-129.825 2.167,-3.052 5.678,-4.864 9.43,-4.864 h 71.611 c 6.396,0 11.584,5.188 11.584,11.583 v 134.684 c 0,6.398 -5.188,11.586 -11.584,11.586 m -211.021,-23.165 h 199.437 v -111.522 h -54.121 c -37.448,50.612 -88.109,88.938 -145.316,111.522"
   id="path24"
   style="stroke-width:32.828" />
			<path
   fill="#3b0037"
   d="M 1290.557,2267.995 H 920.959 c -6.396,0 -11.58,-5.191 -11.58,-11.584 v -745.322 c 0,-6.388 5.184,-11.577 11.58,-11.577 h 369.598 c 6.394,0 11.58,5.189 11.58,11.577 v 745.322 c 0,6.393 -5.186,11.584 -11.58,11.584"
   id="path26"
   style="stroke-width:32.828" />
			<rect
   x="932.54199"
   y="1522.673"
   fill="#0bcbff"
   width="346.431"
   height="722.15503"
   id="rect28"
   style="stroke-width:32.828" />
			<path
   fill="#3b0037"
   d="m 2155.281,2144.109 h -770.712 c -6.397,0 -11.585,-5.181 -11.585,-11.58 v -88.493 c 0,-6.392 5.188,-11.579 11.585,-11.579 h 770.712 c 6.396,0 11.583,5.188 11.583,11.579 v 88.493 c 0,6.4 -5.186,11.58 -11.583,11.58"
   id="path30"
   style="stroke-width:32.828" />
			<rect
   x="1396.1541"
   y="2055.623"
   fill="#e5e5e5"
   width="747.53998"
   height="65.321999"
   id="rect32"
   style="stroke-width:32.828" />
			<path
   fill="#3b0037"
   d="m 2083.532,2055.623 h -627.214 c -6.396,0 -11.583,-5.188 -11.583,-11.587 v -532.947 c 0,-6.388 5.188,-11.577 11.583,-11.577 h 627.214 c 6.402,0 11.583,5.189 11.583,11.577 v 532.947 c 0,6.4 -5.18,11.587 -11.583,11.587"
   id="path34"
   style="stroke-width:32.828" />
			<rect
   x="1467.896"
   y="1522.673"
   fill="#47ebe0"
   width="604.05603"
   height="509.784"
   id="rect36"
   style="stroke-width:32.828" />
			<path
   fill="#0bcbff"
   d="m 1648.771,1757.561 c -3.597,0 -7.195,-1.375 -9.942,-4.118 -5.49,-5.497 -5.49,-14.401 0,-19.891 l 176.257,-176.26 c 5.489,-5.49 14.397,-5.49 19.891,0 5.493,5.496 5.493,14.401 0,19.895 l -176.261,176.256 c -2.74,2.743 -6.34,4.118 -9.945,4.118"
   id="path38"
   style="stroke-width:32.828" />
			<path
   fill="#0bcbff"
   d="m 1672.264,1866.373 c -3.599,0 -7.202,-1.367 -9.945,-4.122 -5.486,-5.489 -5.486,-14.386 0,-19.88 l 276.786,-276.782 c 5.494,-5.501 14.398,-5.501 19.896,0 5.489,5.489 5.489,14.387 0,19.88 l -276.794,276.782 c -2.74,2.755 -6.34,4.122 -9.943,4.122"
   id="path40"
   style="stroke-width:32.828" />
			<path
   fill="#fc937c"
   d="m 2161.901,1207.144 c -3.597,0 -7.199,-1.373 -9.945,-4.116 -5.487,-5.497 -5.487,-14.403 0,-19.893 l 176.26,-176.258 c 5.489,-5.488 14.394,-5.488 19.887,0 5.493,5.497 5.493,14.399 0,19.893 l -176.256,176.258 c -2.741,2.743 -6.34,4.116 -9.946,4.116"
   id="path42"
   style="stroke-width:32.828" />
			<path
   fill="#fc937c"
   d="m 1994.204,1273.926 c -3.603,0 -7.202,-1.37 -9.945,-4.123 -5.489,-5.49 -5.489,-14.389 0,-19.88 L 2261.043,973.14 c 5.496,-5.502 14.4,-5.502 19.894,0 5.49,5.488 5.49,14.387 0,19.88 l -276.794,276.783 c -2.737,2.754 -6.339,4.123 -9.939,4.123"
   id="path44"
   style="stroke-width:32.828" />
			<path
   fill="#49ea8b"
   d="m 2234.795,1014.915 c 0,177.483 -143.879,321.358 -321.358,321.358 -177.479,0 -321.361,-143.875 -321.361,-321.358 0,-177.483 143.883,-321.356 321.361,-321.356 177.479,0 321.358,143.872 321.358,321.356 z"
   id="path46"
   style="stroke-width:32.828" />
			<path
   fill="#5efca1"
   d="m 1913.437,693.559 c -64.583,0 -124.667,19.122 -175.04,51.91 -56.049,57.844 -90.604,136.636 -90.604,223.542 0,177.486 143.879,321.358 321.361,321.358 64.58,0 124.664,-19.124 175.034,-51.912 56.052,-57.843 90.606,-136.635 90.606,-223.542 0,-177.484 -143.878,-321.356 -321.357,-321.356 z"
   id="path48"
   style="stroke-width:32.828" />
			<path
   fill="#3b0037"
   d="m 1200.768,1949.507 c -21.068,0 -38.216,-17.14 -38.216,-38.218 0,-21.077 17.148,-38.221 38.216,-38.221 21.07,0 38.213,17.144 38.213,38.221 -10e-4,21.078 -17.143,38.218 -38.213,38.218 m 0,-53.273 c -8.3,0 -15.052,6.751 -15.052,15.055 0,8.301 6.751,15.052 15.052,15.052 8.298,0 15.049,-6.751 15.049,-15.052 0,-8.304 -6.751,-15.055 -15.049,-15.055"
   id="path50"
   style="stroke-width:32.828" />
			<path
   fill="#3b0037"
   d="m 1916.773,1351.733 c -107.048,0 -208.114,-52.167 -270.345,-139.545 -40.063,-56.304 -61.235,-122.715 -61.235,-192.045 0,-32.645 4.739,-64.846 14.085,-95.695 41.689,-138.882 172.255,-235.891 317.495,-235.891 145.251,0 275.813,97.009 317.51,235.922 9.342,30.818 14.078,63.019 14.078,95.664 0,69.33 -21.171,135.741 -61.24,192.045 -62.223,87.378 -163.287,139.545 -270.348,139.545 m 0,-640.011 c -135.096,0 -256.533,90.228 -295.313,219.418 -8.698,28.7 -13.107,58.632 -13.107,89.002 0,64.489 19.695,126.254 56.951,178.6 57.882,81.295 151.892,129.821 251.47,129.821 99.578,0 193.588,-48.526 251.48,-129.821 37.256,-52.346 56.947,-114.111 56.947,-178.6 0,-30.371 -4.406,-60.303 -13.097,-88.968 -38.79,-129.224 -160.231,-219.452 -295.331,-219.452"
   id="path52"
   style="stroke-width:32.828" />
			<path
   fill="#3b0037"
   d="m 1916.776,1200.613 c -0.71,0 -1.382,-0.36 -1.772,-0.965 -4.456,-6.855 -109.122,-168.584 -109.122,-228.602 0,-61.148 49.744,-110.895 110.895,-110.895 61.151,0 110.899,49.747 110.899,110.895 0,60.017 -104.663,221.746 -109.119,228.602 -0.391,0.605 -1.059,0.965 -1.781,0.965"
   id="path54"
   style="stroke-width:32.828" />
			<path
   fill="#5efca1"
   d="m 1916.776,1023.419 c -28.873,0 -52.366,-23.492 -52.366,-52.373 0,-28.875 23.493,-52.367 52.366,-52.367 28.881,0 52.378,23.492 52.378,52.367 0,28.881 -23.497,52.373 -52.378,52.373"
   id="path56"
   style="stroke-width:32.828" />
			<rect
   x="1006.937"
   y="1676.9561"
   fill="#ffffff"
   width="167.91499"
   height="107.965"
   id="rect58"
   style="stroke-width:32.828" />
			<g
   id="g80"
   style="stroke-width:13.2063">
				<path
   fill="#ffffff"
   d="m 691.618,1004.532 h 19.517 v 106.464 h 32.116 v 17.747 h -51.633 z"
   id="path60"
   style="stroke-width:32.828" />
				<path
   fill="#ffffff"
   d="m 768.802,1122.354 c -5.088,-5.442 -7.63,-13.133 -7.63,-23.069 v -65.295 c 0,-9.937 2.542,-17.624 7.63,-23.069 5.084,-5.438 12.42,-8.158 22.001,-8.158 9.581,0 16.915,2.72 22.003,8.158 5.083,5.445 7.629,13.132 7.629,23.069 v 65.295 c 0,9.937 -2.546,17.627 -7.629,23.069 -5.088,5.441 -12.422,8.163 -22.003,8.163 -9.581,10e-4 -16.916,-2.721 -22.001,-8.163 z m 32.115,-21.825 v -67.782 c 0,-8.164 -3.37,-12.243 -10.114,-12.243 -6.742,0 -10.113,4.079 -10.113,12.243 v 67.782 c 0,8.164 3.371,12.243 10.113,12.243 6.744,-10e-4 10.114,-4.08 10.114,-12.243 z"
   id="path62"
   style="stroke-width:32.828" />
				<path
   fill="#ffffff"
   d="m 850.334,1122.532 c -4.911,-5.325 -7.364,-12.836 -7.364,-22.536 v -66.717 c 0,-9.697 2.453,-17.212 7.364,-22.536 4.907,-5.323 12.035,-7.98 21.381,-7.98 9.345,0 16.473,2.658 21.382,7.98 4.907,5.324 7.364,12.839 7.364,22.536 v 13.129 h -18.454 v -14.369 c 0,-7.69 -3.254,-11.535 -9.761,-11.535 -6.504,0 -9.757,3.845 -9.757,11.535 v 69.378 c 0,7.57 3.253,11.354 9.757,11.354 6.506,0 9.761,-3.784 9.761,-11.354 v -18.987 h 18.454 v 17.565 c 0,9.7 -2.457,17.211 -7.364,22.536 -4.909,5.323 -12.037,7.985 -21.382,7.985 -9.346,0 -16.474,-2.661 -21.381,-7.984 z"
   id="path64"
   style="stroke-width:32.828" />
				<path
   fill="#ffffff"
   d="m 937.899,1004.532 h 26.439 l 20.227,124.211 h -19.516 l -3.549,-24.665 v 0.354 h -22.181 l -3.55,24.311 h -18.096 z m 21.294,83.046 -8.694,-61.396 h -0.356 l -8.519,61.396 z"
   id="path66"
   style="stroke-width:32.828" />
				<path
   fill="#ffffff"
   d="m 1004.614,1004.532 h 19.517 v 106.464 h 32.116 v 17.747 h -51.633 z"
   id="path68"
   style="stroke-width:32.828" />
				<path
   fill="#ffffff"
   d="m 1119.236,1122.443 c -4.852,-5.383 -7.275,-13.099 -7.275,-23.158 v -7.094 h 18.454 v 8.516 c 0,8.044 3.37,12.065 10.112,12.065 3.312,0 5.827,-0.976 7.542,-2.928 1.714,-1.951 2.572,-5.113 2.572,-9.491 0,-5.206 -1.183,-9.789 -3.547,-13.751 -2.369,-3.965 -6.742,-8.727 -13.131,-14.286 -8.046,-7.098 -13.662,-13.511 -16.856,-19.251 -3.194,-5.737 -4.792,-12.212 -4.792,-19.433 0,-9.815 2.486,-17.414 7.453,-22.801 4.969,-5.379 12.182,-8.069 21.647,-8.069 9.344,0 16.413,2.69 21.204,8.069 4.79,5.387 7.188,13.104 7.188,23.158 v 5.143 h -18.455 v -6.387 c 0,-4.257 -0.828,-7.364 -2.484,-9.315 -1.657,-1.953 -4.081,-2.928 -7.275,-2.928 -6.507,0 -9.76,3.965 -9.76,11.889 0,4.494 1.212,8.696 3.639,12.597 2.421,3.904 6.831,8.638 13.219,14.194 8.162,7.099 13.778,13.548 16.856,19.343 3.073,5.795 4.612,12.596 4.612,20.404 0,10.176 -2.514,17.981 -7.54,23.423 -5.028,5.441 -12.332,8.163 -21.913,8.163 -9.466,0 -16.622,-2.689 -21.47,-8.072 z"
   id="path70"
   style="stroke-width:32.828" />
				<path
   fill="#ffffff"
   d="m 1207.243,1022.278 h -20.404 v -17.746 h 60.328 v 17.746 h -20.404 v 106.465 h -19.52 z"
   id="path72"
   style="stroke-width:32.828" />
				<path
   fill="#ffffff"
   d="m 1272.722,1122.354 c -5.088,-5.442 -7.631,-13.133 -7.631,-23.069 v -65.295 c 0,-9.937 2.542,-17.624 7.631,-23.069 5.083,-5.438 12.418,-8.158 22.001,-8.158 9.581,0 16.913,2.72 22.001,8.158 5.084,5.445 7.63,13.132 7.63,23.069 v 65.295 c 0,9.937 -2.546,17.627 -7.63,23.069 -5.088,5.441 -12.42,8.163 -22.001,8.163 -9.583,10e-4 -16.919,-2.721 -22.001,-8.163 z m 32.113,-21.825 v -67.782 c 0,-8.164 -3.37,-12.243 -10.112,-12.243 -6.744,0 -10.115,4.079 -10.115,12.243 v 67.782 c 0,8.164 3.371,12.243 10.115,12.243 6.742,-10e-4 10.112,-4.08 10.112,-12.243 z"
   id="path74"
   style="stroke-width:32.828" />
				<path
   fill="#ffffff"
   d="m 1348.129,1004.532 h 28.921 c 10.054,0 17.391,2.338 22.005,7.01 4.612,4.676 6.92,11.862 6.92,21.561 v 7.629 c 0,12.896 -4.258,21.058 -12.775,24.486 v 0.354 c 4.727,1.421 8.073,4.321 10.023,8.695 1.953,4.378 2.928,10.231 2.928,17.567 v 21.824 c 0,3.55 0.117,6.417 0.355,8.608 0.236,2.19 0.826,4.345 1.775,6.478 h -19.875 c -0.708,-2.011 -1.183,-3.907 -1.417,-5.678 -0.238,-1.775 -0.355,-4.969 -0.355,-9.583 v -22.712 c 0,-5.678 -0.917,-9.64 -2.75,-11.889 -1.837,-2.245 -5,-3.372 -9.493,-3.372 h -6.742 v 53.234 h -19.52 z m 26.615,53.234 c 3.905,0 6.832,-1.005 8.786,-3.015 1.951,-2.009 2.926,-5.383 2.926,-10.118 v -9.579 c 0,-4.495 -0.799,-7.746 -2.395,-9.761 -1.597,-2.009 -4.112,-3.015 -7.542,-3.015 h -8.871 v 35.488 z"
   id="path76"
   style="stroke-width:32.828" />
				<path
   fill="#ffffff"
   d="m 1430.282,1004.532 h 53.232 v 17.746 h -33.712 v 32.827 h 26.792 v 17.741 h -26.792 v 38.151 h 33.712 v 17.747 h -53.232 z"
   id="path78"
   style="stroke-width:32.828" />
			</g>
			<g
   id="g90"
   style="stroke-width:13.2063">
				<path
   d="m 1037.617,1755.147 c -2.21,-2.362 -3.315,-5.706 -3.315,-10.026 v -28.369 c 0,-4.32 1.105,-7.66 3.315,-10.023 2.21,-2.362 5.397,-3.55 9.562,-3.55 4.163,0 7.35,1.188 9.56,3.55 2.208,2.363 3.315,5.703 3.315,10.023 v 28.369 c 0,4.32 -1.106,7.664 -3.315,10.026 -2.21,2.363 -5.397,3.546 -9.56,3.546 -4.164,0 -7.351,-1.182 -9.562,-3.546 z m 13.957,-9.483 v -29.455 c 0,-3.546 -1.466,-5.319 -4.396,-5.319 -2.929,0 -4.396,1.773 -4.396,5.319 v 29.455 c 0,3.547 1.466,5.319 4.396,5.319 2.93,0 4.396,-1.772 4.396,-5.319 z"
   id="path82"
   style="stroke-width:13.2063" />
				<path
   d="m 1065.759,1703.95 h 12.491 c 4.212,0 7.376,1.133 9.484,3.394 2.105,2.26 3.161,5.578 3.161,9.948 v 5.319 c 0,4.367 -1.056,7.686 -3.161,9.945 -2.107,2.26 -5.271,3.39 -9.484,3.39 h -4.009 v 21.977 h -8.481 v -53.973 z m 12.491,24.29 c 1.388,0 2.429,-0.388 3.122,-1.159 0.694,-0.771 1.041,-2.082 1.041,-3.93 v -6.399 c 0,-1.851 -0.347,-3.163 -1.041,-3.933 -0.693,-0.775 -1.734,-1.155 -3.122,-1.155 h -4.009 v 16.576 z"
   id="path84"
   style="stroke-width:13.2063" />
				<path
   d="m 1095.518,1703.95 h 23.13 v 7.714 H 1104 v 14.262 h 11.642 v 7.711 H 1104 v 16.572 h 14.648 v 7.714 h -23.13 z"
   id="path86"
   style="stroke-width:13.2063" />
				<path
   d="m 1123.505,1703.95 h 10.64 l 8.25,32.305 h 0.153 v -32.305 h 7.556 v 53.973 h -8.712 l -10.177,-39.401 h -0.154 v 39.401 h -7.556 z"
   id="path88"
   style="stroke-width:13.2063" />
			</g>
			<g
   id="g116"
   style="stroke-width:13.2063">
				<path
   fill="#fc937c"
   d="m 710.924,1283.097 v 74.239 c 0,34.814 29.523,63.037 65.942,63.037 36.42,0 65.945,-28.223 65.945,-63.037 v -74.239 z"
   id="path92"
   style="stroke-width:32.828" />
				<path
   fill="#ffffff"
   d="m 842.812,1283.097 v 74.239 c 0,34.814 29.522,63.037 65.944,63.037 36.417,0 65.942,-28.223 65.942,-63.037 v -74.239 z"
   id="path94"
   style="stroke-width:32.828" />
				<path
   fill="#fc937c"
   d="m 974.697,1283.097 v 74.239 c 0,34.814 29.523,63.037 65.945,63.037 36.417,0 65.942,-28.223 65.942,-63.037 v -74.239 z"
   id="path96"
   style="stroke-width:32.828" />
				<path
   fill="#ffffff"
   d="m 1106.585,1283.097 v 74.239 c 0,34.814 29.523,63.037 65.943,63.037 36.42,0 65.944,-28.223 65.944,-63.037 v -74.239 z"
   id="path98"
   style="stroke-width:32.828" />
				<path
   fill="#fc937c"
   d="m 1238.472,1283.097 v 74.239 c 0,34.814 29.523,63.037 65.944,63.037 36.418,0 65.943,-28.223 65.943,-63.037 v -74.239 z"
   id="path100"
   style="stroke-width:32.828" />
				<path
   fill="#ffffff"
   d="m 1370.359,1283.097 v 74.239 c 0,34.814 29.523,63.037 65.942,63.037 36.42,0 65.945,-28.223 65.945,-63.037 v -74.239 z"
   id="path102"
   style="stroke-width:32.828" />
				<path
   fill="#fc937c"
   d="m 1502.247,1283.097 v 74.239 c 0,34.814 29.523,63.037 65.943,63.037 36.42,0 65.944,-28.223 65.944,-63.037 v -74.239 z"
   id="path104"
   style="stroke-width:32.828" />
				<path
   fill="#ffffff"
   d="m 1634.135,1283.097 v 74.239 c 0,34.814 29.527,63.037 65.94,63.037 36.42,0 65.943,-28.223 65.943,-63.037 v -74.239 z"
   id="path106"
   style="stroke-width:32.828" />
				<path
   fill="#fc937c"
   d="m 1766.019,1283.097 v 74.239 c 0,34.814 29.527,63.037 65.947,63.037 36.417,0 65.944,-28.223 65.944,-63.037 v -74.239 z"
   id="path108"
   style="stroke-width:32.828" />
				<path
   fill="#ffffff"
   d="m 1897.91,1283.097 v 74.239 c 0,34.814 29.523,63.037 65.943,63.037 36.416,0 65.939,-28.223 65.939,-63.037 v -74.239 z"
   id="path110"
   style="stroke-width:32.828" />
				<path
   fill="#fc937c"
   d="m 2029.793,1283.097 v 74.239 c 0,34.814 29.523,63.037 65.944,63.037 36.42,0 65.943,-28.223 65.943,-63.037 v -74.239 z"
   id="path112"
   style="stroke-width:32.828" />
				<path
   fill="#ffffff"
   d="m 2161.681,1283.097 v 74.239 c 0,34.814 29.527,63.037 65.947,63.037 36.417,0 65.944,-28.223 65.944,-63.037 v -74.239 z"
   id="path114"
   style="stroke-width:32.828" />
			</g>
		</g></g><g
   id="g122"
   transform="translate(-1427.2773,-1446.39)">
		</g><g
   id="g124"
   transform="translate(-1427.2773,-1446.39)">
		</g><g
   id="g126"
   transform="translate(-1427.2773,-1446.39)">
		</g><g
   id="g128"
   transform="translate(-1427.2773,-1446.39)">
		</g><g
   id="g130"
   transform="translate(-1427.2773,-1446.39)">
		</g>

</svg>
