<?xml version="1.0" encoding="UTF-8" standalone="no"?>
<!-- Created with Inkscape (http://www.inkscape.org/) -->

<svg
   version="1.1"
   id="svg1"
   width="1144.5217"
   height="1655.2781"
   viewBox="0 0 1144.5217 1655.2781"
   sodipodi:docname="locationmark.svg"
   inkscape:version="1.2.2 (732a01da63, 2022-12-09)"
   xml:space="preserve"
   xmlns:inkscape="http://www.inkscape.org/namespaces/inkscape"
   xmlns:sodipodi="http://sodipodi.sourceforge.net/DTD/sodipodi-0.dtd"
   xmlns="http://www.w3.org/2000/svg"
   xmlns:svg="http://www.w3.org/2000/svg"><defs
     id="defs1" /><sodipodi:namedview
     id="namedview1"
     pagecolor="#afafaf"
     bordercolor="#cccccc"
     borderopacity="1"
     inkscape:showpageshadow="0"
     inkscape:pageopacity="1"
     inkscape:pagecheckerboard="0"
     inkscape:deskcolor="#d1d1d1"
     showgrid="false"
     inkscape:zoom="0.1640625"
     inkscape:cx="621.71429"
     inkscape:cy="335.2381"
     inkscape:window-width="1366"
     inkscape:window-height="705"
     inkscape:window-x="-8"
     inkscape:window-y="-8"
     inkscape:window-maximized="1"
     inkscape:current-layer="g1" /><g
     inkscape:groupmode="layer"
     inkscape:label="Image"
     id="g1"
     transform="translate(-183.34081,30.541554)"><path
       style="fill:#ffffff"
       d="m 1049.665,512.97114 c -7.1941,-10.3608 -27.0728,-34.5169 -38.0292,-46.2121 -61.84308,-66.0135 -139.70015,-117.3114 -236.00452,-155.4971 -31.38516,-12.4445 -78.62455,-27.1585 -108.97547,-33.9434 -6.5865,-1.4724 -12.06779,-2.7694 -12.18063,-2.8822 -0.21139,-0.2114 8.74053,-59.0283 9.03552,-59.3661 0.46516,-0.5327 30.96611,5.1491 44.43041,8.2766 81.826,19.0065 160.85838,52.7077 230.19017,98.1586 58.68174,38.4691 111.71352,87.0905 154.95482,142.068 6.6249,8.4228 12.0452,15.6768 12.0452,16.1198 0,0.7755 -50.1388,39.1052 -51.0521,39.0279 -0.2463,-0.021 -2.2327,-2.6084 -4.4142,-5.75 z"
       id="path1439" /><path
       id="path1431"
       style="fill:#ffffff"
       d="M 652.29784 297.75923 C 650.67772 297.75923 650.20084 298.90253 649.27636 305.00923 C 648.67271 308.99672 645.01973 332.28425 641.15722 356.75923 C 637.29471 381.2342 629.41163 431.18426 623.63964 467.75923 C 617.86764 504.33419 609.52172 557.20926 605.09276 585.25923 C 600.6638 613.3092 593.48201 658.98426 589.13378 686.75923 C 584.78555 714.5342 579.382 748.73424 577.12597 762.75923 C 574.86994 776.78421 569.45009 811.20926 565.083 839.25923 C 560.71591 867.3092 556.87967 891.49673 556.55761 893.00923 C 556.2355 894.52173 556.22629 895.75923 556.53612 895.75923 C 556.84594 895.75923 583.9929 875.36956 616.86425 850.44868 C 649.73559 825.52781 693.50685 792.36882 714.13183 776.76313 C 734.7568 761.15745 756.13183 744.95392 761.63183 740.75532 C 767.13182 736.55683 788.28185 720.51753 808.63183 705.11274 C 929.9898 613.24583 940.40537 605.354 970.11425 582.75923 C 977.70753 576.98423 995.44345 563.56992 1009.5264 552.95063 C 1023.6091 542.33134 1035.1318 533.17648 1035.1318 532.60688 C 1035.1318 532.03738 1031.8723 527.22667 1027.8896 521.91548 C 1000.1388 484.90761 962.39428 447.57513 922.63183 417.80806 C 861.1867 371.8089 781.65242 333.14893 700.63183 309.89985 C 682.90582 304.81326 654.82058 297.75923 652.29784 297.75923 z M 724.37206 434.42329 C 740.85848 435.13424 755.66305 447.0511 759.27636 465.10884 C 762.34381 480.43872 753.95526 496.66669 738.97167 504.38618 C 731.7522 508.10558 717.24674 508.83096 709.82909 505.84516 C 699.74371 501.78547 691.57653 493.28357 687.98534 483.10688 C 685.09821 474.92539 685.71367 463.50639 689.46581 455.6479 C 692.65774 448.96281 701.22489 440.49098 707.6787 437.63618 C 713.19581 435.19568 718.87659 434.18631 724.37206 434.42329 z M 851.16112 465.89399 C 852.73917 465.86603 854.32888 465.90875 855.9287 466.02095 C 882.43873 467.88014 903.26942 489.05045 904.86815 515.75923 C 906.36703 540.7999 889.7709 563.97591 865.76269 570.3686 C 862.9403 571.1201 856.58182 571.7111 851.63183 571.6811 C 835.56293 571.5848 825.90341 567.56599 814.61425 556.27681 C 806.85922 548.52181 802.97893 542.10766 800.66503 533.22407 C 798.78091 525.99038 798.69395 511.97782 800.49315 505.25923 C 806.66195 482.22366 827.49037 466.31344 851.16112 465.89399 z M 738.81151 553.81001 C 744.07933 553.64152 749.45399 554.27408 753.41503 555.75923 C 774.36862 563.61532 783.58217 590.82633 771.67479 609.68891 C 768.04091 615.44531 759.59483 622.44134 753.54589 624.70454 C 746.85474 627.20794 734.74879 627.40575 728.20995 625.11665 C 696.92108 614.16356 694.819 571.33758 724.85058 556.67329 C 728.38288 554.94849 733.5437 553.9785 738.81151 553.81001 z " /><path
       id="path245"
       style="fill:#ffffff"
       d="M 755.13769 -30.541554 C 734.08447 -30.544804 713.11263 -30.193716 706.63183 -29.486867 C 681.44472 -26.739669 668.09646 -25.03889 661.63183 -23.752492 C 657.78183 -22.986492 650.58182 -21.647381 645.63183 -20.777882 C 591.04982 -11.189792 524.20138 13.749889 470.75487 44.466258 C 442.31796 60.809242 403.49358 88.011802 386.6162 103.41938 C 385.508 104.43108 381.008 108.33743 376.6162 112.10102 C 372.22441 115.86452 361.722 125.76453 353.27831 134.10102 C 283.91788 202.58046 234.8124 284.59032 205.88183 380.25923 C 201.08173 396.13251 194.24673 426.61225 190.07323 450.75923 C 188.99533 456.99592 186.52017 477.14394 184.91308 492.75923 C 183.35408 507.90761 182.74282 572.46094 184.06542 582.25923 C 184.65932 586.65922 185.8329 597.23424 186.67479 605.75923 C 187.51679 614.28422 188.66668 623.95923 189.22948 627.25923 C 194.19928 656.4008 195.96829 664.80455 202.17089 688.75923 C 208.91428 714.8029 219.82594 746.46635 229.56933 768.25923 C 230.79882 771.00922 232.88821 775.73423 234.2119 778.75923 C 239.2987 790.38392 254.59752 819.86134 261.71972 831.75923 C 263.85971 835.33422 266.06656 839.06003 266.62206 840.03852 C 268.87336 844.00392 279.95689 860.86944 286.48339 870.25923 C 292.42328 878.80492 308.46487 903.92233 315.49706 915.68891 C 316.67066 917.65271 318.98183 921.43878 320.63183 924.10298 C 322.28182 926.76727 332.72512 943.6425 343.84081 961.60298 C 354.9565 979.56346 366.02502 997.40927 368.43651 1001.2592 C 375.81491 1013.039 409.29627 1067.0365 411.53026 1070.7592 C 412.68556 1072.6844 414.98183 1076.4426 416.63183 1079.1108 C 424.65811 1092.0899 462.85411 1153.6414 479.6494 1180.6616 C 490.04337 1197.3835 499.24072 1212.2406 500.08886 1213.6772 C 500.93699 1215.1138 502.98183 1218.459 504.63183 1221.1108 C 506.28182 1223.7625 514.49794 1237.0304 522.88964 1250.5952 C 531.28134 1264.16 540.05635 1278.3182 542.38964 1282.0581 C 544.72293 1285.7979 547.80996 1290.7479 549.25097 1293.0581 C 552.48002 1298.2347 590.41956 1359.6413 594.0205 1365.519 C 595.4559 1367.862 598.69257 1373.037 601.2119 1377.019 C 606.56793 1385.4847 633.16678 1428.3947 634.63183 1430.9331 C 636.61636 1434.3716 644.95033 1447.812 663.86815 1478.0874 C 674.46325 1495.0434 683.13183 1509.148 683.13183 1509.4291 C 683.13183 1509.7102 684.26761 1511.5862 685.65526 1513.5991 C 689.57231 1519.281 727.13183 1579.8934 727.13183 1580.5327 C 727.13183 1580.845 727.77459 1581.8136 728.56151 1582.6831 C 729.34843 1583.5526 730.58593 1585.4013 731.31151 1586.7924 C 732.03709 1588.1834 737.58183 1597.2921 743.63183 1607.0346 C 749.68182 1616.777 755.08183 1624.7458 755.63183 1624.7358 C 756.18183 1624.7289 758.43183 1621.7013 760.63183 1618.0073 C 762.83182 1614.3132 773.7143 1596.6586 784.81542 1578.7749 C 795.91655 1560.8911 806.5278 1543.7842 808.3955 1540.7592 C 810.26319 1537.7342 820.75574 1520.8595 831.7119 1503.2612 C 842.66806 1485.663 852.11717 1470.363 852.7119 1469.2612 C 853.67485 1467.4773 884.8509 1417.1551 894.04003 1402.5522 C 896.01483 1399.414 899.09454 1394.464 900.88378 1391.5522 C 904.45551 1385.7397 939.67598 1328.8571 945.6455 1319.2592 C 947.69797 1315.9592 958.15029 1299.0842 968.87401 1281.7592 C 993.7207 1241.6175 1034.7821 1175.3259 1037.6279 1170.7592 C 1042.0968 1163.5881 1048.2973 1153.586 1063.667 1128.7592 C 1082.0785 1099.0189 1080.4117 1101.7054 1106.708 1059.4057 C 1117.9409 1041.3368 1127.1318 1026.3055 1127.1318 1026.0014 C 1127.1318 1025.6973 1128.2568 1023.9721 1129.6318 1022.1694 C 1131.0068 1020.3667 1132.1318 1018.6186 1132.1318 1018.2846 C 1132.1318 1017.9507 1132.9834 1016.4584 1134.0244 1014.9682 C 1135.0654 1013.478 1144.8102 997.85921 1155.6807 980.25923 C 1203.983 902.05461 1212.0654 889.17141 1224.0635 871.25923 C 1237.4752 851.23645 1250.1318 831.31161 1250.1318 830.21821 C 1250.1318 829.86081 1250.9671 828.37342 1251.9892 826.91352 C 1254.7796 822.92793 1259.6662 813.88051 1267.7353 797.75923 C 1291.0719 751.13497 1307.673 702.15418 1317.5576 650.75923 C 1322.1698 626.77805 1322.7843 622.67911 1324.5967 603.75923 C 1325.466 594.68424 1326.6489 584.33422 1327.2275 580.75923 C 1328.3307 573.94253 1327.8957 507.58082 1326.6865 498.25923 C 1326.3297 495.50923 1325.1701 485.15922 1324.1084 475.25923 C 1320.216 438.96326 1311.8593 400.44539 1299.9209 363.75923 C 1295.565 350.37364 1288.0409 329.64372 1285.2197 323.25923 C 1284.7336 322.15923 1283.6529 319.68423 1282.8193 317.75923 C 1258.6443 261.93188 1228.028 212.80478 1188.7139 166.75923 C 1176.8577 152.87294 1143.4515 119.52196 1129.5478 107.69087 C 1065.7877 53.435125 998.91563 16.733859 919.63183 -7.5181165 C 898.78637 -13.89451 875.29888 -19.258172 846.13183 -24.299367 C 839.99901 -25.359265 820.13712 -27.806096 804.13183 -29.473195 C 797.32558 -30.182044 776.1909 -30.538304 755.13769 -30.541554 z M 753.00878 152.08149 C 793.70548 151.77517 837.52453 158.53599 877.63183 171.45649 C 887.65077 174.68409 900.56855 179.42343 905.63183 181.72993 C 906.73182 182.23103 911.00683 184.07102 915.13183 185.81782 C 939.82515 196.27441 968.29284 213.06873 993.46386 232.03071 C 1064.3575 285.43676 1115.1649 361.29311 1137.6221 447.25923 C 1157.4628 523.20935 1154.6004 601.8322 1129.3017 675.75923 C 1117.1719 711.20489 1103.1626 738.81666 1079.0752 774.75923 C 1073.7306 782.73422 1059.9276 804.55925 1048.4014 823.25923 C 1030.2988 852.6286 1013.3062 880.08073 950.29394 981.75923 C 943.98828 991.93422 931.31905 1012.4092 922.13964 1027.2592 C 912.96022 1042.1092 894.43011 1072.0342 880.9619 1093.7592 C 867.4937 1115.4842 853.40966 1138.2092 849.66308 1144.2592 C 845.91648 1150.3092 841.85367 1156.8342 840.63573 1158.7592 C 839.4178 1160.6842 835.94307 1166.3092 832.91308 1171.2592 C 829.88308 1176.2092 819.30954 1193.3092 809.41698 1209.2592 C 799.52441 1225.2092 783.64466 1250.8592 774.12792 1266.2592 C 764.61118 1281.6592 756.50513 1294.6239 756.1162 1295.0698 C 755.42945 1295.8572 748.44277 1284.7999 691.15331 1192.2592 C 676.17174 1168.0593 657.49844 1137.9092 649.65722 1125.2592 C 641.81599 1112.6092 630.10744 1093.7092 623.63769 1083.2592 C 617.16793 1072.8092 605.32528 1053.6842 597.32128 1040.7592 C 589.31729 1027.8342 574.55427 1003.9842 564.51464 987.75923 C 554.475 971.53424 544.72291 955.78422 542.84276 952.75923 C 527.25991 927.68785 504.56761 891.04339 484.63378 858.75923 C 443.84894 792.70539 440.02517 786.62031 430.57714 772.75923 C 415.80098 751.08135 398.77588 719.95541 390.92089 700.25923 C 390.04349 698.05923 388.40371 693.97817 387.27831 691.19087 C 376.29142 663.98 367.38553 628.12879 363.07323 593.75923 C 354.10154 522.2522 366.88921 444.55361 398.54198 378.25727 C 418.76868 335.89262 442.72025 302.11909 476.59472 268.19673 C 501.22082 243.53585 528.45898 222.29545 556.63183 205.78266 C 566.26816 200.13457 597.90375 184.59317 607.63183 180.72798 C 634.90807 169.89029 662.7295 162.09504 689.13183 157.89204 C 712.17072 154.22444 715.54551 153.8435 735.77831 152.6479 C 741.44477 152.31307 747.19496 152.12525 753.00878 152.08149 z " /></g></svg>
