<?xml version="1.0" encoding="UTF-8" standalone="no"?>
<!-- Created with Inkscape (http://www.inkscape.org/) -->

<svg
   version="1.1"
   id="svg1"
   width="1144.5217"
   height="1655.2781"
   viewBox="0 0 1144.5217 1655.2781"
   sodipodi:docname="locationmark.svg"
   inkscape:version="1.2.2 (732a01da63, 2022-12-09)"
   xml:space="preserve"
   xmlns:inkscape="http://www.inkscape.org/namespaces/inkscape"
   xmlns:sodipodi="http://sodipodi.sourceforge.net/DTD/sodipodi-0.dtd"
   xmlns="http://www.w3.org/2000/svg"
   xmlns:svg="http://www.w3.org/2000/svg"><defs
     id="defs1" /><sodipodi:namedview
     id="namedview1"
     pagecolor="#afafaf"
     bordercolor="#cccccc"
     borderopacity="1"
     inkscape:showpageshadow="0"
     inkscape:pageopacity="1"
     inkscape:pagecheckerboard="0"
     inkscape:deskcolor="#d1d1d1"
     showgrid="false"
     inkscape:zoom="0.1640625"
     inkscape:cx="624.7619"
     inkscape:cy="341.33333"
     inkscape:window-width="1366"
     inkscape:window-height="705"
     inkscape:window-x="-8"
     inkscape:window-y="-8"
     inkscape:window-maximized="1"
     inkscape:current-layer="g1" /><g
     inkscape:groupmode="layer"
     inkscape:label="Image"
     id="g1"
     transform="translate(-183.34081,30.541554)"><path
       id="path245"
       style="fill:#ffffff"
       d="M 755.13769 -30.541554 C 734.08447 -30.544804 713.11263 -30.193716 706.63183 -29.486867 C 681.44472 -26.739669 668.09646 -25.03889 661.63183 -23.752492 C 657.78183 -22.986492 650.58182 -21.647381 645.63183 -20.777882 C 591.04982 -11.189792 524.20138 13.749889 470.75487 44.466258 C 442.31796 60.809242 403.49358 88.011802 386.6162 103.41938 C 385.508 104.43108 381.008 108.33743 376.6162 112.10102 C 372.22441 115.86452 361.722 125.76453 353.27831 134.10102 C 283.91788 202.58046 234.8124 284.59032 205.88183 380.25923 C 201.08173 396.13251 194.24673 426.61225 190.07323 450.75923 C 188.99533 456.99592 186.52017 477.14394 184.91308 492.75923 C 183.35408 507.90761 182.74282 572.46094 184.06542 582.25923 C 184.65932 586.65922 185.8329 597.23424 186.67479 605.75923 C 187.51679 614.28422 188.66668 623.95923 189.22948 627.25923 C 194.19928 656.4008 195.96829 664.80455 202.17089 688.75923 C 208.91428 714.8029 219.82594 746.46635 229.56933 768.25923 C 230.79882 771.00922 232.88821 775.73423 234.2119 778.75923 C 239.2987 790.38392 254.59752 819.86134 261.71972 831.75923 C 263.85971 835.33422 266.06656 839.06003 266.62206 840.03852 C 268.87336 844.00392 279.95689 860.86944 286.48339 870.25923 C 292.42328 878.80492 308.46487 903.92233 315.49706 915.68891 C 316.67066 917.65271 318.98183 921.43878 320.63183 924.10298 C 322.28182 926.76727 332.72512 943.6425 343.84081 961.60298 C 354.9565 979.56346 366.02502 997.40927 368.43651 1001.2592 C 375.81491 1013.039 409.29627 1067.0365 411.53026 1070.7592 C 412.68556 1072.6844 414.98183 1076.4426 416.63183 1079.1108 C 424.65811 1092.0899 462.85411 1153.6414 479.6494 1180.6616 C 490.04337 1197.3835 499.24072 1212.2406 500.08886 1213.6772 C 500.93699 1215.1138 502.98183 1218.459 504.63183 1221.1108 C 506.28182 1223.7625 514.49794 1237.0304 522.88964 1250.5952 C 531.28134 1264.16 540.05635 1278.3182 542.38964 1282.0581 C 544.72293 1285.7979 547.80996 1290.7479 549.25097 1293.0581 C 552.48002 1298.2347 590.41956 1359.6413 594.0205 1365.519 C 595.4559 1367.862 598.69257 1373.037 601.2119 1377.019 C 606.56793 1385.4847 633.16678 1428.3947 634.63183 1430.9331 C 636.61636 1434.3716 644.95033 1447.812 663.86815 1478.0874 C 674.46325 1495.0434 683.13183 1509.148 683.13183 1509.4291 C 683.13183 1509.7102 684.26761 1511.5862 685.65526 1513.5991 C 689.57231 1519.281 727.13183 1579.8934 727.13183 1580.5327 C 727.13183 1580.845 727.77459 1581.8136 728.56151 1582.6831 C 729.34843 1583.5526 730.58593 1585.4013 731.31151 1586.7924 C 732.03709 1588.1834 737.58183 1597.2921 743.63183 1607.0346 C 749.68182 1616.777 755.08183 1624.7458 755.63183 1624.7358 C 756.18183 1624.7289 758.43183 1621.7013 760.63183 1618.0073 C 762.83182 1614.3132 773.7143 1596.6586 784.81542 1578.7749 C 795.91655 1560.8911 806.5278 1543.7842 808.3955 1540.7592 C 810.26319 1537.7342 820.75574 1520.8595 831.7119 1503.2612 C 842.66806 1485.663 852.11717 1470.363 852.7119 1469.2612 C 853.67485 1467.4773 884.8509 1417.1551 894.04003 1402.5522 C 896.01483 1399.414 899.09454 1394.464 900.88378 1391.5522 C 904.45551 1385.7397 939.67598 1328.8571 945.6455 1319.2592 C 947.69797 1315.9592 958.15029 1299.0842 968.87401 1281.7592 C 993.7207 1241.6175 1034.7821 1175.3259 1037.6279 1170.7592 C 1042.0968 1163.5881 1048.2973 1153.586 1063.667 1128.7592 C 1082.0785 1099.0189 1080.4117 1101.7054 1106.708 1059.4057 C 1117.9409 1041.3368 1127.1318 1026.3055 1127.1318 1026.0014 C 1127.1318 1025.6973 1128.2568 1023.9721 1129.6318 1022.1694 C 1131.0068 1020.3667 1132.1318 1018.6186 1132.1318 1018.2846 C 1132.1318 1017.9507 1132.9834 1016.4584 1134.0244 1014.9682 C 1135.0654 1013.478 1144.8102 997.85921 1155.6807 980.25923 C 1203.983 902.05461 1212.0654 889.17141 1224.0635 871.25923 C 1237.4752 851.23645 1250.1318 831.31161 1250.1318 830.21821 C 1250.1318 829.86081 1250.9671 828.37342 1251.9892 826.91352 C 1254.7796 822.92793 1259.6662 813.88051 1267.7353 797.75923 C 1291.0719 751.13497 1307.673 702.15418 1317.5576 650.75923 C 1322.1698 626.77805 1322.7843 622.67911 1324.5967 603.75923 C 1325.466 594.68424 1326.6489 584.33422 1327.2275 580.75923 C 1328.3307 573.94253 1327.8957 507.58082 1326.6865 498.25923 C 1326.3297 495.50923 1325.1701 485.15922 1324.1084 475.25923 C 1320.216 438.96326 1311.8593 400.44539 1299.9209 363.75923 C 1295.565 350.37364 1288.0409 329.64372 1285.2197 323.25923 C 1284.7336 322.15923 1283.6529 319.68423 1282.8193 317.75923 C 1258.6443 261.93188 1228.028 212.80478 1188.7139 166.75923 C 1176.8577 152.87294 1143.4515 119.52196 1129.5478 107.69087 C 1065.7877 53.435125 998.91563 16.733859 919.63183 -7.5181165 C 898.78637 -13.89451 875.29888 -19.258172 846.13183 -24.299367 C 839.99901 -25.359265 820.13712 -27.806096 804.13183 -29.473195 C 797.32558 -30.182044 776.1909 -30.538304 755.13769 -30.541554 z M 753.00878 152.08149 C 793.70548 151.77517 837.52453 158.53599 877.63183 171.45649 C 887.65077 174.68409 900.56855 179.42343 905.63183 181.72993 C 906.73182 182.23103 911.00683 184.07102 915.13183 185.81782 C 939.82515 196.27441 968.29284 213.06873 993.46386 232.03071 C 1064.3575 285.43676 1115.1649 361.29311 1137.6221 447.25923 C 1157.4628 523.20935 1154.6004 601.8322 1129.3017 675.75923 C 1117.1719 711.20489 1103.1626 738.81666 1079.0752 774.75923 C 1073.7306 782.73422 1059.9276 804.55925 1048.4014 823.25923 C 1030.2988 852.6286 1013.3062 880.08073 950.29394 981.75923 C 943.98828 991.93422 931.31905 1012.4092 922.13964 1027.2592 C 912.96022 1042.1092 894.43011 1072.0342 880.9619 1093.7592 C 867.4937 1115.4842 853.40966 1138.2092 849.66308 1144.2592 C 845.91648 1150.3092 841.85367 1156.8342 840.63573 1158.7592 C 839.4178 1160.6842 835.94307 1166.3092 832.91308 1171.2592 C 829.88308 1176.2092 819.30954 1193.3092 809.41698 1209.2592 C 799.52441 1225.2092 783.64466 1250.8592 774.12792 1266.2592 C 764.61118 1281.6592 756.50513 1294.6239 756.1162 1295.0698 C 755.42945 1295.8572 748.44277 1284.7999 691.15331 1192.2592 C 676.17174 1168.0593 657.49844 1137.9092 649.65722 1125.2592 C 641.81599 1112.6092 630.10744 1093.7092 623.63769 1083.2592 C 617.16793 1072.8092 605.32528 1053.6842 597.32128 1040.7592 C 589.31729 1027.8342 574.55427 1003.9842 564.51464 987.75923 C 554.475 971.53424 544.72291 955.78422 542.84276 952.75923 C 527.25991 927.68785 504.56761 891.04339 484.63378 858.75923 C 443.84894 792.70539 440.02517 786.62031 430.57714 772.75923 C 415.80098 751.08135 398.77588 719.95541 390.92089 700.25923 C 390.04349 698.05923 388.40371 693.97817 387.27831 691.19087 C 376.29142 663.98 367.38553 628.12879 363.07323 593.75923 C 354.10154 522.2522 366.88921 444.55361 398.54198 378.25727 C 418.76868 335.89262 442.72025 302.11909 476.59472 268.19673 C 501.22082 243.53585 528.45898 222.29545 556.63183 205.78266 C 566.26816 200.13457 597.90375 184.59317 607.63183 180.72798 C 634.90807 169.89029 662.7295 162.09504 689.13183 157.89204 C 712.17072 154.22444 715.54551 153.8435 735.77831 152.6479 C 741.44477 152.31307 747.19496 152.12525 753.00878 152.08149 z " /><path
       style="fill:#ffffff"
       d="m 738.97149,504.38524 c 14.98361,-7.7195 23.37284,-23.9469 20.30538,-39.2768 -4.81775,-24.077 -29.53051,-37.235 -51.59898,-27.473 -6.45382,2.8548 -15.01965,11.3267 -18.21158,18.0118 -3.75214,7.8585 -4.36804,19.2791 -1.48091,27.4606 3.59119,10.1767 11.75857,18.6783 21.84396,22.738 7.41766,2.9858 21.92265,2.2588 29.14213,-1.4606 z"
       id="path1437" /><path
       style="fill:#ffffff"
       d="m 865.76289,570.36894 c 24.00824,-6.3927 40.60488,-29.5692 39.106,-54.6099 -1.59874,-26.7088 -22.42935,-47.8798 -48.93941,-49.739 -25.59722,-1.7952 -48.85543,14.6677 -55.43549,39.239 -1.79921,6.7186 -1.71392,20.7314 0.1702,27.9651 2.3139,8.8836 6.19495,15.297 13.94999,23.052 11.28917,11.2892 20.94819,15.3089 37.0171,15.4052 4.95,0.03 11.30922,-0.5609 14.13161,-1.3124 z"
       id="path1435" /><path
       style="fill:#ffffff"
       d="m 753.5454,624.70534 c 6.04895,-2.2632 14.49577,-9.2592 18.12966,-15.0156 11.90739,-18.8626 2.69441,-46.0738 -18.2592,-53.9299 -7.92209,-2.9703 -21.50001,-2.536 -28.56462,0.9136 -30.03161,14.6643 -27.92976,57.4894 3.35914,68.4425 6.53885,2.2891 18.64387,2.0928 25.33502,-0.4106 z"
       id="path1433" /><g
       id="g4005"
       style="fill:#ffffff"><path
         style="fill:#ffffff"
         d="m 1049.665,512.97114 c -7.1941,-10.3608 -27.0728,-34.5169 -38.0292,-46.2121 -61.84308,-66.0135 -139.70015,-117.3114 -236.00452,-155.4971 -31.38516,-12.4445 -78.62455,-27.1585 -108.97547,-33.9434 -6.5865,-1.4724 -12.06779,-2.7694 -12.18063,-2.8822 -0.21139,-0.2114 8.74053,-59.0283 9.03552,-59.3661 0.46516,-0.5327 30.96611,5.1491 44.43041,8.2766 81.826,19.0065 160.85838,52.7077 230.19017,98.1586 58.68174,38.4691 111.71352,87.0905 154.95482,142.068 6.6249,8.4228 12.0452,15.6768 12.0452,16.1198 0,0.7755 -50.1388,39.1052 -51.0521,39.0279 -0.2463,-0.021 -2.2327,-2.6084 -4.4142,-5.75 z"
         id="path1439" /><path
         style="fill:#ffffff"
         d="m 556.55794,893.00904 c 0.32206,-1.5125 4.15864,-25.7 8.52573,-53.75 4.3671,-28.05 9.78602,-62.475 12.04205,-76.5 2.25604,-14.025 7.65953,-48.225 12.00776,-76 4.34824,-27.775 11.52958,-73.45 15.95855,-101.5 4.42896,-28.05 12.77521,-80.925 18.54721,-117.5 5.772,-36.575 13.65479,-86.525 17.5173,-111 3.86252,-24.475 7.51666,-47.7625 8.12031,-51.75 0.92448,-6.1067 1.40087,-7.25 3.02099,-7.25 2.52274,0 30.60742,7.0549 48.33344,12.1415 81.02068,23.2491 160.55481,61.9083 222,107.9075 39.76249,29.7671 77.50792,67.0997 105.25882,104.1076 3.9827,5.3112 7.2412,10.1227 7.2412,10.6922 0,0.5696 -11.5224,9.7241 -25.6052,20.3434 -14.08292,10.6193 -31.81796,24.0328 -39.41125,29.8078 -29.70891,22.5948 -40.12547,30.4873 -161.48357,122.3543 -20.35,15.4048 -41.5,31.4439 -47,35.6424 -5.5,4.1986 -26.875,20.402 -47.5,36.0077 -20.625,15.6057 -64.39476,48.7639 -97.26614,73.6848 -32.87138,24.9209 -60.01963,45.3108 -60.32945,45.3108 -0.30983,0 -0.29981,-1.2375 0.0223,-2.75 z"
         id="path1431" /></g></g></svg>
